<svg width="142" height="142" viewBox="0 0 142 142" fill="none" xmlns="http://www.w3.org/2000/svg">
<circle cx="71" cy="71" r="71" fill="#7DB0DE"/>
<g clip-path="url(#clip0_871_3615)">
<path d="M98.1519 127.207L122.862 53.5484C123.193 52.3386 123.226 51.0639 122.959 49.8276C122.692 48.5913 122.133 47.428 121.326 46.4318L92.1599 14.1195C90.5786 12.3702 88.7007 12.7201 87.9684 14.9029L63.2453 88.6012C62.9144 89.8116 62.8815 91.0869 63.1492 92.3236C63.4169 93.5603 63.9777 94.7237 64.786 95.7195L93.9655 127.992C95.5402 129.761 97.413 129.41 98.1519 127.207Z" fill="#E0E0E0"/>
<path d="M96.1977 127.604L120.914 53.925C121.247 52.7153 121.281 51.4404 121.014 50.2038C120.747 48.9671 120.187 47.8038 119.378 46.8084L90.2057 14.5159C88.6244 12.7666 86.7464 13.1164 86.0142 15.2993L61.2977 88.9778C60.9668 90.1882 60.9339 91.4635 61.2016 92.7002C61.4693 93.9369 62.0301 95.1003 62.8385 96.0961L91.9757 128.377C93.5773 130.133 95.4654 129.786 96.1977 127.604Z" fill="#F5F5F5"/>
<path d="M119.341 46.7933L93.032 17.6726C100.632 26.9641 116.342 44.378 118.141 47.0476C119.94 49.7172 120.785 51.3497 118.78 57.3255C116.776 63.3013 97.5571 123.542 97.5571 123.542L120.918 53.9073C121.244 52.6949 121.272 51.4187 120.998 50.1825C120.724 48.9462 120.156 47.785 119.341 46.7933Z" fill="#FAFAFA"/>
<path d="M102.598 33.0607C102.698 33.1872 102.765 33.3342 102.796 33.4898C102.826 33.6454 102.819 33.8051 102.774 33.9559L78.1105 107.415C78.0159 107.697 77.7878 107.752 77.5917 107.543C77.4942 107.416 77.4281 107.269 77.3985 107.114C77.3689 106.959 77.3767 106.8 77.4213 106.649L102.085 33.1898C102.186 32.8885 102.407 32.8532 102.598 33.0607Z" fill="#E0E0E0"/>
<g style="mix-blend-mode:hard-light" opacity="0.7">
<path d="M78.3363 93.1115C78.4149 92.8783 78.4726 92.6385 78.5088 92.3948C78.5271 92.3405 78.5494 92.1557 78.5509 92.1177C78.7551 90.0125 78.0949 87.8977 76.7151 86.2375L71.7043 80.6971L71.6566 80.6535C71.1301 80.0149 70.4402 79.5233 69.6595 79.2302C68.8787 78.9372 68.0358 78.8535 67.2192 78.988C66.4026 79.1225 65.6424 79.4703 65.0184 79.9947C64.3944 80.5192 63.9297 81.201 63.6729 81.9687C63.596 82.2026 63.54 82.443 63.5055 82.6871C63.4883 82.7793 63.476 82.8724 63.4686 82.966C63.2608 85.0675 63.9155 87.1802 65.289 88.8411L70.305 94.3831L70.3475 94.425C70.8737 95.0649 71.5637 95.5578 72.3451 95.8518C73.1264 96.1458 73.9701 96.23 74.7876 96.0956C75.6051 95.9612 76.366 95.6131 76.9905 95.088C77.615 94.5629 78.0799 93.8802 78.3363 93.1115Z" fill="#FAFAFA"/>
</g>
<path d="M67.5735 81.2185C66.8862 83.2674 67.6141 86.344 69.1947 88.0927L74.2057 93.6331C75.7863 95.3819 77.627 95.1408 78.3142 93.0919C79.0014 91.043 78.2736 87.9664 76.693 86.2177L71.682 80.6772C70.0794 78.9266 68.2557 79.1844 67.5735 81.2185Z" fill="#E0E0E0"/>
<path d="M69.3107 79.1121C68.1599 78.773 66.9284 78.8797 65.8738 79.4099C64.8192 79.9401 64.0232 80.8526 63.6524 81.9566C63.5755 82.1905 63.5194 82.431 63.485 82.6752C63.4677 82.7674 63.4554 82.8605 63.448 82.9541C63.2797 84.7608 63.7319 86.5828 64.7335 88.1332C63.7988 85.2664 63.3282 83.48 64.5021 81.3474C64.9643 80.5345 65.673 79.8845 66.5327 79.4848C67.3924 79.0852 68.3619 78.9551 69.3107 79.1121Z" fill="white"/>
<path d="M68.6535 90.7805C68.4528 90.5099 68.3279 90.1935 68.2915 89.8636C68.2551 89.5337 68.3084 89.2019 68.4461 88.9021C68.7857 88.0499 69.3277 87.2921 70.0281 86.6901C70.7285 86.0882 71.5675 85.6592 72.4769 85.4379C72.7992 85.3415 73.1437 85.3313 73.4748 85.4084C73.806 85.4855 74.1119 85.6471 74.3612 85.8766L77.049 88.8623C77.7291 89.6176 78.0798 90.6003 78.0239 91.5942C77.9681 92.5881 77.5102 93.5117 76.7511 94.162C75.992 94.8123 74.9937 95.1359 73.9761 95.0616C72.9584 94.9873 72.0046 94.5213 71.3244 93.766L68.6535 90.7805Z" fill="#F5F5F5"/>
<path d="M64.9493 86.6708C64.2924 85.9135 63.9602 84.9404 64.024 83.9603C64.0878 82.9802 64.5425 82.0712 65.2906 81.4283C66.0387 80.7855 67.0205 80.46 68.0253 80.5218C69.0302 80.5836 69.978 81.0276 70.6654 81.7587L74.3753 85.8813C74.126 85.6518 73.8201 85.4902 73.489 85.4131C73.1578 85.336 72.8133 85.3462 72.491 85.4426C71.5816 85.6639 70.7426 86.0929 70.0422 86.6948C69.3418 87.2968 68.7998 88.0546 68.4602 88.9068C68.3225 89.2066 68.2691 89.5384 68.3056 89.8683C68.342 90.1982 68.4669 90.5146 68.6676 90.7852L64.9493 86.6708Z" fill="#4B7FB0"/>
<path opacity="0.4" d="M67.5183 81.7444C67.2294 81.9932 67.0553 82.3458 67.0342 82.7249C67.0131 83.1041 67.1466 83.4789 67.4056 83.7675L71.8818 88.7423C72.5974 88.153 73.1432 87.3913 73.467 86.5297C73.4968 86.4409 73.5233 86.3619 73.5498 86.2829L69.6016 81.8931C69.4729 81.7486 69.3166 81.6299 69.1417 81.5441C68.9669 81.4582 68.777 81.4069 68.5832 81.3931C68.3893 81.3792 68.1954 81.4032 68.0126 81.4635C67.8298 81.5238 67.6618 81.6193 67.5183 81.7444Z" fill="white"/>
<path d="M68.6535 90.7805C68.4528 90.5099 68.3279 90.1935 68.2915 89.8636C68.2551 89.5337 68.3084 89.2019 68.4461 88.9021C68.7857 88.0499 69.3277 87.2921 70.0281 86.6901C70.7285 86.0882 71.5675 85.6592 72.4769 85.4379C72.7992 85.3415 73.1437 85.3313 73.4748 85.4084C73.806 85.4855 74.1119 85.6471 74.3612 85.8766L77.049 88.8623C77.7291 89.6176 78.0798 90.6003 78.0239 91.5942C77.9681 92.5881 77.5102 93.5117 76.7511 94.162C75.992 94.8123 74.9937 95.1359 73.9761 95.0616C72.9584 94.9873 72.0046 94.5213 71.3244 93.766L68.6535 90.7805Z" fill="#F5F5F5"/>
<path opacity="0.1" d="M72.4791 85.4382C71.5695 85.6595 70.7304 86.0886 70.0299 86.6906C69.3294 87.2927 68.7873 88.0506 68.4477 88.9029C68.31 89.2028 68.2566 89.5346 68.293 89.8646C68.3295 90.1945 68.4544 90.5109 68.6551 90.7816L68.4456 90.5459L68.2837 90.3702C68.082 90.1 67.9565 89.7836 67.92 89.4534C67.8835 89.1232 67.9375 88.7912 68.0763 88.4916C68.416 87.6393 68.9581 86.8813 69.6586 86.2793C70.359 85.6773 71.1982 85.2482 72.1078 85.0269C72.4301 84.9305 72.7746 84.9203 73.1059 84.9974C73.4371 85.0745 73.7431 85.2361 73.9923 85.4656L74.3637 85.8769C74.1144 85.6475 73.8084 85.4859 73.4772 85.4088C73.146 85.3316 72.8015 85.3418 72.4791 85.4382Z" fill="black"/>
<path d="M77.9423 92.1668C77.7992 92.8441 77.4656 93.4654 76.9788 93.9615C76.4919 94.4576 75.871 94.8089 75.1853 94.9762C74.4995 95.1435 73.7759 95.1203 73.0953 94.909C72.4146 94.6978 71.8037 94.3069 71.3306 93.7799L68.65 90.7917C68.4493 90.5211 68.3244 90.2049 68.288 89.875C68.2516 89.5452 68.3049 89.2135 68.4426 88.9137C68.5687 88.5494 68.7436 88.2039 68.9627 87.886L73.4536 92.865C74.9351 94.4865 77.5345 93.3149 77.9423 92.1668Z" fill="#E0E0E0"/>
<path d="M76.6394 91.8722C76.4962 91.9954 76.3289 92.0893 76.1471 92.1485C75.9654 92.2076 75.7728 92.2309 75.5804 92.217C75.3879 92.203 75.1995 92.1521 75.0258 92.0672C74.8521 91.9822 74.6965 91.8649 74.5681 91.722L70.0326 86.6889C70.7237 86.0719 71.5675 85.6401 72.4846 85.4343C72.571 85.4171 72.6584 85.4044 72.7463 85.3963L76.7589 89.8461C77.0181 90.1356 77.1512 90.5117 77.1287 90.8916C77.1063 91.2715 76.9303 91.6242 76.6394 91.8722Z" fill="white"/>
<path opacity="0.1" d="M65.6228 81.0887C65.6817 81.0481 65.744 81.0142 65.808 80.9753L65.941 80.8993C65.9899 80.8719 66.0421 80.851 66.096 80.8253L66.2578 80.748L66.3472 80.7177C66.5931 80.6228 66.8494 80.5545 67.1116 80.5141L67.4004 80.4798C66.1817 80.7387 64.6597 83.0997 66.1367 84.7366C66.6393 85.2967 67.389 86.1492 68.9512 87.8864C68.732 88.2045 68.5571 88.5502 68.4309 88.9146C68.2932 89.2145 68.2398 89.5463 68.2763 89.8763C68.3127 90.2063 68.4376 90.5226 68.6383 90.7933L64.9245 86.68C64.2447 85.925 63.8935 84.9432 63.9478 83.9496C64.002 82.956 64.4574 82.0317 65.2141 81.3794C65.3065 81.3062 65.399 81.233 65.4949 81.1664L65.6228 81.0887Z" fill="black"/>
<g style="mix-blend-mode:hard-light" opacity="0.7">
<path d="M97.1115 113.769C97.1891 113.536 97.2485 113.297 97.2891 113.054C97.3073 113 97.3246 112.813 97.326 112.775C97.5324 110.671 96.8739 108.557 95.4954 106.897L90.4794 101.355L90.4318 101.311C89.9052 100.672 89.2154 100.181 88.4346 99.8877C87.6538 99.5946 86.8109 99.511 85.9943 99.6455C85.1777 99.78 84.4175 100.128 83.7936 100.652C83.1696 101.177 82.7048 101.859 82.4481 102.626C82.3711 102.86 82.3151 103.1 82.2807 103.345C82.2641 103.394 82.255 103.539 82.2437 103.623C82.0348 105.725 82.6896 107.838 84.0642 109.499L89.0801 115.041L89.131 115.058C89.6571 115.698 90.3472 116.191 91.1285 116.485C91.9098 116.779 92.7536 116.863 93.571 116.728C94.3885 116.594 95.1495 116.246 95.7739 115.721C96.3984 115.196 96.8633 114.513 97.1198 113.744L97.1115 113.769Z" fill="#FAFAFA"/>
</g>
<path d="M86.379 101.886C85.6918 103.935 86.4129 107.015 87.9935 108.764L93.0095 114.306C94.5851 116.053 96.4257 115.812 97.113 113.763C97.8002 111.714 97.0724 108.637 95.4968 106.89L90.4808 101.348C88.9001 99.5995 87.0679 99.8324 86.379 101.886Z" fill="#E0E0E0"/>
<path d="M88.1113 99.7781C86.9605 99.4404 85.7296 99.5478 84.6753 100.078C83.621 100.608 82.8249 101.519 82.453 102.623C82.376 102.857 82.32 103.097 82.2855 103.341C82.2689 103.391 82.2598 103.536 82.2485 103.62C82.0803 105.427 82.5325 107.249 83.534 108.799C82.6044 105.934 82.1287 104.146 83.301 102.018C83.7637 101.205 84.4725 100.555 85.3323 100.155C86.1921 99.7541 87.1618 99.6228 88.1113 99.7781Z" fill="white"/>
<path d="M87.4438 111.443C87.2433 111.173 87.1183 110.858 87.0816 110.529C87.0449 110.2 87.0977 109.869 87.2348 109.57C87.5746 108.717 88.1168 107.958 88.8174 107.356C89.518 106.753 90.3573 106.323 91.2672 106.101C91.5896 106.004 91.934 105.994 92.2652 106.071C92.5963 106.148 92.9023 106.31 93.1515 106.539L95.8393 109.525C96.1763 109.898 96.4361 110.331 96.6038 110.8C96.7715 111.268 96.8439 111.762 96.8169 112.254C96.7899 112.746 96.6639 113.226 96.4462 113.666C96.2285 114.107 95.9233 114.499 95.5481 114.821C95.1729 115.144 94.735 115.389 94.2594 115.544C93.7838 115.699 93.2798 115.76 92.7762 115.724C92.2726 115.688 91.7793 115.555 91.3244 115.333C90.8695 115.112 90.4619 114.805 90.1249 114.432L87.4438 111.443Z" fill="#F5F5F5"/>
<path d="M83.7346 107.332C83.0541 106.578 82.7024 105.596 82.757 104.603C82.8116 103.61 83.268 102.686 84.0258 102.035C84.7836 101.385 85.7807 101.06 86.7977 101.133C87.8148 101.206 88.7685 101.671 89.449 102.425L93.1605 106.542C92.9113 106.313 92.6054 106.151 92.2742 106.074C91.9431 105.997 91.5986 106.007 91.2763 106.103C90.3664 106.326 89.5271 106.756 88.8265 107.359C88.1259 107.961 87.5837 108.72 87.2438 109.573C87.1068 109.872 87.0539 110.203 87.0906 110.532C87.1274 110.861 87.2523 111.176 87.4529 111.446L83.7346 107.332Z" fill="#4B7FB0"/>
<path opacity="0.4" d="M86.3189 102.41C86.1752 102.533 86.0583 102.683 85.9749 102.851C85.8914 103.02 85.8431 103.203 85.8326 103.391C85.8221 103.579 85.8497 103.768 85.9138 103.946C85.9779 104.125 86.0773 104.291 86.2062 104.433L90.6807 109.413C91.3951 108.823 91.9406 108.061 92.2659 107.201C92.2941 107.117 92.3222 107.033 92.3487 106.954L88.4006 102.564C88.2722 102.419 88.1163 102.301 87.9418 102.214C87.7673 102.128 87.5777 102.077 87.384 102.062C87.1903 102.048 86.9965 102.071 86.8136 102.131C86.6308 102.191 86.4626 102.286 86.3189 102.41Z" fill="white"/>
<path d="M87.4438 111.443C87.2433 111.173 87.1183 110.858 87.0816 110.529C87.0449 110.2 87.0977 109.869 87.2348 109.57C87.5746 108.717 88.1168 107.958 88.8174 107.356C89.518 106.753 90.3573 106.323 91.2672 106.101C91.5896 106.004 91.934 105.994 92.2652 106.071C92.5963 106.148 92.9023 106.31 93.1515 106.539L95.8393 109.525C96.1763 109.898 96.4361 110.331 96.6038 110.8C96.7715 111.268 96.8439 111.762 96.8169 112.254C96.7899 112.746 96.6639 113.226 96.4462 113.666C96.2285 114.107 95.9233 114.499 95.5481 114.821C95.1729 115.144 94.735 115.389 94.2594 115.544C93.7838 115.699 93.2798 115.76 92.7762 115.724C92.2726 115.688 91.7793 115.555 91.3244 115.333C90.8695 115.112 90.4619 114.805 90.1249 114.432L87.4438 111.443Z" fill="#F5F5F5"/>
<path opacity="0.1" d="M91.2797 106.104C90.3696 106.327 89.5302 106.757 88.8295 107.359C88.1288 107.962 87.5865 108.721 87.2466 109.574C87.1095 109.873 87.0567 110.204 87.0934 110.533C87.1301 110.862 87.2551 111.178 87.4557 111.448L87.2445 111.217L87.0843 111.036C86.8827 110.767 86.7571 110.451 86.7203 110.122C86.6836 109.793 86.7371 109.462 86.8752 109.163C87.2151 108.31 87.7574 107.551 88.4581 106.948C89.1588 106.345 89.9983 105.915 90.9083 105.693C91.2307 105.597 91.5752 105.586 91.9064 105.663C92.2376 105.741 92.5436 105.902 92.7929 106.132L93.1643 106.543C92.915 106.314 92.609 106.152 92.2778 106.075C91.9466 105.998 91.6021 106.008 91.2797 106.104Z" fill="black"/>
<path d="M96.7427 112.833C96.5996 113.51 96.2661 114.131 95.7792 114.628C95.2924 115.124 94.6715 115.475 93.9857 115.642C93.3 115.81 92.5764 115.786 91.8957 115.575C91.2151 115.364 90.6042 114.973 90.1311 114.446L87.4436 111.444C87.2431 111.175 87.1181 110.859 87.0814 110.53C87.0447 110.201 87.0975 109.871 87.2346 109.571C87.3612 109.205 87.5366 108.858 87.7564 108.539C89.3299 110.274 91.2458 112.405 92.2472 113.518C93.7339 115.157 96.3333 113.986 96.7427 112.833Z" fill="#E0E0E0"/>
<path d="M95.435 112.553C95.2917 112.676 95.1244 112.77 94.9427 112.829C94.7609 112.888 94.5683 112.912 94.3759 112.898C94.1835 112.884 93.995 112.833 93.8213 112.748C93.6476 112.663 93.4921 112.546 93.3636 112.403L88.8281 107.37C89.5192 106.753 90.3631 106.321 91.2801 106.115C91.3713 106.096 91.4591 106.088 91.5418 106.077L95.5545 110.527C95.8123 110.817 95.9445 111.193 95.9221 111.572C95.8997 111.952 95.7246 112.304 95.435 112.553Z" fill="white"/>
<path opacity="0.1" d="M84.4217 101.76C84.4813 101.719 84.5431 101.681 84.6069 101.646C84.6492 101.618 84.6936 101.592 84.7399 101.57L84.8965 101.491C84.95 101.464 85.0052 101.441 85.0617 101.421C85.0936 101.405 85.1277 101.395 85.1629 101.389C85.4093 101.292 85.6661 101.222 85.929 101.18C86.0185 101.167 86.1131 101.155 86.2111 101.149C84.994 101.403 83.4703 103.769 84.949 105.401C85.4516 105.961 86.2064 106.816 87.7635 108.551C87.5437 108.871 87.3682 109.218 87.2416 109.584C87.1045 109.883 87.0516 110.214 87.0884 110.544C87.1251 110.873 87.2501 111.188 87.4507 111.458L83.7369 107.345C83.0569 106.59 82.7059 105.607 82.7612 104.614C82.8164 103.62 83.2733 102.697 84.0315 102.046C84.1196 101.97 84.2116 101.898 84.3072 101.831L84.4217 101.76Z" fill="black"/>
<g style="mix-blend-mode:hard-light" opacity="0.7">
<path d="M84.5628 74.5675C84.6419 74.3326 84.7002 74.0912 84.737 73.8458C84.7535 73.7965 84.7776 73.6067 84.7773 73.5737C84.8797 72.5306 84.7704 71.4739 84.4557 70.4641C84.141 69.4543 83.627 68.5111 82.9433 67.6885L77.9324 62.1481L77.8765 62.1293C77.3499 61.4906 76.6601 60.999 75.8793 60.7059C75.0985 60.4129 74.2556 60.3292 73.439 60.4638C72.6224 60.5983 71.8622 60.946 71.2383 61.4705C70.6143 61.9949 70.1495 62.6768 69.8928 63.4444C69.8158 63.6783 69.7598 63.9187 69.7253 64.1629C69.7072 64.2549 69.6948 64.348 69.6884 64.4417C69.48 66.5445 70.134 68.6588 71.5072 70.3217L76.5232 75.8638L76.574 75.8809C77.1002 76.5209 77.7902 77.0138 78.5715 77.3078C79.3528 77.6017 80.1966 77.686 81.0141 77.5516C81.8315 77.4172 82.5925 77.0691 83.217 76.544C83.8415 76.0189 84.3064 75.3361 84.5628 74.5675Z" fill="#FAFAFA"/>
</g>
<path d="M73.7998 62.6744C73.1142 64.7183 73.8404 67.7998 75.421 69.5486L80.432 75.089C82.0126 76.8377 83.8533 76.5966 84.5389 74.5527C85.2244 72.5087 84.4983 69.4272 82.9193 67.6736L77.9083 62.1331C76.3074 60.3775 74.487 60.6255 73.7998 62.6744Z" fill="#E0E0E0"/>
<path d="M75.5388 60.563C74.388 60.2253 73.157 60.3327 72.1028 60.8627C71.0485 61.3927 70.2524 62.3044 69.8805 63.4076C69.8035 63.6415 69.7475 63.882 69.713 64.1262C69.6948 64.2182 69.6825 64.3114 69.676 64.4051C69.5078 66.2118 69.96 68.0338 70.9615 69.5842C70.0268 66.7174 69.5562 64.931 70.7285 62.8033C71.1912 61.9902 71.9 61.3399 72.7598 60.9394C73.6196 60.539 74.5893 60.4077 75.5388 60.563Z" fill="white"/>
<path d="M74.8816 72.2315C74.6758 71.9614 74.5468 71.6438 74.5079 71.3116C74.469 70.9795 74.5217 70.645 74.6606 70.343C75.0004 69.4901 75.5426 68.7316 76.2432 68.1289C76.9438 67.5262 77.7831 67.0962 78.693 66.8738C79.0155 66.7779 79.36 66.7684 79.691 66.8464C80.0219 66.9244 80.3274 67.087 80.5756 67.3175L83.2651 70.2983C83.6032 70.6716 83.864 71.105 84.0328 71.5737C84.2016 72.0423 84.2749 72.537 84.2487 73.0296C84.2224 73.5222 84.0971 74.003 83.8798 74.4446C83.6626 74.8862 83.3576 75.2798 82.9824 75.6031C82.6072 75.9264 82.1691 76.173 81.6931 76.3288C81.2171 76.4846 80.7124 76.5466 80.2081 76.5112C79.7037 76.4758 79.2094 76.3437 78.7535 76.1225C78.2976 75.9013 77.8889 75.5953 77.5508 75.222L74.8816 72.2315Z" fill="#F5F5F5"/>
<path d="M71.1775 68.1218C70.8405 67.7485 70.5807 67.3153 70.413 66.8471C70.2453 66.3789 70.1729 65.8848 70.1999 65.3929C70.2269 64.9011 70.3529 64.4212 70.5706 63.9807C70.7883 63.5401 71.0935 63.1475 71.4687 62.8253C71.8439 62.5031 72.2818 62.2576 72.7574 62.1028C73.233 61.948 73.737 61.8869 74.2406 61.923C74.7442 61.9592 75.2375 62.0919 75.6924 62.3135C76.1473 62.5351 76.5549 62.8413 76.8919 63.2147L80.6017 67.3372C80.3535 67.1067 80.0481 66.9441 79.7171 66.8661C79.3862 66.7881 79.0416 66.7976 78.7191 66.8936C77.8071 67.111 76.9646 67.5369 76.2601 68.1364C75.5556 68.736 75.009 69.4924 74.6646 70.3442C74.527 70.6434 74.4738 70.9745 74.5106 71.3036C74.5473 71.6328 74.6726 71.9483 74.8736 72.2177L71.1775 68.1218Z" fill="#4B7FB0"/>
<path opacity="0.4" d="M73.7464 63.1954C73.457 63.4449 73.2825 63.7981 73.2611 64.1781C73.2396 64.558 73.373 64.9338 73.632 65.2234L78.1082 70.1983C78.8233 69.6085 79.3689 68.8469 79.6934 67.9857C79.7215 67.9017 79.748 67.8227 79.7745 67.7438L75.8264 63.354C75.6984 63.2092 75.5428 63.0902 75.3686 63.0038C75.1944 62.9174 75.0051 62.8653 74.8117 62.8505C74.6182 62.8358 74.4244 62.8587 74.2416 62.9179C74.0587 62.9771 73.8904 63.0714 73.7464 63.1954Z" fill="white"/>
<path d="M74.8816 72.2315C74.6758 71.9614 74.5468 71.6438 74.5079 71.3116C74.469 70.9795 74.5217 70.645 74.6606 70.343C75.0004 69.4901 75.5426 68.7316 76.2432 68.1289C76.9438 67.5262 77.7831 67.0962 78.693 66.8738C79.0155 66.7779 79.36 66.7684 79.691 66.8464C80.0219 66.9244 80.3274 67.087 80.5756 67.3175L83.2651 70.2983C83.6032 70.6716 83.864 71.105 84.0328 71.5737C84.2016 72.0423 84.2749 72.537 84.2487 73.0296C84.2224 73.5222 84.0971 74.003 83.8798 74.4446C83.6626 74.8862 83.3576 75.2798 82.9824 75.6031C82.6072 75.9264 82.1691 76.173 81.6931 76.3288C81.2171 76.4846 80.7124 76.5466 80.2081 76.5112C79.7037 76.4758 79.2094 76.3437 78.7535 76.1225C78.2976 75.9013 77.8889 75.5953 77.5508 75.222L74.8816 72.2315Z" fill="#F5F5F5"/>
<path opacity="0.1" d="M78.7072 66.8892C77.7965 67.1084 76.9557 67.5355 76.2529 68.1357C75.5502 68.7359 75.0052 69.4923 74.6622 70.3438C74.5245 70.643 74.4714 70.9741 74.5081 71.3033C74.5448 71.6325 74.6702 71.948 74.8712 72.2176L74.6736 71.9969L74.5134 71.8163C74.3113 71.5472 74.1854 71.2317 74.1486 70.9022C74.1119 70.5728 74.1656 70.2415 74.3044 69.9426C74.6443 69.0896 75.1866 68.331 75.8873 67.7282C76.588 67.1253 77.4274 66.6953 78.3375 66.4729C78.66 66.3769 79.0046 66.3675 79.3356 66.4455C79.6666 66.5235 79.9721 66.6861 80.2204 66.9166L80.5917 67.3279C80.3428 67.098 80.0368 66.9361 79.7055 66.859C79.3741 66.7818 79.0295 66.7923 78.7072 66.8892Z" fill="black"/>
<path d="M84.1703 73.6177C84.0272 74.295 83.6936 74.9163 83.2068 75.4124C82.72 75.9085 82.099 76.2598 81.4133 76.4271C80.7275 76.5944 80.004 76.5712 79.3233 76.36C78.6426 76.1487 78.0317 75.7578 77.5586 75.2309L74.8796 72.2377C74.6732 71.967 74.544 71.6485 74.5054 71.3154C74.4668 70.9824 74.5203 70.6471 74.6603 70.3447C74.7873 69.9789 74.9627 69.6318 75.1821 69.312L79.673 74.2911C81.1614 75.9424 83.7592 74.7757 84.1703 73.6177Z" fill="#E0E0E0"/>
<path d="M82.8658 73.3281C82.5758 73.5757 82.1951 73.6989 81.8069 73.6707C81.4187 73.6426 81.0546 73.4654 80.7945 73.1779L76.259 68.1448C76.9493 67.5248 77.794 67.0912 78.7126 66.8853L78.9743 66.8473L82.987 71.2971C83.2462 71.5876 83.379 71.9646 83.3563 72.3453C83.3336 72.7261 83.1572 73.0795 82.8658 73.3281Z" fill="white"/>
<path opacity="0.1" d="M71.8492 62.5446C71.9088 62.5037 71.9706 62.4658 72.0344 62.4312C72.0767 62.4027 72.1212 62.3773 72.1674 62.3552C72.2173 62.3272 72.2691 62.3025 72.3224 62.2811L72.4841 62.2038L72.5735 62.1736C72.8199 62.077 73.0767 62.0071 73.3396 61.9651L73.6268 61.9357C72.4097 62.1897 70.886 64.5556 72.363 66.1925C72.8673 66.7477 73.617 67.6002 75.1776 69.3423C74.9639 69.6535 74.7918 69.9907 74.6655 70.3458C74.5279 70.645 74.4747 70.9761 74.5115 71.3053C74.5482 71.6345 74.6735 71.95 74.8746 72.2195L71.1608 68.1063C70.4811 67.3523 70.1296 66.3714 70.1836 65.3786C70.2375 64.3858 70.6925 63.4623 71.4487 62.8106C71.5428 62.7324 71.6336 62.6642 71.7295 62.5976C71.7676 62.5763 71.8076 62.5585 71.8492 62.5446Z" fill="black"/>
<g style="mix-blend-mode:hard-light" opacity="0.7">
<path d="M103.338 95.2249C103.416 94.99 103.476 94.7493 103.517 94.505C103.534 94.4556 103.551 94.2691 103.552 94.2311C103.655 93.1892 103.546 92.1338 103.232 91.125C102.918 90.1163 102.405 89.1742 101.722 88.3525L96.7057 82.8105L96.6581 82.7669C96.1304 82.1295 95.4399 81.6392 94.659 81.3472C93.8781 81.0553 93.0354 80.9725 92.2191 81.1074C91.4028 81.2424 90.643 81.5901 90.0191 82.1143C89.3952 82.6385 88.9302 83.3198 88.6728 84.087C88.5964 84.3193 88.5409 84.558 88.507 84.8005C88.4888 84.8548 88.4796 85.0001 88.4701 85.0793C88.2605 87.1822 88.9146 89.297 90.2889 90.9594L95.3048 96.5014L95.3474 96.5433C95.8735 97.1832 96.5636 97.6761 97.3449 97.9701C98.1262 98.2641 98.97 98.3483 99.7874 98.2139C100.605 98.0795 101.366 97.7315 101.99 97.2063C102.615 96.6812 103.08 95.9985 103.336 95.2298L103.338 95.2249Z" fill="#FAFAFA"/>
</g>
<path d="M92.6054 83.3421C91.9182 85.391 92.6409 88.4659 94.2215 90.2146L99.2376 95.7568C100.813 97.5038 102.654 97.2627 103.339 95.2187C104.025 93.1748 103.299 90.0932 101.723 88.3462L96.7072 82.8041C95.1282 81.0504 93.2926 81.2932 92.6054 83.3421Z" fill="#E0E0E0"/>
<path d="M94.3376 81.234C93.1868 80.8949 91.9553 81.0017 90.9006 81.5318C89.846 82.062 89.0501 82.9745 88.6793 84.0785C88.6029 84.3108 88.5474 84.5497 88.5135 84.7922C88.4952 84.8465 88.4861 84.9919 88.4765 85.0711C88.3066 86.8779 88.7589 88.7004 89.762 90.2502C88.8324 87.3851 88.3551 85.6019 89.529 83.4693C89.9912 82.6564 90.6998 82.0064 91.5595 81.6068C92.4192 81.2071 93.3888 81.077 94.3376 81.234Z" fill="white"/>
<path d="M93.6702 92.899C93.4695 92.6284 93.3446 92.3121 93.3082 91.9821C93.2718 91.6522 93.3251 91.3205 93.4628 91.0206C93.803 90.168 94.3454 89.4097 95.0459 88.807C95.7464 88.2043 96.5855 87.7742 97.4953 87.5514C97.8177 87.4555 98.1623 87.446 98.4932 87.524C98.8242 87.602 99.1296 87.7646 99.3778 87.9951L102.067 90.9759C102.417 91.3476 102.688 91.7822 102.866 92.2544C103.043 92.7266 103.124 93.2269 103.101 93.7259C103.079 94.2249 102.956 94.7126 102.738 95.1605C102.519 95.6084 102.211 96.0074 101.831 96.3342C101.45 96.661 101.006 96.909 100.523 97.0637C100.04 97.2185 99.5281 97.2767 99.0178 97.2352C98.5075 97.1936 98.0089 97.0531 97.551 96.8217C97.0931 96.5904 96.6853 96.273 96.3513 95.888L93.6702 92.899Z" fill="#F5F5F5"/>
<path d="M89.9626 88.7827C89.2821 88.0287 88.9305 87.0471 88.9851 86.0538C89.0397 85.0606 89.4961 84.137 90.2538 83.4862C91.0116 82.8355 92.0087 82.5109 93.0257 82.5839C94.0428 82.657 94.9965 83.1216 95.6771 83.8756L99.3869 87.9981C99.1387 87.7676 98.8333 87.605 98.5023 87.527C98.1713 87.449 97.8268 87.4585 97.5043 87.5545C96.5946 87.7772 95.7555 88.2073 95.0549 88.81C94.3544 89.4127 93.8121 90.171 93.4718 91.0236C93.3341 91.3235 93.2808 91.6552 93.3172 91.9852C93.3536 92.3151 93.4786 92.6314 93.6792 92.902L89.9626 88.7827Z" fill="#4B7FB0"/>
<path opacity="0.4" d="M92.5469 83.8614C92.2575 84.1109 92.0831 84.4641 92.0616 84.8441C92.0402 85.224 92.1735 85.5998 92.4325 85.8894L96.9087 90.8643C97.6238 90.2745 98.1695 89.5129 98.4939 88.6517C98.5221 88.5677 98.5486 88.4888 98.5751 88.4098L94.6269 84.02C94.4985 83.8758 94.3428 83.7574 94.1686 83.6713C93.9945 83.5853 93.8054 83.5334 93.6121 83.5187C93.4188 83.504 93.2252 83.5267 93.0424 83.5855C92.8597 83.6443 92.6913 83.7381 92.5469 83.8614Z" fill="white"/>
<path d="M93.6702 92.899C93.4695 92.6284 93.3446 92.3121 93.3082 91.9821C93.2718 91.6522 93.3251 91.3205 93.4628 91.0206C93.803 90.168 94.3454 89.4097 95.0459 88.807C95.7464 88.2043 96.5855 87.7742 97.4953 87.5514C97.8177 87.4555 98.1623 87.446 98.4932 87.524C98.8242 87.602 99.1296 87.7646 99.3778 87.9951L102.067 90.9759C102.417 91.3476 102.688 91.7822 102.866 92.2544C103.043 92.7266 103.124 93.2269 103.101 93.7259C103.079 94.2249 102.956 94.7126 102.738 95.1605C102.519 95.6084 102.211 96.0074 101.831 96.3342C101.45 96.661 101.006 96.909 100.523 97.0637C100.04 97.2185 99.5281 97.2767 99.0178 97.2352C98.5075 97.1936 98.0089 97.0531 97.551 96.8217C97.0931 96.5904 96.6853 96.273 96.3513 95.888L93.6702 92.899Z" fill="#F5F5F5"/>
<path opacity="0.1" d="M97.5077 87.5552C96.5978 87.7779 95.7586 88.2081 95.058 88.8109C94.3573 89.4137 93.8149 90.1721 93.4746 91.0248C93.3369 91.3247 93.2835 91.6565 93.32 91.9865C93.3564 92.3165 93.4813 92.6329 93.682 92.9035L93.4725 92.6678L93.3123 92.4873C93.1097 92.2184 92.9834 91.9028 92.9467 91.5733C92.9099 91.2437 92.964 90.9123 93.1032 90.6135C93.4435 89.7608 93.9859 89.0023 94.6866 88.3996C95.3873 87.7968 96.2265 87.3666 97.1363 87.1439C97.4589 87.0479 97.8034 87.0384 98.1345 87.1164C98.4655 87.1944 98.7709 87.3571 99.0192 87.5876L99.3906 87.9989C99.1423 87.7684 98.8369 87.6057 98.5058 87.5277C98.1748 87.4497 97.8302 87.4592 97.5077 87.5552Z" fill="black"/>
<path d="M102.969 94.2887C102.805 95.0629 102.39 95.7606 101.787 96.2796C101.029 96.9306 100.031 97.2555 99.0138 97.1828C97.9963 97.1101 97.0421 96.6458 96.3609 95.892L93.67 92.9003C93.4694 92.6297 93.3445 92.3135 93.3081 91.9836C93.2717 91.6538 93.325 91.3221 93.4627 91.0223C93.5896 90.6565 93.765 90.3094 93.9845 89.9896L98.4753 94.9687C99.962 96.6084 102.56 95.4418 102.969 94.2887Z" fill="#E0E0E0"/>
<path d="M101.666 93.9941C101.523 94.1174 101.356 94.2113 101.174 94.2704C100.992 94.3296 100.8 94.3529 100.607 94.3389C100.415 94.325 100.226 94.2741 100.053 94.1891C99.8789 94.1042 99.7234 93.9869 99.5949 93.8439L95.0595 88.8108C95.7509 88.1923 96.5952 87.759 97.5131 87.5513L97.7732 87.5183L101.786 91.968C101.915 92.1111 102.014 92.2771 102.078 92.4566C102.142 92.636 102.169 92.8254 102.158 93.0137C102.147 93.202 102.098 93.3856 102.013 93.5539C101.929 93.7221 101.811 93.8717 101.666 93.9941Z" fill="white"/>
<path opacity="0.1" d="M90.6497 83.2106C90.7093 83.1697 90.7711 83.1319 90.8349 83.0973C90.877 83.073 90.9207 83.0438 90.9679 83.0213L91.1229 82.9472L91.2897 82.8716L91.3741 82.8396C91.62 82.7447 91.8763 82.6764 92.1384 82.6361C92.2318 82.6171 92.3267 82.605 92.4222 82.6C91.2051 82.854 89.6815 85.2199 91.1585 86.8568C91.661 87.4169 92.4159 88.2712 93.973 90.0066C93.7535 90.3265 93.578 90.6738 93.451 91.0397C93.3133 91.3397 93.26 91.6715 93.2964 92.0014C93.3328 92.3314 93.4577 92.6478 93.6585 92.9185L89.9463 88.8002C89.609 88.4272 89.3489 87.9943 89.181 87.5261C89.0131 87.058 88.9407 86.5639 88.9679 86.0721C88.9952 85.5803 89.1215 85.1005 89.3396 84.6602C89.5578 84.22 89.8635 83.8278 90.2393 83.5063C90.3274 83.4302 90.4194 83.3585 90.515 83.2916L90.6497 83.2106Z" fill="black"/>
<g style="mix-blend-mode:hard-light" opacity="0.7">
<path d="M90.7908 56.0184C90.8694 55.7852 90.9271 55.5454 90.9633 55.3017C90.9815 55.2474 91.0039 55.0625 91.0053 55.0245C91.2096 52.9194 90.5493 50.8045 89.1696 49.1443L84.1587 43.604L84.1111 43.5604C83.5846 42.9218 82.8947 42.4301 82.1139 42.1371C81.3331 41.844 80.4902 41.7604 79.6736 41.8949C78.857 42.0294 78.0969 42.3771 77.4729 42.9016C76.8489 43.4261 76.3842 44.1079 76.1274 44.8756C76.0505 45.1095 75.9944 45.3499 75.96 45.594C75.9427 45.6862 75.9304 45.7792 75.923 45.8728C75.7153 47.9743 76.37 50.0871 77.7435 51.7479L82.7595 57.29L82.8103 57.3071C83.3365 57.9471 84.0265 58.44 84.8078 58.734C85.5891 59.028 86.4329 59.1122 87.2503 58.9778C88.0678 58.8434 88.8288 58.4953 89.4533 57.9702C90.0777 57.4451 90.5426 56.7623 90.7991 55.9937L90.7908 56.0184Z" fill="#FAFAFA"/>
</g>
<path d="M80.0328 44.1105C79.3456 46.1594 80.0734 49.236 81.654 50.9847L86.665 56.5252C88.2456 58.2739 90.0863 58.0328 90.7735 55.9839C91.4607 53.935 90.7329 50.8584 89.1523 49.1097L84.1413 43.5692C82.5337 41.8334 80.7134 42.0814 80.0328 44.1105Z" fill="#E0E0E0"/>
<path d="M81.7652 42.0189C80.6144 41.6799 79.3829 41.7866 78.3282 42.3167C77.2736 42.8469 76.4777 43.7595 76.1069 44.8634C76.0299 45.0974 75.9739 45.3378 75.9394 45.5821C75.9222 45.6743 75.9099 45.7674 75.9025 45.861C75.7342 47.6677 76.1864 49.4896 77.1879 51.0401C76.2533 48.1733 75.7827 46.3868 76.9566 44.2542C77.4188 43.4413 78.1274 42.7913 78.9872 42.3917C79.8469 41.992 80.8164 41.8619 81.7652 42.0189Z" fill="white"/>
<path d="M81.108 53.6873C80.9073 53.4167 80.7824 53.1004 80.746 52.7705C80.7095 52.4406 80.7629 52.1088 80.9006 51.8089C81.2402 50.9568 81.7822 50.1989 82.4826 49.597C83.1829 48.9951 84.0219 48.566 84.9314 48.3447C85.2537 48.2484 85.5982 48.2382 85.9293 48.3153C86.2605 48.3924 86.5664 48.554 86.8156 48.7834L89.5035 51.7692C89.8402 52.1432 90.0997 52.5769 90.2669 53.0456C90.4342 53.5144 90.5061 54.0089 90.4784 54.501C90.4507 54.9932 90.3241 55.4732 90.1057 55.9138C89.8873 56.3544 89.5814 56.7469 89.2055 57.0689C88.8297 57.3908 88.3911 57.636 87.915 57.7904C87.4389 57.9447 86.9344 58.0052 86.4305 57.9685C85.9266 57.9317 85.4331 57.7984 84.9781 57.5761C84.5232 57.3538 84.1157 57.0469 83.7789 56.6729L81.108 53.6873Z" fill="#F5F5F5"/>
<path d="M77.4038 49.5777C76.7469 48.8204 76.4147 47.8473 76.4785 46.8672C76.5423 45.8871 76.997 44.9781 77.7451 44.3352C78.4931 43.6924 79.4749 43.3669 80.4798 43.4286C81.4846 43.4904 82.4325 43.9345 83.1199 44.6656L86.8297 48.7881C86.5805 48.5587 86.2746 48.3971 85.9434 48.32C85.6123 48.2429 85.2678 48.2531 84.9455 48.3494C84.036 48.5707 83.197 48.9998 82.4966 49.6017C81.7963 50.2036 81.2543 50.9615 80.9146 51.8136C80.777 52.1135 80.7236 52.4453 80.76 52.7752C80.7965 53.1051 80.9214 53.4214 81.122 53.6921L77.4038 49.5777Z" fill="#4B7FB0"/>
<path opacity="0.4" d="M79.9761 44.6414C79.6872 44.8902 79.5131 45.2427 79.492 45.6219C79.4709 46.001 79.6044 46.3759 79.8634 46.6644L84.3395 51.6393C85.0552 51.05 85.6009 50.2882 85.9248 49.4267C85.9546 49.3378 85.9811 49.2588 86.0076 49.1798L82.0476 44.7916C81.9191 44.6486 81.7636 44.5313 81.5899 44.4464C81.4162 44.3614 81.2277 44.3105 81.0352 44.2966C80.8428 44.2826 80.6502 44.3059 80.4684 44.3651C80.2867 44.4242 80.1194 44.5181 79.9761 44.6414Z" fill="white"/>
<path d="M81.108 53.6873C80.9073 53.4167 80.7824 53.1004 80.746 52.7705C80.7095 52.4406 80.7629 52.1088 80.9006 51.8089C81.2402 50.9568 81.7822 50.1989 82.4826 49.597C83.1829 48.9951 84.0219 48.566 84.9314 48.3447C85.2537 48.2484 85.5982 48.2382 85.9293 48.3153C86.2605 48.3924 86.5664 48.554 86.8156 48.7834L89.5035 51.7692C89.8402 52.1432 90.0997 52.5769 90.2669 53.0456C90.4342 53.5144 90.5061 54.0089 90.4784 54.501C90.4507 54.9932 90.3241 55.4732 90.1057 55.9138C89.8873 56.3544 89.5814 56.7469 89.2055 57.0689C88.8297 57.3908 88.3911 57.636 87.915 57.7904C87.4389 57.9447 86.9344 58.0052 86.4305 57.9685C85.9266 57.9317 85.4331 57.7984 84.9781 57.5761C84.5232 57.3538 84.1157 57.0469 83.7789 56.6729L81.108 53.6873Z" fill="#F5F5F5"/>
<path opacity="0.1" d="M84.9336 48.345C84.024 48.5664 83.1849 48.9955 82.4844 49.5975C81.7839 50.1995 81.2418 50.9575 80.9022 51.8097C80.7644 52.1097 80.7111 52.4415 80.7475 52.7714C80.7839 53.1014 80.9089 53.4178 81.1096 53.6884L80.9 53.4527L80.7382 53.2771C80.5365 53.0069 80.4109 52.6904 80.3745 52.3603C80.338 52.0301 80.392 51.6981 80.5308 51.3984C80.8704 50.5461 81.4125 49.7882 82.113 49.1862C82.8135 48.5842 83.6526 48.1551 84.5622 47.9337C84.8846 47.8373 85.2291 47.8272 85.5603 47.9043C85.8915 47.9814 86.1975 48.143 86.4468 48.3725L86.8181 48.7838C86.5689 48.5543 86.2629 48.3927 85.9317 48.3156C85.6005 48.2385 85.256 48.2487 84.9336 48.345Z" fill="black"/>
<path d="M90.3966 55.0736C90.2535 55.7509 89.9199 56.3722 89.4331 56.8683C88.9463 57.3644 88.3254 57.7157 87.6396 57.883C86.9539 58.0503 86.2303 58.0271 85.5496 57.8158C84.869 57.6046 84.258 57.2137 83.785 56.6868L81.1043 53.6985C80.9037 53.428 80.7788 53.1117 80.7424 52.7818C80.7059 52.452 80.7593 52.1203 80.897 51.8205C81.0231 51.4563 81.1979 51.1107 81.4171 50.7928L85.9079 55.7718C87.3894 57.3933 89.9872 56.2267 90.3966 55.0736Z" fill="#E0E0E0"/>
<path d="M89.0939 54.779C88.9506 54.9023 88.7833 54.9962 88.6016 55.0553C88.4199 55.1145 88.2273 55.1378 88.0348 55.1238C87.8424 55.1099 87.6539 55.059 87.4802 54.974C87.3065 54.8891 87.151 54.7718 87.0226 54.6289L82.4871 49.5957C83.1782 48.9787 84.022 48.547 84.9391 48.3412C85.0255 48.3239 85.1128 48.3112 85.2008 48.3032L89.2134 52.7529C89.4726 53.0425 89.6056 53.4185 89.5832 53.7985C89.5608 54.1784 89.3848 54.5311 89.0939 54.779Z" fill="white"/>
<path opacity="0.1" d="M78.0756 44.0005L78.2608 43.8871L78.3938 43.8111L78.5488 43.7371L78.7106 43.6598L78.7999 43.6295C79.0466 43.5366 79.3027 43.4684 79.5643 43.4259L79.8532 43.3916C78.6344 43.6505 77.1124 46.0115 78.5894 47.6484C79.092 48.2085 79.8417 49.061 81.404 50.7982C81.1848 51.1163 81.0098 51.462 80.8837 51.8264C80.7459 52.1263 80.6926 52.4581 80.729 52.7881C80.7655 53.1181 80.8904 53.4344 81.0911 53.7051L77.3773 49.5918C76.6975 48.8368 76.3463 47.8549 76.4005 46.8614C76.4548 45.8678 76.9102 44.9436 77.6668 44.2912C77.7593 44.218 77.8518 44.1448 77.9477 44.0782L78.0756 44.0005Z" fill="black"/>
<g style="mix-blend-mode:hard-light" opacity="0.7">
<path d="M109.566 76.6759C109.644 76.4426 109.703 76.2036 109.744 75.9609C109.762 75.9066 109.779 75.72 109.78 75.6821C109.987 73.578 109.328 71.4635 107.95 69.8035L102.934 64.2615L102.878 64.2426C102.351 63.604 101.662 63.1123 100.881 62.8193C100.1 62.5262 99.2571 62.4426 98.4405 62.5771C97.6239 62.7116 96.8637 63.0593 96.2397 63.5838C95.6158 64.1083 95.151 64.7901 94.8942 65.5578C94.8173 65.7917 94.7613 66.032 94.7268 66.2762C94.7103 66.3256 94.7011 66.4709 94.6899 66.555C94.481 68.6566 95.1358 70.7698 96.5103 72.4301L101.526 77.9722L101.577 77.9893C102.103 78.6293 102.793 79.1222 103.575 79.4162C104.356 79.7101 105.2 79.7944 106.017 79.66C106.835 79.5256 107.596 79.1775 108.22 78.6524C108.845 78.1273 109.309 77.4445 109.566 76.6759Z" fill="#FAFAFA"/>
</g>
<path d="M98.8318 64.798C98.1462 66.842 98.8673 69.9218 100.448 71.6705L105.464 77.2127C107.04 78.9597 108.88 78.7186 109.567 76.6697C110.255 74.6208 109.527 71.5442 107.951 69.7972L102.935 64.255C101.355 62.5063 99.519 62.7491 98.8318 64.798Z" fill="#E0E0E0"/>
<path d="M100.566 62.685C99.4149 62.3473 98.1839 62.4546 97.1296 62.9846C96.0754 63.5146 95.2792 64.4263 94.9073 65.5295C94.8304 65.7635 94.7743 66.0039 94.7398 66.2482C94.7233 66.2975 94.7141 66.4429 94.7029 66.5271C94.5346 68.3338 94.9868 70.1557 95.9883 71.7062C95.0588 68.841 94.5831 67.0529 95.7553 64.9253C96.2181 64.1122 96.9269 63.4618 97.7867 63.0614C98.6464 62.661 99.6161 62.5296 100.566 62.685Z" fill="white"/>
<path d="M99.8983 74.35C99.6978 74.0803 99.5728 73.7649 99.5361 73.4358C99.4993 73.1068 99.5522 72.7758 99.6892 72.4765C100.029 71.6237 100.571 70.8652 101.272 70.2624C101.973 69.6597 102.812 69.2297 103.722 69.0074C104.044 68.911 104.388 68.9009 104.72 68.978C105.051 69.0551 105.357 69.2166 105.606 69.4461L108.294 72.4318C108.974 73.1858 109.326 74.1674 109.271 75.1607C109.217 76.154 108.76 77.0776 108.003 77.7283C107.245 78.379 106.248 78.7036 105.231 78.6306C104.214 78.5575 103.26 78.0929 102.579 77.339L99.8983 74.35Z" fill="#F5F5F5"/>
<path d="M96.1891 70.2386C95.5085 69.4846 95.1569 68.503 95.2115 67.5097C95.2661 66.5164 95.7225 65.5928 96.4803 64.9421C97.2381 64.2914 98.2351 63.9668 99.2522 64.0398C100.269 64.1128 101.223 64.5774 101.903 65.3314L105.615 69.449C105.366 69.2196 105.06 69.058 104.729 68.9809C104.398 68.9038 104.053 68.914 103.731 69.0103C102.821 69.2327 101.982 69.6626 101.281 70.2654C100.58 70.8681 100.038 71.6266 99.6983 72.4795C99.5608 72.7781 99.5073 73.1085 99.5431 73.4372C99.5789 73.766 99.7028 74.0813 99.9023 74.3512L96.1891 70.2386Z" fill="#4B7FB0"/>
<path opacity="0.4" d="M98.7733 65.3173C98.4839 65.5668 98.3095 65.9201 98.288 66.3C98.2666 66.6799 98.3999 67.0557 98.6589 67.3453L103.135 72.3202C103.85 71.7298 104.395 70.9684 104.72 70.1076C104.749 70.0237 104.777 69.9397 104.803 69.8607L100.855 65.471C100.727 65.3263 100.571 65.2075 100.396 65.1213C100.222 65.0352 100.032 64.9835 99.8384 64.9692C99.6448 64.9549 99.4509 64.9783 99.268 65.0381C99.0852 65.0979 98.9171 65.1928 98.7733 65.3173Z" fill="white"/>
<path d="M99.8983 74.35C99.6978 74.0803 99.5728 73.7649 99.5361 73.4358C99.4993 73.1068 99.5522 72.7758 99.6892 72.4765C100.029 71.6237 100.571 70.8652 101.272 70.2624C101.973 69.6597 102.812 69.2297 103.722 69.0074C104.044 68.911 104.388 68.9009 104.72 68.978C105.051 69.0551 105.357 69.2166 105.606 69.4461L108.294 72.4318C108.974 73.1858 109.326 74.1674 109.271 75.1607C109.217 76.154 108.76 77.0776 108.003 77.7283C107.245 78.379 106.248 78.7036 105.231 78.6306C104.214 78.5575 103.26 78.0929 102.579 77.339L99.8983 74.35Z" fill="#F5F5F5"/>
<path opacity="0.1" d="M103.734 69.0111C102.824 69.2335 101.985 69.6635 101.284 70.2664C100.583 70.8692 100.041 71.6278 99.7011 72.4808C99.5632 72.7788 99.509 73.1087 99.5439 73.4371C99.5789 73.7655 99.7017 74.0808 99.9 74.3511L99.6888 74.1203L99.5286 73.9398C99.3271 73.6705 99.2014 73.3549 99.1647 73.0256C99.1279 72.6963 99.1814 72.3651 99.3196 72.066C99.6595 71.2131 100.202 70.4544 100.902 69.8516C101.603 69.2488 102.443 68.8188 103.353 68.5964C103.675 68.5 104.02 68.4898 104.351 68.5669C104.682 68.6441 104.988 68.8057 105.237 69.0351L105.609 69.4464C105.36 69.2193 105.056 69.0594 104.726 68.9829C104.397 68.9064 104.055 68.9162 103.734 69.0111Z" fill="black"/>
<path d="M109.197 75.7397C109.054 76.417 108.721 77.0383 108.234 77.5344C107.747 78.0305 107.126 78.3818 106.44 78.5491C105.754 78.7164 105.031 78.6931 104.35 78.4819C103.67 78.2707 103.059 77.8798 102.586 77.3528L99.8981 74.3513C99.6976 74.0816 99.5726 73.7663 99.5359 73.4373C99.4992 73.1083 99.552 72.7774 99.689 72.4782C99.8157 72.1123 99.9911 71.7651 100.211 71.4456C101.784 73.1806 103.699 75.3164 104.702 76.4246C106.188 78.0643 108.781 76.9125 109.197 75.7397Z" fill="#E0E0E0"/>
<path d="M107.893 75.4501C107.749 75.5733 107.582 75.6672 107.4 75.7264C107.219 75.7855 107.026 75.8088 106.834 75.7949C106.641 75.7809 106.453 75.73 106.279 75.6451C106.105 75.5601 105.95 75.4428 105.821 75.2999L101.286 70.2668C101.977 69.6498 102.821 69.218 103.738 69.0122C103.829 68.9935 103.917 68.9847 104 68.9742L108.012 73.424C108.27 73.714 108.402 74.0898 108.38 74.4693C108.357 74.8488 108.182 75.2014 107.893 75.4501Z" fill="white"/>
<path opacity="0.1" d="M96.8828 64.6467C96.9424 64.6058 97.0042 64.568 97.068 64.5334C97.1103 64.5049 97.1547 64.4795 97.201 64.4574L97.3577 64.3784C97.4111 64.3515 97.4663 64.3279 97.5228 64.3077C97.5494 64.2937 97.5777 64.2829 97.6071 64.2757C97.8535 64.1792 98.1103 64.1093 98.3732 64.0673C98.4627 64.0535 98.5573 64.0415 98.6553 64.0361C97.4382 64.2901 95.9145 66.656 97.3932 68.288C97.8958 68.8481 98.6506 69.7023 100.208 71.4378C99.9879 71.7575 99.8125 72.1049 99.6858 72.4709C99.5483 72.772 99.496 73.105 99.5342 73.4358C99.5725 73.7666 99.6999 74.0832 99.9034 74.3531L96.1896 70.2398C95.5096 69.4859 95.1585 68.5046 95.2134 67.5118C95.2683 66.519 95.7249 65.596 96.4825 64.9458C96.5702 64.867 96.6628 64.7937 96.7599 64.7262L96.8828 64.6467Z" fill="black"/>
<g style="mix-blend-mode:hard-light" opacity="0.7">
<path d="M97.0172 37.4743C97.0963 37.2395 97.1546 36.9981 97.1914 36.7527C97.2079 36.7033 97.232 36.5136 97.2317 36.4805C97.3303 35.4345 97.2162 34.3757 96.8959 33.3648C96.5757 32.3539 96.0556 31.4109 95.3655 30.59L90.3546 25.0496L90.2987 25.0308C89.7713 24.3937 89.0813 23.9036 88.3009 23.6116C87.5205 23.3196 86.6783 23.2364 85.8623 23.3708C85.0464 23.5052 84.2867 23.8523 83.6627 24.3756C83.0387 24.899 82.5733 25.5795 82.315 26.3459C82.2381 26.5798 82.1821 26.8202 82.1476 27.0644C82.1294 27.1564 82.1171 27.2495 82.1107 27.3432C81.9023 29.446 82.5563 31.5603 83.9295 33.2232L88.9455 38.7653L88.988 38.8071C89.5142 39.4471 90.2042 39.94 90.9855 40.2339C91.7668 40.5279 92.6106 40.6121 93.428 40.4777C94.2455 40.3433 95.0065 39.9953 95.631 39.4702C96.2554 38.9451 96.7203 38.2623 96.9768 37.4937L97.0172 37.4743Z" fill="#FAFAFA"/>
</g>
<path d="M86.2542 25.5812C85.567 27.6301 86.2948 30.7067 87.8754 32.4554L92.8813 37.9942C94.462 39.7429 96.3026 39.5018 96.9882 37.4578C97.6738 35.4139 96.9476 32.3324 95.367 30.5836L90.356 25.0432C88.7618 23.2844 86.9414 23.5324 86.2542 25.5812Z" fill="#E0E0E0"/>
<path d="M87.9932 23.4698C86.8425 23.1321 85.6115 23.2395 84.5572 23.7695C83.503 24.2995 82.7068 25.2112 82.3349 26.3143C82.258 26.5483 82.2019 26.7888 82.1674 27.033C82.1493 27.125 82.1369 27.2182 82.1305 27.3119C81.9606 29.1187 82.4129 30.9412 83.416 32.491C82.4813 29.6242 82.0107 27.8378 83.183 25.7101C83.6457 24.897 84.3545 24.2467 85.2143 23.8462C86.0741 23.4458 87.0437 23.3145 87.9932 23.4698Z" fill="white"/>
<path d="M87.336 35.1383C87.1349 34.8688 87.0096 34.5534 86.9729 34.2242C86.9362 33.895 86.9893 33.5639 87.1269 33.2648C87.4668 32.412 88.009 31.6535 88.7096 31.0507C89.4102 30.448 90.2495 30.018 91.1594 29.7957C91.4818 29.6997 91.8264 29.6902 92.1573 29.7682C92.4883 29.8462 92.7937 30.0088 93.042 30.2393L95.7315 33.2201C96.0772 33.5928 96.345 34.0276 96.5193 34.4991C96.6936 34.9706 96.7709 35.4695 96.7468 35.9666C96.7227 36.4638 96.5976 36.9494 96.3788 37.3951C96.16 37.8408 95.8519 38.2378 95.4724 38.5629C95.0928 38.888 94.6494 39.1348 94.168 39.2889C93.6866 39.443 93.1768 39.5013 92.6682 39.4604C92.1596 39.4196 91.6624 39.2803 91.2055 39.0509C90.7486 38.8214 90.3412 38.5063 90.0069 38.1238L87.336 35.1383Z" fill="#F5F5F5"/>
<path d="M83.6335 31.0237C83.2966 30.6504 83.0368 30.2173 82.8691 29.749C82.7013 29.2808 82.6289 28.7867 82.6559 28.2949C82.683 27.803 82.809 27.3231 83.0267 26.8826C83.2444 26.442 83.5495 26.0494 83.9247 25.7272C84.2999 25.405 84.7378 25.1595 85.2135 25.0047C85.6891 24.8499 86.1931 24.7888 86.6966 24.825C87.2002 24.8611 87.6936 24.9938 88.1485 25.2154C88.6034 25.437 89.011 25.7432 89.3479 26.1166L93.0578 30.2391C92.8095 30.0086 92.5042 29.846 92.1732 29.768C91.8422 29.69 91.4977 29.6995 91.1752 29.7955C90.2653 30.0178 89.426 30.4478 88.7254 31.0505C88.0248 31.6533 87.4826 32.4118 87.1427 33.2646C87.0051 33.5638 86.952 33.8948 86.9887 34.224C87.0255 34.5532 87.1507 34.8686 87.3518 35.1381L83.6335 31.0237Z" fill="#4B7FB0"/>
<path opacity="0.4" d="M86.2009 26.1022C85.9114 26.3517 85.737 26.705 85.7155 27.0849C85.6941 27.4648 85.8275 27.8406 86.0865 28.1302L90.5626 33.1051C91.2778 32.5153 91.8234 31.7537 92.1478 30.8925C92.176 30.8085 92.2025 30.7295 92.229 30.6506L88.2808 26.2608C88.1529 26.116 87.9973 25.997 87.8231 25.9106C87.6489 25.8242 87.4596 25.7721 87.2661 25.7573C87.0727 25.7426 86.8789 25.7655 86.696 25.8247C86.5132 25.8839 86.3449 25.9782 86.2009 26.1022Z" fill="white"/>
<path d="M87.336 35.1383C87.1349 34.8688 87.0096 34.5534 86.9729 34.2242C86.9362 33.895 86.9893 33.5639 87.1269 33.2648C87.4668 32.412 88.009 31.6535 88.7096 31.0507C89.4102 30.448 90.2495 30.018 91.1594 29.7957C91.4818 29.6997 91.8264 29.6902 92.1573 29.7682C92.4883 29.8462 92.7937 30.0088 93.042 30.2393L95.7315 33.2201C96.0772 33.5928 96.345 34.0276 96.5193 34.4991C96.6936 34.9706 96.7709 35.4695 96.7468 35.9666C96.7227 36.4638 96.5976 36.9494 96.3788 37.3951C96.16 37.8408 95.8519 38.2378 95.4724 38.5629C95.0928 38.888 94.6494 39.1348 94.168 39.2889C93.6866 39.443 93.1768 39.5013 92.6682 39.4604C92.1596 39.4196 91.6624 39.2803 91.2055 39.0509C90.7486 38.8214 90.3412 38.5063 90.0069 38.1238L87.336 35.1383Z" fill="#F5F5F5"/>
<path opacity="0.1" d="M91.1617 29.7961C90.2517 30.0184 89.4123 30.4485 88.7115 31.0513C88.0108 31.6541 87.4685 32.4127 87.1286 33.2657C86.991 33.5649 86.9378 33.896 86.9746 34.2252C87.0113 34.5544 87.1366 34.8699 87.3377 35.1395L87.1265 34.9087L86.9663 34.7281C86.7642 34.4591 86.6383 34.1435 86.6015 33.814C86.5648 33.4846 86.6185 33.1533 86.7573 32.8544C87.0972 32.0014 87.6395 31.2428 88.3402 30.64C89.0409 30.0371 89.8803 29.6071 90.7904 29.3847C91.1129 29.2887 91.4575 29.2793 91.7885 29.3573C92.1195 29.4353 92.425 29.5979 92.6732 29.8284L93.0446 30.2397C92.7963 30.0093 92.4909 29.8466 92.1598 29.7686C91.8288 29.6906 91.4842 29.7001 91.1617 29.7961Z" fill="black"/>
<path d="M96.6281 36.5147C96.4637 37.289 96.0493 37.9866 95.4454 38.5056C95.0699 38.8298 94.6312 39.077 94.1545 39.2333C93.6778 39.3896 93.1724 39.4518 92.6672 39.4164C92.1621 39.381 91.667 39.2487 91.2104 39.027C90.7538 38.8053 90.3446 38.4986 90.0063 38.1244L87.3273 35.1313C87.1263 34.8618 87.001 34.5465 86.9643 34.2174C86.9275 33.8883 86.9807 33.5573 87.1183 33.2582C87.2452 32.8925 87.4206 32.5453 87.6401 32.2256L92.1309 37.2046C93.6159 38.8493 96.2137 37.6826 96.6281 36.5147Z" fill="#E0E0E0"/>
<path d="M95.3203 36.235C95.0303 36.4825 94.6495 36.6058 94.2613 36.5776C93.8731 36.5495 93.5091 36.3723 93.2489 36.0848L88.7134 31.0517C89.4038 30.4317 90.2485 29.9981 91.1671 29.7922L91.4288 29.7542L95.4414 34.2039C95.7006 34.4945 95.8335 34.8715 95.8108 35.2522C95.7881 35.633 95.6117 35.9864 95.3203 36.235Z" fill="white"/>
<path opacity="0.1" d="M84.3037 25.4514C84.3633 25.4105 84.4251 25.3727 84.4889 25.3381C84.5312 25.3096 84.5757 25.2842 84.6219 25.2621L84.7769 25.188L84.9387 25.1107L85.0281 25.0804C85.2744 24.9839 85.5312 24.914 85.7941 24.8719C85.8895 24.8547 85.9859 24.8432 86.0829 24.8376C84.8658 25.0916 83.3422 27.4575 84.8192 29.0944C85.3234 29.6496 86.0715 30.507 87.6337 32.2442C87.4142 32.5641 87.2388 32.9114 87.1118 33.2773C86.9742 33.5765 86.921 33.9076 86.9577 34.2369C86.9945 34.5661 87.1198 34.8816 87.3209 35.1511L83.6071 31.0378C82.9273 30.2839 82.5758 29.3029 82.6298 28.3101C82.6838 27.3174 83.1388 26.3938 83.8949 25.7421C83.9891 25.664 84.0799 25.5957 84.1758 25.5291C84.2154 25.4988 84.2583 25.4727 84.3037 25.4514Z" fill="black"/>
<g style="mix-blend-mode:hard-light" opacity="0.7">
<path d="M115.792 58.1317C115.87 57.8968 115.93 57.6562 115.972 57.4118C115.988 57.3624 116.005 57.1759 116.007 57.1379C116.11 56.0961 116.001 55.0406 115.687 54.0319C115.373 53.0232 114.859 52.081 114.176 51.2594L109.16 45.7173L109.113 45.6738C108.585 45.0364 107.894 44.5461 107.113 44.2541C106.333 43.9622 105.49 43.8793 104.674 44.0143C103.857 44.1492 103.097 44.497 102.474 45.0212C101.85 45.5453 101.385 46.2267 101.127 46.9939C101.051 47.2261 100.995 47.4649 100.961 47.7074C100.943 47.7617 100.934 47.907 100.925 47.9862C100.715 50.0891 101.369 52.2038 102.743 53.8662L107.759 59.4083L107.81 59.4254C108.336 60.0654 109.026 60.5583 109.808 60.8523C110.589 61.1462 111.433 61.2305 112.25 61.0961C113.068 60.9617 113.829 60.6136 114.453 60.0885C115.078 59.5634 115.542 58.8806 115.799 58.112L115.792 58.1317Z" fill="#FAFAFA"/>
</g>
<path d="M105.06 46.2489C104.373 48.2978 105.095 51.3727 106.676 53.1214L111.692 58.6636C113.268 60.4106 115.108 60.1695 115.795 58.1206C116.483 56.0717 115.755 52.9952 114.179 51.2481L109.163 45.706C107.583 43.9572 105.747 44.2001 105.06 46.2489Z" fill="#E0E0E0"/>
<path d="M106.792 44.1409C105.641 43.8018 104.41 43.9085 103.355 44.4387C102.3 44.9689 101.505 45.8814 101.134 46.9854C101.057 47.2177 101.002 47.4565 100.968 47.6991C100.95 47.7534 100.941 47.8988 100.931 47.978C100.761 49.7848 101.213 51.6073 102.216 53.1571C101.287 50.292 100.81 48.5088 101.983 46.3762C102.446 45.5633 103.154 44.9133 104.014 44.5136C104.874 44.114 105.843 43.9839 106.792 44.1409Z" fill="white"/>
<path d="M106.125 55.8059C105.924 55.5352 105.799 55.2189 105.763 54.889C105.726 54.5591 105.78 54.2273 105.917 53.9274C106.258 53.0748 106.8 52.3165 107.5 51.7138C108.201 51.1112 109.04 50.681 109.95 50.4583C110.272 50.364 110.617 50.3554 110.947 50.4333C111.278 50.5112 111.583 50.6729 111.832 50.9019L114.52 53.8877C114.857 54.261 115.117 54.6942 115.285 55.1624C115.452 55.6306 115.525 56.1247 115.498 56.6166C115.471 57.1084 115.345 57.5883 115.127 58.0288C114.909 58.4694 114.604 58.862 114.229 59.1842C113.854 59.5064 113.416 59.7519 112.94 59.9067C112.465 60.0615 111.961 60.1226 111.457 60.0864C110.953 60.0503 110.46 59.9176 110.005 59.696C109.55 59.4744 109.143 59.1682 108.806 58.7948L106.125 55.8059Z" fill="#F5F5F5"/>
<path d="M102.417 51.6896C101.737 50.9356 101.385 49.954 101.44 48.9607C101.494 47.9674 101.951 47.0438 102.708 46.3931C103.466 45.7424 104.463 45.4178 105.48 45.4908C106.497 45.5638 107.451 46.0284 108.132 46.7824L111.841 50.905C111.592 50.6759 111.287 50.5142 110.956 50.4363C110.626 50.3584 110.281 50.367 109.959 50.4613C109.049 50.6841 108.21 51.1142 107.509 51.7168C106.809 52.3195 106.267 53.0779 105.926 53.9305C105.789 54.2303 105.735 54.5621 105.772 54.892C105.808 55.2219 105.933 55.5383 106.134 55.8089L102.417 51.6896Z" fill="#4B7FB0"/>
<path opacity="0.4" d="M105.001 46.7683C104.712 47.0178 104.538 47.371 104.516 47.751C104.495 48.1309 104.628 48.5067 104.887 48.7963L109.363 53.7711C110.078 53.1813 110.624 52.4198 110.948 51.5585C110.977 51.4746 111.003 51.3956 111.03 51.3166L107.081 46.9269C106.953 46.7827 106.797 46.6642 106.623 46.5782C106.449 46.4922 106.26 46.4403 106.067 46.4256C105.873 46.4108 105.68 46.4335 105.497 46.4923C105.314 46.5512 105.146 46.6449 105.001 46.7683Z" fill="white"/>
<path d="M106.125 55.8059C105.924 55.5352 105.799 55.2189 105.763 54.889C105.726 54.5591 105.78 54.2273 105.917 53.9274C106.258 53.0748 106.8 52.3165 107.5 51.7138C108.201 51.1112 109.04 50.681 109.95 50.4583C110.272 50.364 110.617 50.3554 110.947 50.4333C111.278 50.5112 111.583 50.6729 111.832 50.9019L114.52 53.8877C114.857 54.261 115.117 54.6942 115.285 55.1624C115.452 55.6306 115.525 56.1247 115.498 56.6166C115.471 57.1084 115.345 57.5883 115.127 58.0288C114.909 58.4694 114.604 58.862 114.229 59.1842C113.854 59.5064 113.416 59.7519 112.94 59.9067C112.465 60.0615 111.961 60.1226 111.457 60.0864C110.953 60.0503 110.46 59.9176 110.005 59.696C109.55 59.4744 109.143 59.1682 108.806 58.7948L106.125 55.8059Z" fill="#F5F5F5"/>
<path opacity="0.1" d="M109.962 50.462C109.052 50.6848 108.213 51.115 107.512 51.7178C106.812 52.3205 106.269 53.079 105.929 53.9317C105.791 54.2316 105.738 54.5634 105.774 54.8934C105.811 55.2233 105.936 55.5397 106.137 55.8104L105.927 55.5747L105.765 55.3991C105.563 55.1288 105.438 54.8124 105.401 54.4822C105.365 54.152 105.419 53.82 105.558 53.5204C105.898 52.6676 106.44 51.9092 107.141 51.3064C107.842 50.7037 108.681 50.2735 109.591 50.0507C109.913 49.9547 110.258 49.9453 110.589 50.0233C110.92 50.1013 111.225 50.2639 111.474 50.4944L111.845 50.9057C111.596 50.6766 111.29 50.5149 110.96 50.437C110.629 50.3591 110.285 50.3677 109.962 50.462Z" fill="black"/>
<path d="M115.424 57.1956C115.259 57.9698 114.845 58.6674 114.241 59.1864C113.483 59.8375 112.486 60.1624 111.468 60.0897C110.451 60.017 109.496 59.5527 108.815 58.7988L106.124 55.8071C105.924 55.5366 105.799 55.2203 105.762 54.8905C105.726 54.5606 105.779 54.229 105.917 53.9292C106.044 53.5634 106.219 53.2163 106.439 52.8965L110.93 57.8755C112.416 59.5153 115.014 58.3486 115.424 57.1956Z" fill="#E0E0E0"/>
<path d="M114.121 56.901C113.977 57.0242 113.81 57.1181 113.628 57.1773C113.447 57.2364 113.254 57.2597 113.062 57.2458C112.869 57.2318 112.681 57.1809 112.507 57.096C112.333 57.011 112.178 56.8937 112.049 56.7508L107.494 51.7273C108.185 51.1089 109.029 50.6755 109.947 50.4678L110.207 50.4348L114.22 54.8845C114.478 55.171 114.613 55.5434 114.594 55.9209C114.576 56.2984 114.406 56.6505 114.121 56.901Z" fill="white"/>
<path opacity="0.1" d="M103.104 46.1175C103.164 46.0766 103.226 46.0387 103.289 46.0041C103.331 45.9799 103.375 45.9507 103.422 45.9281L103.577 45.8541L103.744 45.7785L103.829 45.7465C104.074 45.6516 104.331 45.5833 104.593 45.5429C104.686 45.524 104.781 45.5119 104.877 45.5069C103.658 45.7658 102.136 48.1268 103.613 49.7637C104.116 50.3238 104.87 51.178 106.427 52.9135C106.208 53.2334 106.033 53.5807 105.906 53.9466C105.768 54.2465 105.714 54.5783 105.751 54.9083C105.787 55.2383 105.912 55.5547 106.113 55.8253L102.401 51.7071C102.063 51.3341 101.803 50.9011 101.635 50.433C101.468 49.9649 101.395 49.4708 101.422 48.979C101.45 48.4872 101.576 48.0074 101.794 47.5671C102.012 47.1268 102.318 46.7347 102.694 46.4131C102.782 46.337 102.874 46.2654 102.969 46.1984L103.104 46.1175Z" fill="black"/>
<path d="M81.82 73.9742C81.82 71.488 80.1316 68.9965 76.7493 67.0993C69.9901 63.3048 59.0285 63.3048 52.2692 67.0993C48.8869 68.9965 47.1985 71.488 47.1985 73.9742V117.189C47.1985 119.675 48.8869 122.161 52.2692 124.058C59.0285 127.858 69.9901 127.858 76.7493 124.058C80.1316 122.161 81.82 119.675 81.82 117.189V73.9742Z" fill="#4B7FB0"/>
<path opacity="0.4" d="M75.1681 66.3227V124.84C75.7176 124.614 76.2544 124.36 76.7762 124.079C77.7822 123.526 78.7072 122.844 79.5259 122.052V69.1321C78.7062 68.3388 77.7815 67.6552 76.7762 67.0993C76.2401 66.8178 75.7041 66.5625 75.1681 66.3227Z" fill="white"/>
<path opacity="0.4" d="M70.6281 126.273C71.4698 126.094 72.3016 125.873 73.1205 125.611V65.5513C72.3024 65.2878 71.4704 65.0668 70.6281 64.8893V126.273Z" fill="white"/>
<path opacity="0.1" d="M81.5199 72.1812C80.4463 70.7775 79.073 69.6164 77.4944 68.7776C70.8209 65.03 60.2935 64.7746 53.084 68.001V66.6875C52.8106 66.823 52.548 66.9533 52.2692 67.0993C48.8869 68.9965 47.1985 71.488 47.1985 73.9742V80.552V107.765V117.189C47.1985 119.675 48.8869 122.161 52.2692 124.058C59.0285 127.858 69.9901 127.858 76.7493 124.058C77.8959 123.435 78.9373 122.644 79.8368 121.713C76.6206 124.637 68.5803 126.247 62.6466 125.106C56.7129 123.964 53.084 120.274 53.084 117.647V109.089C56.4234 110.845 60.792 111.695 65.0587 111.695V94.2132C60.7705 94.2132 56.4234 93.5721 53.084 91.826V84.1328C60.2935 87.3591 70.8209 87.1037 77.4944 83.3561C79.2507 82.4382 80.7389 81.1022 81.82 79.4731V73.9742C81.8181 73.3648 81.7168 72.7597 81.5199 72.1812Z" fill="black"/>
<path opacity="0.1" d="M50.1198 118.393V68.5692C48.174 70.2006 47.1985 72.0874 47.1985 73.9742V117.189C47.1985 119.675 48.8869 122.161 52.2692 124.058C54.3176 125.166 56.5368 125.944 58.8408 126.362C52.3389 124.647 50.1198 120.326 50.1198 118.393Z" fill="black"/>
<path d="M82.8706 66.2862C82.8706 63.6488 81.0803 61.0062 77.5104 58.9891C70.3385 54.9653 58.7122 54.9653 51.5403 58.9891C47.9543 61.001 46.1801 63.6436 46.1801 66.2862V74.1983C46.1801 76.8357 47.9704 79.4783 51.5403 81.4954C58.7122 85.5192 70.3385 85.5192 77.5104 81.4954C81.0964 79.4835 82.8706 76.8409 82.8706 74.1983V66.2862Z" fill="#E0E0E0"/>
<mask id="mask0_871_3615" style="mask-type:luminance" maskUnits="userSpaceOnUse" x="46" y="55" width="37" height="30">
<path d="M82.8706 66.2862C82.8706 63.6488 81.0803 61.0062 77.5104 58.9891C70.3385 54.9653 58.7122 54.9653 51.5403 58.9891C47.9543 61.001 46.1801 63.6436 46.1801 66.2862V74.1983C46.1801 76.8357 47.9704 79.4783 51.5403 81.4954C58.7122 85.5192 70.3385 85.5192 77.5104 81.4954C81.0964 79.4835 82.8706 76.8409 82.8706 74.1983V66.2862Z" fill="white"/>
</mask>
<g mask="url(#mask0_871_3615)">
<g opacity="0.2">
<path d="M83.3102 65.5513H82.4312V77.8625H83.3102V65.5513Z" fill="black"/>
<path d="M81.284 68.8767H80.4049V81.2557H81.284V68.8767Z" fill="black"/>
<path d="M78.2179 71.1649H77.3389V83.6064H78.2179V71.1649Z" fill="black"/>
<path d="M74.7232 72.5878H73.8441V85.0971H74.7232V72.5878Z" fill="black"/>
<path d="M70.8799 73.5364H70.0009V86.1134H70.8799V73.5364Z" fill="black"/>
<path d="M66.8115 74.0107H65.9324V86.6555H66.8115V74.0107Z" fill="black"/>
<path d="M62.6788 73.9951H61.7997V86.7024H62.6788V73.9951Z" fill="black"/>
<path d="M58.6479 73.4739H57.7688V86.249H58.6479V73.4739Z" fill="black"/>
<path d="M54.8689 72.4158H53.9899V85.2586H54.8689V72.4158Z" fill="black"/>
<path d="M51.4438 70.7791H50.5647V83.6897H51.4438V70.7791Z" fill="black"/>
<path d="M48.7261 68.5014H47.847V81.4746H48.7261V68.5014Z" fill="black"/>
<path d="M46.5874 64.8216H45.7084V77.8625H46.5874V64.8216Z" fill="black"/>
</g>
<path opacity="0.1" d="M68.902 84.1954C59.8165 84.2475 55.0191 81.3755 53.5665 79.0353C52.4569 77.2527 52.2693 73.969 52.2693 70.6957C52.2693 70.6957 51.2455 63.2736 51.4438 63.2527C51.6422 63.2319 49.2622 62.7315 47.4987 62.3875C46.6419 63.5126 46.1694 64.8707 46.1479 66.2706V74.1983C46.1479 76.8357 47.9383 79.4783 51.5082 81.4954C56.2359 84.1328 62.8718 85.0293 68.902 84.1954Z" fill="black"/>
</g>
<path d="M64.5066 76.5962C74.6488 76.5962 82.8707 71.9803 82.8707 66.2864C82.8707 60.5925 74.6488 55.9767 64.5066 55.9767C54.3644 55.9767 46.1426 60.5925 46.1426 66.2864C46.1426 71.9803 54.3644 76.5962 64.5066 76.5962Z" fill="#EBEBEB"/>
<path d="M78.4806 72.963C84.6342 68.9131 84.3126 62.8253 77.4944 58.9943C73.9995 57.0345 69.4541 56.0338 64.8604 55.9869C62.511 56.3419 60.2435 57.0933 58.1601 58.2073C51.9637 61.6525 51.9637 68.5327 58.1601 71.9779C63.6918 75.0531 72.2896 75.3763 78.4806 72.963Z" fill="#F5F5F5"/>
<path opacity="0.1" d="M53.2664 123.292C59.4735 126.326 69.5453 126.326 75.7524 123.292C81.9595 120.259 81.9649 115.338 75.7524 112.305C69.5399 109.271 59.4735 109.271 53.2664 112.305C47.0592 115.338 47.0539 120.259 53.2664 123.292Z" fill="black"/>
<path d="M47.1985 85.3316C47.1985 87.8178 48.8869 90.304 52.2692 92.2013C55.6515 94.0985 60.079 95.0471 64.5066 95.0471V112.18C60.079 112.18 55.6462 111.231 52.2692 109.334C48.8923 107.437 47.1985 104.95 47.1985 102.464V85.3316Z" fill="white"/>
<path d="M47.5524 70.2422C47.5524 70.2422 53.5236 76.0903 65.0588 75.7828C76.594 75.4753 81.2144 69.351 81.8201 67.4433C82.1308 66.325 82.1514 65.1493 81.8801 64.0213C81.6088 62.8934 81.0541 61.8485 80.2657 60.9802C81.0464 61.645 81.68 62.4573 82.1278 63.3677C82.5756 64.278 82.8284 65.2675 82.8707 66.2758V74.1983C82.8707 74.8655 83.2245 77.1693 79.4992 80.1506C79.4992 80.1506 81.6861 77.7374 81.6861 75.418V69.9452C81.6861 69.9452 77.6017 76.5855 65.0695 76.5855C52.5374 76.5855 48.1849 71.2378 47.5524 70.2422Z" fill="white"/>
<path d="M63.7412 127.974C63.6848 127.813 63.6167 127.656 63.5375 127.505C63.4705 127.375 63.3954 127.25 63.3124 127.13C62.9259 126.585 62.4388 126.115 61.8759 125.743V127.187L60.6055 126.468V125.034C57.0678 123.403 51.8362 123.523 48.5343 125.373C47.4145 125.924 46.5369 126.849 46.0633 127.979C46.0633 128.063 46.015 128.141 45.9936 128.224C45.9299 128.461 45.8975 128.704 45.8971 128.949V131.81C45.9083 132.495 46.1387 133.16 46.5564 133.713C47.085 134.402 47.7595 134.972 48.5343 135.386C52.056 137.361 57.7592 137.361 61.2702 135.386C63.0283 134.395 63.9127 133.103 63.9127 131.81V128.949C63.9117 128.617 63.8537 128.287 63.7412 127.974Z" fill="#F0F0F0"/>
<path d="M57.7271 124.143C54.6021 123.564 51.0214 123.971 48.5343 125.368C47.4145 125.918 46.5369 126.844 46.0633 127.974C46.0633 128.057 46.015 128.135 45.9936 128.219C45.9299 128.455 45.8975 128.699 45.8971 128.943V131.805C45.9083 132.49 46.1387 133.155 46.5564 133.707C47.085 134.396 47.7595 134.967 48.5343 135.38C51.0214 136.777 54.6021 137.179 57.7271 136.6V124.143Z" fill="#EBEBEB"/>
<path d="M48.5398 125.368C45.2379 127.223 45.0342 130.158 47.9341 132.144L60.6056 125.029C57.0679 123.403 51.8417 123.538 48.5398 125.368Z" fill="#FAFAFA"/>
<path d="M47.9286 131.393C47.9286 131.393 44.4283 128.787 48.3199 125.498C45.2324 127.354 45.1037 130.189 47.9339 132.144L60.6054 125.029L47.9286 131.393Z" fill="white"/>
<path d="M61.8759 125.743L49.2043 132.858C52.7421 134.484 57.9736 134.374 61.2755 132.519C64.5774 130.663 64.7757 127.708 61.8759 125.743Z" fill="#FAFAFA"/>
<path d="M49.2043 132.858C52.7421 134.484 57.9736 134.374 61.2755 132.519C61.643 132.315 61.991 132.079 62.3154 131.815C55.8349 134.974 50.6248 132.748 50.6248 132.748L61.8812 125.743L49.2043 132.858Z" fill="white"/>
<path d="M60.6055 126.462L47.934 133.608V132.144L60.6055 125.029V126.462Z" fill="#E0E0E0"/>
<path opacity="0.2" d="M49.2043 132.858L49.2097 134.322L47.934 133.608L49.2043 132.858Z" fill="black"/>
<path d="M67.3003 123.387C67.2449 123.224 67.1768 123.066 67.0966 122.913C67.0269 122.785 66.95 122.662 66.8661 122.543C66.4817 121.998 65.9963 121.528 65.4349 121.156V122.59L64.1592 121.87V120.437C60.6215 118.811 55.3953 118.926 52.0934 120.781C50.9709 121.328 50.0922 122.255 49.6223 123.387C49.5955 123.471 49.5687 123.549 49.5473 123.627C49.4879 123.864 49.4574 124.107 49.4562 124.351V127.218C49.4674 127.903 49.6978 128.568 50.1155 129.121C50.643 129.809 51.3178 130.378 52.0934 130.788C55.6097 132.764 61.3129 132.764 64.8292 130.788C66.5874 129.803 67.4665 128.511 67.4665 127.218V124.351C67.4666 124.023 67.4104 123.697 67.3003 123.387Z" fill="#F0F0F0"/>
<path d="M61.2598 119.551C58.1294 118.972 54.5542 119.384 52.067 120.781C50.9445 121.328 50.0659 122.255 49.596 123.387C49.5692 123.471 49.5424 123.549 49.5209 123.627C49.4616 123.864 49.431 124.107 49.4298 124.351V127.218C49.441 127.903 49.6715 128.568 50.0891 129.121C50.6166 129.809 51.2914 130.378 52.067 130.788C54.5542 132.185 58.1294 132.592 61.2598 132.013V119.551Z" fill="#EBEBEB"/>
<path d="M52.0666 120.781C48.7648 122.632 48.5611 125.566 51.4609 127.557L64.1325 120.448C60.5947 118.811 55.3685 118.926 52.0666 120.781Z" fill="#FAFAFA"/>
<path d="M51.4609 126.806C51.4609 126.806 47.9607 124.2 51.8522 120.906C48.7594 122.767 48.6361 125.597 51.4609 127.552L64.1324 120.442L51.4609 126.806Z" fill="white"/>
<path d="M65.4082 121.156L52.7367 128.271C56.2744 129.897 61.5006 129.783 64.8025 127.927C68.1044 126.071 68.3027 123.142 65.4082 121.156Z" fill="#FAFAFA"/>
<path d="M52.7367 128.271C56.2744 129.897 61.5006 129.783 64.8025 127.927C65.1695 127.724 65.5174 127.49 65.8424 127.229C59.3673 130.382 54.1518 128.156 54.1518 128.156L65.4082 121.156L52.7367 128.271Z" fill="white"/>
<path d="M64.1325 121.87L51.4609 129.021V127.552L64.1325 120.442V121.87Z" fill="#E0E0E0"/>
<path opacity="0.2" d="M52.7367 128.271V129.736L51.4609 129.021L52.7367 128.271Z" fill="black"/>
<path d="M33.7186 29.4874C30.2547 28.4204 25.2243 29.5944 22.4839 32.1127C21.117 33.3696 20.5791 34.7246 20.8172 35.8989L30.6291 84.1538L30.65 84.1514C30.9759 85.2097 31.9568 86.1054 33.5602 86.5927C37.0276 87.6593 42.0576 86.4819 44.7949 83.9675C46.0615 82.8034 46.609 81.5563 46.496 80.4479L46.5168 80.4455L36.7045 32.1871C36.4664 31.0127 35.4522 30.019 33.7186 29.4874Z" fill="#4B7FB0"/>
<path opacity="0.7" d="M33.7186 29.4874C30.2547 28.4204 25.2243 29.5944 22.4839 32.1127C21.117 33.3696 20.5791 34.7246 20.8172 35.8989L30.6291 84.1538L30.65 84.1514C30.9759 85.2097 31.9568 86.1054 33.5602 86.5927C37.0276 87.6593 42.0576 86.4819 44.7949 83.9675C46.0615 82.8034 46.609 81.5563 46.496 80.4479L46.5168 80.4455L36.7045 32.1871C36.4664 31.0127 35.4522 30.019 33.7186 29.4874Z" fill="white"/>
<path d="M23.7071 38.713C20.222 37.6429 19.6309 34.717 22.3848 32.1959C25.1386 29.6747 30.1988 28.4816 33.6804 29.5521C37.162 30.6226 37.7591 33.5372 34.9875 36.0569C32.2159 38.5766 27.1922 39.7831 23.7071 38.713Z" fill="#4B7FB0"/>
<path opacity="0.8" d="M23.7071 38.713C20.222 37.6429 19.6309 34.717 22.3848 32.1959C25.1386 29.6747 30.1988 28.4816 33.6804 29.5521C37.162 30.6226 37.7591 33.5372 34.9875 36.0569C32.2159 38.5766 27.1922 39.7831 23.7071 38.713Z" fill="white"/>
<path d="M40.4461 119.631C36.9645 118.56 36.3705 115.642 39.1273 113.113C41.884 110.585 46.9378 109.399 50.4225 110.466C53.9073 111.532 54.4981 114.455 51.7414 116.983C48.9846 119.512 43.9308 120.697 40.4461 119.631Z" fill="#4B7FB0"/>
<path opacity="0.7" d="M40.4461 119.631C36.9645 118.56 36.3705 115.642 39.1273 113.113C41.884 110.585 46.9378 109.399 50.4225 110.466C53.9073 111.532 54.4981 114.455 51.7414 116.983C48.9846 119.512 43.9308 120.697 40.4461 119.631Z" fill="white"/>
<path d="M44.3401 110.481C42.4189 110.909 40.6213 111.815 39.1133 113.113C36.3627 115.636 36.9552 118.549 40.429 119.617C42.3046 120.12 44.2899 120.139 46.2038 119.672L44.3401 110.481Z" fill="#4B7FB0"/>
<path d="M46.1843 118.722C50.5938 117.692 53.7478 114.792 53.2288 112.245C52.7099 109.698 48.7146 108.468 44.3051 109.498C39.8955 110.528 36.7416 113.428 37.2605 115.975C37.7795 118.523 41.7748 119.752 46.1843 118.722Z" fill="#4B7FB0"/>
<path opacity="0.8" d="M46.1843 118.722C50.5938 117.692 53.7478 114.792 53.2288 112.245C52.7099 109.698 48.7146 108.468 44.3051 109.498C39.8955 110.528 36.7416 113.428 37.2605 115.975C37.7795 118.523 41.7748 119.752 46.1843 118.722Z" fill="white"/>
<path d="M41.3268 81.6395C41.2881 81.2084 40.9533 80.8337 40.3306 80.6444C39.6911 80.4851 39.0189 80.481 38.3688 80.6323C37.7186 80.7837 37.1087 81.0862 36.5886 81.5155C36.3942 81.6608 36.2403 81.8545 36.1427 82.0767C36.0451 82.2989 36.0073 82.5416 36.0332 82.7798L42.549 114.776C42.6182 115.004 42.7468 115.207 42.9215 115.365C43.0963 115.523 43.311 115.631 43.5437 115.676C44.1835 115.835 44.8557 115.839 45.5058 115.687C46.156 115.535 46.7657 115.232 47.2854 114.802C47.7771 114.35 47.9366 113.863 47.805 113.45L41.3268 81.6395Z" fill="#4B7FB0"/>
<path opacity="0.7" d="M41.3268 81.6395C41.2881 81.2084 40.9533 80.8337 40.3306 80.6444C39.6911 80.4851 39.0189 80.481 38.3688 80.6323C37.7186 80.7837 37.1087 81.0862 36.5886 81.5155C36.3942 81.6608 36.2403 81.8545 36.1427 82.0767C36.0451 82.2989 36.0073 82.5416 36.0332 82.7798L42.549 114.776C42.6182 115.004 42.7468 115.207 42.9215 115.365C43.0963 115.523 43.311 115.631 43.5437 115.676C44.1835 115.835 44.8557 115.839 45.5058 115.687C46.156 115.535 46.7657 115.232 47.2854 114.802C47.7771 114.35 47.9366 113.863 47.805 113.45L41.3268 81.6395Z" fill="white"/>
<g opacity="0.3">
<path d="M40.6205 80.7678C40.5336 80.7269 40.444 80.6918 40.3523 80.6628C40.2516 80.6339 40.1491 80.611 40.0454 80.594L47.0618 114.981C47.1468 114.915 47.2358 114.855 47.3132 114.783C47.3853 114.715 47.4535 114.644 47.5176 114.569L40.6205 80.7678Z" fill="white"/>
<path d="M39.5085 80.536C39.237 80.5307 38.9649 80.5502 38.6956 80.5941L45.8307 115.577C45.9565 115.537 46.082 115.494 46.2034 115.445L46.2518 115.439C46.3698 115.39 46.4839 115.338 46.5871 115.28L39.5085 80.536Z" fill="white"/>
</g>
<path d="M44.0095 114.826C43.5895 114.359 43.2949 112.325 42.8571 110.178C42.6316 109.069 37.5999 84.3672 36.9611 81.2283C36.8317 81.3154 36.7081 81.4111 36.5912 81.5148C36.3968 81.6602 36.2429 81.8539 36.1453 82.0761C36.0478 82.2983 36.01 82.5409 36.0359 82.7792L42.5484 114.775C42.6175 115.003 42.7461 115.206 42.9208 115.364C43.0956 115.522 43.3103 115.63 43.543 115.676C44.1828 115.834 44.855 115.838 45.5051 115.686C46.1552 115.534 46.7649 115.231 47.2846 114.801L47.3842 114.701C47.5885 114.442 47.6954 114.267 47.6954 114.267C47.0269 115.011 44.6353 115.517 44.0095 114.826Z" fill="#4B7FB0"/>
<path d="M40.305 80.6729C39.6629 80.5135 38.9879 80.5098 38.3347 80.6623C37.6816 80.8147 37.0687 81.1189 36.5459 81.5503C36.3506 81.6963 36.1958 81.8909 36.0976 82.1141C35.9993 82.3372 35.9611 82.5809 35.9869 82.82L36.812 86.8866C38.6318 86.8272 40.4327 86.4064 42.1112 85.6483L41.301 81.6716C41.2626 81.2388 40.9318 80.8799 40.305 80.6729Z" fill="#4B7FB0"/>
<g opacity="0.3">
<path d="M40.5859 80.7906C40.4991 80.7497 40.4095 80.7146 40.3178 80.6856C40.217 80.6567 40.1146 80.6338 40.0109 80.6168L41.1131 86.0465C41.2827 85.9877 41.4519 85.9253 41.6171 85.8564L40.5859 80.7906Z" fill="white"/>
<path d="M39.8428 86.4367C40.1062 86.3701 40.3653 86.2935 40.6236 86.21L39.4738 80.5589C39.2022 80.5537 38.9299 80.5732 38.6604 80.6173L39.8428 86.4367Z" fill="white"/>
</g>
<path opacity="0.05" d="M36.9012 81.2688C36.7717 81.3559 36.6481 81.4517 36.531 81.5555C36.3366 81.7009 36.1826 81.8947 36.0849 82.117C35.9872 82.3393 35.9494 82.5821 35.9752 82.8204L36.8006 86.8733C37.2084 86.8622 37.6159 86.8301 38.0216 86.7769C37.7069 85.2185 37.2893 83.1769 36.9012 81.2688Z" fill="black"/>
<path d="M39.9679 75.2031C39.9292 74.7675 39.5941 74.3955 38.9698 74.2061C38.3286 74.0468 37.6546 74.043 37.0025 74.1951C36.3504 74.3473 35.7385 74.651 35.2166 75.0816C35.0221 75.227 34.8679 75.4208 34.7698 75.6429C34.6717 75.865 34.6333 76.1076 34.6584 76.3459L35.9773 82.8449C36.0467 83.0725 36.1755 83.2757 36.3506 83.4336C36.5257 83.5915 36.7407 83.6985 36.9737 83.7435C37.6151 83.9023 38.2892 83.9054 38.9413 83.7527C39.5934 83.6 40.205 83.2957 40.7266 82.8646C41.22 82.411 41.3803 81.9234 41.2489 81.5129L39.9679 75.2031Z" fill="#4B7FB0"/>
<path opacity="0.5" d="M39.9679 75.2031C39.9292 74.7675 39.5941 74.3955 38.9698 74.2061C38.3286 74.0468 37.6546 74.043 37.0025 74.1951C36.3504 74.3473 35.7385 74.651 35.2166 75.0816C35.0221 75.227 34.8679 75.4208 34.7698 75.6429C34.6717 75.865 34.6333 76.1076 34.6584 76.3459L35.9773 82.8449C36.0467 83.0725 36.1755 83.2757 36.3506 83.4336C36.5257 83.5915 36.7407 83.6985 36.9737 83.7435C37.6151 83.9023 38.2892 83.9054 38.9413 83.7527C39.5934 83.6 40.205 83.2957 40.7266 82.8646C41.22 82.411 41.3803 81.9234 41.2489 81.5129L39.9679 75.2031Z" fill="white"/>
<path opacity="0.05" d="M39.9679 75.2031C39.9292 74.7675 39.5941 74.3955 38.9698 74.2061C38.3286 74.0468 37.6546 74.043 37.0025 74.1951C36.3504 74.3473 35.7385 74.651 35.2166 75.0816C35.0221 75.227 34.8679 75.4208 34.7698 75.6429C34.6717 75.865 34.6333 76.1076 34.6584 76.3459L35.9773 82.8449C36.0467 83.0725 36.1755 83.2757 36.3506 83.4336C36.5257 83.5915 36.7407 83.6985 36.9737 83.7435C37.6151 83.9023 38.2892 83.9054 38.9413 83.7527C39.5934 83.6 40.205 83.2957 40.7266 82.8646C41.22 82.411 41.3803 81.9234 41.2489 81.5129L39.9679 75.2031Z" fill="black"/>
<g opacity="0.3">
<path d="M40.4955 83.0607C40.583 82.9995 40.6669 82.9332 40.7469 82.8621C40.8199 82.7956 40.8883 82.7241 40.9514 82.6481L39.6999 76.4962L39.1828 76.6176L40.4955 83.0607Z" fill="white"/>
<path d="M40.0341 83.336L38.7715 77.0495L37.9801 77.2353L39.2854 83.6467C39.5428 83.5647 39.7933 83.4608 40.0341 83.336Z" fill="white"/>
</g>
<path opacity="0.1" d="M36.9593 83.7291C37.1057 83.7751 37.2563 83.8077 37.4092 83.8266C36.8585 81.1234 36.1436 77.5263 35.8644 76.249C35.7342 76.3361 35.6106 76.4331 35.4947 76.539C35.3009 76.684 35.1473 76.8771 35.0497 77.0986C34.952 77.3202 34.9139 77.5621 34.9391 77.7998L35.9649 82.8322C36.0342 83.0592 36.1629 83.262 36.3376 83.4196C36.5123 83.5772 36.7269 83.684 36.9593 83.7291Z" fill="black"/>
<path d="M32.0446 74.1284C29.765 76.2358 30.242 78.67 33.1439 79.5626C36.0459 80.4552 40.2607 79.4658 42.5593 77.3739C44.8579 75.2819 44.3712 72.817 41.4728 71.924C38.5743 71.031 34.342 72.0225 32.0446 74.1284Z" fill="#263238"/>
<path d="M31.9238 73.5434C29.6442 75.6508 30.1209 78.0815 33.0228 78.9741C35.9248 79.8667 40.14 78.8809 42.4383 76.7854C44.7366 74.6899 44.2444 72.2434 41.339 71.3512C38.4336 70.459 34.2218 71.4445 31.9238 73.5434Z" fill="#37474F"/>
<path d="M35.3725 32.5095C35.187 31.6102 34.3604 30.8719 32.9265 30.4769C30.0539 29.7121 25.8719 30.6898 23.5653 32.6498C22.409 33.6354 21.9456 34.686 22.1276 35.5857L30.4011 76.2726C30.6007 77.2511 31.4458 78.0787 32.8875 78.522C35.7712 79.412 39.9668 78.4292 42.2521 76.3487C43.3921 75.2982 43.8414 74.1683 43.6418 73.1899L35.3725 32.5095Z" fill="#4B7FB0"/>
<path d="M23.7092 38.708C27.1938 39.7779 32.2504 38.5922 34.9881 36.0521C35.3039 35.7629 35.593 35.4455 35.8518 35.1041L35.3368 32.5581C35.1509 31.6547 34.3204 30.9132 32.8794 30.5171C29.9925 29.7501 25.7883 30.7346 23.4687 32.7052C22.3058 33.6961 21.8394 34.752 22.0218 35.6559L22.5403 38.2015C22.9113 38.409 23.3028 38.5786 23.7092 38.708Z" fill="#4B7FB0"/>
<path opacity="0.2" d="M23.7092 38.708C27.1938 39.7779 32.2504 38.5922 34.9881 36.0521C35.3039 35.7629 35.593 35.4455 35.8518 35.1041L35.3368 32.5581C35.1509 31.6547 34.3204 30.9132 32.8794 30.5171C29.9925 29.7501 25.7883 30.7346 23.4687 32.7052C22.3058 33.6961 21.8394 34.752 22.0218 35.6559L22.5403 38.2015C22.9113 38.409 23.3028 38.5786 23.7092 38.708Z" fill="white"/>
<path d="M31.8313 73.0993C30.685 74.1515 30.2363 75.286 30.4327 76.269C30.6292 77.252 31.4812 78.0823 32.9294 78.5267C35.826 79.4191 40.0419 78.4298 42.3393 76.339C43.4853 75.2834 43.9375 74.1484 43.7376 73.1658C43.5377 72.1832 42.6929 71.3556 41.241 70.9081C39.789 70.4606 37.6886 68.897 35.9876 69.2952C34.2867 69.6934 32.9808 72.0432 31.8313 73.0993Z" fill="#455A64"/>
<path opacity="0.2" d="M32.4135 76.3189C32.3797 74.9462 33.9197 73.8931 34.5546 71.9636C35.1704 70.0965 35.8322 69.3817 36.7078 69.2131C36.4649 69.2013 36.2206 69.2211 35.9808 69.2721C34.2772 69.6705 32.9766 72.0328 31.8277 73.0884C30.6787 74.144 30.2333 75.2741 30.4296 76.2567C30.6259 77.2393 31.4775 78.0692 32.9251 78.5134C35.8204 79.4054 40.0327 78.4379 42.3488 76.2927C36.3004 80.015 32.451 77.7724 32.4135 76.3189Z" fill="black"/>
<path d="M31.8313 73.0993C30.685 74.1515 30.2363 75.286 30.4327 76.269C30.6292 77.252 31.4812 78.0823 32.9294 78.5267C35.826 79.4191 40.0419 78.4298 42.3393 76.339C43.4853 75.2834 43.9375 74.1484 43.7376 73.1658C43.5377 72.1832 42.6929 71.3556 41.241 70.9081C39.789 70.4606 37.6886 68.897 35.9876 69.2952C34.2867 69.6934 32.9808 72.0432 31.8313 73.0993Z" fill="#4B7FB0"/>
<path opacity="0.3" d="M41.4698 76.9693C41.7659 76.7704 42.0476 76.5504 42.3129 76.3109C42.609 76.0425 42.8764 75.7436 43.1104 75.4192L34.3506 32.5792L32.4836 33.0153L41.4698 76.9693Z" fill="white"/>
<path opacity="0.3" d="M39.6909 77.9251C40.0208 77.7829 40.339 77.6281 40.6456 77.4607L31.7634 33.9579L30.7634 34.1925L39.6909 77.9251Z" fill="white"/>
<path opacity="0.1" d="M41.3437 77.0575C36.9167 79.2384 33.4665 76.8655 33.0397 74.7576C32.6128 72.6497 26.3958 42.0888 25.2102 36.2391L22.4652 33.9543C22.1508 34.4534 22.0279 35.0467 22.1201 35.6198L30.395 76.2968C30.5947 77.2751 31.4396 78.1024 32.8809 78.5457C35.4196 79.3081 38.9785 78.6654 41.3437 77.0575Z" fill="black"/>
<path d="M23.4817 32.7387C21.159 34.7244 21.6115 36.9608 24.4891 37.7294C27.3667 38.4981 31.583 37.512 33.907 35.5403C36.2309 33.5686 35.7772 31.3182 32.8958 30.5465C30.0144 29.7747 25.8006 30.7499 23.4817 32.7387Z" fill="#4B7FB0"/>
<path opacity="0.3" d="M23.4817 32.7387C21.159 34.7244 21.6115 36.9608 24.4891 37.7294C27.3667 38.4981 31.583 37.512 33.907 35.5403C36.2309 33.5686 35.7772 31.3182 32.8958 30.5465C30.0144 29.7747 25.8006 30.7499 23.4817 32.7387Z" fill="white"/>
<path d="M31.7945 28.8756C31.6755 28.2868 31.1672 27.7905 30.2961 27.5246C28.5606 26.9884 26.0354 27.5803 24.6599 28.842C23.974 29.4744 23.721 30.1501 23.8227 30.741L24.7036 35.0791C24.8226 35.668 25.3309 36.1643 26.1985 36.4306C27.9375 36.9663 30.4627 36.3744 31.8347 35.1131C32.5241 34.4803 32.7945 33.8025 32.6754 33.2137L31.7945 28.8756Z" fill="#4B7FB0"/>
<path opacity="0.7" d="M31.7945 28.8756C31.6755 28.2868 31.1672 27.7905 30.2961 27.5246C28.5606 26.9884 26.0354 27.5803 24.6599 28.842C23.974 29.4744 23.721 30.1501 23.8227 30.741L24.7036 35.0791C24.8226 35.668 25.3309 36.1643 26.1985 36.4306C27.9375 36.9663 30.4627 36.3744 31.8347 35.1131C32.5241 34.4803 32.7945 33.8025 32.6754 33.2137L31.7945 28.8756Z" fill="white"/>
<path opacity="0.4" d="M31.6588 35.2551C31.724 35.2016 31.8005 35.1574 31.8585 35.1013C32.0343 34.9402 32.1931 34.7612 32.332 34.5672L31.0772 28.3939L30.3024 28.5739L31.6588 35.2551Z" fill="white"/>
<path opacity="0.4" d="M30.7 35.858C30.8805 35.7676 31.0561 35.667 31.2258 35.5566L29.8978 29.0421L29.3356 29.1722L30.7 35.858Z" fill="white"/>
<path d="M26.1606 34.865C26.0352 34.2449 25.9406 33.7729 25.4773 31.4858L24.2279 29.2999C24.0592 29.4974 23.9343 29.7283 23.8621 29.9765C23.7899 30.2247 23.7722 30.4841 23.8101 30.7366L24.6912 35.0764C24.8103 35.6654 25.3188 36.1619 26.1868 36.4283C27.9265 36.9642 30.4527 36.372 31.8253 35.1102C32.0023 34.9483 32.162 34.7683 32.3019 34.5733C30.0928 36.5986 26.4296 36.191 26.1606 34.865Z" fill="#4B7FB0"/>
<path d="M24.6469 28.8505C23.2723 30.1179 23.5676 31.5774 25.3099 32.1106C27.0523 32.6439 29.5795 32.0548 30.9576 30.787C32.3356 29.5192 32.0372 28.0637 30.2948 27.5304C28.5524 26.9971 26.0255 27.5898 24.6469 28.8505Z" fill="#4B7FB0"/>
<path opacity="0.8" d="M24.6469 28.8505C23.2723 30.1179 23.5676 31.5774 25.3099 32.1106C27.0523 32.6439 29.5795 32.0548 30.9576 30.787C32.3356 29.5192 32.0372 28.0637 30.2948 27.5304C28.5524 26.9971 26.0255 27.5898 24.6469 28.8505Z" fill="white"/>
<path d="M28.0881 24.427C27.6348 24.3155 27.1585 24.3136 26.6978 24.4213C26.237 24.5291 25.8047 24.7436 25.4356 25.0476C25.2976 25.1505 25.1883 25.2878 25.119 25.4454C25.0496 25.6029 25.0228 25.7749 25.0412 25.9437L25.9213 30.2732C25.9723 30.4309 26.0639 30.5712 26.187 30.6801C26.31 30.7889 26.4603 30.8626 26.6227 30.8938C27.0765 31.0061 27.5535 31.0084 28.015 30.9005C28.4764 30.7927 28.9094 30.5776 29.2787 30.2728C29.416 30.1695 29.5246 30.0321 29.5933 29.8747C29.662 29.7172 29.6883 29.5455 29.6696 29.3771L28.7929 25.0472C28.7413 24.8893 28.649 24.749 28.5254 24.6402C28.4017 24.5314 28.251 24.4579 28.0881 24.427Z" fill="#4B7FB0"/>
<path opacity="0.7" d="M28.0881 24.427C27.6348 24.3155 27.1585 24.3136 26.6978 24.4213C26.237 24.5291 25.8047 24.7436 25.4356 25.0476C25.2976 25.1505 25.1883 25.2878 25.119 25.4454C25.0496 25.6029 25.0228 25.7749 25.0412 25.9437L25.9213 30.2732C25.9723 30.4309 26.0639 30.5712 26.187 30.6801C26.31 30.7889 26.4603 30.8626 26.6227 30.8938C27.0765 31.0061 27.5535 31.0084 28.015 30.9005C28.4764 30.7927 28.9094 30.5776 29.2787 30.2728C29.416 30.1695 29.5246 30.0321 29.5933 29.8747C29.662 29.7172 29.6883 29.5455 29.6696 29.3771L28.7929 25.0472C28.7413 24.8893 28.649 24.749 28.5254 24.6402C28.4017 24.5314 28.251 24.4579 28.0881 24.427Z" fill="white"/>
<path opacity="0.4" d="M28.8129 30.6097C28.9846 30.5204 29.1452 30.4105 29.2911 30.2823C29.3201 30.2542 29.3387 30.2274 29.3674 30.1959L28.3915 25.4502L27.7847 25.5928L28.8129 30.6097Z" fill="white"/>
<path opacity="0.4" d="M28.0225 30.916C28.1701 30.8795 28.3156 30.834 28.4582 30.7799L27.4805 25.9792L27.0385 26.0845L28.0225 30.916Z" fill="white"/>
<path d="M29.5647 29.9271C29.2883 30.2227 28.9354 30.4344 28.5484 30.537C28.1613 30.6396 27.7563 30.6287 27.382 30.5056C26.6558 30.2402 26.6131 29.7591 26.476 29.0074C26.339 28.2558 26.0889 27.1019 25.7897 25.6332L25.2514 25.2678C25.1685 25.3619 25.1067 25.4726 25.0705 25.5921C25.0344 25.7115 25.0248 25.8368 25.0423 25.9588L25.9225 30.2893C25.9735 30.447 26.0651 30.5873 26.1882 30.6962C26.3113 30.8051 26.4615 30.8788 26.624 30.9099C27.078 31.0223 27.5551 31.0246 28.0167 30.9166C28.4782 30.8087 28.9113 30.5936 29.2807 30.2887C29.3942 30.1843 29.4901 30.062 29.5647 29.9271Z" fill="#4B7FB0"/>
<path d="M25.4244 25.0577C24.7727 25.6553 24.9147 26.3416 25.7372 26.5964C26.1923 26.7085 26.6704 26.7102 27.1329 26.6014C27.5953 26.4925 28.029 26.2762 28.3986 25.9699C29.0506 25.3758 28.9083 24.6861 28.0861 24.4348C27.6312 24.3229 27.1533 24.321 26.691 24.4293C26.2286 24.5375 25.7948 24.7527 25.4244 25.0577Z" fill="#4B7FB0"/>
<path opacity="0.8" d="M25.4244 25.0577C24.7727 25.6553 24.9147 26.3416 25.7372 26.5964C26.1923 26.7085 26.6704 26.7102 27.1329 26.6014C27.5953 26.4925 28.029 26.2762 28.3986 25.9699C29.0506 25.3758 28.9083 24.6861 28.0861 24.4348C27.6312 24.3229 27.1533 24.321 26.691 24.4293C26.2286 24.5375 25.7948 24.7527 25.4244 25.0577Z" fill="white"/>
<path d="M26.5909 25.3709C26.5228 25.1729 26.4739 24.9684 26.4448 24.76L26.0012 22.5596C25.821 21.6474 25.5957 20.5862 25.3705 19.4478L24.7094 15.8834L23.449 9.1684C23.2791 8.25504 23.1334 7.49323 23.0363 6.96077C22.9842 6.69322 22.9443 6.48387 22.9176 6.34315C22.8909 6.20243 22.8972 6.11745 22.9246 6.11069C22.9488 6.10782 22.99 6.17662 23.0201 6.31693C23.0503 6.45725 23.0965 6.65883 23.1562 6.9325C23.2705 7.4629 23.4401 8.21837 23.6374 9.12497C24.0389 10.9374 24.572 13.3553 25.1054 15.7767C25.3683 16.9843 25.6316 18.1955 25.881 19.331C26.1304 20.4666 26.338 21.5264 26.5114 22.4393C26.6848 23.3523 26.8579 24.1073 26.9688 24.6381C27.0234 24.8401 27.0586 25.0475 27.0736 25.2574C27.0486 25.2967 27.0162 25.3308 26.9783 25.3578C26.9404 25.3848 26.8978 25.4041 26.853 25.4147C26.8081 25.4252 26.7618 25.4268 26.7168 25.4193C26.6719 25.4117 26.629 25.3953 26.5909 25.3709Z" fill="#455A64"/>
<path opacity="0.5" d="M33.185 30.6204C35.6619 31.6587 35.2896 33.6955 33.336 35.4557C31.3823 37.2159 27.382 38.0629 25.9317 37.9541C28.6445 38.1588 31.9512 37.1972 33.9124 35.5209C36.1517 33.6063 35.8029 31.4616 33.185 30.6204Z" fill="white"/>
<path d="M43.9196 84.6415C41.0762 86.6689 36.682 87.5416 33.5506 86.5827C31.9487 86.0706 30.9732 85.1954 30.6404 84.138L30.6161 84.1409L20.8069 35.8911C21.0454 37.0687 22.0525 38.0632 23.7928 38.5939L32.8224 82.9843C33.3187 85.4393 37.2765 87.3299 43.9196 84.6415Z" fill="#4B7FB0"/>
<path opacity="0.3" d="M27.4145 39.0817C30.2124 38.8909 33.1414 37.7988 35.0153 36.078C37.7641 33.5502 37.1748 30.6357 33.6955 29.5708C33.3855 29.4724 33.0694 29.3925 32.7489 29.3315C34.571 29.7623 36.5893 31.1752 36.1842 33.3903C35.7791 35.6054 32.5191 38.3603 27.4145 39.0817Z" fill="white"/>
<path opacity="0.4" d="M36.7729 32.2379L46.611 80.3865L46.5868 80.3894C46.7042 81.4949 46.1628 82.7382 44.8971 83.8991L44.7154 84.054C46.7113 81.8835 45.9843 80.2609 45.4476 77.6507L36.5477 34.0788C36.8098 33.4982 36.8885 32.855 36.7729 32.2379Z" fill="white"/>
<path opacity="0.3" d="M30.297 27.5328C30.246 27.5142 30.1893 27.5104 30.1351 27.4957C31.0066 27.8259 31.8877 28.6992 31.2517 29.8709C30.6157 31.0427 27.7438 32.7898 24.5072 31.7395C24.7531 31.9085 25.0249 32.0369 25.3128 32.12C27.0551 32.6533 29.5823 32.0641 30.9603 30.7964C32.3384 29.5286 32.0393 28.0661 30.297 27.5328Z" fill="white"/>
<path opacity="0.3" d="M28.0872 24.4354C27.9109 24.3855 27.7286 24.3576 27.5443 24.3521C28.0896 24.4633 28.6857 24.8688 28.5374 25.4199C28.4104 25.8944 27.3879 26.8754 25.6003 26.5386C25.6455 26.5601 25.6919 26.5793 25.7392 26.5961C26.1941 26.7082 26.672 26.7099 27.1343 26.6011C27.5965 26.4923 28.03 26.276 28.3995 25.9699C29.0478 25.3764 28.9091 24.6866 28.0872 24.4354Z" fill="white"/>
<path opacity="0.4" d="M50.2215 109.546C49.9644 109.467 49.6945 109.404 49.4183 109.349C54.6414 110.472 53.1659 115.204 48.9115 117.293C44.576 119.421 39.9365 118.68 38.6459 117.955C39.1381 118.285 39.6783 118.538 40.2489 118.706C43.7337 119.776 48.791 118.594 51.5437 116.063C54.2964 113.531 53.7156 110.601 50.2215 109.546Z" fill="white"/>
</g>
<defs>
<clipPath id="clip0_871_3615">
<rect width="103" height="131" fill="white" transform="translate(20 6)"/>
</clipPath>
</defs>
</svg>
