<svg width="367" height="400" viewBox="0 0 367 400" fill="none" xmlns="http://www.w3.org/2000/svg">
<rect width="367" height="400" rx="50" fill="#12395D"/>
<path d="M195.875 247.875C195.875 251.125 194.708 253.833 192.375 256C190.042 258.167 187.25 259.25 184 259.25C180.75 259.25 177.958 258.167 175.625 256C173.292 253.833 172.125 251.125 172.125 247.875V210.75L173.125 192L164.25 201.375L156.125 209.75C155.208 210.833 154.042 211.708 152.625 212.375C151.208 212.958 149.792 213.25 148.375 213.25C145.292 213.25 142.75 212.333 140.75 210.5C138.75 208.583 137.75 206.125 137.75 203.125C137.75 201.458 138.042 200 138.625 198.75C139.292 197.417 140.25 196.208 141.5 195.125L174.625 164.75C176.208 163.417 177.708 162.417 179.125 161.75C180.625 161 182.25 160.625 184 160.625C185.75 160.625 187.333 161 188.75 161.75C190.167 162.417 191.667 163.417 193.25 164.75L226.375 195.125C227.625 196.208 228.542 197.417 229.125 198.75C229.792 200 230.125 201.458 230.125 203.125C230.125 206.125 229.125 208.583 227.125 210.5C225.125 212.333 222.625 213.25 219.625 213.25C218.125 213.25 216.667 212.958 215.25 212.375C213.833 211.708 212.667 210.833 211.75 209.75L203.625 201.375L194.75 192L195.875 210.75V247.875ZM58.125 165.75C58.125 153.917 60 143.125 63.75 133.375C67.5833 123.625 72.875 115.208 79.625 108.125C86.4583 101.042 94.3333 95.625 103.25 91.875C112.167 88.0417 121.792 86.125 132.125 86.125C144.208 86.125 154.833 88.625 164 93.625C173.167 98.5417 180.5 105.042 186 113.125C191.583 105.042 198.917 98.5417 208 93.625C217.167 88.625 227.792 86.125 239.875 86.125C250.208 86.125 259.833 88.0417 268.75 91.875C277.75 95.625 285.625 101.042 292.375 108.125C299.125 115.208 304.417 123.625 308.25 133.375C312.083 143.125 314 153.917 314 165.75C314 183.583 309.292 201.292 299.875 218.875C290.458 236.375 277.167 253.417 260 270C242.833 286.5 222.708 302.25 199.625 317.25C197.292 318.75 194.875 320.083 192.375 321.25C189.958 322.5 187.833 323.125 186 323.125C184.25 323.125 182.125 322.5 179.625 321.25C177.208 320.083 174.833 318.75 172.5 317.25C149.333 302.25 129.208 286.5 112.125 270C95.0417 253.417 81.75 236.375 72.25 218.875C62.8333 201.292 58.125 183.583 58.125 165.75ZM87.125 165.625C87.125 176.208 89.6667 187.083 94.75 198.25C99.8333 209.333 106.792 220.333 115.625 231.25C124.542 242.083 134.833 252.583 146.5 262.75C158.167 272.917 170.625 282.375 183.875 291.125C185.042 291.958 185.75 292.375 186 292.375C186.333 292.375 187.083 291.958 188.25 291.125C201.417 282.375 213.833 272.917 225.5 262.75C237.25 252.583 247.583 242.083 256.5 231.25C265.417 220.333 272.375 209.333 277.375 198.25C282.458 187.083 285 176.208 285 165.625C285 155.375 282.917 146.417 278.75 138.75C274.583 131.083 268.917 125.125 261.75 120.875C254.583 116.542 246.458 114.375 237.375 114.375C230.125 114.375 223.875 115.625 218.625 118.125C213.458 120.542 209 123.667 205.25 127.5C201.583 131.25 198.333 135.042 195.5 138.875C193.667 141.292 192.042 143.042 190.625 144.125C189.292 145.208 187.75 145.75 186 145.75C184.333 145.75 182.75 145.25 181.25 144.25C179.833 143.167 178.25 141.375 176.5 138.875C173.833 135.042 170.667 131.25 167 127.5C163.333 123.75 158.875 120.625 153.625 118.125C148.375 115.625 142.042 114.375 134.625 114.375C125.542 114.375 117.417 116.542 110.25 120.875C103.167 125.125 97.5417 131.083 93.375 138.75C89.2083 146.417 87.125 155.375 87.125 165.625Z" fill="#F2F2F7"/>
</svg>
