<svg width="325" height="286" viewBox="0 0 325 286" fill="none" xmlns="http://www.w3.org/2000/svg">
<rect x="0.5" width="324" height="285.316" rx="30" fill="#D7D7D7"/>
<path d="M149.448 126.658C153.283 126.658 156.396 129.837 156.396 133.769C156.396 137.702 153.283 140.88 149.448 140.88C145.606 140.88 142.5 137.702 142.5 133.769C142.5 129.837 145.606 126.658 149.448 126.658ZM151.541 146.32C152.266 145.331 153.697 145.229 154.553 146.105L158.239 149.878C159.096 150.754 160.526 150.652 161.251 149.663L168.6 139.635C169.42 138.515 171.098 138.561 171.856 139.726L182.171 155.561C183.038 156.891 182.091 158.658 180.512 158.658H146.433C144.804 158.658 143.869 156.79 144.836 155.47L151.541 146.32Z" fill="black"/>
</svg>
