<svg width="51" height="80" viewBox="0 0 51 80" fill="none" xmlns="http://www.w3.org/2000/svg">
<g clip-path="url(#clip0_1024_7095)">
<path d="M26.1043 0.152344C26.1043 0.152344 51.3588 34.7809 51.3588 54.019C51.3588 60.7732 48.698 67.2507 43.9619 72.0267C39.2258 76.8026 32.8022 79.4857 26.1043 79.4857C19.4064 79.4857 12.9828 76.8026 8.24671 72.0267C3.51059 67.2507 0.849854 60.7732 0.849854 54.019C0.849854 34.7809 26.1043 0.152344 26.1043 0.152344Z" fill="#4B7FB0"/>
<path opacity="0.2" d="M27.1809 6.32373C29.5451 15.2834 30.8138 24.5011 30.9587 33.7714C30.732 45.8285 27.1809 55.3523 33.2253 58.1523C39.2698 60.9523 47.0709 53.2761 44.5587 41.5618C42.0465 29.8475 27.1809 6.32373 27.1809 6.32373Z" fill="white"/>
<path opacity="0.15" d="M27.4076 64.9714C9.06652 62.8572 3.41876 41.2191 12.8821 20.9524C6.7621 31.8095 0.849854 44.7238 0.849854 54.0381C0.849854 60.7923 3.51059 67.2698 8.24671 72.0458C12.9828 76.8217 19.4064 79.5048 26.1043 79.5048C32.8022 79.5048 39.2258 76.8217 43.9619 72.0458C48.698 67.2698 51.3588 60.7923 51.3588 54.0381C51.283 50.8079 50.7682 47.6034 49.8288 44.5143C51.2076 52.9524 45.7487 67.0286 27.4076 64.9714Z" fill="black"/>
</g>
<defs>
<clipPath id="clip0_1024_7095">
<rect width="51" height="80" fill="white"/>
</clipPath>
</defs>
</svg>
