<svg width="100" height="60" viewBox="0 0 100 60" fill="none" xmlns="http://www.w3.org/2000/svg">
<path d="M1.31657 24.9781L60.1601 58.9583C61.1391 59.4559 62.2218 59.7152 63.32 59.7152C64.4182 59.7152 65.5009 59.4559 66.4799 58.9583L98.6721 40.3705C100.442 39.3703 100.442 37.7151 98.6721 36.7238L39.8198 2.75238C38.8423 2.25492 37.7611 1.99561 36.6643 1.99561C35.5675 1.99561 34.4863 2.25492 33.5088 2.75238L1.31657 21.3402C-0.427138 22.3404 -0.427138 23.9779 1.31657 24.9781Z" fill="#F0F0F0"/>
<path d="M1.30778 23.2699L60.1601 57.2502C61.1392 57.7477 62.2219 58.007 63.3201 58.007C64.4183 58.007 65.501 57.7477 66.48 57.2502L98.6722 38.6624C100.442 37.6533 100.442 36.007 98.6722 35.0156L39.8198 1.03536C38.8396 0.541923 37.7574 0.284912 36.6599 0.284912C35.5625 0.284912 34.4803 0.541923 33.5 1.03536L1.30778 19.6232C-0.435927 20.6322 -0.435927 22.2609 1.30778 23.2699Z" fill="white"/>
<path d="M66.4799 57.2503L95.5122 40.4859C86.3688 45.1682 69.0025 55.1879 66.4356 56.1881C63.8687 57.1883 62.3551 57.6309 57.5843 54.8693C52.8134 52.1077 4.56494 25.1465 4.56494 25.1465L60.1689 57.2503C61.1468 57.7464 62.2278 58.0049 63.3244 58.0049C64.4209 58.0049 65.502 57.7464 66.4799 57.2503Z" fill="#FAFAFA"/>
<path d="M80.8284 45.6907C80.706 45.7515 80.5712 45.7831 80.4345 45.7831C80.2978 45.7831 80.163 45.7515 80.0406 45.6907L21.383 11.8166C21.1528 11.6927 21.144 11.4891 21.383 11.3652C21.5054 11.3044 21.6402 11.2727 21.7769 11.2727C21.9135 11.2727 22.0484 11.3044 22.1707 11.3652L80.8284 45.2304C81.0674 45.3631 81.0762 45.5667 80.8284 45.6907Z" fill="#E0E0E0"/>
<g style="mix-blend-mode:hard-light" opacity="0.7">
<path d="M33.5884 14.5425C33.7744 14.6516 33.9699 14.7434 34.1726 14.8169L34.4027 14.9054C35.2757 15.1799 36.1944 15.2789 37.1059 15.1969C38.0173 15.1149 38.9035 14.8534 39.7135 14.4275L45.2456 11.2321C45.874 10.9063 46.4032 10.4175 46.7778 9.8169C47.1524 9.21632 47.3587 8.52608 47.3749 7.81843C47.3912 7.11078 47.217 6.41178 46.8704 5.7946C46.5238 5.17743 46.0176 4.66481 45.4049 4.31039C45.2173 4.20455 45.022 4.11283 44.8207 4.036L44.5906 3.95635C43.718 3.68152 42.7998 3.5815 41.8885 3.662C40.9772 3.74249 40.0907 4.00193 39.2798 4.42547L33.7477 7.61192H33.7035C33.0371 7.95891 32.4819 8.48652 32.1014 9.13435C31.8414 9.584 31.6727 10.0805 31.605 10.5955C31.5373 11.1104 31.5718 11.6337 31.7067 12.1353C31.8415 12.6369 32.074 13.1069 32.3908 13.5185C32.7077 13.93 33.1026 14.275 33.553 14.5337L33.5884 14.5425Z" fill="#FAFAFA"/>
</g>
<path d="M45.4234 7.70053C44.4668 7.23702 43.4143 7.00586 42.3515 7.02585C41.2887 7.04585 40.2456 7.31644 39.3071 7.81561L33.775 11.011C32.0048 12.0112 31.9428 13.5955 33.5803 14.5515C34.5367 15.0157 35.5893 15.2472 36.6522 15.2272C37.7151 15.2072 38.7583 14.9363 39.6966 14.4364L45.2286 11.2411C46.9812 10.2232 47.0697 8.64763 45.4234 7.70053Z" fill="#E0E0E0"/>
<path d="M46.963 9.52372C47.4349 8.62271 47.54 7.57409 47.2562 6.59738C46.9724 5.62068 46.3218 4.79163 45.4406 4.28374C45.253 4.1779 45.0577 4.08618 44.8564 4.00935L44.6263 3.92969C43.1102 3.4628 41.4819 3.51259 39.9971 4.07129C42.5905 3.80575 44.1926 3.73494 45.8212 5.09805C46.4418 5.6301 46.884 6.33983 47.0882 7.13131C47.2924 7.92279 47.2487 8.75786 46.963 9.52372Z" fill="white"/>
<path d="M37.1115 6.87727C37.3748 6.75733 37.6652 6.70968 37.953 6.73923C38.2408 6.76879 38.5156 6.8745 38.749 7.04544C39.4218 7.48333 39.9818 8.07391 40.3833 8.76914C40.7847 9.46437 41.0163 10.2446 41.0592 11.0462C41.0884 11.3336 41.0407 11.6236 40.921 11.8865C40.8012 12.1493 40.6137 12.3756 40.3776 12.5421L37.4036 14.2504C36.6554 14.6393 35.7861 14.7246 34.9767 14.4887C34.1672 14.2527 33.4799 13.7136 33.0579 12.9837C32.6359 12.2537 32.5117 11.3891 32.7111 10.5699C32.9106 9.75063 33.4183 9.03987 34.1286 8.58557L37.1115 6.87727Z" fill="#F5F5F5"/>
<path d="M41.209 4.52262C41.5817 4.28424 41.9989 4.12384 42.4353 4.05113C42.8717 3.97841 43.3184 3.99488 43.7482 4.09953C44.1781 4.20419 44.5823 4.39485 44.9365 4.66003C45.2907 4.92522 45.5874 5.25941 45.8089 5.64244C46.0303 6.02547 46.1718 6.4494 46.2249 6.88864C46.278 7.32788 46.2415 7.77332 46.1177 8.19808C45.9939 8.62284 45.7853 9.01812 45.5045 9.36003C45.2237 9.70195 44.8766 9.98342 44.484 10.1875L40.377 12.5419C40.613 12.3754 40.8006 12.1492 40.9203 11.8863C41.0401 11.6234 41.0878 11.3334 41.0585 11.046C41.0157 10.2444 40.7841 9.46418 40.3826 8.76896C39.9812 8.07373 39.4212 7.48315 38.7483 7.04526C38.5149 6.87431 38.2402 6.76861 37.9524 6.73905C37.6646 6.70949 37.3741 6.75714 37.1108 6.87708L41.209 4.52262Z" fill="black"/>
<path opacity="0.4" d="M44.998 7.56781C44.9164 7.42513 44.8073 7.29997 44.6772 7.19956C44.547 7.09914 44.3983 7.02545 44.2395 6.98268C44.0808 6.93991 43.9152 6.92891 43.7522 6.95034C43.5892 6.97177 43.432 7.02521 43.2897 7.10755L38.333 9.95768C38.7231 10.663 39.2867 11.2571 39.9705 11.6837L40.1652 11.7899L44.5466 9.27611C44.8315 9.10805 45.0387 8.83446 45.1232 8.51467C45.2077 8.19488 45.1627 7.85467 44.998 7.56781Z" fill="white"/>
<path d="M37.1115 6.87727C37.3748 6.75733 37.6652 6.70968 37.953 6.73923C38.2408 6.76879 38.5156 6.8745 38.749 7.04544C39.4218 7.48333 39.9818 8.07391 40.3833 8.76914C40.7847 9.46437 41.0163 10.2446 41.0592 11.0462C41.0884 11.3336 41.0407 11.6236 40.921 11.8865C40.8012 12.1493 40.6137 12.3756 40.3776 12.5421L37.4036 14.2504C36.6554 14.6393 35.7861 14.7246 34.9767 14.4887C34.1672 14.2527 33.4799 13.7136 33.0579 12.9837C32.6359 12.2537 32.5117 11.3891 32.7111 10.5699C32.9106 9.75063 33.4183 9.03987 34.1286 8.58557L37.1115 6.87727Z" fill="#F5F5F5"/>
<path opacity="0.1" d="M41.0585 11.0464C41.0157 10.2447 40.7841 9.46451 40.3826 8.76928C39.9812 8.07406 39.4212 7.48347 38.7483 7.04558C38.5149 6.87464 38.2402 6.76893 37.9524 6.73938C37.6646 6.70982 37.3741 6.75747 37.1108 6.87741L37.341 6.74464L37.518 6.64726C37.7799 6.52328 38.0704 6.47264 38.3588 6.5007C38.6471 6.52875 38.9225 6.63447 39.1555 6.80661C39.8274 7.24554 40.3866 7.83638 40.7879 8.53139C41.1892 9.22639 41.4214 10.0061 41.4657 10.8074C41.4959 11.094 41.4496 11.3834 41.3314 11.6462C41.2132 11.909 41.0274 12.1357 40.793 12.3033L40.377 12.5423C40.613 12.3758 40.8006 12.1495 40.9203 11.8866C41.0401 11.6238 41.0878 11.3338 41.0585 11.0464Z" fill="black"/>
<path d="M34.447 14.4098C33.893 14.1674 33.4171 13.776 33.0724 13.2792C32.7277 12.7824 32.5277 12.1996 32.4946 11.5958C32.4616 10.992 32.5968 10.3908 32.8853 9.85935C33.1738 9.32787 33.6041 8.88689 34.1284 8.58557L37.1113 6.87727C37.3745 6.75733 37.665 6.70968 37.9528 6.73923C38.2406 6.76879 38.5153 6.8745 38.7488 7.04544C39.0369 7.21727 39.3017 7.4255 39.5365 7.66502L34.5709 10.524C32.9423 11.4711 33.5265 13.8521 34.447 14.4098Z" fill="#E0E0E0"/>
<path d="M34.8988 13.3654C34.8164 13.2231 34.763 13.0659 34.7416 12.903C34.7202 12.74 34.7312 12.5743 34.7739 12.4156C34.8167 12.2568 34.8904 12.1081 34.9908 11.9779C35.0912 11.8478 35.2164 11.7387 35.3591 11.6571L40.3777 8.7627C40.7938 9.45431 41.0282 10.2398 41.0593 11.0463C41.0639 11.12 41.0639 11.1939 41.0593 11.2676L36.6337 13.8257C36.4903 13.9122 36.3309 13.969 36.1651 13.9927C35.9993 14.0164 35.8305 14.0065 35.6686 13.9635C35.5067 13.9206 35.3551 13.8455 35.2229 13.7427C35.0906 13.64 34.9804 13.5116 34.8988 13.3654Z" fill="white"/>
<path opacity="0.1" d="M45.8569 6.08929C45.8842 6.14371 45.9079 6.19989 45.9277 6.25747C45.9464 6.30031 45.9612 6.34477 45.972 6.39026C45.977 6.43734 45.977 6.48479 45.972 6.53186V6.68235C45.972 6.68235 45.972 6.73545 45.972 6.762C46.016 6.98338 46.0338 7.20917 46.0251 7.43471C46.0298 7.51726 46.0298 7.6 46.0251 7.68255C46.0251 6.61154 44.2548 4.91209 42.5996 5.85918L39.4663 7.62944C39.2314 7.38992 38.9666 7.18166 38.6785 7.00984C38.4451 6.83889 38.1704 6.73322 37.8826 6.70366C37.5948 6.6741 37.3043 6.72173 37.041 6.84166L41.1392 4.48721C41.5109 4.27143 41.9217 4.13118 42.3477 4.07446C42.7738 4.01774 43.2069 4.04567 43.6222 4.15668C44.0375 4.2677 44.4268 4.4596 44.7677 4.72137C45.1087 4.98314 45.3946 5.30964 45.6091 5.68214C45.6622 5.77065 45.7064 5.85918 45.7507 5.9477C45.795 6.03621 45.8481 6.05389 45.8569 6.08929Z" fill="black"/>
<g style="mix-blend-mode:hard-light" opacity="0.7">
<path d="M12.948 26.5629C13.1357 26.6687 13.3309 26.7604 13.5322 26.8373L13.7624 26.9258C14.6356 27.1988 15.5541 27.2971 16.4653 27.2151C17.3765 27.1331 18.2627 26.8723 19.0731 26.4478L24.6052 23.2525C25.273 22.9066 25.8263 22.3748 26.1984 21.7212C26.4586 21.2728 26.6276 20.7774 26.6959 20.2635C26.7642 19.7496 26.7303 19.2272 26.5962 18.7264C26.4622 18.2256 26.2306 17.7562 25.9148 17.3451C25.5989 16.934 25.205 16.5893 24.7557 16.3307C24.5679 16.2252 24.3726 16.1335 24.1715 16.0564L23.9414 15.9767C22.1788 15.4236 20.2689 15.5923 18.6306 16.4458L13.0985 19.6412H13.0542C12.4259 19.967 11.8967 20.4558 11.5221 21.0564C11.1474 21.657 10.9412 22.3472 10.9249 23.0548C10.9086 23.7625 11.0829 24.4615 11.4295 25.0787C11.776 25.6959 12.2822 26.2085 12.8949 26.5629H12.948Z" fill="#FAFAFA"/>
</g>
<path d="M24.7999 19.7206C23.8412 19.2591 22.7875 19.0291 21.7236 19.0491C20.6598 19.069 19.6155 19.3385 18.6748 19.8357L13.1427 23.031C11.3724 24.0401 11.3105 25.6156 12.948 26.5715C13.9061 27.0351 14.9601 27.2663 16.0243 27.2463C17.0885 27.2263 18.133 26.9557 19.0731 26.4565L24.6052 23.2612C26.3489 22.2521 26.4374 20.6677 24.7999 19.7206Z" fill="#E0E0E0"/>
<path d="M26.3214 21.5526C26.7937 20.6502 26.899 19.6003 26.6153 18.6221C26.3316 17.644 25.6808 16.8133 24.799 16.3037C24.6112 16.1982 24.4159 16.1065 24.2148 16.0294L23.9846 15.9497C22.4715 15.4828 20.846 15.5326 19.3643 16.0913C21.9577 15.8346 23.5509 15.755 25.1796 17.1181C25.7998 17.6523 26.2416 18.3636 26.4458 19.1563C26.6499 19.949 26.6065 20.7852 26.3214 21.5526Z" fill="white"/>
<path d="M16.4703 18.9066C16.7322 18.7826 17.0227 18.7319 17.3111 18.76C17.5994 18.788 17.8748 18.8937 18.1078 19.0659C18.7797 19.5048 19.3389 20.0957 19.7402 20.7907C20.1415 21.4857 20.3737 22.2654 20.418 23.0667C20.4482 23.3533 20.4019 23.6427 20.2837 23.9055C20.1655 24.1683 19.9797 24.395 19.7453 24.5626L16.7624 26.2709C16.0112 26.704 15.1187 26.8209 14.2813 26.596C13.4438 26.3711 12.7301 25.8227 12.2969 25.0715C11.8638 24.3203 11.7469 23.4278 11.9718 22.5904C12.1967 21.7529 12.7451 21.0392 13.4963 20.606L16.4703 18.9066Z" fill="#F5F5F5"/>
<path d="M20.5678 16.5431C20.9406 16.3048 21.3577 16.1444 21.7941 16.0716C22.2306 15.9989 22.6772 16.0154 23.1071 16.12C23.5369 16.2247 23.9412 16.4154 24.2953 16.6806C24.6495 16.9457 24.9462 17.2799 25.1677 17.663C25.3891 18.046 25.5306 18.4699 25.5837 18.9092C25.6368 19.3484 25.6003 19.7938 25.4765 20.2186C25.3527 20.6434 25.1441 21.0386 24.8633 21.3805C24.5825 21.7224 24.2354 22.0039 23.8428 22.208L19.7535 24.5624C19.9879 24.3949 20.1737 24.1681 20.2919 23.9053C20.4101 23.6426 20.4564 23.3531 20.4262 23.0666C20.3819 22.2652 20.1498 21.4856 19.7484 20.7906C19.3471 20.0955 18.7879 19.5047 18.116 19.0657C17.883 18.8936 17.6076 18.7879 17.3193 18.7598C17.0309 18.7318 16.7404 18.7824 16.4785 18.9064L20.5678 16.5431Z" fill="black"/>
<path opacity="0.4" d="M24.3653 19.5791C24.2828 19.4362 24.1729 19.3108 24.0419 19.2103C23.911 19.1098 23.7615 19.036 23.602 18.9933C23.4426 18.9506 23.2763 18.9396 23.1126 18.9612C22.9489 18.9827 22.7911 19.0363 22.6481 19.1189L17.6914 21.969C18.0782 22.6884 18.6417 23.2976 19.3289 23.7393L19.5325 23.8455L23.905 21.3317C24.0537 21.2502 24.1842 21.1392 24.2886 21.0055C24.3929 20.8719 24.469 20.7184 24.5121 20.5544C24.5551 20.3904 24.5643 20.2193 24.5391 20.0517C24.5139 19.884 24.4547 19.7232 24.3653 19.5791Z" fill="white"/>
<path d="M16.4703 18.9066C16.7322 18.7826 17.0227 18.7319 17.3111 18.76C17.5994 18.788 17.8748 18.8937 18.1078 19.0659C18.7797 19.5048 19.3389 20.0957 19.7402 20.7907C20.1415 21.4857 20.3737 22.2654 20.418 23.0667C20.4482 23.3533 20.4019 23.6427 20.2837 23.9055C20.1655 24.1683 19.9797 24.395 19.7453 24.5626L16.7624 26.2709C16.0112 26.704 15.1187 26.8209 14.2813 26.596C13.4438 26.3711 12.7301 25.8227 12.2969 25.0715C11.8638 24.3203 11.7469 23.4278 11.9718 22.5904C12.1967 21.7529 12.7451 21.0392 13.4963 20.606L16.4703 18.9066Z" fill="#F5F5F5"/>
<path opacity="0.1" d="M20.4174 23.0664C20.3731 22.265 20.1409 21.4854 19.7396 20.7903C19.3383 20.0953 18.7791 19.5045 18.1072 19.0655C17.8742 18.8934 17.5988 18.7877 17.3105 18.7596C17.0221 18.7316 16.7316 18.7822 16.4697 18.9062L16.7087 18.7646L16.8857 18.6672C17.1471 18.5477 17.4355 18.4995 17.7215 18.5275C18.0076 18.5555 18.2811 18.6587 18.5144 18.8266C19.1877 19.2639 19.7481 19.8544 20.1496 20.5497C20.5511 21.2451 20.7824 22.0255 20.8246 22.8274C20.8557 23.114 20.8098 23.4038 20.6915 23.6667C20.5733 23.9297 20.387 24.1563 20.1519 24.3232L19.7447 24.5622C19.9791 24.3947 20.1649 24.1679 20.2831 23.9051C20.4013 23.6423 20.4476 23.3529 20.4174 23.0664Z" fill="black"/>
<path d="M13.8063 26.4302C13.2527 26.187 12.7776 25.7949 12.4337 25.2976C12.0898 24.8002 11.8907 24.2173 11.8586 23.6135C11.8265 23.0097 11.9626 22.4089 12.2518 21.8779C12.541 21.3469 12.9718 20.9066 13.4965 20.606L16.4705 18.9066C16.7324 18.7826 17.0229 18.7319 17.3113 18.76C17.5996 18.788 17.875 18.8937 18.108 19.0659C18.4005 19.2352 18.6685 19.4437 18.9046 19.6855L13.939 22.5533C12.3104 23.5004 12.8857 25.8726 13.8063 26.4302Z" fill="#E0E0E0"/>
<path d="M14.2569 25.3852C14.093 25.0972 14.0494 24.7562 14.1356 24.4363C14.2218 24.1164 14.4308 23.8435 14.7172 23.6769L19.7359 20.7825C20.1558 21.4723 20.3906 22.2589 20.4174 23.0661C20.422 23.1398 20.422 23.2137 20.4174 23.2874L15.9918 25.8454C15.848 25.9308 15.6888 25.9866 15.5232 26.0096C15.3577 26.0327 15.1892 26.0225 15.0277 25.9796C14.8661 25.9367 14.7147 25.8621 14.5824 25.76C14.4501 25.658 14.3394 25.5305 14.2569 25.3852Z" fill="white"/>
<path opacity="0.1" d="M25.2237 18.1094C25.2237 18.1625 25.268 18.2245 25.2945 18.2865C25.3211 18.3484 25.2945 18.3661 25.2945 18.4104C25.2945 18.4546 25.2945 18.5078 25.3388 18.552C25.383 18.5963 25.3388 18.6494 25.3388 18.7025C25.3388 18.7556 25.3388 18.7556 25.3388 18.7821C25.374 19.0047 25.3918 19.2296 25.3919 19.4548C25.3919 19.5345 25.3919 19.6142 25.3919 19.6938C25.3919 18.6228 23.6216 16.9322 21.9664 17.8705L18.833 19.6407C18.5969 19.3989 18.3289 19.1905 18.0364 19.0211C17.8034 18.849 17.5281 18.7433 17.2397 18.7152C16.9514 18.6872 16.6608 18.7378 16.3989 18.8618L20.4971 16.4985C21.2498 16.0647 22.1438 15.9468 22.9833 16.1708C23.8228 16.3948 24.5392 16.9423 24.9758 17.6934L25.1086 17.9678C25.1511 18.0115 25.1896 18.0589 25.2237 18.1094Z" fill="black"/>
<g style="mix-blend-mode:hard-light" opacity="0.7">
<path d="M48.3967 23.093C48.5835 23.2005 48.7789 23.2923 48.9809 23.3674L49.2111 23.4559C50.0841 23.7303 51.0027 23.8294 51.9142 23.7474C52.8256 23.6653 53.7119 23.4038 54.5218 22.9779L60.0628 19.7826C60.7425 19.4338 61.3061 18.8949 61.685 18.2314C62.0639 17.568 62.2416 16.8087 62.1966 16.046C62.1516 15.2833 61.8857 14.5502 61.4314 13.9359C60.9771 13.3217 60.354 12.8528 59.6379 12.5865L59.4078 12.5068C58.5354 12.2305 57.617 12.1297 56.7055 12.2102C55.794 12.2907 54.9074 12.551 54.097 12.9759L48.5561 16.1712C47.9253 16.495 47.3937 16.983 47.0172 17.5838C46.6407 18.1846 46.4334 18.8759 46.4171 19.5847C46.4007 20.2935 46.576 20.9936 46.9245 21.6111C47.2729 22.2285 47.7815 22.7405 48.3967 23.093Z" fill="#FAFAFA"/>
</g>
<path d="M60.2491 16.2509C59.291 15.7873 58.237 15.5562 57.1728 15.5761C56.1086 15.5961 55.0641 15.8667 54.124 16.366L48.5919 19.5613C46.8217 20.5615 46.7597 22.1459 48.3972 23.1018C49.3536 23.566 50.4062 23.7976 51.4691 23.7776C52.5321 23.7576 53.5752 23.4866 54.5135 22.9868L60.0544 19.7914C61.7981 18.7735 61.8778 17.198 60.2491 16.2509Z" fill="#E0E0E0"/>
<path d="M61.7716 18.0831C62.2439 17.1808 62.3492 16.1308 62.0655 15.1527C61.7818 14.1745 61.131 13.3438 60.2492 12.8343C60.0624 12.7268 59.867 12.635 59.665 12.5599L59.4348 12.4802C57.9217 12.0133 56.2962 12.0632 54.8145 12.6218C57.4079 12.3563 59.0011 12.2855 60.6298 13.6486C61.25 14.1828 61.6919 14.8941 61.896 15.6868C62.1001 16.4796 62.0567 17.3158 61.7716 18.0831Z" fill="white"/>
<path d="M51.92 15.4278C52.1833 15.3079 52.4738 15.2602 52.7616 15.2898C53.0494 15.3193 53.3241 15.425 53.5575 15.596C54.2304 16.0339 54.7903 16.6245 55.1918 17.3197C55.5932 18.0149 55.8248 18.7951 55.8677 19.5968C55.8988 19.8843 55.852 20.175 55.7321 20.4382C55.6122 20.7014 55.4236 20.9275 55.1862 21.0927L52.2121 22.801C51.8402 23.0154 51.4296 23.1545 51.0039 23.2103C50.5782 23.2661 50.1456 23.2375 49.731 23.1261C49.3163 23.0148 48.9277 22.8228 48.5872 22.5612C48.2467 22.2996 47.9611 21.9736 47.7466 21.6016C47.5322 21.2297 47.3931 20.8191 47.3373 20.3934C47.2815 19.9676 47.3101 19.5351 47.4215 19.1205C47.5329 18.7058 47.7248 18.3171 47.9864 17.9767C48.2479 17.6362 48.574 17.3506 48.946 17.1361L51.92 15.4278Z" fill="#F5F5F5"/>
<path d="M56.0443 13.0732C56.7925 12.6843 57.6618 12.599 58.4713 12.835C59.2807 13.0709 59.968 13.61 60.39 14.3399C60.812 15.0699 60.9362 15.9345 60.7368 16.7538C60.5373 17.573 60.0296 18.2838 59.3193 18.7381L55.1592 21.0925C55.3966 20.9273 55.5852 20.7013 55.7051 20.4381C55.8251 20.1749 55.8719 19.8842 55.8407 19.5966C55.7979 18.795 55.5663 18.0148 55.1648 17.3195C54.7634 16.6243 54.2034 16.0337 53.5306 15.5958C53.2972 15.4249 53.0224 15.3192 52.7346 15.2896C52.4468 15.2601 52.1563 15.3077 51.8931 15.4277L56.0443 13.0732Z" fill="black"/>
<path opacity="0.4" d="M59.815 16.1092C59.7325 15.9662 59.6226 15.8408 59.4917 15.7403C59.3607 15.6398 59.2112 15.5661 59.0518 15.5233C58.8923 15.4806 58.726 15.4697 58.5623 15.4912C58.3986 15.5128 58.2408 15.5664 58.0979 15.6489L53.1411 18.499C53.5312 19.2044 54.0948 19.7984 54.7786 20.225L54.9822 20.3313L59.3547 17.8175C59.6411 17.6509 59.8502 17.3779 59.9363 17.058C60.0225 16.7381 59.9789 16.3971 59.815 16.1092Z" fill="white"/>
<path d="M51.92 15.4278C52.1833 15.3079 52.4738 15.2602 52.7616 15.2898C53.0494 15.3193 53.3241 15.425 53.5575 15.596C54.2304 16.0339 54.7903 16.6245 55.1918 17.3197C55.5932 18.0149 55.8248 18.7951 55.8677 19.5968C55.8988 19.8843 55.852 20.175 55.7321 20.4382C55.6122 20.7014 55.4236 20.9275 55.1862 21.0927L52.2121 22.801C51.8402 23.0154 51.4296 23.1545 51.0039 23.2103C50.5782 23.2661 50.1456 23.2375 49.731 23.1261C49.3163 23.0148 48.9277 22.8228 48.5872 22.5612C48.2467 22.2996 47.9611 21.9736 47.7466 21.6016C47.5322 21.2297 47.3931 20.8191 47.3373 20.3934C47.2815 19.9676 47.3101 19.5351 47.4215 19.1205C47.5329 18.7058 47.7248 18.3171 47.9864 17.9767C48.2479 17.6362 48.574 17.3506 48.946 17.1361L51.92 15.4278Z" fill="#F5F5F5"/>
<path opacity="0.1" d="M55.8666 19.5968C55.8237 18.7951 55.5921 18.0149 55.1907 17.3197C54.7893 16.6244 54.2293 16.0339 53.5564 15.596C53.323 15.425 53.0483 15.3193 52.7605 15.2898C52.4727 15.2602 52.1822 15.3079 51.9189 15.4278L52.1579 15.295L52.335 15.1977C52.5955 15.0744 52.8845 15.0242 53.1713 15.0522C53.4581 15.0803 53.7319 15.1856 53.9636 15.357C54.6355 15.7959 55.1947 16.3868 55.596 17.0818C55.9973 17.7768 56.2295 18.5565 56.2738 19.3578C56.304 19.6443 56.2577 19.9338 56.1395 20.1966C56.0213 20.4594 55.8355 20.6861 55.6011 20.8537L55.1851 21.0926C55.4225 20.9275 55.6111 20.7014 55.731 20.4382C55.8509 20.175 55.8978 19.8843 55.8666 19.5968Z" fill="black"/>
<path d="M49.2559 22.9603C48.7024 22.7171 48.2273 22.325 47.8834 21.8277C47.5395 21.3303 47.3404 20.7473 47.3083 20.1436C47.2762 19.5398 47.4123 18.939 47.7015 18.408C47.9907 17.877 48.4216 17.4367 48.9462 17.1361L51.9202 15.4278C52.1835 15.3079 52.474 15.2602 52.7618 15.2898C53.0496 15.3193 53.3243 15.425 53.5577 15.596C53.8486 15.7677 54.1163 15.9759 54.3543 16.2156L49.3887 19.0745C47.7512 20.0216 48.3354 22.4027 49.2559 22.9603Z" fill="#E0E0E0"/>
<path d="M49.7069 21.9155C49.6246 21.7732 49.5711 21.616 49.5497 21.453C49.5283 21.29 49.5393 21.1244 49.582 20.9657C49.6248 20.807 49.6985 20.6582 49.7989 20.5281C49.8993 20.3979 50.0245 20.2889 50.1672 20.2072L55.1593 17.304C55.5793 17.9938 55.814 18.7804 55.8408 19.5876C55.8408 19.6672 55.8408 19.7381 55.8408 19.8089L51.4152 22.3669C51.1283 22.5316 50.7881 22.5765 50.4683 22.492C50.1486 22.4075 49.875 22.2004 49.7069 21.9155Z" fill="white"/>
<path opacity="0.1" d="M60.6734 14.6487C60.6979 14.7032 60.7186 14.7594 60.7353 14.8168C60.754 14.8597 60.7689 14.9041 60.7796 14.9496C60.7796 14.9939 60.7796 15.047 60.7796 15.0912C60.7796 15.1355 60.7796 15.1886 60.7796 15.2417C60.7796 15.2948 60.7796 15.2948 60.7796 15.3214C60.8236 15.5428 60.8415 15.7685 60.8327 15.9941C60.8374 16.0766 60.8374 16.1594 60.8327 16.2419C60.8327 15.1709 59.0624 13.4714 57.4073 14.4185L54.2827 16.1888C54.0447 15.9491 53.777 15.7409 53.4861 15.5692C53.2527 15.3983 52.978 15.2926 52.6902 15.263C52.4024 15.2334 52.1119 15.2811 51.8486 15.401L55.9468 13.0466C56.6936 12.6247 57.5764 12.5136 58.4045 12.7372C59.2325 12.9608 59.9394 13.5011 60.3724 14.2415C60.4249 14.3302 60.4722 14.4218 60.514 14.5159C60.5715 14.5547 60.6249 14.5992 60.6734 14.6487Z" fill="black"/>
<g style="mix-blend-mode:hard-light" opacity="0.7">
<path d="M27.7199 35.1129C27.9075 35.2188 28.1028 35.3105 28.304 35.3873C28.3788 35.4216 28.4557 35.4511 28.5342 35.4758C29.4074 35.7488 30.3259 35.8471 31.2371 35.7651C32.1484 35.6831 33.0345 35.4224 33.845 34.9979L39.377 31.8025H39.4213C40.0492 31.4759 40.5777 30.9864 40.9515 30.3854C41.3254 29.7843 41.5307 29.0938 41.5461 28.3862C41.5615 27.6786 41.3863 26.9799 41.039 26.3631C40.6916 25.7464 40.1849 25.2344 39.5718 24.8808C39.384 24.7752 39.1887 24.6835 38.9876 24.6064L38.7574 24.5267C36.9949 23.9737 35.0849 24.1424 33.4467 24.9959L27.9146 28.1912C27.2862 28.517 26.757 29.0058 26.3824 29.6064C26.0078 30.207 25.8015 30.8973 25.7852 31.6049C25.7689 32.3125 25.9432 33.0116 26.2898 33.6287C26.6364 34.2459 27.1426 34.7585 27.7553 35.1129H27.7199Z" fill="#FAFAFA"/>
</g>
<path d="M39.6075 28.2711C38.6503 27.8096 37.598 27.5796 36.5356 27.5996C35.4732 27.6196 34.4304 27.889 33.4912 28.3861L27.9503 31.5814C26.18 32.5905 26.1269 34.166 27.7556 35.122C28.7183 35.5914 29.7787 35.8258 30.8497 35.8058C31.9206 35.7858 32.9715 35.512 33.9161 35.0069L39.4482 31.8116C41.1565 30.8025 41.245 29.2181 39.6075 28.2711Z" fill="#E0E0E0"/>
<path d="M41.1305 30.1034C41.6028 29.201 41.7081 28.1511 41.4244 27.1729C41.1407 26.1947 40.4899 25.3641 39.608 24.8545C39.4202 24.749 39.225 24.6573 39.0238 24.5801L38.7937 24.5005C37.2806 24.0336 35.6551 24.0834 34.1733 24.6421C36.7668 24.3854 38.3688 24.3057 39.9886 25.6777C40.6092 26.2097 41.0514 26.9195 41.2556 27.711C41.4598 28.5024 41.4161 29.3375 41.1305 30.1034Z" fill="white"/>
<path d="M31.2609 27.4567C31.5214 27.3335 31.8104 27.2832 32.0972 27.3113C32.384 27.3393 32.6579 27.4446 32.8895 27.616C33.5614 28.0549 34.1206 28.6458 34.522 29.3408C34.9233 30.0358 35.1555 30.8155 35.1997 31.6168C35.23 31.9034 35.1836 32.1928 35.0654 32.4556C34.9473 32.7184 34.7615 32.9451 34.527 33.1127L31.553 34.821C30.8048 35.2099 29.9356 35.2952 29.1261 35.0592C28.3166 34.8233 27.6293 34.2842 27.2073 33.5542C26.7853 32.8243 26.6611 31.9597 26.8605 31.1404C27.06 30.3212 27.5677 29.6105 28.278 29.1562L31.2609 27.4567Z" fill="#F5F5F5"/>
<path d="M35.3853 25.0936C35.7572 24.8791 36.1678 24.74 36.5935 24.6842C37.0192 24.6284 37.4518 24.657 37.8664 24.7684C38.2811 24.8798 38.6697 25.0717 39.0102 25.3333C39.3507 25.5949 39.6363 25.921 39.8507 26.2929C40.0652 26.6649 40.2043 27.0754 40.2601 27.5011C40.3159 27.9269 40.2873 28.3594 40.1759 28.7741C40.0645 29.1887 39.8726 29.5774 39.611 29.9179C39.3494 30.2583 39.0234 30.544 38.6514 30.7584L34.5532 33.1129C34.7877 32.9453 34.9735 32.7186 35.0916 32.4558C35.2098 32.193 35.2562 31.9036 35.226 31.617C35.1817 30.8157 34.9495 30.036 34.5482 29.341C34.1468 28.646 33.5876 28.0551 32.9157 27.6162C32.6841 27.4448 32.4103 27.3395 32.1235 27.3115C31.8367 27.2834 31.5476 27.3337 31.2871 27.4569L35.3853 25.0936Z" fill="black"/>
<path opacity="0.4" d="M39.1738 28.1293C39.0922 27.9867 38.9831 27.8615 38.8529 27.7611C38.7228 27.6607 38.5741 27.587 38.4153 27.5442C38.2566 27.5014 38.091 27.4904 37.928 27.5119C37.765 27.5333 37.6078 27.5867 37.4655 27.669L32.5088 30.5192C32.8957 31.2239 33.4563 31.818 34.1374 32.2452L34.341 32.3514L38.7136 29.8376C38.8562 29.756 38.9814 29.6469 39.0818 29.5168C39.1822 29.3866 39.2559 29.2379 39.2987 29.0791C39.3415 28.9204 39.3524 28.7548 39.331 28.5918C39.3096 28.4288 39.2562 28.2716 39.1738 28.1293Z" fill="white"/>
<path d="M31.2609 27.4567C31.5214 27.3335 31.8104 27.2832 32.0972 27.3113C32.384 27.3393 32.6579 27.4446 32.8895 27.616C33.5614 28.0549 34.1206 28.6458 34.522 29.3408C34.9233 30.0358 35.1555 30.8155 35.1997 31.6168C35.23 31.9034 35.1836 32.1928 35.0654 32.4556C34.9473 32.7184 34.7615 32.9451 34.527 33.1127L31.553 34.821C30.8048 35.2099 29.9356 35.2952 29.1261 35.0592C28.3166 34.8233 27.6293 34.2842 27.2073 33.5542C26.7853 32.8243 26.6611 31.9597 26.8605 31.1404C27.06 30.3212 27.5677 29.6105 28.278 29.1562L31.2609 27.4567Z" fill="#F5F5F5"/>
<path opacity="0.1" d="M35.226 31.6167C35.1817 30.8154 34.9495 30.0357 34.5482 29.3407C34.1468 28.6457 33.5876 28.0548 32.9157 27.6159C32.6841 27.4446 32.4103 27.3392 32.1235 27.3112C31.8367 27.2831 31.5476 27.3334 31.2871 27.4566L31.5173 27.315L31.6943 27.2176C31.9572 27.0982 32.2469 27.0501 32.5343 27.078C32.8218 27.106 33.0968 27.2091 33.3318 27.3769C34.0119 27.8109 34.5797 28.3996 34.9889 29.0949C35.3981 29.7902 35.637 30.5725 35.6862 31.3777C35.7164 31.6652 35.6691 31.9555 35.5493 32.2186C35.4294 32.4816 35.2414 32.7078 35.0047 32.8736L34.5975 33.1126C34.8238 32.9399 35.001 32.711 35.1113 32.4485C35.2215 32.186 35.2611 31.8992 35.226 31.6167Z" fill="black"/>
<path d="M28.6057 35.0067C27.9717 34.7287 27.444 34.2538 27.101 33.6524C26.8852 33.2807 26.7449 32.87 26.6882 32.4439C26.6315 32.0178 26.6594 31.5847 26.7705 31.1694C26.8815 30.7541 27.0734 30.3648 27.3351 30.0239C27.5969 29.6829 27.9234 29.397 28.2959 29.1825L31.2788 27.4831C31.5393 27.3598 31.8283 27.3096 32.1151 27.3376C32.4019 27.3657 32.6757 27.471 32.9074 27.6424C33.2018 27.8125 33.4701 28.0242 33.7041 28.2708C31.9338 29.2622 29.8449 30.4837 28.7385 31.1298C27.1187 32.0415 27.7206 34.4314 28.6057 35.0067Z" fill="#E0E0E0"/>
<path d="M29.0736 33.9357C28.9089 33.6489 28.864 33.3086 28.9485 32.9888C29.033 32.669 29.2401 32.3954 29.525 32.2274L34.5525 29.333C34.9661 30.0251 35.1976 30.8108 35.2252 31.6167C35.2297 31.6933 35.2297 31.7701 35.2252 31.8468L30.7996 34.396C30.6566 34.4811 30.498 34.5368 30.3331 34.5597C30.1682 34.5826 30.0004 34.5724 29.8396 34.5295C29.6788 34.4866 29.5282 34.412 29.3966 34.31C29.2651 34.208 29.1552 34.0808 29.0736 33.9357Z" fill="white"/>
<path opacity="0.1" d="M40.0327 26.66C40.0327 26.7131 40.0327 26.7751 40.1035 26.837C40.1157 26.8792 40.1305 26.9206 40.1478 26.9609V27.1026C40.152 27.1526 40.152 27.203 40.1478 27.253C40.1478 27.253 40.1478 27.3061 40.1478 27.3327C40.1834 27.5581 40.2011 27.786 40.2009 28.0143C40.2009 28.0939 40.2009 28.1736 40.2009 28.2532C40.2009 27.1822 38.4306 25.4916 36.7754 26.4299C36.2178 26.7485 35.3681 27.2265 33.642 28.2001C33.4081 27.9535 33.1398 27.7418 32.8454 27.5717C32.6138 27.4003 32.3399 27.295 32.0531 27.2669C31.7663 27.2389 31.4773 27.2892 31.2168 27.4124L35.3149 25.0491C36.0623 24.6295 36.9443 24.5197 37.7717 24.7431C38.5991 24.9665 39.3059 25.5053 39.7406 26.244C39.7937 26.3309 39.8381 26.4228 39.8734 26.5184C39.9408 26.5465 39.9969 26.5963 40.0327 26.66Z" fill="black"/>
<g style="mix-blend-mode:hard-light" opacity="0.7">
<path d="M63.2054 31.6435C63.393 31.7493 63.5883 31.841 63.7896 31.9179L64.0197 32.0064C64.893 32.2794 65.8114 32.3777 66.7227 32.2957C67.6339 32.2136 68.52 31.9529 69.3305 31.5284L74.8626 28.3331H74.9068C75.5746 27.9872 76.1279 27.4553 76.5 26.8018C76.7614 26.3537 76.9314 25.8582 77.0003 25.344C77.0691 24.8299 77.0356 24.3072 76.9014 23.806C76.7673 23.3049 76.5353 22.8353 76.2188 22.4243C75.9023 22.0133 75.5075 21.669 75.0573 21.4113C74.8695 21.3058 74.6743 21.214 74.4731 21.1369L74.243 21.0573C72.4804 20.5042 70.5705 20.6729 68.9322 21.5264L63.4001 24.7217H63.3559C62.7251 25.0455 62.1935 25.5335 61.817 26.1343C61.4405 26.7351 61.2332 27.4264 61.2169 28.1352C61.2005 28.844 61.3759 29.5441 61.7243 30.1615C62.0727 30.779 62.5813 31.291 63.1965 31.6435H63.2054Z" fill="#FAFAFA"/>
</g>
<path d="M75.0572 24.801C74.0991 24.3374 73.0451 24.1062 71.9809 24.1262C70.9167 24.1462 69.8722 24.4168 68.9321 24.916L63.4 28.1113C61.6298 29.1204 61.5678 30.6959 63.2053 31.6519C64.1635 32.1155 65.2174 32.3467 66.2816 32.3267C67.3458 32.3067 68.3904 32.0361 69.3304 31.5368L74.8625 28.3415C76.6062 27.3324 76.6947 25.7481 75.0572 24.801Z" fill="#E0E0E0"/>
<path d="M76.5792 26.6337C77.0515 25.7313 77.1568 24.6814 76.8731 23.7032C76.5894 22.725 75.9386 21.8944 75.0568 21.3848C74.869 21.2792 74.6737 21.1875 74.4726 21.1104L74.2425 21.0308C72.7293 20.5639 71.1038 20.6137 69.6221 21.1724C72.2155 20.9068 73.8087 20.836 75.4374 22.1991C76.0576 22.7334 76.4995 23.4446 76.7036 24.2374C76.9077 25.0301 76.8643 25.8663 76.5792 26.6337Z" fill="white"/>
<path d="M66.7276 23.9869C66.9895 23.8629 67.28 23.8122 67.5684 23.8403C67.8568 23.8684 68.1321 23.9741 68.3651 24.1462C69.037 24.5851 69.5962 25.176 69.9975 25.871C70.3989 26.566 70.631 27.3457 70.6753 28.147C70.7055 28.4336 70.6592 28.723 70.541 28.9858C70.4228 29.2486 70.237 29.4753 70.0026 29.6429L67.0286 31.3512C66.2804 31.74 65.4111 31.8254 64.6017 31.5894C63.7922 31.3535 63.1049 30.8144 62.6829 30.0844C62.2609 29.3545 62.1367 28.4899 62.3361 27.6706C62.5356 26.8514 63.0433 26.1406 63.7536 25.6863L66.7276 23.9869Z" fill="#F5F5F5"/>
<path d="M70.835 21.6236C71.207 21.4091 71.6176 21.27 72.0433 21.2142C72.469 21.1585 72.9015 21.187 73.3162 21.2984C73.7308 21.4098 74.1195 21.6017 74.46 21.8633C74.8004 22.1249 75.0861 22.451 75.3005 22.8229C75.515 23.1949 75.6541 23.6055 75.7099 24.0312C75.7656 24.4569 75.737 24.8894 75.6257 25.3041C75.5143 25.7187 75.3223 26.1074 75.0608 26.4479C74.7992 26.7883 74.4731 27.074 74.1012 27.2884L70.003 29.6429C70.2374 29.4754 70.4232 29.2486 70.5414 28.9858C70.6596 28.723 70.7059 28.4336 70.6757 28.147C70.6314 27.3457 70.3992 26.566 69.9979 25.871C69.5966 25.176 69.0374 24.5852 68.3655 24.1462C68.1325 23.9741 67.8571 23.8684 67.5688 23.8403C67.2804 23.8123 66.9899 23.8629 66.728 23.9869L70.835 21.6236Z" fill="black"/>
<path opacity="0.4" d="M74.6319 24.6594C74.5503 24.5167 74.4412 24.3916 74.3111 24.2911C74.1809 24.1907 74.0322 24.117 73.8734 24.0742C73.7147 24.0315 73.5491 24.0205 73.3861 24.0419C73.2231 24.0633 73.0659 24.1168 72.9236 24.1991L67.9492 27.0404C68.3361 27.7598 68.8995 28.369 69.5867 28.8106L69.7903 28.9169L74.1628 26.4031C74.311 26.3223 74.4413 26.2122 74.5457 26.0796C74.6502 25.947 74.7266 25.7946 74.7705 25.6316C74.8143 25.4686 74.8247 25.2984 74.8009 25.1313C74.7771 24.9642 74.7196 24.8036 74.6319 24.6594Z" fill="white"/>
<path d="M66.7276 23.9869C66.9895 23.8629 67.28 23.8122 67.5684 23.8403C67.8568 23.8684 68.1321 23.9741 68.3651 24.1462C69.037 24.5851 69.5962 25.176 69.9975 25.871C70.3989 26.566 70.631 27.3457 70.6753 28.147C70.7055 28.4336 70.6592 28.723 70.541 28.9858C70.4228 29.2486 70.237 29.4753 70.0026 29.6429L67.0286 31.3512C66.2804 31.74 65.4111 31.8254 64.6017 31.5894C63.7922 31.3535 63.1049 30.8144 62.6829 30.0844C62.2609 29.3545 62.1367 28.4899 62.3361 27.6706C62.5356 26.8514 63.0433 26.1406 63.7536 25.6863L66.7276 23.9869Z" fill="#F5F5F5"/>
<path opacity="0.1" d="M70.6757 28.1471C70.6314 27.3457 70.3992 26.5661 69.9979 25.871C69.5966 25.176 69.0374 24.5852 68.3655 24.1463C68.1325 23.9741 67.8571 23.8684 67.5688 23.8404C67.2804 23.8123 66.9899 23.8629 66.728 23.9869L66.967 23.8453L67.144 23.7479C67.4045 23.6247 67.6936 23.5745 67.9804 23.6025C68.2672 23.6306 68.541 23.7359 68.7727 23.9073C69.4495 24.3459 70.0127 24.9389 70.4158 25.6374C70.8189 26.336 71.0506 27.1203 71.0917 27.9258C71.121 28.2132 71.0733 28.5031 70.9535 28.766C70.8338 29.0289 70.6462 29.2552 70.4102 29.4217L70.003 29.6606C70.2402 29.4916 70.4278 29.262 70.5461 28.9958C70.6644 28.7295 70.7092 28.4365 70.6757 28.1471Z" fill="black"/>
<path d="M64.0637 31.5107C63.4297 31.2327 62.9021 30.7578 62.559 30.1564C62.1372 29.4096 62.0261 28.5268 62.2496 27.6988C62.4732 26.8707 63.0136 26.1638 63.7539 25.7308L66.728 24.0313C66.9898 23.9073 67.2804 23.8567 67.5687 23.8847C67.8571 23.9128 68.1325 24.0185 68.3655 24.1906C68.658 24.36 68.926 24.5685 69.1621 24.8102L64.1965 27.6781C62.5679 28.5721 63.1255 30.953 64.0637 31.5107Z" fill="#E0E0E0"/>
<path d="M64.5241 30.466C64.4414 30.3242 64.3874 30.1675 64.3653 30.0049C64.3433 29.8423 64.3535 29.6769 64.3954 29.5182C64.4374 29.3595 64.5102 29.2106 64.6097 29.0801C64.7093 28.9496 64.8335 28.8401 64.9755 28.7577L69.9942 25.8633C70.4142 26.5531 70.6489 27.3397 70.6757 28.1469C70.6803 28.2206 70.6803 28.2945 70.6757 28.3682L66.2501 30.9262C66.1071 31.0114 65.9484 31.067 65.7836 31.09C65.6187 31.1129 65.4509 31.1026 65.2901 31.0597C65.1293 31.0168 64.9787 30.9422 64.8471 30.8402C64.7155 30.7383 64.6057 30.611 64.5241 30.466Z" fill="white"/>
<path opacity="0.1" d="M75.5176 23.1901C75.5176 23.2432 75.5619 23.3051 75.5884 23.3583C75.615 23.4114 75.5884 23.4468 75.5884 23.491C75.6071 23.5369 75.6219 23.5843 75.6327 23.6326C75.6327 23.6858 75.6327 23.73 75.6327 23.7831C75.6327 23.8362 75.6327 23.8362 75.6327 23.8628C75.668 24.0853 75.6857 24.3102 75.6858 24.5355C75.6858 24.624 75.6858 24.7037 75.6858 24.7833C75.6858 23.7123 73.9155 22.0129 72.2604 22.96L69.127 24.7302C68.8908 24.4884 68.6228 24.28 68.3304 24.1106C68.0973 23.9385 67.822 23.8328 67.5336 23.8047C67.2453 23.7767 66.9547 23.8273 66.6929 23.9513L70.7999 21.588C71.5513 21.1546 72.4439 21.037 73.2819 21.261C74.12 21.485 74.8349 22.0324 75.2698 22.7829L75.4026 23.0573C75.4446 23.0982 75.4831 23.1426 75.5176 23.1901Z" fill="black"/>
<g style="mix-blend-mode:hard-light" opacity="0.7">
<path d="M42.5729 43.6635C42.7584 43.7702 42.9506 43.8648 43.1483 43.9467L43.3784 44.0264C44.2516 44.2999 45.1701 44.3984 46.0814 44.3164C46.9927 44.2344 47.8789 43.9734 48.6892 43.5484L54.2213 40.3531H54.2655C54.8962 40.0293 55.4279 39.5412 55.8044 38.9405C56.1808 38.3397 56.3882 37.6484 56.4045 36.9396C56.4208 36.2308 56.2455 35.5307 55.8971 34.9132C55.5487 34.2958 55.04 33.7838 54.4248 33.4313C54.2354 33.3291 54.0403 33.2375 53.8407 33.1569L53.6017 33.0773C51.8391 32.5242 49.9292 32.6929 48.2909 33.5464L42.7677 36.7152H42.7234C42.0955 37.0418 41.567 37.5313 41.1932 38.1323C40.8193 38.7334 40.614 39.4239 40.5986 40.1315C40.5832 40.8391 40.7584 41.5379 41.1057 42.1546C41.4531 42.7713 41.9598 43.2833 42.5729 43.6369V43.6635Z" fill="#FAFAFA"/>
</g>
<path d="M54.416 36.8211C53.4589 36.3596 52.4066 36.1296 51.3442 36.1496C50.2818 36.1696 49.2389 36.439 48.2998 36.9361L42.7677 40.1315C40.9974 41.1405 40.9355 42.7161 42.573 43.672C43.5296 44.1355 44.5821 44.3667 45.6449 44.3467C46.7077 44.3267 47.7507 44.0561 48.6892 43.557L54.2213 40.3616C55.965 39.3526 56.0447 37.7682 54.416 36.8211Z" fill="#E0E0E0"/>
<path d="M55.9382 38.6536C56.4113 37.7523 56.5179 36.7032 56.2359 35.7251C55.9539 34.7471 55.305 33.9158 54.4246 33.4048C54.2352 33.3025 54.0401 33.2109 53.8405 33.1304L53.6015 33.0507C52.0773 32.5987 50.4464 32.664 48.9634 33.2366C51.5568 32.9799 53.1589 32.9003 54.7875 34.2722C55.3997 34.8007 55.8373 35.5022 56.0427 36.2844C56.2481 37.0665 56.2117 37.8926 55.9382 38.6536Z" fill="white"/>
<path d="M46.0951 36.007C46.3556 35.8838 46.6446 35.8335 46.9314 35.8616C47.2182 35.8896 47.492 35.9949 47.7237 36.1663C48.3971 36.6037 48.9574 37.1941 49.3589 37.8895C49.7604 38.5848 49.9917 39.3653 50.0339 40.1671C50.0641 40.4536 50.0177 40.7431 49.8996 41.0059C49.7814 41.2687 49.5956 41.4954 49.3612 41.663L46.3871 43.3801C45.6348 43.8144 44.7407 43.9321 43.9016 43.7071C43.0625 43.4822 42.3471 42.9332 41.9128 42.1808C41.4785 41.4284 41.3609 40.5343 41.5858 39.6952C41.8107 38.8561 42.3598 38.1407 43.1122 37.7064L46.0951 36.007Z" fill="#F5F5F5"/>
<path d="M50.1939 33.6435C50.5666 33.4051 50.9837 33.2447 51.4202 33.172C51.8566 33.0993 52.3032 33.1157 52.7331 33.2204C53.163 33.325 53.5672 33.5157 53.9213 33.7809C54.2755 34.0461 54.5723 34.3803 54.7937 34.7633C55.0151 35.1463 55.1566 35.5703 55.2097 36.0095C55.2628 36.4487 55.2264 36.8942 55.1025 37.3189C54.9787 37.7437 54.7701 38.139 54.4893 38.4809C54.2086 38.8228 53.8614 39.1043 53.4688 39.3083L49.3618 41.6628C49.5963 41.4952 49.782 41.2685 49.9002 41.0057C50.0184 40.7429 50.0647 40.4535 50.0345 40.1669C49.9923 39.3651 49.7611 38.5846 49.3595 37.8893C48.958 37.194 48.3977 36.6035 47.7243 36.1661C47.4927 35.9947 47.2188 35.8894 46.932 35.8614C46.6452 35.8333 46.3562 35.8836 46.0957 36.0068L50.1939 33.6435Z" fill="black"/>
<path opacity="0.4" d="M53.9819 36.6799C53.9003 36.5372 53.7912 36.412 53.6611 36.3116C53.5309 36.2112 53.3821 36.1375 53.2234 36.0947C53.0647 36.0519 52.899 36.041 52.7361 36.0624C52.5731 36.0838 52.4159 36.1372 52.2736 36.2196L47.3169 39.0697C47.6981 39.7931 48.2628 40.4036 48.9544 40.84C49.0174 40.8788 49.0824 40.9142 49.1491 40.9462L53.5216 38.4324C53.6703 38.3509 53.8008 38.2399 53.9052 38.1063C54.0096 37.9726 54.0856 37.8191 54.1287 37.6551C54.1718 37.4911 54.181 37.3201 54.1557 37.1524C54.1305 36.9847 54.0714 36.8239 53.9819 36.6799Z" fill="white"/>
<path d="M46.0951 36.007C46.3556 35.8838 46.6446 35.8335 46.9314 35.8616C47.2182 35.8896 47.492 35.9949 47.7237 36.1663C48.3971 36.6037 48.9574 37.1941 49.3589 37.8895C49.7604 38.5848 49.9917 39.3653 50.0339 40.1671C50.0641 40.4536 50.0177 40.7431 49.8996 41.0059C49.7814 41.2687 49.5956 41.4954 49.3612 41.663L46.3871 43.3801C45.6348 43.8144 44.7407 43.9321 43.9016 43.7071C43.0625 43.4822 42.3471 42.9332 41.9128 42.1808C41.4785 41.4284 41.3609 40.5343 41.5858 39.6952C41.8107 38.8561 42.3598 38.1407 43.1122 37.7064L46.0951 36.007Z" fill="#F5F5F5"/>
<path opacity="0.1" d="M50.0345 40.1673C49.9923 39.3655 49.7611 38.585 49.3595 37.8897C48.958 37.1944 48.3977 36.6039 47.7243 36.1665C47.4927 35.9951 47.2188 35.8898 46.932 35.8618C46.6452 35.8337 46.3562 35.884 46.0957 36.0072L46.3081 35.8921L46.4852 35.7948C46.7481 35.6754 47.0378 35.6272 47.3252 35.6552C47.6127 35.6832 47.8876 35.7863 48.1226 35.9541C48.7945 36.393 49.3537 36.9839 49.7551 37.6789C50.1564 38.3739 50.3886 39.1535 50.4328 39.9549C50.465 40.2425 50.4185 40.5335 50.2985 40.7969C50.1785 41.0603 49.9894 41.2862 49.7513 41.4508L49.3441 41.6897C49.586 41.522 49.778 41.2919 49.8995 41.0239C50.0211 40.7558 50.0678 40.4598 50.0345 40.1673Z" fill="black"/>
<path d="M43.4225 43.5306C42.8715 43.285 42.3991 42.8919 42.0573 42.3948C41.7155 41.8976 41.5176 41.3157 41.4856 40.7133C41.4535 40.1109 41.5885 39.5113 41.8757 38.9807C42.1628 38.4501 42.5909 38.0091 43.1128 37.7064L46.0956 36.007C46.3561 35.8838 46.6452 35.8335 46.932 35.8616C47.2188 35.8896 47.4926 35.9949 47.7243 36.1663C48.0186 36.3364 48.2869 36.5481 48.5209 36.7947L43.5553 39.6537C41.9267 40.592 42.5108 42.973 43.4225 43.5306Z" fill="#E0E0E0"/>
<path d="M43.8832 42.4862C43.8008 42.344 43.7474 42.1868 43.726 42.0238C43.7045 41.8608 43.7155 41.6952 43.7583 41.5364C43.8011 41.3777 43.8748 41.229 43.9752 41.0988C44.0756 40.9686 44.2008 40.8596 44.3434 40.7779L49.3622 37.8835C49.7758 38.5757 50.0072 39.3613 50.0348 40.1672C50.0392 40.2438 50.0392 40.3207 50.0348 40.3973L45.6092 42.9465C45.4662 43.0317 45.3075 43.0873 45.1427 43.1103C44.9778 43.1332 44.8101 43.1229 44.6492 43.08C44.4884 43.0371 44.3378 42.9625 44.2062 42.8605C44.0746 42.7586 43.9648 42.6313 43.8832 42.4862Z" fill="white"/>
<path opacity="0.1" d="M54.8406 35.2105C54.8695 35.2672 54.8932 35.3265 54.9114 35.3875C54.9114 35.3875 54.9114 35.4672 54.9114 35.5114C54.9114 35.5557 54.9114 35.6088 54.9114 35.653C54.9146 35.7032 54.9146 35.7534 54.9114 35.8035C54.9114 35.8035 54.9114 35.8566 54.9114 35.8832C54.9558 36.1075 54.9737 36.3362 54.9645 36.5647C54.9689 36.6443 54.9689 36.7241 54.9645 36.8037C54.9645 35.7327 53.1943 34.0421 51.5391 34.9803C50.9815 35.3078 50.1317 35.777 48.4057 36.7506C48.1717 36.504 47.9034 36.2923 47.6091 36.1222C47.3774 35.9508 47.1036 35.8455 46.8168 35.8174C46.53 35.7894 46.241 35.8396 45.9805 35.9628L50.0786 33.5995C50.4504 33.3838 50.8611 33.2435 51.2872 33.1868C51.7133 33.13 52.1464 33.158 52.5617 33.269C52.9769 33.38 53.3662 33.5719 53.7071 33.8337C54.0481 34.0955 54.334 34.422 54.5485 34.7945C54.601 34.8831 54.6483 34.9747 54.6902 35.0689C54.6902 35.0689 54.8318 35.1751 54.8406 35.2105Z" fill="black"/>
<g style="mix-blend-mode:hard-light" opacity="0.7">
<path d="M78.0131 40.1935C78.1968 40.3009 78.3893 40.3927 78.5884 40.4679L78.8186 40.5564C79.6918 40.8294 80.6103 40.9277 81.5215 40.8457C82.4327 40.7637 83.3189 40.503 84.1293 40.0785L89.6614 36.8831H89.7057C90.3336 36.5564 90.8621 36.067 91.2359 35.4659C91.6097 34.8649 91.8151 34.1744 91.8305 33.4668C91.8459 32.7592 91.6707 32.0604 91.3234 31.4437C90.976 30.827 90.4693 30.315 89.8561 29.9614C89.6706 29.8575 89.4783 29.7658 89.2808 29.687L89.0418 29.6073C87.2793 29.0542 85.3693 29.223 83.731 30.0764L78.2166 33.2364H78.1724C77.544 33.5622 77.0148 34.051 76.6402 34.6516C76.2656 35.2522 76.0593 35.9424 76.043 36.6501C76.0267 37.3577 76.201 38.0567 76.5476 38.6739C76.8942 39.2911 77.4004 39.8037 78.0131 40.1581V40.1935Z" fill="#FAFAFA"/>
</g>
<path d="M89.8655 33.3515C88.9091 32.8873 87.8565 32.6558 86.7936 32.6758C85.7307 32.6958 84.6875 32.9667 83.7493 33.4666L78.2172 36.6619C76.4469 37.671 76.385 39.2465 78.0136 40.2024C78.9718 40.666 80.0257 40.8972 81.0899 40.8772C82.1541 40.8572 83.1987 40.5866 84.1387 40.0874L89.6708 36.892C91.4499 35.8918 91.503 34.2986 89.8655 33.3515Z" fill="#E0E0E0"/>
<path d="M91.3878 35.1837C91.8624 34.2818 91.9689 33.2311 91.685 32.2523C91.4011 31.2735 90.7489 30.4428 89.8654 29.9348C89.6798 29.8309 89.4876 29.7393 89.29 29.6605L89.051 29.5808C87.5379 29.1139 85.9124 29.1637 84.4307 29.7224C87.0241 29.4657 88.6262 29.3861 90.2548 30.7492C90.8725 31.2852 91.3119 31.997 91.5143 32.7894C91.7168 33.5818 91.6726 34.4171 91.3878 35.1837Z" fill="white"/>
<path d="M81.5448 32.5375C81.8053 32.4143 82.0944 32.364 82.3812 32.3921C82.668 32.4201 82.9418 32.5255 83.1734 32.6968C83.8453 33.1358 84.4045 33.7266 84.8059 34.4216C85.2072 35.1166 85.4394 35.8963 85.4837 36.6976C85.5139 36.9842 85.4675 37.2736 85.3494 37.5364C85.2312 37.7992 85.0454 38.026 84.8109 38.1935L81.8369 39.9018C81.4642 40.1402 81.047 40.3006 80.6106 40.3733C80.1742 40.446 79.7276 40.4296 79.2977 40.3249C78.8678 40.2203 78.4636 40.0296 78.1094 39.7644C77.7553 39.4992 77.4585 39.165 77.2371 38.782C77.0156 38.399 76.8741 37.975 76.821 37.5358C76.7679 37.0966 76.8044 36.6511 76.9282 36.2264C77.052 35.8016 77.2606 35.4063 77.5414 35.0644C77.8222 34.7225 78.1694 34.441 78.5619 34.237L81.5448 32.5375Z" fill="#F5F5F5"/>
<path d="M85.6431 30.1738C86.3912 29.7849 87.2605 29.6996 88.07 29.9355C88.8795 30.1715 89.5667 30.7106 89.9888 31.4405C90.4108 32.1705 90.535 33.0351 90.3355 33.8543C90.1361 34.6736 89.6284 35.3843 88.9181 35.8386L84.8111 38.1931C85.0455 38.0256 85.2313 37.7988 85.3495 37.536C85.4676 37.2732 85.514 36.9838 85.4838 36.6972C85.4395 35.8959 85.2073 35.1162 84.806 34.4212C84.4047 33.7262 83.8454 33.1354 83.1736 32.6964C82.9419 32.5251 82.6681 32.4197 82.3813 32.3917C82.0945 32.3636 81.8054 32.4139 81.5449 32.5371L85.6431 30.1738Z" fill="black"/>
<path opacity="0.4" d="M89.4316 33.2368C89.35 33.0941 89.2409 32.9689 89.1108 32.8685C88.9806 32.7681 88.8319 32.6944 88.6731 32.6516C88.5144 32.6089 88.3488 32.5979 88.1858 32.6193C88.0228 32.6407 87.8656 32.6942 87.7233 32.7765L82.7666 35.6266C83.1535 36.3313 83.7142 36.9255 84.3952 37.3526L84.5988 37.4588L88.9714 34.9451C89.1141 34.8634 89.2392 34.7543 89.3396 34.6242C89.44 34.494 89.5137 34.3453 89.5565 34.1866C89.5993 34.0278 89.6102 33.8622 89.5888 33.6992C89.5674 33.5362 89.514 33.379 89.4316 33.2368Z" fill="white"/>
<path d="M81.5448 32.5375C81.8053 32.4143 82.0944 32.364 82.3812 32.3921C82.668 32.4201 82.9418 32.5255 83.1734 32.6968C83.8453 33.1358 84.4045 33.7266 84.8059 34.4216C85.2072 35.1166 85.4394 35.8963 85.4837 36.6976C85.5139 36.9842 85.4675 37.2736 85.3494 37.5364C85.2312 37.7992 85.0454 38.026 84.8109 38.1935L81.8369 39.9018C81.4642 40.1402 81.047 40.3006 80.6106 40.3733C80.1742 40.446 79.7276 40.4296 79.2977 40.3249C78.8678 40.2203 78.4636 40.0296 78.1094 39.7644C77.7553 39.4992 77.4585 39.165 77.2371 38.782C77.0156 38.399 76.8741 37.975 76.821 37.5358C76.7679 37.0966 76.8044 36.6511 76.9282 36.2264C77.052 35.8016 77.2606 35.4063 77.5414 35.0644C77.8222 34.7225 78.1694 34.441 78.5619 34.237L81.5448 32.5375Z" fill="#F5F5F5"/>
<path opacity="0.1" d="M85.4838 36.6975C85.4395 35.8962 85.2073 35.1165 84.806 34.4215C84.4047 33.7265 83.8454 33.1357 83.1736 32.6967C82.9419 32.5254 82.6681 32.42 82.3813 32.392C82.0945 32.3639 81.8054 32.4142 81.5449 32.5374L81.7751 32.3958L81.9521 32.2984C82.2139 32.1744 82.5045 32.1238 82.7929 32.1518C83.0812 32.1799 83.3565 32.2856 83.5896 32.4577C84.2615 32.8967 84.8207 33.4875 85.222 34.1825C85.6233 34.8775 85.8555 35.6572 85.8998 36.4585C85.9319 36.7462 85.8855 37.0372 85.7655 37.3005C85.6455 37.5639 85.4563 37.7899 85.2182 37.9544L84.8111 38.1934C85.0455 38.0259 85.2313 37.7991 85.3495 37.5363C85.4676 37.2735 85.514 36.9841 85.4838 36.6975Z" fill="black"/>
<path d="M78.8722 40.0611C78.3212 39.8155 77.8487 39.4224 77.5069 38.9253C77.1652 38.4282 76.9673 37.8463 76.9353 37.2438C76.9032 36.6414 77.0382 36.0418 77.3253 35.5112C77.6125 34.9806 78.0406 34.5397 78.5624 34.237L81.5453 32.5375C81.8058 32.4143 82.0949 32.364 82.3817 32.3921C82.6685 32.4201 82.9423 32.5255 83.174 32.6968C83.4664 32.8662 83.7344 33.0746 83.9706 33.3164L79.005 36.1842C77.3764 37.1225 77.9606 39.5035 78.8722 40.0611Z" fill="#E0E0E0"/>
<path d="M79.3324 39.0168C79.25 38.8745 79.1966 38.7173 79.1752 38.5543C79.1538 38.3913 79.1647 38.2257 79.2075 38.067C79.2503 37.9082 79.324 37.7595 79.4244 37.6293C79.5248 37.4992 79.65 37.3901 79.7926 37.3085L84.8113 34.4141C85.225 35.1062 85.4564 35.8919 85.4841 36.6977C85.4887 36.7714 85.4887 36.8453 85.4841 36.919L81.0584 39.477C80.9154 39.5622 80.7568 39.6178 80.5919 39.6408C80.427 39.6637 80.2593 39.6534 80.0984 39.6105C79.9376 39.5677 79.787 39.493 79.6554 39.391C79.5239 39.2891 79.414 39.1618 79.3324 39.0168Z" fill="white"/>
<path opacity="0.1" d="M90.29 31.7407C90.3189 31.7975 90.3426 31.8567 90.3608 31.9178C90.3608 31.9178 90.3608 31.9974 90.4051 32.0417C90.4493 32.0859 90.4051 32.139 90.4051 32.1833C90.4094 32.2334 90.4094 32.2837 90.4051 32.3338C90.4051 32.3338 90.4051 32.3869 90.4051 32.4134C90.4491 32.6348 90.4669 32.8606 90.4582 33.0861C90.4626 33.1657 90.4626 33.2455 90.4582 33.3251C90.4582 32.2541 88.6879 30.5547 87.0327 31.5018L83.8994 33.272C83.6632 33.0302 83.3952 32.8218 83.1028 32.6524C82.8711 32.4811 82.5972 32.3758 82.3104 32.3477C82.0236 32.3196 81.7346 32.3699 81.4741 32.4931L85.5723 30.1298C85.944 29.914 86.3547 29.7738 86.7808 29.717C87.2069 29.6603 87.64 29.6883 88.0553 29.7993C88.4706 29.9103 88.8598 30.1022 89.2008 30.364C89.5417 30.6257 89.8277 30.9522 90.0422 31.3247C90.0953 31.4116 90.1397 31.5035 90.1749 31.5991C90.2259 31.6345 90.2659 31.6836 90.29 31.7407Z" fill="black"/>
<g style="mix-blend-mode:hard-light" opacity="0.7">
<path d="M57.3808 52.2139C57.5664 52.326 57.762 52.4208 57.965 52.4971L58.1951 52.5768C59.0681 52.8513 59.9868 52.9503 60.8983 52.8683C61.8097 52.7862 62.6959 52.5247 63.5059 52.0988L69.038 48.9035H69.0822C69.713 48.5797 70.2446 48.0917 70.6211 47.4909C70.9976 46.8901 71.2049 46.1989 71.2212 45.49C71.2375 44.7812 71.0622 44.0811 70.7138 43.4637C70.3654 42.8462 69.8567 42.3342 69.2416 41.9818C69.0521 41.8795 68.857 41.7879 68.6574 41.7074L68.4272 41.6277C66.6644 41.0776 64.7556 41.2462 63.1164 42.0968L57.5844 45.2922C56.9121 45.635 56.3551 46.1674 55.9823 46.8234C55.721 47.2716 55.551 47.767 55.4821 48.2812C55.4132 48.7953 55.4468 49.318 55.5809 49.8192C55.715 50.3203 55.947 50.7899 56.2636 51.2009C56.5801 51.6119 56.9748 51.9562 57.425 52.2139H57.3808Z" fill="#FAFAFA"/>
</g>
<path d="M69.2237 45.3716C68.2665 44.9102 67.2142 44.6802 66.1518 44.7002C65.0894 44.7202 64.0465 44.9896 63.1074 45.4867L57.5753 48.6821C55.8051 49.6911 55.7431 51.2666 57.3806 52.2226C58.337 52.6868 59.3896 52.9183 60.4525 52.8983C61.5154 52.8783 62.5586 52.6074 63.4969 52.1075L69.0289 48.9122C70.7726 47.9031 70.8611 46.3187 69.2237 45.3716Z" fill="#E0E0E0"/>
<path d="M70.7559 47.2041C71.2283 46.3018 71.3336 45.2518 71.0499 44.2737C70.7661 43.2955 70.1154 42.4649 69.2335 41.9553C69.0441 41.853 68.849 41.7614 68.6493 41.6809L68.4192 41.6013C66.9051 41.1372 65.2796 41.1901 63.7988 41.7517C66.3834 41.4862 67.9855 41.4065 69.6141 42.7785C70.2346 43.3105 70.6769 44.0202 70.8811 44.8117C71.0853 45.6032 71.0416 46.4383 70.7559 47.2041Z" fill="white"/>
<path d="M60.9036 44.5574C61.1655 44.4335 61.4561 44.3828 61.7444 44.4109C62.0328 44.4389 62.3081 44.5446 62.5411 44.7168C63.213 45.1557 63.7722 45.7465 64.1736 46.4415C64.5749 47.1365 64.8071 47.9162 64.8513 48.7176C64.8825 49.0051 64.8356 49.2958 64.7157 49.559C64.5958 49.8222 64.4072 50.0482 64.1698 50.2134L61.1957 51.9306C60.4434 52.3649 59.5493 52.4825 58.7102 52.2576C57.8711 52.0327 57.1557 51.4836 56.7214 50.7313C56.2871 49.9789 56.1695 49.0848 56.3944 48.2457C56.6193 47.4066 57.1684 46.6912 57.9208 46.2569L60.9036 44.5574Z" fill="#F5F5F5"/>
<path d="M65.002 42.194C65.3747 41.9556 65.7918 41.7952 66.2283 41.7225C66.6647 41.6498 67.1113 41.6663 67.5412 41.7709C67.9711 41.8756 68.3753 42.0662 68.7294 42.3314C69.0836 42.5966 69.3804 42.9308 69.6018 43.3138C69.8232 43.6969 69.9648 44.1208 70.0179 44.56C70.0709 44.9993 70.0345 45.4447 69.9107 45.8695C69.7869 46.2942 69.5783 46.6895 69.2975 47.0314C69.0167 47.3733 68.6695 47.6548 68.277 47.8589L64.1699 50.2133C64.4074 50.0481 64.596 49.8221 64.7159 49.5589C64.8358 49.2957 64.8827 49.005 64.8515 48.7174C64.8072 47.9161 64.575 47.1364 64.1737 46.4414C63.7724 45.7464 63.2132 45.1556 62.5413 44.7166C62.3083 44.5445 62.0329 44.4388 61.7446 44.4107C61.4562 44.3827 61.1657 44.4333 60.9038 44.5573L65.002 42.194Z" fill="black"/>
<path opacity="0.4" d="M68.79 45.2301C68.7084 45.0875 68.5993 44.9623 68.4692 44.8619C68.339 44.7615 68.1903 44.6878 68.0315 44.645C67.8728 44.6022 67.7072 44.5913 67.5442 44.6127C67.3812 44.6341 67.224 44.6875 67.0817 44.7699L62.125 47.62C62.5151 48.3253 63.0787 48.9194 63.7625 49.346C63.8255 49.3848 63.8905 49.4203 63.9572 49.4522L68.3386 46.9385C68.4806 46.8561 68.6049 46.7465 68.7044 46.616C68.8039 46.4855 68.8768 46.3366 68.9187 46.1779C68.9606 46.0193 68.9708 45.8539 68.9488 45.6912C68.9267 45.5286 68.8727 45.3719 68.79 45.2301Z" fill="white"/>
<path d="M60.9036 44.5574C61.1655 44.4335 61.4561 44.3828 61.7444 44.4109C62.0328 44.4389 62.3081 44.5446 62.5411 44.7168C63.213 45.1557 63.7722 45.7465 64.1736 46.4415C64.5749 47.1365 64.8071 47.9162 64.8513 48.7176C64.8825 49.0051 64.8356 49.2958 64.7157 49.559C64.5958 49.8222 64.4072 50.0482 64.1698 50.2134L61.1957 51.9306C60.4434 52.3649 59.5493 52.4825 58.7102 52.2576C57.8711 52.0327 57.1557 51.4836 56.7214 50.7313C56.2871 49.9789 56.1695 49.0848 56.3944 48.2457C56.6193 47.4066 57.1684 46.6912 57.9208 46.2569L60.9036 44.5574Z" fill="#F5F5F5"/>
<path opacity="0.1" d="M64.8964 48.7173C64.8521 47.916 64.6199 47.1363 64.2186 46.4413C63.8173 45.7463 63.2581 45.1554 62.5862 44.7165C62.3532 44.5444 62.0778 44.4386 61.7895 44.4106C61.5011 44.3825 61.2106 44.4332 60.9487 44.5572L61.1788 44.4156L61.3559 44.3182C61.6188 44.1988 61.9085 44.1507 62.196 44.1786C62.4834 44.2066 62.7584 44.3097 62.9934 44.4775C63.6653 44.9165 64.2245 45.5073 64.6258 46.2023C65.0271 46.8973 65.2593 47.677 65.3036 48.4783C65.3347 48.765 65.2888 49.0547 65.1706 49.3177C65.0523 49.5807 64.866 49.8073 64.6309 49.9742L64.2149 50.2132C64.4523 50.048 64.6409 49.8219 64.7608 49.5587C64.8807 49.2955 64.9276 49.0049 64.8964 48.7173Z" fill="black"/>
<path d="M58.2393 52.0811C57.6026 51.8036 57.072 51.3288 56.7257 50.7268C56.2923 49.9754 56.1747 49.0828 56.3987 48.2447C56.6227 47.4067 57.1701 46.6918 57.9206 46.2569L60.9035 44.5574C61.1653 44.4335 61.4559 44.3828 61.7443 44.4109C62.0326 44.4389 62.3079 44.5446 62.541 44.7168C62.8305 44.8939 63.0979 45.1048 63.3376 45.3452L58.3632 48.2042C56.7345 49.169 57.3187 51.5323 58.2393 52.0811Z" fill="#E0E0E0"/>
<path d="M58.6997 51.0456C58.6171 50.9027 58.5636 50.7448 58.542 50.5811C58.5205 50.4175 58.5314 50.2511 58.5741 50.0917C58.6168 49.9322 58.6906 49.7828 58.7911 49.6518C58.8916 49.5208 59.0169 49.411 59.1599 49.3285L64.1786 46.4341C64.5946 47.1257 64.8291 47.9112 64.8602 48.7177C64.8602 48.7974 64.8602 48.8682 64.8602 48.9479L60.4345 51.497C60.2913 51.5827 60.1326 51.6391 59.9674 51.6628C59.8022 51.6864 59.634 51.677 59.4725 51.635C59.311 51.5929 59.1595 51.5192 59.0268 51.418C58.8941 51.3168 58.7829 51.1902 58.6997 51.0456Z" fill="white"/>
<path opacity="0.1" d="M69.658 43.7608C69.658 43.8227 69.7022 43.8758 69.7199 43.9378C69.7399 43.977 69.7548 44.0187 69.7642 44.0617C69.7642 44.0617 69.7642 44.1591 69.8084 44.2033C69.8527 44.2476 69.8084 44.3095 69.8084 44.3538C69.8084 44.3981 69.8084 44.4069 69.8084 44.4335C69.8528 44.6578 69.8706 44.8865 69.8615 45.115C69.8659 45.1946 69.8659 45.2744 69.8615 45.354C69.8615 44.283 68.0913 42.5924 66.4361 43.5306C65.8784 43.8581 65.0287 44.3272 63.3116 45.3009C63.0719 45.0605 62.8045 44.8496 62.5149 44.6725C62.2819 44.5003 62.0066 44.3946 61.7182 44.3665C61.4299 44.3385 61.1393 44.3891 60.8774 44.5131L64.9756 42.1498C65.3474 41.934 65.7581 41.7938 66.1842 41.7371C66.6103 41.6803 67.0434 41.7083 67.4586 41.8193C67.8739 41.9303 68.2632 42.1222 68.6041 42.384C68.9451 42.6457 69.231 42.9723 69.4455 43.3448C69.4986 43.4333 69.5429 43.5306 69.5871 43.6191L69.658 43.7608Z" fill="black"/>
</svg>
