<svg width="155" height="152" viewBox="0 0 155 152" fill="none" xmlns="http://www.w3.org/2000/svg">
<circle cx="74" cy="73" r="70" fill="#D9D9D9"/>
<path d="M68.7598 115.827L112.82 141.271C113.554 141.643 114.364 141.837 115.187 141.837C116.009 141.837 116.82 141.643 117.553 141.271L141.657 127.353C142.983 126.604 142.983 125.364 141.657 124.622L97.5901 99.1851C96.8582 98.8126 96.0486 98.6184 95.2273 98.6184C94.4061 98.6184 93.5965 98.8126 92.8646 99.1851L68.7598 113.103C67.4541 113.852 67.4541 115.078 68.7598 115.827Z" fill="#F0F0F0"/>
<path d="M68.7532 114.548L112.82 139.992C113.554 140.364 114.364 140.558 115.187 140.558C116.009 140.558 116.82 140.364 117.553 139.992L141.657 126.074C142.983 125.318 142.983 124.085 141.657 123.343L97.5901 97.8993C96.8561 97.5298 96.0458 97.3374 95.2241 97.3374C94.4023 97.3374 93.592 97.5298 92.858 97.8993L68.7532 111.817C67.4475 112.573 67.4475 113.792 68.7532 114.548Z" fill="white"/>
<path d="M117.553 139.992L139.291 127.439C132.445 130.945 119.442 138.447 117.52 139.196C115.597 139.945 114.464 140.277 110.892 138.209C107.32 136.141 71.1921 115.953 71.1921 115.953L112.827 139.992C113.559 140.363 114.369 140.557 115.19 140.557C116.011 140.557 116.82 140.363 117.553 139.992Z" fill="#FAFAFA"/>
<path d="M128.296 131.336C128.205 131.382 128.104 131.405 128.001 131.405C127.899 131.405 127.798 131.382 127.706 131.336L83.7848 105.972C83.6125 105.879 83.6059 105.727 83.7848 105.634C83.8765 105.588 83.9774 105.565 84.0797 105.565C84.1821 105.565 84.283 105.588 84.3747 105.634L128.296 130.991C128.475 131.091 128.482 131.243 128.296 131.336Z" fill="#E0E0E0"/>
<g style="mix-blend-mode:hard-light" opacity="0.7">
<path d="M92.9244 108.013C93.0637 108.095 93.2101 108.164 93.3619 108.219L93.5342 108.285C94.1879 108.49 94.8758 108.565 95.5582 108.503C96.2407 108.442 96.9043 108.246 97.5108 107.927L101.653 105.534C102.124 105.291 102.52 104.924 102.8 104.475C103.081 104.025 103.235 103.508 103.247 102.978C103.26 102.449 103.129 101.925 102.87 101.463C102.61 101.001 102.231 100.617 101.772 100.352C101.632 100.272 101.486 100.204 101.335 100.146L101.163 100.087C100.509 99.8808 99.8217 99.8059 99.1393 99.8662C98.457 99.9264 97.7932 100.121 97.186 100.438L93.0437 102.824H93.0106C92.5116 103.084 92.0959 103.479 91.811 103.964C91.6163 104.3 91.49 104.672 91.4393 105.058C91.3886 105.443 91.4144 105.835 91.5154 106.211C91.6164 106.586 91.7905 106.938 92.0277 107.246C92.265 107.555 92.5607 107.813 92.8979 108.007L92.9244 108.013Z" fill="#FAFAFA"/>
</g>
<path d="M101.786 102.89C101.069 102.543 100.281 102.37 99.4854 102.385C98.6896 102.4 97.9086 102.603 97.2059 102.976L93.0636 105.369C91.7381 106.118 91.6917 107.304 92.9178 108.02C93.6339 108.368 94.4221 108.541 95.218 108.526C96.0139 108.511 96.795 108.308 97.4975 107.934L101.64 105.541C102.952 104.779 103.018 103.599 101.786 102.89Z" fill="#E0E0E0"/>
<path d="M102.939 104.255C103.292 103.581 103.371 102.795 103.158 102.064C102.946 101.333 102.458 100.712 101.799 100.332C101.658 100.252 101.512 100.184 101.361 100.126L101.189 100.067C100.054 99.717 98.8344 99.7543 97.7227 100.173C99.6646 99.9738 100.864 99.9207 102.084 100.941C102.548 101.34 102.879 101.871 103.032 102.464C103.185 103.056 103.153 103.682 102.939 104.255Z" fill="white"/>
<path d="M95.562 102.274C95.7591 102.184 95.9766 102.148 96.1921 102.17C96.4076 102.192 96.6134 102.271 96.7881 102.399C97.292 102.727 97.7112 103.17 98.0118 103.69C98.3124 104.211 98.4858 104.795 98.518 105.395C98.5399 105.61 98.5041 105.827 98.4145 106.024C98.3248 106.221 98.1844 106.391 98.0076 106.515L95.7807 107.794C95.2205 108.086 94.5696 108.149 93.9635 107.973C93.3574 107.796 92.8428 107.392 92.5268 106.846C92.2108 106.299 92.1178 105.652 92.2671 105.038C92.4164 104.425 92.7966 103.893 93.3285 103.553L95.562 102.274Z" fill="#F5F5F5"/>
<path d="M98.6306 100.51C98.9097 100.332 99.2221 100.212 99.5489 100.157C99.8756 100.103 100.21 100.115 100.532 100.194C100.854 100.272 101.157 100.415 101.422 100.613C101.687 100.812 101.909 101.062 102.075 101.349C102.241 101.636 102.347 101.953 102.386 102.282C102.426 102.611 102.399 102.944 102.306 103.263C102.213 103.581 102.057 103.877 101.847 104.133C101.637 104.389 101.377 104.599 101.083 104.752L98.0076 106.515C98.1844 106.39 98.3248 106.221 98.4145 106.024C98.5041 105.827 98.5399 105.61 98.518 105.395C98.4859 104.795 98.3124 104.211 98.0118 103.69C97.7113 103.169 97.292 102.727 96.7881 102.399C96.6134 102.271 96.4077 102.192 96.1922 102.17C95.9767 102.148 95.7592 102.184 95.562 102.273L98.6306 100.51Z" fill="black"/>
<path opacity="0.4" d="M101.467 102.791C101.406 102.684 101.325 102.59 101.227 102.515C101.13 102.44 101.018 102.385 100.899 102.352C100.781 102.32 100.657 102.312 100.535 102.328C100.413 102.344 100.295 102.384 100.188 102.446L96.4768 104.58C96.7689 105.108 97.1909 105.553 97.7029 105.872L97.8487 105.952L101.129 104.07C101.343 103.944 101.498 103.739 101.561 103.5C101.624 103.26 101.591 103.005 101.467 102.791Z" fill="white"/>
<path d="M95.562 102.274C95.7591 102.184 95.9766 102.148 96.1921 102.17C96.4076 102.192 96.6134 102.271 96.7881 102.399C97.292 102.727 97.7112 103.17 98.0118 103.69C98.3124 104.211 98.4858 104.795 98.518 105.395C98.5399 105.61 98.5041 105.827 98.4145 106.024C98.3248 106.221 98.1844 106.391 98.0076 106.515L95.7807 107.794C95.2205 108.086 94.5696 108.149 93.9635 107.973C93.3574 107.796 92.8428 107.392 92.5268 106.846C92.2108 106.299 92.1178 105.652 92.2671 105.038C92.4164 104.425 92.7966 103.893 93.3285 103.553L95.562 102.274Z" fill="#F5F5F5"/>
<path opacity="0.1" d="M98.518 105.395C98.4859 104.795 98.3124 104.211 98.0118 103.69C97.7113 103.17 97.292 102.727 96.7881 102.399C96.6134 102.271 96.4077 102.192 96.1922 102.17C95.9767 102.148 95.7592 102.184 95.562 102.274L95.7343 102.174L95.8669 102.101C96.063 102.008 96.2805 101.97 96.4964 101.991C96.7123 102.012 96.9185 102.092 97.093 102.221C97.5961 102.549 98.0148 102.992 98.3153 103.512C98.6158 104.032 98.7897 104.616 98.8228 105.216C98.8455 105.431 98.8108 105.648 98.7223 105.844C98.6338 106.041 98.4947 106.211 98.3191 106.336L98.0076 106.515C98.1844 106.391 98.3248 106.221 98.4145 106.024C98.5041 105.827 98.5399 105.61 98.518 105.395Z" fill="black"/>
<path d="M93.5671 107.914C93.1523 107.732 92.7959 107.439 92.5378 107.067C92.2797 106.695 92.13 106.259 92.1052 105.807C92.0805 105.355 92.1818 104.904 92.3977 104.506C92.6137 104.109 92.936 103.778 93.3285 103.553L95.562 102.274C95.7592 102.184 95.9767 102.148 96.1922 102.17C96.4077 102.192 96.6134 102.271 96.7882 102.399C97.0039 102.528 97.2022 102.684 97.378 102.863L93.6599 105.004C92.4404 105.713 92.8779 107.496 93.5671 107.914Z" fill="#E0E0E0"/>
<path d="M93.905 107.132C93.8433 107.025 93.8033 106.907 93.7873 106.785C93.7712 106.663 93.7795 106.539 93.8115 106.42C93.8435 106.302 93.8987 106.19 93.9739 106.093C94.0491 105.995 94.1428 105.914 94.2496 105.853L98.0075 103.685C98.319 104.203 98.4945 104.791 98.5178 105.395C98.5213 105.45 98.5213 105.506 98.5178 105.561L95.204 107.476C95.0966 107.541 94.9773 107.584 94.8532 107.601C94.729 107.619 94.6026 107.612 94.4814 107.58C94.3602 107.547 94.2467 107.491 94.1476 107.414C94.0486 107.337 93.9661 107.241 93.905 107.132Z" fill="white"/>
<path opacity="0.1" d="M102.11 101.684C102.131 101.724 102.148 101.766 102.163 101.81C102.177 101.842 102.188 101.875 102.196 101.909C102.2 101.944 102.2 101.98 102.196 102.015V102.128C102.196 102.128 102.196 102.167 102.196 102.187C102.229 102.353 102.243 102.522 102.236 102.691C102.24 102.753 102.24 102.815 102.236 102.877C102.236 102.075 100.911 100.802 99.6712 101.511L97.325 102.837C97.1491 102.657 96.9509 102.502 96.7352 102.373C96.5604 102.245 96.3547 102.166 96.1392 102.144C95.9237 102.121 95.7062 102.157 95.509 102.247L98.5776 100.484C98.856 100.322 99.1635 100.217 99.4826 100.175C99.8016 100.132 100.126 100.153 100.437 100.237C100.748 100.32 101.039 100.463 101.295 100.659C101.55 100.855 101.764 101.1 101.925 101.379C101.964 101.445 101.998 101.511 102.031 101.578C102.064 101.644 102.104 101.657 102.11 101.684Z" fill="black"/>
<g style="mix-blend-mode:hard-light" opacity="0.7">
<path d="M77.4686 117.014C77.6091 117.093 77.7553 117.162 77.906 117.219L78.0783 117.285C78.7322 117.49 79.4199 117.563 80.1022 117.502C80.7845 117.441 81.448 117.245 82.0549 116.928L86.1972 114.535C86.6972 114.276 87.1115 113.878 87.3902 113.388C87.5849 113.053 87.7115 112.682 87.7626 112.297C87.8138 111.912 87.7884 111.521 87.688 111.146C87.5877 110.771 87.4143 110.419 87.1778 110.112C86.9413 109.804 86.6463 109.546 86.3099 109.352C86.1692 109.273 86.023 109.204 85.8724 109.147L85.7001 109.087C84.3804 108.673 82.9502 108.799 81.7235 109.438L77.5812 111.831H77.5481C77.0776 112.075 76.6813 112.441 76.4008 112.891C76.1203 113.34 75.9659 113.857 75.9537 114.387C75.9415 114.917 76.072 115.44 76.3315 115.902C76.591 116.364 76.97 116.748 77.4288 117.014H77.4686Z" fill="#FAFAFA"/>
</g>
<path d="M86.3433 111.89C85.6254 111.545 84.8364 111.373 84.0398 111.388C83.2432 111.403 82.4613 111.604 81.7569 111.977L77.6146 114.369C76.2891 115.125 76.2427 116.304 77.4688 117.02C78.1863 117.367 78.9754 117.54 79.7723 117.526C80.5692 117.511 81.3513 117.308 82.0552 116.934L86.1975 114.542C87.5031 113.786 87.5694 112.6 86.3433 111.89Z" fill="#E0E0E0"/>
<path d="M87.483 113.262C87.8367 112.586 87.9155 111.8 87.7031 111.068C87.4907 110.335 87.0034 109.713 86.3431 109.332C86.2025 109.253 86.0563 109.184 85.9056 109.126L85.7333 109.067C84.6003 108.717 83.3832 108.755 82.2737 109.173C84.2156 108.981 85.4086 108.921 86.6281 109.942C87.0925 110.342 87.4233 110.874 87.5762 111.468C87.729 112.061 87.6965 112.688 87.483 113.262Z" fill="white"/>
<path d="M80.1065 111.281C80.3026 111.188 80.5201 111.15 80.736 111.171C80.952 111.192 81.1581 111.271 81.3326 111.4C81.8357 111.729 82.2544 112.171 82.5549 112.691C82.8554 113.212 83.0293 113.796 83.0624 114.396C83.0851 114.61 83.0504 114.827 82.9619 115.024C82.8734 115.221 82.7343 115.39 82.5587 115.516L80.3252 116.795C79.7627 117.119 79.0945 117.207 78.4674 117.038C77.8403 116.87 77.3059 116.459 76.9816 115.897C76.6573 115.334 76.5697 114.666 76.7381 114.039C76.9065 113.412 77.3171 112.878 77.8796 112.553L80.1065 111.281Z" fill="#F5F5F5"/>
<path d="M83.1748 109.511C83.4539 109.333 83.7662 109.213 84.093 109.158C84.4198 109.104 84.7542 109.116 85.0761 109.194C85.398 109.273 85.7007 109.415 85.9658 109.614C86.231 109.813 86.4532 110.063 86.619 110.35C86.7848 110.636 86.8908 110.954 86.9306 111.283C86.9703 111.612 86.943 111.945 86.8503 112.263C86.7576 112.581 86.6014 112.877 86.3912 113.133C86.1809 113.389 85.921 113.6 85.627 113.753L82.565 115.516C82.7406 115.39 82.8797 115.221 82.9682 115.024C83.0567 114.827 83.0914 114.61 83.0687 114.396C83.0356 113.796 82.8617 113.212 82.5612 112.692C82.2607 112.171 81.842 111.729 81.3389 111.4C81.1644 111.271 80.9583 111.192 80.7423 111.171C80.5264 111.15 80.3089 111.188 80.1128 111.281L83.1748 109.511Z" fill="black"/>
<path opacity="0.4" d="M86.0182 111.784C85.9565 111.677 85.8742 111.583 85.7761 111.508C85.6781 111.433 85.5662 111.378 85.4468 111.346C85.3274 111.314 85.2028 111.305 85.0803 111.322C84.9577 111.338 84.8395 111.378 84.7325 111.44L81.021 113.574C81.3107 114.112 81.7326 114.569 82.2471 114.899L82.3995 114.979L85.6736 113.096C85.7849 113.035 85.8826 112.952 85.9608 112.852C86.0389 112.752 86.0959 112.637 86.1281 112.514C86.1604 112.392 86.1673 112.264 86.1484 112.138C86.1295 112.012 86.0852 111.892 86.0182 111.784Z" fill="white"/>
<path d="M80.1065 111.281C80.3026 111.188 80.5201 111.15 80.736 111.171C80.952 111.192 81.1581 111.271 81.3326 111.4C81.8357 111.729 82.2544 112.171 82.5549 112.691C82.8554 113.212 83.0293 113.796 83.0624 114.396C83.0851 114.61 83.0504 114.827 82.9619 115.024C82.8734 115.221 82.7343 115.39 82.5587 115.516L80.3252 116.795C79.7627 117.119 79.0945 117.207 78.4674 117.038C77.8403 116.87 77.3059 116.459 76.9816 115.897C76.6573 115.334 76.5697 114.666 76.7381 114.039C76.9065 113.412 77.3171 112.878 77.8796 112.553L80.1065 111.281Z" fill="#F5F5F5"/>
<path opacity="0.1" d="M83.0621 114.396C83.029 113.796 82.8551 113.212 82.5546 112.691C82.2541 112.171 81.8354 111.729 81.3323 111.4C81.1578 111.271 80.9516 111.192 80.7357 111.171C80.5198 111.15 80.3023 111.188 80.1062 111.281L80.2851 111.175L80.4177 111.102C80.6134 111.012 80.8293 110.976 81.0435 110.997C81.2577 111.018 81.4625 111.095 81.6372 111.221C82.1414 111.548 82.561 111.991 82.8616 112.511C83.1622 113.032 83.3354 113.616 83.367 114.217C83.3903 114.431 83.356 114.648 83.2674 114.845C83.1789 115.042 83.0394 115.212 82.8633 115.337L82.5584 115.516C82.734 115.39 82.8731 115.22 82.9616 115.024C83.0501 114.827 83.0848 114.61 83.0621 114.396Z" fill="black"/>
<path d="M78.1117 116.914C77.6972 116.732 77.3414 116.438 77.084 116.066C76.8265 115.694 76.6774 115.257 76.6534 114.805C76.6293 114.353 76.7312 113.903 76.9478 113.506C77.1643 113.108 77.4869 112.778 77.8797 112.553L80.1066 111.281C80.3027 111.188 80.5203 111.15 80.7362 111.171C80.9521 111.192 81.1583 111.271 81.3328 111.4C81.5518 111.527 81.7524 111.683 81.9293 111.864L78.2111 114.011C76.9916 114.72 77.4224 116.497 78.1117 116.914Z" fill="#E0E0E0"/>
<path d="M78.4497 116.132C78.3269 115.916 78.2943 115.661 78.3588 115.421C78.4234 115.182 78.5799 114.978 78.7943 114.853L82.5522 112.686C82.8667 113.202 83.0424 113.791 83.0625 114.395C83.066 114.451 83.066 114.506 83.0625 114.561L79.7487 116.477C79.6411 116.54 79.5218 116.582 79.3979 116.6C79.2739 116.617 79.1478 116.609 79.0268 116.577C78.9058 116.545 78.7925 116.489 78.6934 116.413C78.5943 116.336 78.5115 116.241 78.4497 116.132Z" fill="white"/>
<path opacity="0.1" d="M86.6612 110.684C86.6612 110.724 86.6944 110.77 86.7143 110.817C86.7342 110.863 86.7143 110.876 86.7143 110.909C86.7143 110.943 86.7143 110.982 86.7474 111.016C86.7805 111.049 86.7474 111.088 86.7474 111.128C86.7474 111.168 86.7474 111.168 86.7474 111.188C86.7738 111.354 86.7871 111.523 86.7872 111.692C86.7872 111.751 86.7872 111.811 86.7872 111.87C86.7872 111.069 85.4616 109.803 84.2223 110.505L81.8761 111.831C81.6993 111.65 81.4986 111.494 81.2796 111.367C81.1051 111.238 80.8989 111.159 80.683 111.138C80.4671 111.117 80.2495 111.155 80.0535 111.247L83.1221 109.478C83.6857 109.153 84.3551 109.065 84.9837 109.233C85.6123 109.4 86.1488 109.81 86.4757 110.373L86.5751 110.578C86.6069 110.611 86.6357 110.646 86.6612 110.684Z" fill="black"/>
<g style="mix-blend-mode:hard-light" opacity="0.7">
<path d="M104.012 114.415C104.152 114.496 104.299 114.565 104.45 114.621L104.622 114.687C105.276 114.893 105.964 114.967 106.646 114.905C107.329 114.844 107.992 114.648 108.599 114.329L112.748 111.937C113.257 111.676 113.679 111.272 113.962 110.775C114.246 110.278 114.379 109.71 114.345 109.139C114.312 108.568 114.113 108.019 113.772 107.559C113.432 107.099 112.966 106.748 112.43 106.548L112.257 106.489C111.604 106.282 110.916 106.206 110.234 106.267C109.551 106.327 108.887 106.522 108.281 106.84L104.132 109.233C103.659 109.475 103.261 109.84 102.979 110.29C102.698 110.74 102.542 111.258 102.53 111.789C102.518 112.319 102.649 112.843 102.91 113.306C103.171 113.768 103.552 114.152 104.012 114.415Z" fill="#FAFAFA"/>
</g>
<path d="M112.887 109.292C112.17 108.945 111.38 108.772 110.583 108.787C109.787 108.802 109.005 109.005 108.301 109.378L104.158 111.771C102.833 112.52 102.786 113.706 104.013 114.422C104.729 114.77 105.517 114.943 106.313 114.928C107.109 114.913 107.89 114.71 108.592 114.336L112.741 111.943C114.047 111.181 114.106 110.001 112.887 109.292Z" fill="#E0E0E0"/>
<path d="M114.027 110.664C114.38 109.989 114.459 109.202 114.247 108.47C114.034 107.738 113.547 107.116 112.887 106.734C112.747 106.654 112.601 106.585 112.449 106.529L112.277 106.469C111.144 106.119 109.927 106.157 108.817 106.575C110.759 106.376 111.952 106.323 113.172 107.344C113.636 107.744 113.967 108.276 114.12 108.87C114.273 109.464 114.24 110.09 114.027 110.664Z" fill="white"/>
<path d="M106.65 108.676C106.847 108.586 107.065 108.551 107.28 108.573C107.496 108.595 107.702 108.674 107.876 108.802C108.38 109.13 108.799 109.572 109.1 110.093C109.401 110.613 109.574 111.198 109.606 111.798C109.629 112.013 109.594 112.231 109.505 112.428C109.415 112.625 109.274 112.794 109.096 112.918L106.869 114.197C106.59 114.358 106.283 114.462 105.964 114.503C105.645 114.545 105.322 114.524 105.011 114.44C104.701 114.357 104.41 114.213 104.155 114.017C103.9 113.822 103.686 113.577 103.525 113.299C103.365 113.02 103.261 112.713 103.219 112.394C103.177 112.075 103.198 111.752 103.282 111.441C103.365 111.131 103.509 110.84 103.705 110.585C103.901 110.33 104.145 110.116 104.423 109.955L106.65 108.676Z" fill="#F5F5F5"/>
<path d="M109.739 106.913C110.299 106.622 110.95 106.558 111.556 106.734C112.162 106.911 112.677 107.315 112.993 107.861C113.309 108.408 113.402 109.055 113.252 109.669C113.103 110.282 112.723 110.814 112.191 111.155L109.076 112.918C109.254 112.794 109.395 112.625 109.485 112.427C109.575 112.23 109.61 112.013 109.586 111.797C109.554 111.197 109.381 110.613 109.08 110.092C108.78 109.572 108.36 109.13 107.856 108.802C107.682 108.674 107.476 108.595 107.261 108.572C107.045 108.55 106.828 108.586 106.63 108.676L109.739 106.913Z" fill="black"/>
<path opacity="0.4" d="M112.562 109.186C112.5 109.079 112.418 108.985 112.32 108.91C112.222 108.835 112.11 108.779 111.991 108.747C111.871 108.715 111.747 108.707 111.624 108.723C111.502 108.74 111.383 108.78 111.276 108.841L107.565 110.976C107.857 111.504 108.279 111.949 108.791 112.268L108.943 112.347L112.218 110.465C112.432 110.34 112.589 110.136 112.653 109.897C112.718 109.657 112.685 109.402 112.562 109.186Z" fill="white"/>
<path d="M106.65 108.676C106.847 108.586 107.065 108.551 107.28 108.573C107.496 108.595 107.702 108.674 107.876 108.802C108.38 109.13 108.799 109.572 109.1 110.093C109.401 110.613 109.574 111.198 109.606 111.798C109.629 112.013 109.594 112.231 109.505 112.428C109.415 112.625 109.274 112.794 109.096 112.918L106.869 114.197C106.59 114.358 106.283 114.462 105.964 114.503C105.645 114.545 105.322 114.524 105.011 114.44C104.701 114.357 104.41 114.213 104.155 114.017C103.9 113.822 103.686 113.577 103.525 113.299C103.365 113.02 103.261 112.713 103.219 112.394C103.177 112.075 103.198 111.752 103.282 111.441C103.365 111.131 103.509 110.84 103.705 110.585C103.901 110.33 104.145 110.116 104.423 109.955L106.65 108.676Z" fill="#F5F5F5"/>
<path opacity="0.1" d="M109.606 111.798C109.574 111.197 109.401 110.613 109.1 110.093C108.799 109.572 108.38 109.13 107.876 108.802C107.701 108.674 107.496 108.595 107.28 108.573C107.065 108.551 106.847 108.586 106.65 108.676L106.829 108.577L106.962 108.504C107.157 108.411 107.373 108.374 107.588 108.395C107.803 108.416 108.008 108.495 108.181 108.623C108.684 108.952 109.103 109.394 109.403 109.914C109.704 110.435 109.878 111.019 109.911 111.619C109.934 111.833 109.899 112.05 109.81 112.247C109.722 112.444 109.583 112.613 109.407 112.739L109.096 112.918C109.274 112.794 109.415 112.625 109.505 112.428C109.594 112.231 109.629 112.013 109.606 111.798Z" fill="black"/>
<path d="M104.655 114.316C104.241 114.134 103.885 113.841 103.628 113.468C103.37 113.096 103.221 112.659 103.197 112.207C103.173 111.755 103.275 111.305 103.491 110.908C103.708 110.51 104.031 110.18 104.423 109.955L106.65 108.676C106.847 108.586 107.065 108.551 107.28 108.573C107.496 108.595 107.702 108.674 107.876 108.802C108.094 108.931 108.295 109.087 108.473 109.266L104.755 111.407C103.529 112.116 103.966 113.899 104.655 114.316Z" fill="#E0E0E0"/>
<path d="M104.993 113.534C104.931 113.427 104.891 113.31 104.875 113.188C104.859 113.065 104.868 112.941 104.9 112.823C104.932 112.704 104.987 112.592 105.062 112.495C105.137 112.397 105.231 112.316 105.338 112.255L109.076 110.081C109.39 110.597 109.566 111.186 109.586 111.791C109.586 111.85 109.586 111.903 109.586 111.956L106.272 113.872C106.057 113.995 105.803 114.029 105.563 113.966C105.324 113.902 105.119 113.747 104.993 113.534Z" fill="white"/>
<path opacity="0.1" d="M113.205 108.092C113.223 108.133 113.239 108.175 113.251 108.218C113.265 108.25 113.276 108.284 113.284 108.318C113.284 108.351 113.284 108.391 113.284 108.424C113.284 108.457 113.284 108.497 113.284 108.537C113.284 108.576 113.284 108.576 113.284 108.596C113.317 108.762 113.331 108.931 113.324 109.1C113.328 109.162 113.328 109.224 113.324 109.285C113.324 108.484 111.999 107.211 110.759 107.92L108.42 109.246C108.242 109.066 108.041 108.91 107.823 108.782C107.649 108.654 107.443 108.575 107.227 108.552C107.012 108.53 106.794 108.566 106.597 108.656L109.666 106.893C110.225 106.577 110.886 106.494 111.506 106.661C112.126 106.829 112.655 107.233 112.98 107.788C113.019 107.854 113.054 107.923 113.086 107.993C113.129 108.022 113.169 108.055 113.205 108.092Z" fill="black"/>
<g style="mix-blend-mode:hard-light" opacity="0.7">
<path d="M88.5302 123.416C88.6707 123.495 88.8169 123.564 88.9676 123.621C89.0236 123.647 89.0812 123.669 89.14 123.688C89.7938 123.892 90.4815 123.966 91.1639 123.904C91.8462 123.843 92.5097 123.647 93.1166 123.33L97.2588 120.937H97.292C97.7621 120.692 98.1579 120.326 98.4378 119.876C98.7177 119.426 98.8715 118.909 98.883 118.379C98.8945 117.849 98.7634 117.326 98.5033 116.864C98.2432 116.402 97.8637 116.019 97.4047 115.754C97.264 115.675 97.1178 115.606 96.9672 115.549L96.7949 115.489C95.4752 115.075 94.045 115.201 92.8183 115.84L88.676 118.233C88.2055 118.477 87.8092 118.843 87.5287 119.293C87.2482 119.742 87.0938 120.259 87.0816 120.789C87.0694 121.319 87.1999 121.842 87.4594 122.304C87.7189 122.767 88.0979 123.15 88.5567 123.416H88.5302Z" fill="#FAFAFA"/>
</g>
<path d="M97.431 118.293C96.7143 117.947 95.9264 117.775 95.1309 117.79C94.3354 117.805 93.5545 118.007 92.8513 118.379L88.7024 120.771C87.3769 121.527 87.3371 122.707 88.5566 123.423C89.2775 123.774 90.0715 123.95 90.8734 123.935C91.6753 123.92 92.4622 123.715 93.1694 123.336L97.3117 120.944C98.5909 120.188 98.6571 119.002 97.431 118.293Z" fill="#E0E0E0"/>
<path d="M98.5709 119.665C98.9246 118.989 99.0034 118.203 98.791 117.47C98.5785 116.738 98.0912 116.116 97.4309 115.734C97.2903 115.655 97.1441 115.587 96.9935 115.529L96.8212 115.469C95.6882 115.12 94.4711 115.157 93.3616 115.575C95.3035 115.383 96.5031 115.324 97.7159 116.351C98.1806 116.749 98.5117 117.281 98.6646 117.873C98.8175 118.466 98.7848 119.091 98.5709 119.665Z" fill="white"/>
<path d="M91.1811 117.683C91.3762 117.591 91.5926 117.553 91.8074 117.574C92.0221 117.595 92.2272 117.674 92.4006 117.802C92.9037 118.131 93.3225 118.573 93.623 119.094C93.9235 119.614 94.0973 120.198 94.1305 120.798C94.1531 121.012 94.1184 121.229 94.0299 121.426C93.9414 121.623 93.8023 121.793 93.6268 121.918L91.3998 123.197C90.8397 123.488 90.1888 123.552 89.5826 123.376C88.9765 123.199 88.4619 122.795 88.1459 122.249C87.8299 121.702 87.7369 121.055 87.8862 120.441C88.0356 119.828 88.4158 119.296 88.9476 118.955L91.1811 117.683Z" fill="#F5F5F5"/>
<path d="M94.2695 115.913C94.5481 115.753 94.8555 115.649 95.1742 115.607C95.493 115.565 95.8169 115.587 96.1274 115.67C96.4378 115.753 96.7289 115.897 96.9838 116.093C97.2388 116.289 97.4526 116.533 97.6132 116.811C97.7738 117.09 97.8779 117.397 97.9197 117.716C97.9615 118.035 97.9401 118.359 97.8567 118.669C97.7733 118.98 97.6295 119.271 97.4337 119.526C97.2378 119.781 96.9937 119.995 96.7151 120.155L93.6465 121.918C93.8221 121.793 93.9612 121.623 94.0497 121.426C94.1382 121.229 94.1729 121.013 94.1502 120.798C94.1171 120.198 93.9432 119.614 93.6427 119.094C93.3422 118.573 92.9235 118.131 92.4204 117.802C92.2469 117.674 92.0419 117.595 91.8272 117.574C91.6124 117.553 91.396 117.591 91.2009 117.683L94.2695 115.913Z" fill="black"/>
<path opacity="0.4" d="M97.1064 118.187C97.0452 118.08 96.9636 117.986 96.8661 117.911C96.7686 117.836 96.6573 117.781 96.5384 117.748C96.4195 117.716 96.2955 117.708 96.1735 117.724C96.0514 117.74 95.9338 117.78 95.8272 117.842L92.1157 119.976C92.4055 120.504 92.8252 120.949 93.3352 121.268L93.4877 121.348L96.7617 119.466C96.8686 119.405 96.9623 119.323 97.0374 119.225C97.1126 119.128 97.1678 119.017 97.1999 118.898C97.2319 118.779 97.2401 118.655 97.224 118.533C97.208 118.411 97.168 118.293 97.1064 118.187Z" fill="white"/>
<path d="M91.1811 117.683C91.3762 117.591 91.5926 117.553 91.8074 117.574C92.0221 117.595 92.2272 117.674 92.4006 117.802C92.9037 118.131 93.3225 118.573 93.623 119.094C93.9235 119.614 94.0973 120.198 94.1305 120.798C94.1531 121.012 94.1184 121.229 94.0299 121.426C93.9414 121.623 93.8023 121.793 93.6268 121.918L91.3998 123.197C90.8397 123.488 90.1888 123.552 89.5826 123.376C88.9765 123.199 88.4619 122.795 88.1459 122.249C87.8299 121.702 87.7369 121.055 87.8862 120.441C88.0356 119.828 88.4158 119.296 88.9476 118.955L91.1811 117.683Z" fill="#F5F5F5"/>
<path opacity="0.1" d="M94.1502 120.798C94.1171 120.198 93.9432 119.614 93.6427 119.094C93.3422 118.573 92.9235 118.131 92.4204 117.802C92.2469 117.674 92.0419 117.595 91.8272 117.574C91.6124 117.553 91.396 117.591 91.2009 117.683L91.3733 117.577L91.5058 117.504C91.7027 117.414 91.9196 117.378 92.1348 117.399C92.35 117.42 92.556 117.497 92.7319 117.623C93.2412 117.948 93.6663 118.389 93.9727 118.91C94.2791 119.43 94.458 120.016 94.4949 120.619C94.5175 120.834 94.4821 121.051 94.3924 121.248C94.3026 121.445 94.1618 121.615 93.9846 121.739L93.6797 121.918C93.8492 121.789 93.9818 121.617 94.0644 121.421C94.1469 121.224 94.1765 121.009 94.1502 120.798Z" fill="black"/>
<path d="M89.1927 123.336C88.718 123.128 88.3229 122.772 88.066 122.322C87.9045 122.044 87.7995 121.736 87.757 121.417C87.7145 121.098 87.7354 120.774 87.8185 120.463C87.9017 120.152 88.0454 119.86 88.2414 119.605C88.4374 119.35 88.6819 119.136 88.9608 118.975L91.1943 117.703C91.3893 117.61 91.6058 117.573 91.8205 117.594C92.0353 117.615 92.2403 117.694 92.4138 117.822C92.6342 117.949 92.8351 118.108 93.0103 118.293C91.6848 119.035 90.1206 119.949 89.2922 120.433C88.0793 121.116 88.53 122.905 89.1927 123.336Z" fill="#E0E0E0"/>
<path d="M89.5441 122.534C89.4208 122.319 89.3872 122.065 89.4504 121.825C89.5137 121.586 89.6688 121.381 89.8821 121.255L93.6466 119.088C93.9563 119.606 94.1296 120.194 94.1503 120.798C94.1537 120.855 94.1537 120.913 94.1503 120.97L90.8365 122.879C90.7294 122.943 90.6107 122.984 90.4872 123.002C90.3638 123.019 90.2381 123.011 90.1177 122.979C89.9973 122.947 89.8845 122.891 89.786 122.815C89.6875 122.738 89.6052 122.643 89.5441 122.534Z" fill="white"/>
<path opacity="0.1" d="M97.7491 117.087C97.7491 117.126 97.7491 117.173 97.8021 117.219C97.8112 117.251 97.8223 117.282 97.8353 117.312V117.418C97.8385 117.455 97.8385 117.493 97.8353 117.531C97.8353 117.531 97.8353 117.57 97.8353 117.59C97.8619 117.759 97.8752 117.93 97.875 118.101C97.875 118.16 97.875 118.22 97.875 118.279C97.875 117.478 96.5495 116.212 95.3101 116.914C94.8926 117.153 94.2563 117.511 92.9639 118.24C92.7887 118.055 92.5878 117.897 92.3674 117.769C92.194 117.641 91.9889 117.562 91.7742 117.541C91.5594 117.52 91.343 117.558 91.1479 117.65L94.2165 115.88C94.7761 115.566 95.4366 115.484 96.0561 115.651C96.6757 115.818 97.2049 116.222 97.5304 116.775C97.5701 116.84 97.6034 116.909 97.6298 116.98C97.6803 117.002 97.7223 117.039 97.7491 117.087Z" fill="black"/>
<g style="mix-blend-mode:hard-light" opacity="0.7">
<path d="M115.101 120.818C115.241 120.897 115.387 120.966 115.538 121.023L115.71 121.09C116.364 121.294 117.052 121.368 117.734 121.306C118.417 121.245 119.08 121.05 119.687 120.732L123.829 118.339H123.862C124.362 118.08 124.777 117.682 125.055 117.193C125.251 116.857 125.378 116.486 125.43 116.101C125.481 115.716 125.456 115.325 125.356 114.949C125.255 114.574 125.082 114.223 124.845 113.915C124.608 113.607 124.312 113.349 123.975 113.156C123.834 113.077 123.688 113.009 123.538 112.951L123.365 112.891C122.046 112.477 120.615 112.603 119.389 113.242L115.246 115.635H115.213C114.741 115.877 114.343 116.243 114.061 116.693C113.779 117.143 113.624 117.66 113.612 118.191C113.599 118.722 113.731 119.246 113.992 119.708C114.252 120.171 114.633 120.554 115.094 120.818H115.101Z" fill="#FAFAFA"/>
</g>
<path d="M123.975 115.694C123.258 115.347 122.468 115.174 121.672 115.189C120.875 115.204 120.093 115.407 119.389 115.781L115.246 118.173C113.921 118.929 113.875 120.108 115.101 120.824C115.818 121.171 116.607 121.344 117.404 121.329C118.201 121.314 118.983 121.112 119.687 120.738L123.829 118.345C125.135 117.59 125.201 116.404 123.975 115.694Z" fill="#E0E0E0"/>
<path d="M125.115 117.067C125.469 116.391 125.547 115.605 125.335 114.873C125.122 114.14 124.635 113.518 123.975 113.137C123.834 113.058 123.688 112.989 123.537 112.931L123.365 112.871C122.232 112.522 121.015 112.559 119.906 112.978C121.847 112.779 123.04 112.726 124.26 113.746C124.724 114.146 125.055 114.679 125.208 115.273C125.361 115.866 125.328 116.492 125.115 117.067Z" fill="white"/>
<path d="M117.738 115.085C117.934 114.992 118.152 114.954 118.368 114.975C118.584 114.996 118.79 115.075 118.964 115.204C119.467 115.533 119.886 115.975 120.187 116.496C120.487 117.016 120.661 117.6 120.694 118.2C120.717 118.414 120.682 118.631 120.594 118.828C120.505 119.025 120.366 119.195 120.19 119.32L117.964 120.599C117.403 120.89 116.752 120.954 116.146 120.777C115.54 120.601 115.026 120.197 114.71 119.651C114.394 119.104 114.301 118.457 114.45 117.843C114.599 117.23 114.979 116.698 115.511 116.357L117.738 115.085Z" fill="#F5F5F5"/>
<path d="M120.814 113.315C121.092 113.155 121.399 113.051 121.718 113.009C122.037 112.967 122.361 112.988 122.671 113.072C122.982 113.155 123.273 113.299 123.528 113.495C123.783 113.691 123.997 113.935 124.157 114.213C124.318 114.492 124.422 114.799 124.464 115.118C124.505 115.437 124.484 115.761 124.401 116.071C124.317 116.382 124.174 116.673 123.978 116.928C123.782 117.183 123.538 117.396 123.259 117.557L120.191 119.32C120.366 119.195 120.505 119.025 120.594 118.828C120.682 118.631 120.717 118.414 120.694 118.2C120.661 117.6 120.487 117.016 120.187 116.496C119.886 115.975 119.467 115.533 118.964 115.204C118.79 115.075 118.584 114.996 118.368 114.975C118.152 114.954 117.934 114.992 117.738 115.085L120.814 113.315Z" fill="black"/>
<path opacity="0.4" d="M123.657 115.588C123.596 115.482 123.514 115.388 123.416 115.313C123.319 115.238 123.208 115.182 123.089 115.15C122.97 115.118 122.846 115.11 122.724 115.126C122.602 115.142 122.484 115.182 122.378 115.244L118.653 117.371C118.942 117.91 119.364 118.366 119.879 118.697L120.031 118.776L123.305 116.894C123.416 116.834 123.514 116.751 123.592 116.652C123.67 116.553 123.728 116.439 123.76 116.316C123.793 116.194 123.801 116.067 123.783 115.942C123.765 115.817 123.722 115.697 123.657 115.588Z" fill="white"/>
<path d="M117.738 115.085C117.934 114.992 118.152 114.954 118.368 114.975C118.584 114.996 118.79 115.075 118.964 115.204C119.467 115.533 119.886 115.975 120.187 116.496C120.487 117.016 120.661 117.6 120.694 118.2C120.717 118.414 120.682 118.631 120.594 118.828C120.505 119.025 120.366 119.195 120.19 119.32L117.964 120.599C117.403 120.89 116.752 120.954 116.146 120.777C115.54 120.601 115.026 120.197 114.71 119.651C114.394 119.104 114.301 118.457 114.45 117.843C114.599 117.23 114.979 116.698 115.511 116.357L117.738 115.085Z" fill="#F5F5F5"/>
<path opacity="0.1" d="M120.694 118.2C120.661 117.6 120.487 117.016 120.187 116.496C119.886 115.975 119.467 115.533 118.964 115.204C118.79 115.075 118.584 114.996 118.368 114.975C118.152 114.954 117.934 114.992 117.738 115.085L117.917 114.979L118.05 114.906C118.245 114.814 118.461 114.776 118.676 114.797C118.891 114.818 119.096 114.897 119.269 115.025C119.776 115.354 120.198 115.798 120.5 116.321C120.801 116.844 120.975 117.431 121.006 118.034C121.028 118.249 120.992 118.466 120.902 118.663C120.813 118.86 120.672 119.029 120.495 119.154L120.191 119.333C120.368 119.206 120.509 119.035 120.597 118.835C120.686 118.636 120.719 118.416 120.694 118.2Z" fill="black"/>
<path d="M115.743 120.718C115.268 120.51 114.873 120.155 114.616 119.704C114.301 119.145 114.217 118.484 114.385 117.864C114.552 117.244 114.957 116.715 115.511 116.391L117.738 115.118C117.934 115.025 118.152 114.987 118.368 115.008C118.584 115.029 118.79 115.108 118.964 115.237C119.183 115.364 119.384 115.52 119.561 115.701L115.843 117.849C114.623 118.518 115.041 120.301 115.743 120.718Z" fill="#E0E0E0"/>
<path d="M116.088 119.936C116.026 119.83 115.986 119.713 115.969 119.591C115.953 119.469 115.96 119.346 115.992 119.227C116.023 119.108 116.078 118.996 116.152 118.899C116.227 118.801 116.32 118.719 116.426 118.657L120.184 116.49C120.498 117.007 120.674 117.596 120.694 118.2C120.698 118.255 120.698 118.31 120.694 118.366L117.38 120.281C117.273 120.345 117.155 120.386 117.031 120.404C116.908 120.421 116.782 120.413 116.662 120.381C116.541 120.349 116.428 120.293 116.33 120.217C116.231 120.14 116.149 120.045 116.088 119.936Z" fill="white"/>
<path opacity="0.1" d="M124.319 114.488C124.319 114.528 124.353 114.574 124.372 114.614C124.392 114.654 124.372 114.681 124.372 114.714C124.386 114.748 124.398 114.783 124.406 114.82C124.406 114.859 124.406 114.893 124.406 114.932C124.406 114.972 124.406 114.972 124.406 114.992C124.432 115.159 124.445 115.327 124.445 115.496C124.445 115.562 124.445 115.622 124.445 115.681C124.445 114.879 123.12 113.607 121.88 114.316L119.534 115.642C119.357 115.461 119.157 115.304 118.938 115.178C118.763 115.049 118.557 114.97 118.341 114.949C118.125 114.928 117.908 114.965 117.712 115.058L120.787 113.289C121.35 112.964 122.018 112.876 122.645 113.044C123.273 113.212 123.808 113.621 124.134 114.183L124.233 114.389C124.265 114.42 124.294 114.453 124.319 114.488Z" fill="black"/>
<g style="mix-blend-mode:hard-light" opacity="0.7">
<path d="M99.6514 129.818C99.7903 129.898 99.9342 129.969 100.082 130.03L100.255 130.09C100.908 130.295 101.596 130.368 102.278 130.307C102.961 130.246 103.624 130.05 104.231 129.732L108.373 127.339H108.407C108.879 127.097 109.277 126.731 109.559 126.282C109.841 125.832 109.996 125.314 110.008 124.783C110.02 124.253 109.889 123.729 109.628 123.266C109.367 122.804 108.986 122.42 108.526 122.157C108.384 122.08 108.238 122.011 108.088 121.951L107.909 121.891C106.59 121.477 105.16 121.604 103.933 122.243L99.7972 124.615H99.7641C99.2939 124.86 98.8982 125.226 98.6183 125.677C98.3384 126.127 98.1846 126.644 98.1731 127.173C98.1615 127.703 98.2927 128.227 98.5528 128.688C98.8129 129.15 99.1923 129.533 99.6514 129.798V129.818Z" fill="#FAFAFA"/>
</g>
<path d="M108.519 124.695C107.803 124.349 107.015 124.177 106.219 124.192C105.424 124.207 104.643 124.409 103.94 124.781L99.7972 127.174C98.4717 127.929 98.4253 129.109 99.6514 129.825C100.368 130.172 101.156 130.345 101.952 130.33C102.747 130.315 103.528 130.112 104.231 129.738L108.373 127.346C109.679 126.59 109.739 125.404 108.519 124.695Z" fill="#E0E0E0"/>
<path d="M109.659 126.067C110.013 125.392 110.093 124.606 109.882 123.874C109.671 123.142 109.185 122.519 108.526 122.137C108.384 122.06 108.238 121.992 108.088 121.931L107.909 121.872C106.768 121.533 105.547 121.582 104.437 122.011C106.378 121.819 107.578 121.759 108.798 122.786C109.256 123.182 109.584 123.707 109.737 124.293C109.891 124.879 109.864 125.497 109.659 126.067Z" fill="white"/>
<path d="M102.289 124.085C102.484 123.993 102.701 123.955 102.916 123.976C103.13 123.997 103.335 124.076 103.509 124.205C104.013 124.532 104.433 124.974 104.733 125.495C105.034 126.015 105.207 126.6 105.239 127.2C105.261 127.415 105.227 127.632 105.138 127.828C105.05 128.025 104.911 128.195 104.735 128.32L102.508 129.606C101.945 129.931 101.275 130.019 100.647 129.851C100.019 129.683 99.483 129.271 99.1578 128.708C98.8326 128.145 98.7446 127.475 98.913 126.847C99.0814 126.219 99.4925 125.683 100.056 125.358L102.289 124.085Z" fill="#F5F5F5"/>
<path d="M105.358 122.316C105.637 122.137 105.949 122.017 106.276 121.963C106.603 121.908 106.937 121.92 107.259 121.999C107.581 122.077 107.884 122.22 108.149 122.418C108.414 122.617 108.636 122.867 108.802 123.154C108.968 123.441 109.074 123.758 109.114 124.087C109.153 124.416 109.126 124.75 109.033 125.068C108.941 125.386 108.785 125.682 108.574 125.938C108.364 126.194 108.104 126.405 107.81 126.557L104.735 128.32C104.91 128.195 105.05 128.025 105.138 127.828C105.227 127.631 105.261 127.415 105.239 127.2C105.207 126.6 105.034 126.015 104.733 125.495C104.433 124.974 104.013 124.532 103.509 124.204C103.335 124.076 103.13 123.997 102.916 123.976C102.701 123.955 102.484 123.993 102.289 124.085L105.358 122.316Z" fill="black"/>
<path opacity="0.4" d="M108.194 124.589C108.133 124.482 108.052 124.388 107.954 124.313C107.857 124.238 107.745 124.183 107.627 124.151C107.508 124.119 107.384 124.111 107.262 124.127C107.14 124.143 107.022 124.183 106.915 124.244L103.204 126.378C103.489 126.92 103.912 127.377 104.43 127.704C104.477 127.733 104.526 127.76 104.576 127.783L107.85 125.901C107.961 125.84 108.059 125.757 108.137 125.657C108.215 125.557 108.272 125.442 108.304 125.319C108.337 125.196 108.344 125.068 108.325 124.943C108.306 124.817 108.261 124.697 108.194 124.589Z" fill="white"/>
<path d="M102.289 124.085C102.484 123.993 102.701 123.955 102.916 123.976C103.13 123.997 103.335 124.076 103.509 124.205C104.013 124.532 104.433 124.974 104.733 125.495C105.034 126.015 105.207 126.6 105.239 127.2C105.261 127.415 105.227 127.632 105.138 127.828C105.05 128.025 104.911 128.195 104.735 128.32L102.508 129.606C101.945 129.931 101.275 130.019 100.647 129.851C100.019 129.683 99.483 129.271 99.1578 128.708C98.8326 128.145 98.7446 127.475 98.913 126.847C99.0814 126.219 99.4925 125.683 100.056 125.358L102.289 124.085Z" fill="#F5F5F5"/>
<path opacity="0.1" d="M105.239 127.2C105.207 126.6 105.034 126.015 104.733 125.495C104.433 124.974 104.013 124.532 103.509 124.205C103.335 124.076 103.13 123.997 102.916 123.976C102.701 123.955 102.484 123.993 102.289 124.085L102.448 123.999L102.581 123.926C102.778 123.837 102.995 123.801 103.21 123.822C103.425 123.843 103.631 123.92 103.807 124.046C104.31 124.374 104.729 124.817 105.029 125.337C105.33 125.857 105.504 126.441 105.537 127.041C105.561 127.257 105.526 127.474 105.436 127.672C105.346 127.869 105.205 128.038 105.027 128.161L104.722 128.34C104.903 128.215 105.047 128.042 105.138 127.842C105.229 127.641 105.263 127.419 105.239 127.2Z" fill="black"/>
<path d="M100.288 129.719C99.8752 129.535 99.5214 129.241 99.2655 128.868C99.0096 128.496 98.8614 128.06 98.8374 127.609C98.8135 127.158 98.9145 126.709 99.1295 126.312C99.3445 125.915 99.6651 125.584 100.056 125.358L102.289 124.085C102.484 123.993 102.701 123.955 102.916 123.976C103.13 123.997 103.335 124.076 103.509 124.205C103.729 124.332 103.93 124.49 104.105 124.675L100.387 126.816C99.1677 127.518 99.6051 129.301 100.288 129.719Z" fill="#E0E0E0"/>
<path d="M100.632 128.937C100.571 128.83 100.531 128.712 100.515 128.59C100.499 128.468 100.507 128.344 100.539 128.225C100.571 128.107 100.626 127.995 100.701 127.898C100.776 127.8 100.87 127.719 100.977 127.657L104.735 125.49C105.045 126.008 105.218 126.597 105.238 127.2C105.242 127.258 105.242 127.315 105.238 127.372L101.925 129.281C101.818 129.345 101.699 129.387 101.575 129.404C101.452 129.421 101.326 129.413 101.206 129.381C101.085 129.349 100.973 129.293 100.874 129.217C100.776 129.141 100.693 129.045 100.632 128.937Z" fill="white"/>
<path opacity="0.1" d="M108.837 123.489C108.859 123.531 108.877 123.575 108.89 123.621C108.89 123.621 108.89 123.681 108.89 123.714C108.89 123.747 108.89 123.787 108.89 123.82C108.893 123.858 108.893 123.895 108.89 123.933C108.89 123.933 108.89 123.972 108.89 123.992C108.924 124.16 108.937 124.332 108.93 124.503C108.933 124.562 108.933 124.622 108.93 124.682C108.93 123.88 107.605 122.614 106.365 123.316C105.948 123.561 105.311 123.913 104.019 124.642C103.844 124.457 103.643 124.299 103.423 124.171C103.249 124.043 103.044 123.964 102.829 123.943C102.615 123.922 102.398 123.96 102.203 124.052L105.272 122.282C105.55 122.121 105.858 122.016 106.177 121.973C106.496 121.931 106.82 121.952 107.131 122.035C107.442 122.118 107.733 122.262 107.989 122.458C108.244 122.654 108.458 122.898 108.619 123.177C108.658 123.243 108.693 123.312 108.725 123.383C108.725 123.383 108.831 123.462 108.837 123.489Z" fill="black"/>
<g style="mix-blend-mode:hard-light" opacity="0.7">
<path d="M126.189 127.22C126.326 127.3 126.47 127.369 126.619 127.425L126.792 127.492C127.446 127.696 128.133 127.77 128.816 127.708C129.498 127.647 130.161 127.452 130.768 127.134L134.911 124.741H134.944C135.414 124.497 135.81 124.13 136.09 123.68C136.369 123.23 136.523 122.713 136.535 122.183C136.546 121.653 136.415 121.13 136.155 120.668C135.895 120.207 135.515 119.823 135.056 119.558C134.917 119.481 134.773 119.412 134.626 119.353L134.447 119.293C133.127 118.879 131.697 119.005 130.47 119.645L126.341 122.011H126.308C125.837 122.255 125.441 122.621 125.161 123.07C124.88 123.52 124.726 124.037 124.713 124.567C124.701 125.097 124.832 125.62 125.091 126.082C125.351 126.544 125.73 126.928 126.189 127.193V127.22Z" fill="#FAFAFA"/>
</g>
<path d="M135.063 122.097C134.347 121.749 133.559 121.576 132.763 121.591C131.967 121.606 131.186 121.809 130.483 122.183L126.341 124.575C125.015 125.331 124.969 126.511 126.188 127.227C126.906 127.574 127.695 127.747 128.492 127.732C129.289 127.717 130.071 127.514 130.775 127.14L134.917 124.748C136.249 123.999 136.289 122.806 135.063 122.097Z" fill="#E0E0E0"/>
<path d="M136.203 123.469C136.558 122.794 136.638 122.007 136.426 121.274C136.213 120.541 135.725 119.919 135.063 119.539C134.924 119.461 134.78 119.392 134.632 119.333L134.453 119.274C133.32 118.924 132.103 118.961 130.994 119.38C132.936 119.187 134.135 119.128 135.355 120.148C135.817 120.55 136.146 121.083 136.298 121.676C136.449 122.269 136.416 122.895 136.203 123.469Z" fill="white"/>
<path d="M128.833 121.487C129.028 121.395 129.245 121.357 129.459 121.378C129.674 121.399 129.879 121.478 130.053 121.607C130.556 121.935 130.974 122.378 131.275 122.898C131.575 123.419 131.749 124.002 131.782 124.602C131.805 124.817 131.77 125.034 131.682 125.23C131.593 125.427 131.454 125.597 131.279 125.722L129.052 127.002C128.773 127.18 128.46 127.3 128.134 127.355C127.807 127.409 127.472 127.397 127.151 127.318C126.829 127.24 126.526 127.097 126.261 126.899C125.996 126.7 125.773 126.45 125.608 126.163C125.442 125.876 125.336 125.559 125.296 125.23C125.256 124.901 125.284 124.568 125.376 124.249C125.469 123.931 125.625 123.635 125.835 123.379C126.046 123.123 126.306 122.913 126.6 122.76L128.833 121.487Z" fill="#F5F5F5"/>
<path d="M131.901 119.718C132.462 119.426 133.112 119.362 133.719 119.539C134.325 119.716 134.839 120.119 135.155 120.666C135.471 121.213 135.564 121.86 135.415 122.473C135.266 123.087 134.885 123.619 134.354 123.959L131.278 125.722C131.454 125.597 131.593 125.427 131.682 125.23C131.77 125.033 131.805 124.817 131.782 124.602C131.749 124.002 131.575 123.418 131.275 122.898C130.974 122.377 130.555 121.935 130.052 121.606C129.879 121.478 129.674 121.399 129.459 121.378C129.244 121.357 129.028 121.395 128.833 121.487L131.901 119.718Z" fill="black"/>
<path opacity="0.4" d="M134.738 122.011C134.677 121.904 134.595 121.81 134.498 121.735C134.4 121.66 134.289 121.605 134.17 121.573C134.051 121.541 133.927 121.532 133.805 121.548C133.683 121.565 133.566 121.605 133.459 121.666L129.748 123.8C130.037 124.328 130.457 124.773 130.967 125.093L131.119 125.172L134.394 123.29C134.5 123.229 134.594 123.147 134.669 123.05C134.744 122.952 134.8 122.841 134.832 122.722C134.864 122.603 134.872 122.479 134.856 122.357C134.84 122.235 134.8 122.117 134.738 122.011Z" fill="white"/>
<path d="M128.833 121.487C129.028 121.395 129.245 121.357 129.459 121.378C129.674 121.399 129.879 121.478 130.053 121.607C130.556 121.935 130.974 122.378 131.275 122.898C131.575 123.419 131.749 124.002 131.782 124.602C131.805 124.817 131.77 125.034 131.682 125.23C131.593 125.427 131.454 125.597 131.279 125.722L129.052 127.002C128.773 127.18 128.46 127.3 128.134 127.355C127.807 127.409 127.472 127.397 127.151 127.318C126.829 127.24 126.526 127.097 126.261 126.899C125.996 126.7 125.773 126.45 125.608 126.163C125.442 125.876 125.336 125.559 125.296 125.23C125.256 124.901 125.284 124.568 125.376 124.249C125.469 123.931 125.625 123.635 125.835 123.379C126.046 123.123 126.306 122.913 126.6 122.76L128.833 121.487Z" fill="#F5F5F5"/>
<path opacity="0.1" d="M131.782 124.602C131.749 124.002 131.575 123.418 131.275 122.898C130.974 122.378 130.555 121.935 130.052 121.607C129.879 121.478 129.674 121.399 129.459 121.378C129.244 121.357 129.028 121.395 128.833 121.487L129.005 121.381L129.138 121.308C129.334 121.215 129.551 121.178 129.767 121.199C129.983 121.22 130.189 121.299 130.364 121.428C130.867 121.756 131.286 122.199 131.586 122.719C131.887 123.239 132.06 123.823 132.094 124.423C132.118 124.639 132.083 124.857 131.993 125.054C131.903 125.251 131.762 125.42 131.583 125.543L131.278 125.722C131.454 125.597 131.593 125.427 131.682 125.23C131.77 125.034 131.805 124.817 131.782 124.602Z" fill="black"/>
<path d="M126.831 127.121C126.419 126.937 126.065 126.643 125.809 126.27C125.553 125.898 125.405 125.462 125.381 125.011C125.357 124.56 125.458 124.111 125.673 123.714C125.888 123.317 126.209 122.987 126.6 122.76L128.833 121.487C129.028 121.395 129.245 121.357 129.459 121.378C129.674 121.399 129.879 121.478 130.053 121.607C130.272 121.733 130.472 121.89 130.649 122.071L126.931 124.218C125.711 124.92 126.149 126.703 126.831 127.121Z" fill="#E0E0E0"/>
<path d="M127.176 126.339C127.115 126.232 127.075 126.115 127.059 125.992C127.042 125.87 127.051 125.746 127.083 125.628C127.115 125.509 127.17 125.397 127.245 125.3C127.32 125.202 127.414 125.121 127.521 125.06L131.279 122.892C131.588 123.411 131.762 123.999 131.782 124.602C131.786 124.657 131.786 124.713 131.782 124.768L128.469 126.683C128.362 126.747 128.243 126.789 128.119 126.806C127.996 126.823 127.87 126.815 127.75 126.783C127.629 126.751 127.517 126.695 127.418 126.619C127.32 126.543 127.237 126.447 127.176 126.339Z" fill="white"/>
<path opacity="0.1" d="M135.381 120.891C135.403 120.933 135.421 120.978 135.434 121.023C135.434 121.023 135.434 121.083 135.467 121.116C135.5 121.149 135.467 121.189 135.467 121.222C135.471 121.26 135.471 121.297 135.467 121.335C135.467 121.335 135.467 121.375 135.467 121.394C135.5 121.56 135.514 121.729 135.507 121.898C135.51 121.958 135.51 122.017 135.507 122.077C135.507 121.275 134.182 120.003 132.942 120.712L130.596 122.037C130.419 121.856 130.219 121.7 130 121.573C129.826 121.445 129.621 121.366 129.406 121.345C129.191 121.324 128.975 121.362 128.78 121.454L131.849 119.684C132.127 119.523 132.435 119.418 132.754 119.375C133.073 119.333 133.397 119.354 133.708 119.437C134.019 119.52 134.31 119.664 134.566 119.86C134.821 120.056 135.035 120.3 135.196 120.579C135.235 120.644 135.269 120.713 135.295 120.785C135.333 120.811 135.363 120.848 135.381 120.891Z" fill="black"/>
<g style="mix-blend-mode:hard-light" opacity="0.7">
<path d="M110.739 136.22C110.878 136.304 111.025 136.375 111.177 136.433L111.349 136.492C112.003 136.698 112.691 136.772 113.373 136.71C114.056 136.649 114.719 136.453 115.326 136.134L119.468 133.742H119.501C119.973 133.499 120.371 133.134 120.653 132.684C120.935 132.234 121.09 131.717 121.103 131.186C121.115 130.655 120.984 130.131 120.723 129.669C120.462 129.206 120.081 128.823 119.62 128.559C119.478 128.482 119.332 128.414 119.183 128.353L119.011 128.294C117.691 127.882 116.261 128.008 115.034 128.645L110.892 131.038C110.388 131.294 109.971 131.693 109.692 132.184C109.496 132.52 109.369 132.891 109.318 133.276C109.266 133.661 109.291 134.052 109.392 134.427C109.492 134.803 109.666 135.154 109.903 135.462C110.14 135.77 110.435 136.028 110.772 136.22H110.739Z" fill="#FAFAFA"/>
</g>
<path d="M119.607 131.097C118.891 130.752 118.103 130.58 117.307 130.595C116.512 130.609 115.731 130.811 115.028 131.183L110.885 133.576C109.56 134.332 109.513 135.511 110.74 136.227C111.456 136.575 112.244 136.748 113.04 136.733C113.836 136.718 114.617 136.515 115.319 136.141L119.462 133.748C120.767 132.993 120.834 131.806 119.607 131.097Z" fill="#E0E0E0"/>
<path d="M120.754 132.469C121.108 131.794 121.187 131.008 120.974 130.275C120.762 129.543 120.274 128.921 119.614 128.539C119.472 128.463 119.326 128.394 119.177 128.334L119.004 128.274C117.871 127.927 116.653 127.966 115.545 128.387C117.48 128.188 118.68 128.128 119.899 129.156C120.364 129.554 120.695 130.085 120.848 130.678C121.001 131.271 120.968 131.896 120.754 132.469Z" fill="white"/>
<path d="M113.377 130.487C113.573 130.395 113.791 130.357 114.007 130.378C114.223 130.399 114.429 130.478 114.603 130.607C115.106 130.935 115.525 131.378 115.826 131.898C116.126 132.419 116.3 133.002 116.333 133.602C116.357 133.818 116.321 134.035 116.232 134.233C116.142 134.43 116.001 134.599 115.823 134.723L113.596 136.008C113.033 136.333 112.363 136.422 111.735 136.253C111.107 136.085 110.571 135.674 110.246 135.11C109.921 134.547 109.832 133.877 110.001 133.249C110.169 132.621 110.58 132.085 111.144 131.76L113.377 130.487Z" fill="#F5F5F5"/>
<path d="M116.446 128.718C116.725 128.539 117.037 128.419 117.364 128.365C117.691 128.31 118.025 128.323 118.347 128.401C118.669 128.479 118.972 128.622 119.237 128.821C119.502 129.019 119.724 129.27 119.89 129.556C120.056 129.843 120.162 130.161 120.202 130.49C120.242 130.818 120.214 131.152 120.122 131.47C120.029 131.788 119.873 132.084 119.662 132.34C119.452 132.596 119.192 132.807 118.898 132.96L115.823 134.723C116.001 134.599 116.142 134.43 116.232 134.233C116.322 134.035 116.357 133.818 116.333 133.603C116.3 133.002 116.126 132.419 115.826 131.898C115.525 131.378 115.107 130.935 114.604 130.607C114.429 130.478 114.223 130.399 114.007 130.378C113.791 130.357 113.574 130.395 113.377 130.488L116.446 128.718Z" fill="black"/>
<path opacity="0.4" d="M119.283 130.991C119.221 130.884 119.14 130.791 119.042 130.715C118.945 130.64 118.834 130.585 118.715 130.553C118.596 130.521 118.472 130.513 118.35 130.529C118.228 130.545 118.11 130.585 118.003 130.647L114.292 132.781C114.584 133.309 115.006 133.754 115.518 134.073C115.565 134.102 115.614 134.129 115.664 134.153L118.945 132.27C119.051 132.209 119.144 132.127 119.219 132.029C119.293 131.931 119.348 131.82 119.379 131.701C119.41 131.582 119.418 131.458 119.401 131.336C119.385 131.215 119.345 131.097 119.283 130.991Z" fill="white"/>
<path d="M113.377 130.487C113.573 130.395 113.791 130.357 114.007 130.378C114.223 130.399 114.429 130.478 114.603 130.607C115.106 130.935 115.525 131.378 115.826 131.898C116.126 132.419 116.3 133.002 116.333 133.602C116.357 133.818 116.321 134.035 116.232 134.233C116.142 134.43 116.001 134.599 115.823 134.723L113.596 136.008C113.033 136.333 112.363 136.422 111.735 136.253C111.107 136.085 110.571 135.674 110.246 135.11C109.921 134.547 109.832 133.877 110.001 133.249C110.169 132.621 110.58 132.085 111.144 131.76L113.377 130.487Z" fill="#F5F5F5"/>
<path opacity="0.1" d="M116.366 133.602C116.333 133.002 116.159 132.419 115.859 131.898C115.558 131.378 115.14 130.935 114.637 130.607C114.462 130.478 114.256 130.399 114.04 130.378C113.824 130.357 113.606 130.395 113.41 130.487L113.583 130.381L113.715 130.309C113.912 130.219 114.129 130.183 114.344 130.204C114.56 130.225 114.765 130.302 114.941 130.428C115.444 130.756 115.863 131.199 116.164 131.719C116.464 132.24 116.638 132.824 116.671 133.424C116.695 133.638 116.66 133.855 116.572 134.052C116.483 134.249 116.344 134.419 116.168 134.544L115.856 134.723C116.034 134.599 116.175 134.43 116.265 134.233C116.355 134.035 116.39 133.818 116.366 133.602Z" fill="black"/>
<path d="M111.382 136.121C110.906 135.913 110.508 135.558 110.249 135.107C109.924 134.544 109.836 133.876 110.004 133.248C110.172 132.621 110.582 132.086 111.144 131.76L113.377 130.487C113.573 130.395 113.791 130.357 114.007 130.378C114.223 130.399 114.429 130.478 114.603 130.607C114.82 130.739 115.02 130.897 115.2 131.077L111.475 133.218C110.256 133.94 110.693 135.71 111.382 136.121Z" fill="#E0E0E0"/>
<path d="M111.727 135.346C111.665 135.239 111.625 135.121 111.609 134.998C111.593 134.875 111.601 134.751 111.633 134.632C111.665 134.512 111.72 134.4 111.795 134.302C111.871 134.204 111.965 134.122 112.072 134.06L115.829 131.893C116.141 132.411 116.316 132.999 116.34 133.603C116.34 133.662 116.34 133.715 116.34 133.775L113.026 135.684C112.919 135.748 112.8 135.79 112.676 135.808C112.552 135.826 112.427 135.819 112.306 135.787C112.185 135.756 112.071 135.7 111.972 135.625C111.873 135.549 111.789 135.454 111.727 135.346Z" fill="white"/>
<path opacity="0.1" d="M119.932 129.891C119.932 129.938 119.965 129.977 119.979 130.024C119.994 130.053 120.005 130.084 120.012 130.117C120.012 130.117 120.012 130.189 120.045 130.223C120.078 130.256 120.045 130.302 120.045 130.335C120.045 130.368 120.045 130.375 120.045 130.395C120.078 130.563 120.092 130.734 120.085 130.905C120.088 130.965 120.088 131.025 120.085 131.084C120.085 130.282 118.759 129.016 117.52 129.719C117.102 129.964 116.466 130.315 115.18 131.044C115.001 130.864 114.801 130.706 114.584 130.574C114.409 130.445 114.203 130.366 113.987 130.345C113.771 130.324 113.554 130.362 113.358 130.455L116.426 128.685C116.705 128.523 117.012 128.418 117.331 128.376C117.65 128.333 117.975 128.354 118.286 128.437C118.596 128.521 118.888 128.664 119.143 128.86C119.399 129.056 119.613 129.301 119.773 129.58C119.813 129.646 119.846 129.719 119.879 129.785L119.932 129.891Z" fill="black"/>
<path d="M64.7701 36.9514C64.7701 33.2466 62.3245 29.5417 57.4333 26.7183C47.6376 21.0649 31.7643 21.0649 21.9753 26.7183C17.0841 29.5417 14.6318 33.2466 14.6318 36.9514V95.1356C14.6318 98.8405 17.0841 102.545 21.9753 105.375C31.7643 111.029 47.6376 111.029 57.4333 105.375C62.3245 102.545 64.7767 98.8405 64.7701 95.1356V36.9514Z" fill="black"/>
<path opacity="0.4" d="M55.1333 25.5583V106.535C55.9286 106.177 56.6974 105.793 57.4331 105.375C58.8844 104.545 60.2213 103.529 61.4097 102.353V29.7404C60.2228 28.5625 58.8858 27.5464 57.4331 26.7182C56.6864 26.2934 55.9188 25.9063 55.1333 25.5583Z" fill="white"/>
<path opacity="0.4" d="M48.5654 108.669C49.7833 108.402 50.9867 108.072 52.1709 107.682V24.4118C50.9886 24.0151 49.7849 23.6854 48.5654 23.4243V108.669Z" fill="white"/>
<path opacity="0.1" d="M64.3393 34.2802C62.7833 32.1895 60.7938 30.46 58.507 29.21C48.8438 23.6361 33.6002 23.2451 23.1616 28.0568V26.1016C22.764 26.3005 22.3597 26.4993 21.9753 26.718C17.0841 29.5414 14.6318 33.2462 14.6318 36.9511V95.1353C14.6318 98.8402 17.0841 102.545 21.9753 105.375C31.7643 111.028 47.6376 111.028 57.4333 105.375C59.0922 104.443 60.5987 103.263 61.9003 101.876C57.261 106.23 45.6294 108.629 37.0068 106.933C28.3842 105.236 23.1616 99.7349 23.1616 95.8246V93.7302C27.9932 96.3813 34.316 97.5942 40.4996 97.5942V60.2407C34.316 60.2407 27.9932 59.2863 23.1616 56.6883V52.082C33.6002 56.8805 48.8438 56.5027 58.507 50.9222C61.0495 49.5559 63.2043 47.5676 64.7701 45.1429V36.9511C64.7673 36.0437 64.6219 35.1424 64.3393 34.2802Z" fill="black"/>
<path opacity="0.1" d="M18.8669 96.9318V28.9055C16.0502 31.3312 14.6318 34.1414 14.6318 33.3262V91.5237C14.6318 98.8538 17.0841 102.559 21.9753 105.389C24.9565 107.033 28.1837 108.186 31.5324 108.802C22.0747 106.25 18.8669 99.8149 18.8669 96.9318Z" fill="black"/>
<path d="M66.2945 25.5053C66.2945 21.5751 63.6964 17.6449 58.507 14.6492C48.1016 8.67763 31.2872 8.67762 20.9281 14.6425C15.7387 17.6382 13.1406 21.5684 13.1406 25.4986V37.2826C13.1406 41.2128 15.7387 45.1364 20.9281 48.1387C31.3137 54.1036 48.1479 54.1036 58.5335 48.1387C63.7229 45.1364 66.321 41.2128 66.321 37.2826V25.5053H66.2945Z" fill="#E0E0E0"/>
<path opacity="0.1" d="M46.0667 52.1749C32.9108 52.2478 25.965 47.9796 23.8575 44.4868C22.2536 41.8357 21.9752 36.9445 21.9752 32.0931C21.9752 32.0931 20.4906 21.0381 20.7822 21.005C20.9612 21.005 17.6275 20.2627 15.0692 19.7192C13.8285 21.396 13.1447 23.4196 13.114 25.5052V37.2892C13.114 41.2194 15.7121 45.1429 20.9015 48.1453C27.728 52.0821 37.3315 53.4143 46.0667 52.1749Z" fill="black"/>
<g opacity="0.1">
<path d="M37.0533 52.4933C36.6291 52.4933 36.2049 52.4602 35.7808 52.4204V36.9846H37.0533V52.4933Z" fill="black"/>
<path d="M25.7464 50.3126C25.309 50.1602 24.8915 49.9945 24.4673 49.8288V34.6316H25.7464V50.3126Z" fill="black"/>
<path d="M31.2142 51.7575C30.7966 51.6713 30.3526 51.6316 29.9417 51.5388V36.2024H31.2142V51.7575Z" fill="black"/>
<path d="M19.5164 47.2575V32.1995H20.7889V48.0727C20.3382 47.7811 19.9273 47.5359 19.5164 47.2575Z" fill="black"/>
<path d="M13.7502 40.5768C13.3271 39.5224 13.1024 38.399 13.0874 37.263V25.5055C13.0982 24.7671 13.1983 24.0327 13.3856 23.3184H13.7237L13.7502 40.5768Z" fill="black"/>
<path d="M15.573 43.7049V28.8059H16.8521V45.1298C16.397 44.6815 15.9698 44.2056 15.573 43.7049Z" fill="black"/>
<path d="M43.0379 52.4534C42.6138 52.4866 42.1896 52.5065 41.7588 52.5263V37.011H43.0379V52.4534Z" fill="black"/>
<path d="M54.4971 50.0344C54.0862 50.1934 53.6422 50.3061 53.2246 50.4519V34.8835H54.4971V50.0344Z" fill="black"/>
<path d="M48.9298 51.6517C48.5122 51.7378 48.0748 51.7909 47.6506 51.8704V36.302H48.9298V51.6517Z" fill="black"/>
<path d="M58.2815 48.2517V32.7695H59.5606V47.4697C59.2094 47.695 58.8979 47.927 58.5069 48.1324L58.2815 48.2517Z" fill="black"/>
<path d="M62.7222 44.9511V29.3628H64.0079V43.4996C63.6111 44.0106 63.1816 44.4955 62.7222 44.9511Z" fill="black"/>
<path d="M65.6515 24.4119H66.2016C66.2555 24.7741 66.2865 25.1393 66.2944 25.5054V37.2894C66.2792 38.4254 66.0545 39.5488 65.6316 40.6033L65.6515 24.4119Z" fill="black"/>
</g>
<path d="M20.9281 36.3549C31.3136 42.3529 48.1479 42.3529 58.5334 36.3549C68.919 30.3568 68.919 20.6407 58.5334 14.6493C48.1479 8.65788 31.2871 8.67776 20.9281 14.6426C10.5691 20.6075 10.516 30.3635 20.9281 36.3549Z" fill="#F5F5F5"/>
<path d="M59.9318 35.4469C68.846 29.4157 68.3821 20.3491 58.5069 14.6493C53.4434 11.7265 46.8488 10.2353 40.2145 10.1624C36.8124 10.6954 33.5291 11.8168 30.5116 13.4762C21.5378 18.6126 21.5378 28.8524 30.5116 33.9888C38.5245 38.5619 50.9646 39.0391 59.9318 35.4469Z" fill="#FAFAFA"/>
<path opacity="0.1" d="M23.4201 104.229C32.4138 108.749 46.9947 108.749 55.9884 104.229C64.9822 99.7088 64.9822 92.3852 55.9884 87.8651C46.9947 83.3451 32.4138 83.3451 23.4201 87.8651C14.4264 92.3852 14.4264 99.7088 23.4201 104.229Z" fill="black"/>
<path d="M14.6318 47.0122C14.6318 50.7171 17.0841 54.4219 21.9753 57.2453C26.8665 60.0687 33.2887 61.487 39.7043 61.487V98.529C33.2887 98.529 26.8731 97.1107 21.9753 94.2873C17.0774 91.4639 14.6318 87.7591 14.6318 84.0542V47.0122Z" fill="white"/>
<path d="M21.9753 69.1417C24.2996 70.4443 26.7869 71.4316 29.3718 72.0778V69.0754C26.7866 68.4271 24.2993 67.4375 21.9753 66.1328C17.0841 63.3094 14.6318 59.6045 14.6318 55.8997V58.902C14.6318 62.6068 17.0841 66.3382 21.9753 69.1417Z" fill="#E0E0E0"/>
<path d="M29.3718 85.3928C26.7869 84.7467 24.2996 83.7593 21.9753 82.4568C17.0841 79.6268 14.6318 75.9219 14.6318 72.217V75.226C14.6318 78.9309 17.0841 82.6357 21.9753 85.4591C24.2983 86.7644 26.786 87.7519 29.3718 88.3952V85.3928Z" fill="#E0E0E0"/>
<path d="M21.9753 77.3007C24.2972 78.6129 26.785 79.6071 29.3718 80.2566V77.2543C26.7866 76.5968 24.2996 75.6007 21.9753 74.2917C17.0841 71.4617 14.6318 67.7569 14.6318 64.052V67.061C14.6318 70.7725 17.0841 74.4707 21.9753 77.3007Z" fill="#E0E0E0"/>
<path d="M15.1423 31.3973C15.1423 31.3973 23.7981 40.0995 40.4998 39.6488C57.2015 39.1981 63.8888 30.0718 64.7703 27.2418C65.6517 24.4118 65.095 20.7334 62.5169 17.6118C63.6482 18.6032 64.5664 19.814 65.2158 21.1709C65.8652 22.5278 66.2322 24.0024 66.2946 25.5054V37.2893C66.2946 38.2835 66.805 41.71 61.4167 46.1505C61.4167 46.1505 64.5781 42.5583 64.5781 39.0987V30.9533C64.5781 30.9533 58.6662 40.8484 40.4998 40.8484C22.3333 40.8484 16.0636 32.8819 15.1423 31.3973Z" fill="white"/>
<path d="M14.1546 123.866C18.3631 121.441 25.1896 121.441 29.3982 123.866C30.8089 124.562 31.888 125.786 32.4005 127.273C36.4235 129.712 36.3771 133.569 32.2282 135.962C28.0793 138.354 21.1931 138.388 16.9846 135.962C15.321 135.001 14.3335 133.801 13.9756 132.555C9.95262 130.116 10.0056 126.266 14.1546 123.866Z" fill="#E0E0E0"/>
<path d="M16.2883 128.208V131.091C16.2883 132.416 17.1499 133.695 18.8731 134.689C22.3129 136.678 27.8934 136.678 31.3331 134.689C32.0927 134.275 32.753 133.701 33.2684 133.006C33.6839 132.452 33.9157 131.783 33.9312 131.091V128.208C33.9293 127.962 33.8982 127.717 33.8384 127.478C33.8384 127.399 33.792 127.319 33.7655 127.24C33.3109 126.09 32.4501 125.147 31.3464 124.589C28.1187 122.72 22.9955 122.601 19.5359 124.244V125.682L18.2899 126.411V124.993C17.7398 125.366 17.2634 125.838 16.8848 126.385C16.8053 126.509 16.7324 126.635 16.6661 126.763C16.5863 126.916 16.5198 127.075 16.4673 127.24C16.3526 127.55 16.2921 127.877 16.2883 128.208Z" fill="#F0F0F0"/>
<path d="M22.3199 123.376C25.3819 122.799 28.8813 123.21 31.3136 124.615C32.4174 125.173 33.2781 126.116 33.7327 127.266C33.7327 127.346 33.7857 127.425 33.8056 127.505C33.8654 127.743 33.8966 127.988 33.8984 128.234V131.117C33.883 131.809 33.6512 132.479 33.2357 133.032C32.7203 133.727 32.0599 134.302 31.3004 134.716C28.868 136.121 25.3686 136.525 22.3066 135.942L22.3199 123.376Z" fill="#EBEBEB"/>
<path d="M31.3137 124.615C34.548 126.478 34.7402 129.434 31.9035 131.429L19.5032 124.271C22.9694 122.634 28.0794 122.746 31.3137 124.615Z" fill="#FAFAFA"/>
<path d="M25.0835 123.124V123.707C27.16 123.658 29.2142 124.144 31.0484 125.119C32.4734 125.941 33.2819 127.001 33.335 128.101C33.3213 128.626 33.1832 129.14 32.932 129.601C32.6808 130.062 32.3237 130.457 31.8901 130.752L20.8617 124.383C22.2339 123.939 23.6678 123.716 25.11 123.721V123.137M25.11 123.137C23.189 123.113 21.2855 123.504 19.5295 124.284L31.9299 131.442C34.7665 129.453 34.581 126.491 31.34 124.629C29.4243 123.609 27.2798 123.096 25.11 123.137Z" fill="#EBEBEB"/>
<path d="M31.9102 130.673C31.9102 130.673 35.3367 128.022 31.5258 124.741C34.548 126.61 34.6805 129.48 31.9035 131.429L19.5032 124.271L31.9102 130.673Z" fill="white"/>
<path d="M18.2771 124.993L30.6775 132.151C27.2178 133.788 22.1013 133.675 18.867 131.806C15.6327 129.937 15.4206 126.988 18.2771 124.993Z" fill="#FAFAFA"/>
<path d="M18.2769 125.689L29.3053 132.058C27.9354 132.502 26.5037 132.726 25.0636 132.721C22.9871 132.771 20.9327 132.285 19.0987 131.309C17.6738 130.487 16.8586 129.427 16.8055 128.327C16.8192 127.802 16.9573 127.288 17.2085 126.827C17.4597 126.366 17.8168 125.972 18.2504 125.676M18.2769 124.993C15.4402 126.981 15.6258 129.944 18.8667 131.806C20.7846 132.827 22.9314 133.34 25.1034 133.298C27.0222 133.321 28.9235 132.93 30.6772 132.151L18.2769 124.993Z" fill="#EBEBEB"/>
<path d="M30.6573 132.151C27.1977 133.788 22.0811 133.675 18.8468 131.806C18.4882 131.6 18.1468 131.365 17.8262 131.104C24.1688 134.279 29.2721 132.038 29.2721 132.038L18.2768 124.993L30.6573 132.151Z" fill="white"/>
<path d="M19.5032 125.709L31.9102 132.907L31.9035 131.429L19.5032 124.271V125.709Z" fill="#E0E0E0"/>
<path opacity="0.2" d="M30.6575 132.151V133.623L31.9101 132.907L30.6575 132.151Z" fill="black"/>
<path d="M11.5366 123.283V126.166C11.5366 127.492 12.3982 128.764 14.1214 129.758C17.5612 131.747 23.1417 131.747 26.588 129.758C27.3469 129.346 28.0072 128.774 28.5233 128.082C28.9389 127.528 29.1706 126.858 29.1861 126.166V123.283C29.1851 123.037 29.1539 122.792 29.0933 122.554C29.0743 122.471 29.0499 122.389 29.0204 122.309C28.5669 121.16 27.7088 120.217 26.6079 119.658C23.3736 117.795 18.2571 117.669 14.7974 119.313V120.758L13.5514 121.48V120.036C12.9993 120.409 12.5226 120.884 12.1464 121.434C12.0626 121.552 11.9873 121.676 11.921 121.805C11.8435 121.959 11.7771 122.119 11.7222 122.282C11.6057 122.603 11.5429 122.942 11.5366 123.283Z" fill="#F0F0F0"/>
<path d="M17.6144 118.451C20.6763 117.868 24.1824 118.279 26.6147 119.684C27.7156 120.244 28.5737 121.187 29.0272 122.335C29.0567 122.415 29.0811 122.497 29.1001 122.58C29.1607 122.819 29.1919 123.064 29.1929 123.31V126.193C29.1774 126.885 28.9457 127.554 28.5301 128.108C28.014 128.8 27.3537 129.373 26.5949 129.785C24.1559 131.19 20.63 131.601 17.5945 131.017L17.6144 118.451Z" fill="#EBEBEB"/>
<path d="M26.5881 119.684C29.8158 121.553 30.0146 124.503 27.1779 126.504L14.7776 119.359C18.2372 117.709 23.3538 117.822 26.5881 119.684Z" fill="#FAFAFA"/>
<path d="M20.3516 118.783C22.4285 118.73 24.4836 119.217 26.3165 120.195C27.7414 121.017 28.5566 122.077 28.603 123.177C28.5944 123.702 28.4592 124.218 28.2088 124.679C27.9584 125.141 27.6003 125.535 27.1648 125.828L16.1364 119.459C17.5055 119.012 18.9378 118.788 20.3781 118.796M20.3781 118.207C18.4585 118.183 16.5567 118.576 14.8042 119.36L27.2046 126.518C30.0412 124.529 29.8556 121.567 26.6147 119.698C24.6969 118.677 22.5501 118.164 20.3781 118.207Z" fill="#EBEBEB"/>
<path d="M27.1779 125.749C27.1779 125.749 30.6045 123.098 26.7935 119.817C29.8224 121.686 29.9483 124.549 27.1779 126.504L14.7776 119.36L27.1779 125.749Z" fill="white"/>
<path d="M13.5317 120.062L25.9321 127.227C22.4658 128.864 17.3161 128.751 14.1216 126.882C10.927 125.013 10.6951 122.064 13.5317 120.062Z" fill="#FAFAFA"/>
<path d="M13.5714 120.765L24.5999 127.127C23.2283 127.574 21.794 127.798 20.3515 127.79C18.275 127.839 16.2208 127.353 14.3866 126.378C12.9617 125.556 12.1465 124.496 12.1001 123.389C12.1137 122.865 12.2518 122.351 12.503 121.89C12.7542 121.429 13.1113 121.034 13.5449 120.738M13.5052 120.036C10.6685 122.024 10.8541 124.987 14.095 126.856C16.0107 127.875 18.1552 128.388 20.325 128.347C22.246 128.371 24.1496 127.98 25.9055 127.2L13.5052 120.036Z" fill="#EBEBEB"/>
<path d="M25.932 127.227C22.4657 128.864 17.316 128.751 14.1215 126.882C13.7602 126.678 13.4185 126.44 13.1008 126.173C19.4435 129.354 24.5402 127.114 24.5402 127.114L13.5316 120.062L25.932 127.227Z" fill="white"/>
<path d="M14.7776 120.785L27.1779 127.982V126.504L14.7776 119.346V120.785Z" fill="#E0E0E0"/>
<path opacity="0.2" d="M25.9319 127.227V128.698L27.1779 127.982L25.9319 127.227Z" fill="black"/>
<path d="M51.1634 131.713C47.2199 133.993 47.2199 137.678 51.1634 139.958C55.1069 142.238 61.5026 142.238 65.446 139.958C69.3895 137.678 69.3895 133.993 65.446 131.713C61.5026 129.433 55.1069 129.433 51.1634 131.713Z" fill="#E0E0E0"/>
<path d="M49.4868 131.952V134.835C49.4868 136.161 50.3484 137.433 52.0716 138.428C55.5114 140.416 61.0918 140.416 64.5382 138.428C65.2971 138.015 65.9574 137.443 66.4735 136.751C66.8891 136.197 67.1208 135.527 67.1363 134.835V131.952C67.1348 131.706 67.1036 131.462 67.0435 131.223C67.0435 131.144 67.0037 131.064 66.9772 130.978C66.5184 129.831 65.6589 128.889 64.5581 128.327C61.3238 126.465 56.2073 126.339 52.7476 127.989V129.427L51.5016 130.15V128.705C50.9478 129.076 50.4688 129.548 50.0899 130.097C50.0075 130.218 49.9323 130.344 49.8646 130.474C49.786 130.626 49.7195 130.783 49.6658 130.945C49.5508 131.268 49.4903 131.609 49.4868 131.952Z" fill="#F0F0F0"/>
<path d="M55.5377 127.087C58.5997 126.504 62.1057 126.922 64.5381 128.32C65.6388 128.882 66.4984 129.824 66.9572 130.971C66.9572 131.057 67.0036 131.137 67.0234 131.216C67.0836 131.455 67.1148 131.699 67.1162 131.945V134.828C67.1008 135.52 66.869 136.19 66.4535 136.744C65.9374 137.436 65.2771 138.008 64.5182 138.421C62.0792 139.832 58.5533 140.236 55.5178 139.653L55.5377 127.087Z" fill="#EBEBEB"/>
<path d="M64.538 128.32C67.7656 130.189 67.9645 133.145 65.1278 135.14L52.7407 127.976C56.1871 126.345 61.3037 126.458 64.538 128.32Z" fill="#FAFAFA"/>
<path d="M58.308 127.419C60.3847 127.367 62.4395 127.854 64.2729 128.831C65.6978 129.652 66.5064 130.713 66.5594 131.813C66.5458 132.338 66.4076 132.852 66.1564 133.313C65.9052 133.774 65.5482 134.168 65.1146 134.464L54.0663 128.075C55.4384 127.631 56.8723 127.407 58.3146 127.412M58.3146 126.829C56.3955 126.803 54.4938 127.194 52.7407 127.976L65.1411 135.133C67.9777 133.145 67.7921 130.183 64.5512 128.314C62.6317 127.298 60.4857 126.788 58.3146 126.829Z" fill="#EBEBEB"/>
<path d="M65.1278 134.385C65.1278 134.385 68.5543 131.733 64.75 128.453C67.7723 130.322 67.8982 133.185 65.1278 135.14L52.7407 127.976L65.1278 134.385Z" fill="white"/>
<path d="M51.4816 128.698L63.882 135.862C60.4157 137.5 55.3058 137.387 52.0715 135.518C48.8372 133.649 48.645 130.7 51.4816 128.698Z" fill="#FAFAFA"/>
<path d="M51.5214 129.4L62.5498 135.763C61.1783 136.21 59.744 136.434 58.3015 136.426C56.225 136.475 54.1708 135.989 52.3366 135.014C50.9116 134.192 50.1031 133.132 50.05 132.025C50.0637 131.5 50.2018 130.986 50.453 130.525C50.7042 130.064 51.0613 129.67 51.4949 129.374M51.4551 128.671C48.6185 130.66 48.804 133.629 52.045 135.491C53.9607 136.511 56.1052 137.024 58.275 136.982C60.196 137.006 62.0995 136.615 63.8555 135.836L51.4816 128.698L51.4551 128.671Z" fill="#EBEBEB"/>
<path d="M63.8819 135.862C60.4157 137.5 55.3057 137.387 52.0714 135.518C51.7118 135.313 51.3703 135.078 51.0508 134.815C57.3935 137.99 62.4967 135.75 62.4967 135.75L51.4816 128.698L63.8819 135.862Z" fill="white"/>
<path d="M52.7275 129.42L65.1279 136.618V135.14L52.7275 127.982V129.42Z" fill="#E0E0E0"/>
<path opacity="0.2" d="M63.8821 135.863V137.334L65.1281 136.618L63.8821 135.863Z" fill="black"/>
</svg>
