<svg width="142" height="144" viewBox="0 0 142 144" fill="none" xmlns="http://www.w3.org/2000/svg">
<circle cx="72" cy="74" r="70" fill="#7DB0DE"/>
<g clip-path="url(#clip0_800_3787)">
<path d="M116.029 67.2369L117.484 75.192L118.9 76.0897L120.303 75.1997L121.772 67.2369L118.9 65.4106L116.029 67.2369Z" fill="#E0E0E0"/>
<path d="M116.029 67.2369L117.484 75.192L118.9 76.0897L120.303 75.1997L121.772 67.2369L118.9 65.4106L116.029 67.2369Z" fill="#263238"/>
<path d="M118.9 76.0897V69.0632L116.029 67.2369L117.484 75.192L118.9 76.0897Z" fill="#455A64"/>
<path opacity="0.05" d="M116.029 67.2369L116.971 72.3713L118.9 73.6018L120.823 72.3791L121.772 67.2369L118.9 65.4106L116.029 67.2369Z" fill="black"/>
<path d="M128.658 59.2122L130.116 67.1634L131.529 68.0649L132.932 67.1712L134.401 59.2122L131.529 57.3859L128.658 59.2122Z" fill="#E0E0E0"/>
<path d="M128.658 59.2122L130.116 67.1634L131.529 68.0649L132.932 67.1712L134.401 59.2122L131.529 57.3859L128.658 59.2122Z" fill="#263238"/>
<path d="M131.529 68.065V61.0346L128.658 59.2122L130.116 67.1634L131.529 68.065Z" fill="#455A64"/>
<path opacity="0.05" d="M128.658 59.2122L129.6 64.3466L131.529 65.5732L133.455 64.3505L134.401 59.2122L131.529 57.3859L128.658 59.2122Z" fill="black"/>
<path d="M96.1487 54.5807L97.6039 62.5358L99.0204 63.4335L100.423 62.5436L101.892 54.5807L99.0169 52.7545L96.1487 54.5807Z" fill="#E0E0E0"/>
<path d="M96.1487 54.5807L97.6039 62.5358L99.0204 63.4335L100.423 62.5436L101.892 54.5807L99.0169 52.7545L96.1487 54.5807Z" fill="#263238"/>
<path d="M99.0204 63.4335V56.407L96.1487 54.5807L97.6039 62.5359L99.0204 63.4335Z" fill="#455A64"/>
<path opacity="0.05" d="M96.1487 54.5807L97.0872 59.7152L99.0204 60.9456L100.943 59.7229L101.892 54.5807L99.0169 52.7545L96.1487 54.5807Z" fill="black"/>
<path d="M118.9 72.3172L134.552 62.3695V31.9614L118.9 41.9091V72.3172Z" fill="#263238"/>
<path d="M118.9 41.9091L95.3333 26.912V57.3202L118.9 72.3172V41.9091Z" fill="#37474F"/>
<path d="M95.3333 26.912L118.9 41.9091L134.552 31.9614L110.985 16.9643L95.3333 26.912Z" fill="#455A64"/>
<path d="M116.665 56.941L97.5688 44.7839L97.1575 45.047V55.2888L116.254 67.4459L116.665 67.1867V56.941Z" fill="#263238"/>
<path d="M116.254 57.2041L97.1575 45.047V55.2888L116.254 67.4459V57.2041Z" fill="#455A64"/>
<path d="M108.433 54.9522L105.389 53.0176C104.996 52.7661 104.686 52.8783 104.686 53.273C104.715 53.5128 104.793 53.7422 104.915 53.9435C105.037 54.1447 105.199 54.3125 105.389 54.4337L108.433 56.3683C108.827 56.6198 109.136 56.5076 109.136 56.113C109.108 55.8731 109.029 55.6437 108.907 55.4425C108.786 55.2412 108.623 55.0735 108.433 54.9522Z" fill="#37474F"/>
<path d="M116.665 43.8592L97.5688 31.7021L97.1575 31.9614V42.2071L116.254 54.3641L116.668 54.101L116.665 43.8592Z" fill="#263238"/>
<path d="M116.254 44.1184L97.1575 31.9614V42.207L116.254 54.3641V44.1184Z" fill="#455A64"/>
<path d="M108.433 41.8704L105.393 39.9358C104.996 39.6843 104.69 39.8003 104.69 40.1911C104.718 40.4312 104.796 40.661 104.917 40.8624C105.039 41.0638 105.202 41.2313 105.393 41.3519L108.433 43.2865C108.827 43.538 109.136 43.4219 109.136 43.0311C109.108 42.7912 109.03 42.5617 108.908 42.3604C108.786 42.1591 108.623 41.9914 108.433 41.8704Z" fill="#37474F"/>
<path d="M100.743 6.17694V6.56386C100.743 6.56386 100.883 6.42457 100.89 6.32397C100.897 6.22337 100.743 6.17694 100.743 6.17694Z" fill="black"/>
<path d="M101.02 6.0802C101.036 6.13559 101.04 6.19386 101.034 6.25138C101.028 6.30889 101.012 6.36443 100.985 6.41452C100.959 6.46461 100.923 6.50819 100.881 6.54253C100.839 6.57688 100.79 6.60126 100.739 6.61415C100.345 6.74958 100.099 6.61415 100.036 6.7341C99.9729 6.85404 101.903 8.07671 101.903 8.07671L101.551 6.32396L101.02 6.0802Z" fill="#317DC0"/>
<path opacity="0.3" d="M101.02 6.0802C101.036 6.13559 101.04 6.19386 101.034 6.25138C101.028 6.30889 101.012 6.36443 100.985 6.41452C100.959 6.46461 100.923 6.50819 100.881 6.54253C100.839 6.57688 100.79 6.60126 100.739 6.61415C100.345 6.74958 100.099 6.61415 100.036 6.7341C99.9729 6.85404 101.903 8.07671 101.903 8.07671L101.551 6.32396L101.02 6.0802Z" fill="black"/>
<path d="M101.228 25.1709V25.198L101.421 25.0742L109.47 19.9591V1.38687C109.47 1.1315 109.343 0.999946 109.189 1.10828L108.908 1.28627L101.175 6.19243V6.26594L101.228 25.1709Z" fill="#317DC0"/>
<path opacity="0.2" d="M101.228 25.1709V25.198L101.421 25.0742L109.47 19.9591V1.38687C109.47 1.1315 109.343 0.999946 109.189 1.10828L108.908 1.28627L101.175 6.19243V6.26594L101.228 25.1709Z" fill="black"/>
<path d="M102.866 8.56426L103.273 8.06126L101.2 6.74573C100.887 7.00496 100.648 7.13265 100.367 7.0127L102.866 8.56426Z" fill="#455A64"/>
<path d="M101.305 6.47488L108.96 1.61128C109.035 1.57123 109.118 1.55042 109.201 1.55042C109.285 1.55042 109.367 1.57123 109.442 1.61128L111.488 2.91134L103.723 7.79815C103.627 7.77276 103.527 7.76928 103.43 7.78791C103.333 7.80654 103.24 7.84689 103.157 7.90649C102.929 8.11156 102.943 7.85232 102.943 7.85232L101.186 6.74572C101.34 6.53292 101.305 6.47488 101.305 6.47488Z" fill="#F5F5F5"/>
<path d="M103.017 8.4598C103.098 8.4095 103.129 8.35146 103.091 8.32825L103.027 8.28568C102.957 8.23925 103.027 8.12318 103.178 8.02258C103.238 7.97676 103.306 7.94459 103.377 7.92798C103.448 7.91136 103.522 7.91064 103.593 7.92585L103.656 7.96841C103.695 7.99162 103.829 7.94132 103.962 7.8562L103.917 26.5832L103.723 26.707C103.685 26.7183 103.645 26.7183 103.607 26.707L103.544 26.6644C103.473 26.6484 103.4 26.6487 103.329 26.6654C103.258 26.682 103.192 26.7146 103.133 26.7612C102.975 26.8618 102.908 26.9778 102.982 27.0243L103.045 27.0668C103.084 27.09 103.045 27.1481 102.971 27.1984L103.017 8.4598Z" fill="#317DC0"/>
<path opacity="0.4" d="M103.017 8.4598C103.098 8.4095 103.129 8.35146 103.091 8.32825L103.027 8.28568C102.957 8.23925 103.027 8.12318 103.178 8.02258C103.238 7.97676 103.306 7.94459 103.377 7.92798C103.448 7.91136 103.522 7.91064 103.593 7.92585L103.656 7.96841C103.695 7.99162 103.829 7.94132 103.962 7.8562L103.917 26.5832L103.723 26.707C103.685 26.7183 103.645 26.7183 103.607 26.707L103.544 26.6644C103.473 26.6484 103.4 26.6487 103.329 26.6654C103.258 26.682 103.192 26.7146 103.133 26.7612C102.975 26.8618 102.908 26.9778 102.982 27.0243L103.045 27.0668C103.084 27.09 103.045 27.1481 102.971 27.1984L103.017 8.4598Z" fill="black"/>
<path d="M103.723 26.6799V26.707L103.913 26.5832L112.176 21.3327V3.09707C112.176 2.8417 112.05 2.71015 111.895 2.81849L111.614 2.99648L103.723 7.79816V26.6799Z" fill="#317DC0"/>
<path opacity="0.2" d="M103.723 26.6799V26.707L103.913 26.5832L112.176 21.3327V3.09707C112.176 2.8417 112.05 2.71015 111.895 2.81849L111.614 2.99648L103.723 7.79816V26.6799Z" fill="black"/>
<path d="M103.108 27.0978V8.35144L102.595 8.57972V27.2719C102.689 27.294 102.788 27.2832 102.876 27.2409L103.108 27.0978Z" fill="#317DC0"/>
<path opacity="0.2" d="M103.108 27.0978V8.35144L102.595 8.57972V27.2719C102.689 27.294 102.788 27.2832 102.876 27.2409L103.108 27.0978Z" fill="black"/>
<path d="M99.8218 25.4572C99.8218 25.4572 99.8218 25.4572 99.8218 25.4882C99.8221 25.4946 99.8221 25.5011 99.8218 25.5075C99.8262 25.5224 99.8321 25.5367 99.8393 25.5501V25.5694C99.8509 25.5943 99.8651 25.6177 99.8815 25.6391L99.9413 25.7087L100.012 25.7745L100.057 25.8132L100.096 25.8441L100.187 25.906L101.966 27.0397C102.151 27.1577 102.355 27.2365 102.567 27.2719V8.57972L99.8218 6.75732V25.4572Z" fill="#317DC0"/>
<path d="M102.595 10.7697V12.6695C101.564 12.3236 100.619 11.7227 99.8323 10.9128V9.01306C100.619 9.82294 101.564 10.4238 102.595 10.7697Z" fill="#317DC0"/>
<path opacity="0.4" d="M102.595 10.7697V12.6695C101.564 12.3236 100.619 11.7227 99.8323 10.9128V9.01306C100.619 9.82294 101.564 10.4238 102.595 10.7697Z" fill="white"/>
<path d="M102.595 13.3814V14.0895C101.564 13.7436 100.619 13.1428 99.8323 12.3329V11.6248C100.619 12.4347 101.564 13.0356 102.595 13.3814Z" fill="#317DC0"/>
<path opacity="0.4" d="M102.595 13.3814V14.0895C101.564 13.7436 100.619 13.1428 99.8323 12.3329V11.6248C100.619 12.4347 101.564 13.0356 102.595 13.3814Z" fill="white"/>
<path d="M101.994 8.35144L102.135 8.08834C102.313 8.21022 102.516 8.28075 102.725 8.29341C102.713 8.20331 102.731 8.11152 102.774 8.03417C102.841 7.92111 102.933 7.82909 103.041 7.76719C103.165 7.68616 103.303 7.63474 103.446 7.61629H103.474C103.559 7.60894 103.645 7.62628 103.723 7.6666L111.048 3.02354L111.298 2.8649L111.614 2.66371C111.64 2.64707 111.67 2.63831 111.7 2.63831C111.73 2.63831 111.76 2.64707 111.786 2.66371L112.068 2.84556C112.041 2.82778 112.011 2.81838 111.98 2.81838C111.949 2.81838 111.918 2.82778 111.892 2.84556L111.052 3.38338L103.966 7.88327C103.878 7.95611 103.77 7.99548 103.66 7.99548L103.593 7.95292C103.547 7.93395 103.496 7.93395 103.449 7.95292C103.355 7.96974 103.265 8.00513 103.182 8.05738C103.027 8.15798 102.961 8.27406 103.031 8.32049L103.098 8.36305C103.133 8.38627 103.098 8.44431 103.02 8.49461L102.88 8.5836C102.725 8.61382 102.567 8.6088 102.415 8.56886C102.263 8.52893 102.119 8.45492 101.994 8.35144Z" fill="#317DC0"/>
<path opacity="0.3" d="M101.994 8.35144L102.135 8.08834C102.313 8.21022 102.516 8.28075 102.725 8.29341C102.713 8.20331 102.731 8.11152 102.774 8.03417C102.841 7.92111 102.933 7.82909 103.041 7.76719C103.165 7.68616 103.303 7.63474 103.446 7.61629H103.474C103.559 7.60894 103.645 7.62628 103.723 7.6666L111.048 3.02354L111.298 2.8649L111.614 2.66371C111.64 2.64707 111.67 2.63831 111.7 2.63831C111.73 2.63831 111.76 2.64707 111.786 2.66371L112.068 2.84556C112.041 2.82778 112.011 2.81838 111.98 2.81838C111.949 2.81838 111.918 2.82778 111.892 2.84556L111.052 3.38338L103.966 7.88327C103.878 7.95611 103.77 7.99548 103.66 7.99548L103.593 7.95292C103.547 7.93395 103.496 7.93395 103.449 7.95292C103.355 7.96974 103.265 8.00513 103.182 8.05738C103.027 8.15798 102.961 8.27406 103.031 8.32049L103.098 8.36305C103.133 8.38627 103.098 8.44431 103.02 8.49461L102.88 8.5836C102.725 8.61382 102.567 8.6088 102.415 8.56886C102.263 8.52893 102.119 8.45492 101.994 8.35144Z" fill="black"/>
<path d="M102.135 8.0806L100.353 6.95079L100.279 6.90049L100.223 6.85406C100.334 6.88857 100.45 6.89641 100.564 6.87705C100.678 6.8577 100.787 6.81158 100.883 6.74185C100.991 6.68119 101.081 6.58874 101.144 6.47487C101.192 6.3896 101.208 6.2869 101.189 6.18855H101.214L101.263 6.1576L108.349 1.65771L108.757 1.39847L108.873 1.32495L109.224 1.10441C109.248 1.09114 109.275 1.08423 109.301 1.08423C109.328 1.08423 109.355 1.09114 109.379 1.10441L109.301 1.05411L109.098 0.922559C109.075 0.909995 109.051 0.903442 109.026 0.903442C109.001 0.903442 108.976 0.909995 108.954 0.922559L108.827 1.00381L108.75 1.05411L108.613 1.13923L108.528 1.1934L108.468 1.23209L108.363 1.29787L102.739 4.87689L100.943 6.03765C100.813 6.11891 100.739 6.20016 100.767 6.23111L100.827 6.26981C100.908 6.32011 100.845 6.44005 100.687 6.54065C100.637 6.58115 100.578 6.60731 100.517 6.61677C100.456 6.62623 100.393 6.61868 100.335 6.59482L100.258 6.54452C100.24 6.53552 100.221 6.53085 100.202 6.53085C100.182 6.53085 100.163 6.53552 100.145 6.54452L100.107 6.57161L100.015 6.62577L99.9063 6.69542C99.8835 6.70779 99.8652 6.7283 99.8543 6.75359C99.8435 6.77888 99.8407 6.80748 99.8465 6.83471C99.8449 6.84234 99.8449 6.85029 99.8465 6.85793L99.8641 6.90049L99.9098 6.97013L99.966 7.03978L100.04 7.10556L100.086 7.14425L100.124 7.1752L100.216 7.23711L101.994 8.36692L102.135 8.0806Z" fill="#317DC0"/>
<path opacity="0.3" d="M102.135 8.0806L100.353 6.95079L100.279 6.90049L100.223 6.85406C100.334 6.88857 100.45 6.89641 100.564 6.87705C100.678 6.8577 100.787 6.81158 100.883 6.74185C100.991 6.68119 101.081 6.58874 101.144 6.47487C101.192 6.3896 101.208 6.2869 101.189 6.18855H101.214L101.263 6.1576L108.349 1.65771L108.757 1.39847L108.873 1.32495L109.224 1.10441C109.248 1.09114 109.275 1.08423 109.301 1.08423C109.328 1.08423 109.355 1.09114 109.379 1.10441L109.301 1.05411L109.098 0.922559C109.075 0.909995 109.051 0.903442 109.026 0.903442C109.001 0.903442 108.976 0.909995 108.954 0.922559L108.827 1.00381L108.75 1.05411L108.613 1.13923L108.528 1.1934L108.468 1.23209L108.363 1.29787L102.739 4.87689L100.943 6.03765C100.813 6.11891 100.739 6.20016 100.767 6.23111L100.827 6.26981C100.908 6.32011 100.845 6.44005 100.687 6.54065C100.637 6.58115 100.578 6.60731 100.517 6.61677C100.456 6.62623 100.393 6.61868 100.335 6.59482L100.258 6.54452C100.24 6.53552 100.221 6.53085 100.202 6.53085C100.182 6.53085 100.163 6.53552 100.145 6.54452L100.107 6.57161L100.015 6.62577L99.9063 6.69542C99.8835 6.70779 99.8652 6.7283 99.8543 6.75359C99.8435 6.77888 99.8407 6.80748 99.8465 6.83471C99.8449 6.84234 99.8449 6.85029 99.8465 6.85793L99.8641 6.90049L99.9098 6.97013L99.966 7.03978L100.04 7.10556L100.086 7.14425L100.124 7.1752L100.216 7.23711L101.994 8.36692L102.135 8.0806Z" fill="black"/>
<path d="M104.837 10.2125V10.5994C104.837 10.5994 104.975 10.4602 104.982 10.3596C104.989 10.259 104.837 10.2125 104.837 10.2125Z" fill="black"/>
<path d="M105.115 10.1158C105.131 10.1707 105.136 10.2286 105.131 10.2858C105.125 10.3431 105.109 10.3984 105.083 10.4483C105.057 10.4982 105.021 10.5415 104.979 10.5755C104.937 10.6096 104.889 10.6335 104.837 10.6459C104.444 10.7813 104.194 10.6459 104.135 10.7658C104.075 10.8858 105.498 11.795 105.498 11.795L105.635 10.3557L105.115 10.1158Z" fill="#317DC0"/>
<path opacity="0.3" d="M105.115 10.1158C105.131 10.1707 105.136 10.2286 105.131 10.2858C105.125 10.3431 105.109 10.3984 105.083 10.4483C105.057 10.4982 105.021 10.5415 104.979 10.5755C104.937 10.6096 104.889 10.6335 104.837 10.6459C104.444 10.7813 104.194 10.6459 104.135 10.7658C104.075 10.8858 105.498 11.795 105.498 11.795L105.635 10.3557L105.115 10.1158Z" fill="black"/>
<path d="M105.308 27.3106L105.502 27.1906L113.568 22.0639V5.41084C113.568 5.15934 113.442 5.02392 113.287 5.13226L113.006 5.31411L105.273 10.2203V10.2938L105.308 27.3106Z" fill="#317DC0"/>
<path opacity="0.2" d="M105.308 27.3106L105.502 27.1906L113.568 22.0639V5.41084C113.568 5.15934 113.442 5.02392 113.287 5.13226L113.006 5.31411L105.273 10.2203V10.2938L105.308 27.3106Z" fill="black"/>
<path d="M106.461 12.2787L106.869 11.7796L105.294 10.7775C104.982 11.0367 104.743 11.1644 104.461 11.0483L106.461 12.2787Z" fill="#455A64"/>
<path d="M104.897 10.1893L112.549 5.32959C113.182 5.56174 113.396 5.56174 113.53 5.64686L115.073 6.62964L107.315 11.5165C107.22 11.4896 107.121 11.4851 107.024 11.5031C106.927 11.5211 106.835 11.5612 106.753 11.6209C106.525 11.826 106.539 11.5668 106.539 11.5668L105.294 10.7929C105.446 10.5685 104.897 10.1893 104.897 10.1893Z" fill="#F5F5F5"/>
<path d="M106.612 12.1743C106.69 12.124 106.725 12.0659 106.686 12.0427L106.623 12.004C106.549 11.9576 106.623 11.8376 106.774 11.737C106.833 11.6915 106.9 11.6595 106.971 11.6429C107.042 11.6263 107.114 11.6254 107.185 11.6403L107.252 11.6829C107.287 11.7061 107.424 11.6558 107.558 11.5745L107.509 28.986L107.315 29.1098C107.279 29.1208 107.24 29.1208 107.203 29.1098L107.14 29.0672C107.068 29.0511 106.995 29.0514 106.923 29.068C106.852 29.0847 106.784 29.1173 106.725 29.1639C106.57 29.2607 106.504 29.3806 106.574 29.4271L106.641 29.4658C106.676 29.4928 106.641 29.5509 106.563 29.6012L106.612 12.1743Z" fill="#317DC0"/>
<path opacity="0.25" d="M106.612 12.1743C106.69 12.124 106.725 12.0659 106.686 12.0427L106.623 12.004C106.549 11.9576 106.623 11.8376 106.774 11.737C106.833 11.6915 106.9 11.6595 106.971 11.6429C107.042 11.6263 107.114 11.6254 107.185 11.6403L107.252 11.6829C107.287 11.7061 107.424 11.6558 107.558 11.5745L107.509 28.986L107.315 29.1098C107.279 29.1208 107.24 29.1208 107.203 29.1098L107.14 29.0672C107.068 29.0511 106.995 29.0514 106.923 29.068C106.852 29.0847 106.784 29.1173 106.725 29.1639C106.57 29.2607 106.504 29.3806 106.574 29.4271L106.641 29.4658C106.676 29.4928 106.641 29.5509 106.563 29.6012L106.612 12.1743Z" fill="white"/>
<path d="M107.315 29.0788V29.1059L107.509 28.9821L115.769 23.7316V6.80378C115.769 6.55229 115.642 6.41686 115.488 6.5252L115.206 6.70318L107.315 11.5087V29.0788Z" fill="#317DC0"/>
<path opacity="0.4" d="M107.315 29.0788V29.1059L107.509 28.9821L115.769 23.7316V6.80378C115.769 6.55229 115.642 6.41686 115.488 6.5252L115.206 6.70318L107.315 11.5087V29.0788Z" fill="white"/>
<path d="M106.7 29.4928V12.0814L106.191 12.3096V29.6824C106.285 29.7045 106.383 29.6937 106.472 29.6514L106.7 29.4928Z" fill="#317DC0"/>
<path opacity="0.4" d="M106.7 29.4928V12.0814L106.191 12.3096V29.6824C106.285 29.7045 106.383 29.6937 106.472 29.6514L106.7 29.4928Z" fill="white"/>
<path d="M103.931 28.1734C103.929 28.1836 103.929 28.1941 103.931 28.2044C103.931 28.2044 103.931 28.2044 103.931 28.2237C103.929 28.2378 103.929 28.2521 103.931 28.2663V28.2856C103.943 28.3103 103.957 28.3336 103.973 28.3553L104.033 28.4249L104.103 28.4945L104.149 28.5294L104.187 28.5603C104.216 28.5832 104.247 28.6039 104.279 28.6222L105.558 29.4348C105.743 29.5555 105.947 29.6357 106.159 29.6708V12.298L103.896 10.7929V28.1695L103.931 28.1734Z" fill="#317DC0"/>
<g opacity="0.7">
<path d="M103.931 28.1734C103.929 28.1836 103.929 28.1941 103.931 28.2044C103.931 28.2044 103.931 28.2044 103.931 28.2237C103.929 28.2378 103.929 28.2521 103.931 28.2663V28.2856C103.943 28.3103 103.957 28.3336 103.973 28.3553L104.033 28.4249L104.103 28.4945L104.149 28.5294L104.187 28.5603C104.216 28.5832 104.247 28.6039 104.279 28.6222L105.558 29.4348C105.743 29.5555 105.947 29.6357 106.159 29.6708V12.298L103.896 10.7929V28.1695L103.931 28.1734Z" fill="white"/>
</g>
<path d="M106.191 13.602V15.5018C105.087 15.0878 104.641 14.8479 103.927 14.0663V12.1665C104.641 12.9481 105.094 13.188 106.191 13.602Z" fill="#FAFAFA"/>
<path d="M106.191 25.8016V27.6975C105.087 27.2835 104.641 27.0436 103.927 26.2582V24.3584C104.641 25.1477 105.094 25.376 106.191 25.8016Z" fill="#FAFAFA"/>
<path d="M105.59 12.062L105.727 11.7951C105.905 11.9195 106.11 11.9902 106.321 12.0001C106.31 11.9113 106.327 11.821 106.37 11.7448C106.436 11.6315 106.526 11.5383 106.634 11.4739C106.758 11.3951 106.895 11.3438 107.038 11.323C107.048 11.3211 107.059 11.3211 107.069 11.323C107.154 11.3134 107.24 11.3309 107.315 11.3733L114.644 6.73027L114.893 6.5755L115.21 6.37043C115.236 6.35341 115.266 6.34442 115.296 6.34442C115.326 6.34442 115.356 6.35341 115.382 6.37043L115.663 6.54842C115.637 6.53064 115.606 6.52124 115.575 6.52124C115.544 6.52124 115.514 6.53064 115.487 6.54842L114.647 7.08237L107.554 11.5745C107.421 11.6558 107.284 11.7061 107.249 11.6829L107.182 11.6442C107.134 11.6235 107.082 11.6235 107.034 11.6442C106.941 11.6617 106.852 11.697 106.771 11.7486C106.612 11.8492 106.546 11.9692 106.62 12.0117L106.683 12.0543C106.721 12.0775 106.683 12.1356 106.609 12.1859L106.468 12.2748C106.316 12.3072 106.16 12.305 106.009 12.2684C105.858 12.2318 105.715 12.1616 105.59 12.062Z" fill="#317DC0"/>
<path opacity="0.6" d="M105.59 12.062L105.727 11.7951C105.905 11.9195 106.11 11.9902 106.321 12.0001C106.31 11.9113 106.327 11.821 106.37 11.7448C106.436 11.6315 106.526 11.5383 106.634 11.4739C106.758 11.3951 106.895 11.3438 107.038 11.323C107.048 11.3211 107.059 11.3211 107.069 11.323C107.154 11.3134 107.24 11.3309 107.315 11.3733L114.644 6.73027L114.893 6.5755L115.21 6.37043C115.236 6.35341 115.266 6.34442 115.296 6.34442C115.326 6.34442 115.356 6.35341 115.382 6.37043L115.663 6.54842C115.637 6.53064 115.606 6.52124 115.575 6.52124C115.544 6.52124 115.514 6.53064 115.487 6.54842L114.647 7.08237L107.554 11.5745C107.421 11.6558 107.284 11.7061 107.249 11.6829L107.182 11.6442C107.134 11.6235 107.082 11.6235 107.034 11.6442C106.941 11.6617 106.852 11.697 106.771 11.7486C106.612 11.8492 106.546 11.9692 106.62 12.0117L106.683 12.0543C106.721 12.0775 106.683 12.1356 106.609 12.1859L106.468 12.2748C106.316 12.3072 106.16 12.305 106.009 12.2684C105.858 12.2318 105.715 12.1616 105.59 12.062Z" fill="white"/>
<path d="M105.727 11.795L104.451 10.9825C104.425 10.9689 104.4 10.9521 104.377 10.9322L104.321 10.8897C104.432 10.9263 104.548 10.9352 104.663 10.9158C104.777 10.8964 104.886 10.8491 104.982 10.7774C105.088 10.7172 105.178 10.6263 105.242 10.5143C105.29 10.4291 105.307 10.3264 105.287 10.228H105.312L105.361 10.1971L112.447 5.6933L112.855 5.43407L112.971 5.36055L113.322 5.14388C113.345 5.12964 113.371 5.12217 113.398 5.12217C113.424 5.12217 113.45 5.12964 113.473 5.14388L113.396 5.09358L113.192 4.96589C113.171 4.95268 113.147 4.94574 113.122 4.94574C113.097 4.94574 113.073 4.95268 113.052 4.96589L112.925 5.04715L112.848 5.09358L112.711 5.18257L112.626 5.23674L112.567 5.27156L112.461 5.33734L106.837 8.91636L105.041 10.0578C104.911 10.139 104.837 10.2242 104.869 10.2512L104.932 10.2938C105.01 10.3441 104.932 10.464 104.792 10.5608C104.741 10.6001 104.683 10.6259 104.622 10.6359C104.561 10.646 104.499 10.6402 104.44 10.6188L104.363 10.5685C104.346 10.559 104.327 10.554 104.309 10.554C104.29 10.554 104.271 10.559 104.254 10.5685L104.212 10.5956L104.124 10.6536L104.012 10.7233C103.989 10.7357 103.97 10.7562 103.96 10.7814C103.949 10.8067 103.946 10.8353 103.952 10.8626C103.955 10.8777 103.961 10.8921 103.969 10.9051V10.9283C103.98 10.9526 103.994 10.9748 104.012 10.9941L104.071 11.0638L104.142 11.1334L104.187 11.1721L104.226 11.1992L104.317 11.265L105.597 12.0775L105.727 11.795Z" fill="#317DC0"/>
<path opacity="0.6" d="M105.727 11.795L104.451 10.9825C104.425 10.9689 104.4 10.9521 104.377 10.9322L104.321 10.8897C104.432 10.9263 104.548 10.9352 104.663 10.9158C104.777 10.8964 104.886 10.8491 104.982 10.7774C105.088 10.7172 105.178 10.6263 105.242 10.5143C105.29 10.4291 105.307 10.3264 105.287 10.228H105.312L105.361 10.1971L112.447 5.6933L112.855 5.43407L112.971 5.36055L113.322 5.14388C113.345 5.12964 113.371 5.12217 113.398 5.12217C113.424 5.12217 113.45 5.12964 113.473 5.14388L113.396 5.09358L113.192 4.96589C113.171 4.95268 113.147 4.94574 113.122 4.94574C113.097 4.94574 113.073 4.95268 113.052 4.96589L112.925 5.04715L112.848 5.09358L112.711 5.18257L112.626 5.23674L112.567 5.27156L112.461 5.33734L106.837 8.91636L105.041 10.0578C104.911 10.139 104.837 10.2242 104.869 10.2512L104.932 10.2938C105.01 10.3441 104.932 10.464 104.792 10.5608C104.741 10.6001 104.683 10.6259 104.622 10.6359C104.561 10.646 104.499 10.6402 104.44 10.6188L104.363 10.5685C104.346 10.559 104.327 10.554 104.309 10.554C104.29 10.554 104.271 10.559 104.254 10.5685L104.212 10.5956L104.124 10.6536L104.012 10.7233C103.989 10.7357 103.97 10.7562 103.96 10.7814C103.949 10.8067 103.946 10.8353 103.952 10.8626C103.955 10.8777 103.961 10.8921 103.969 10.9051V10.9283C103.98 10.9526 103.994 10.9748 104.012 10.9941L104.071 11.0638L104.142 11.1334L104.187 11.1721L104.226 11.1992L104.317 11.265L105.597 12.0775L105.727 11.795Z" fill="white"/>
<path d="M114.06 26.9856C112.187 28.1773 112.187 30.108 114.06 31.2998C115.934 32.4915 118.981 32.4876 120.848 31.2998C122.714 30.1119 122.721 28.1773 120.848 26.9856C118.974 25.7939 115.934 25.7939 114.06 26.9856Z" fill="#37474F"/>
<path d="M120.503 29.9881C122.138 28.1579 123.094 23.5807 121.505 22.1259H113.403C111.814 23.5807 112.771 28.1541 114.401 29.9881L114.447 30.0384L114.503 30.1003C114.549 30.1467 114.598 30.197 114.651 30.2435L114.69 30.2783L114.813 30.3789L115.024 30.5298C115.777 30.9494 116.61 31.168 117.454 31.168C118.298 31.168 119.131 30.9494 119.885 30.5298C119.955 30.4833 120.029 30.433 120.095 30.3789C120.136 30.3488 120.174 30.3165 120.211 30.2821L120.261 30.2396C120.311 30.1973 120.358 30.1507 120.401 30.1003C120.425 30.0792 120.448 30.0559 120.468 30.0306L120.503 29.9881Z" fill="#F5F5F5"/>
<path d="M114.11 21.4294C112.261 22.5902 112.261 24.5248 114.11 25.6856C115.959 26.8463 118.953 26.8463 120.788 25.6856C122.623 24.5248 122.637 22.5902 120.788 21.4294C118.939 20.2687 115.955 20.2532 114.11 21.4294Z" fill="white"/>
<path d="M115.417 22.2807C114.296 22.9965 114.296 24.1534 115.417 24.8692C116.049 25.2201 116.747 25.403 117.454 25.403C118.162 25.403 118.859 25.2201 119.491 24.8692C120.612 24.1534 120.612 22.9965 119.491 22.2807C118.86 21.9279 118.162 21.744 117.454 21.744C116.746 21.744 116.048 21.9279 115.417 22.2807Z" fill="#EBEBEB"/>
<path d="M119.505 23.4917C118.874 23.1398 118.176 22.9565 117.468 22.9565C116.76 22.9565 116.063 23.1398 115.431 23.4917C115.161 23.6552 114.93 23.889 114.76 24.1727C114.929 24.4574 115.16 24.6913 115.431 24.8537C116.063 25.2046 116.761 25.3875 117.468 25.3875C118.176 25.3875 118.873 25.2046 119.505 24.8537C119.777 24.6913 120.007 24.4574 120.176 24.1727C120.007 23.8878 119.777 23.6538 119.505 23.4917Z" fill="#E0E0E0"/>
<path d="M115.667 24.1688C115.091 23.526 114.595 22.8012 114.194 22.0136C113.516 20.6904 113.389 18.9183 113.741 18.6977C114.092 18.4772 115.523 20.2454 115.523 20.2454C115.391 19.5014 115.341 18.7429 115.371 17.9858C115.431 16.825 115.691 15.7339 116.001 15.5172C116.31 15.3006 116.992 16.7902 117.287 17.8697C117.582 18.9492 117.758 19.8314 117.758 19.8314C117.876 18.9911 118.052 18.162 118.285 17.3512C118.637 16.233 118.964 15.9815 119.217 16.0899C119.47 16.1982 119.631 16.7244 119.705 18.2141C119.733 18.9254 119.713 19.6379 119.646 20.346C119.646 20.346 120.152 19.7347 120.7 19.1427C121.315 18.4927 121.579 18.4037 121.754 18.5275C121.93 18.6513 121.979 19.6612 121.027 21.5609C120.552 22.5255 119.945 23.4038 119.227 24.1649C119.227 24.1649 117.92 25.1051 115.667 24.1688Z" fill="#317DC0"/>
<path d="M63.6364 52.2128L1.07204 88.742L-0.108948 90.7888V92.4371C-0.096212 92.8628 0.0200941 93.277 0.227829 93.6363C0.435563 93.9957 0.727111 94.2871 1.07204 94.4801L76.8206 142.613C77.4282 142.967 78.1051 143.152 78.7924 143.152C79.4798 143.152 80.1567 142.967 80.7643 142.613L142.032 103.685V102.037L63.6364 52.2128Z" fill="#263238"/>
<path d="M78.7925 141.506C78.104 141.518 77.4246 141.333 76.8206 140.969L1.08261 92.8318C0.73001 92.6493 0.431872 92.3601 0.223043 91.998C0.0142142 91.6359 -0.0966797 91.2159 -0.0966797 90.7869C-0.0966797 90.358 0.0142142 89.938 0.223043 89.5759C0.431872 89.2138 0.73001 88.9246 1.08261 88.7421L61.1092 50.6033L142.032 102.037L80.7643 140.969C80.16 141.332 79.4808 141.517 78.7925 141.506Z" fill="#317DC0"/>
<path d="M61.1057 45.7706L1.70474 83.5148L1.14587 84.3737V90.7889C1.16151 90.9733 1.22154 91.1497 1.31978 91.3C1.41802 91.4503 1.55091 91.5691 1.70474 91.644L77.4427 139.781C77.8606 140.014 78.3224 140.135 78.7907 140.135C79.259 140.135 79.7208 140.014 80.1386 139.781L139.54 102.037V95.6215L61.1057 45.7706Z" fill="#EBEBEB"/>
<path d="M139.54 95.6215L138.861 96.0549L130.021 101.669L128.376 102.722L80.1386 133.366C79.7208 133.599 79.259 133.72 78.7907 133.72C78.3223 133.72 77.8606 133.599 77.4427 133.366L1.70472 85.225C0.96309 84.7529 0.96309 83.9868 1.70472 83.5109L2.42878 83.0543L61.1057 45.7706L138.872 95.192L139.033 95.3004L139.54 95.6215Z" fill="#F0F0F0"/>
<path d="M78.7924 133.714V140.137C78.3232 140.149 77.8592 140.026 77.4462 139.781L1.7047 91.644C1.55126 91.5679 1.41896 91.4482 1.32137 91.2973C1.22378 91.1463 1.16442 90.9695 1.14935 90.785V84.3699C1.1664 84.5533 1.22659 84.7286 1.32398 84.8785C1.42136 85.0285 1.55259 85.1479 1.7047 85.225L77.4462 133.366C77.8598 133.609 78.3238 133.729 78.7924 133.714Z" fill="#E0E0E0"/>
<path d="M61.1057 44.9155L8.22475 78.5119C6.59215 79.5061 4.8654 80.3001 3.0755 80.8798C2.77226 80.9501 2.5051 81.1458 2.32916 81.4266C2.15321 81.7074 2.08192 82.0518 2.13 82.3888C2.15769 82.5477 2.21385 82.699 2.2952 82.8338L2.42876 83.0543C3.48322 84.8148 5.15629 86.467 7.91545 88.3165C8.44619 88.6686 9.01208 89.0323 9.62015 89.4037L77.4568 132.507C77.8746 132.74 78.3364 132.861 78.8047 132.861C79.2731 132.861 79.7348 132.74 80.1527 132.507L128.243 101.94L129.775 100.969L139.54 94.7664L61.1057 44.9155Z" fill="white"/>
<path d="M61.1057 45.3605L138.837 94.7664L129.586 100.644L128.053 101.619L79.9664 132.166C79.6026 132.367 79.2012 132.472 78.7942 132.472C78.3871 132.472 77.9857 132.367 77.622 132.166L9.79238 89.0632C9.24406 88.7305 8.68871 88.3784 8.09822 87.9876C5.50074 86.2464 3.79253 84.6097 2.72401 82.8415L2.66074 82.7409L2.59045 82.6171C2.53214 82.5238 2.4915 82.4185 2.47094 82.3076C2.4422 82.0658 2.49921 81.8211 2.63013 81.6243C2.76105 81.4276 2.95581 81.294 3.17391 81.2513C4.98491 80.6626 6.73263 79.8595 8.38644 78.8562L8.63248 78.7169L61.1057 45.376M61.1057 44.931L8.22475 78.5119C6.59215 79.5061 4.8654 80.3001 3.0755 80.8798C2.77226 80.9501 2.5051 81.1458 2.32916 81.4266C2.15321 81.7074 2.08192 82.0518 2.13 82.3888C2.15769 82.5477 2.21385 82.699 2.2952 82.8338L2.42876 83.0543C3.48322 84.8148 5.15629 86.467 7.91545 88.3165C8.44619 88.6686 9.01208 89.0323 9.62015 89.4037L77.4568 132.507C77.8743 132.741 78.3362 132.863 78.8047 132.863C79.2733 132.863 79.7352 132.741 80.1527 132.507L128.243 101.94L129.775 100.969L139.54 94.7664L61.1057 44.9155V44.931Z" fill="#F0F0F0"/>
<path opacity="0.1" d="M129.42 94.012C128.717 94.4569 128.717 95.1727 129.42 95.6216C129.81 95.8409 130.241 95.9553 130.679 95.9553C131.116 95.9553 131.547 95.8409 131.937 95.6216C132.64 95.1766 132.64 94.4608 131.937 94.012C131.547 93.7944 131.116 93.681 130.679 93.681C130.241 93.681 129.81 93.7944 129.42 94.012Z" fill="black"/>
<path d="M137.512 88.8311C136.552 88.2197 135.35 88.3165 134.123 89.0903C132.225 90.3052 130.58 93.0059 129.863 95.8382C130.163 95.9401 130.478 95.982 130.791 95.962C131.452 93.4393 132.9 91.0597 134.591 89.9802C135.058 89.6649 135.59 89.4865 136.137 89.4618C136.455 89.46 136.767 89.5493 137.044 89.721C137.856 90.2356 138.323 91.4892 138.323 93.1568C138.324 93.4323 138.309 93.7076 138.278 93.981L139.164 94.542C139.224 94.0833 139.256 93.6204 139.258 93.1568C139.258 91.0984 138.622 89.5198 137.512 88.8311Z" fill="#263238"/>
<path d="M139.076 95.0605C139.066 95.1414 139.052 95.2215 139.034 95.3004L138.872 95.192L139.076 95.0605Z" fill="#263238"/>
<path opacity="0.1" d="M121.832 89.187C121.129 89.632 121.129 90.3478 121.832 90.7966C122.222 91.0151 122.653 91.129 123.09 91.129C123.527 91.129 123.959 91.0151 124.348 90.7966C125.051 90.3517 125.051 89.6359 124.348 89.187C123.959 88.9677 123.528 88.8533 123.09 88.8533C122.653 88.8533 122.221 88.9677 121.832 89.187Z" fill="black"/>
<path d="M129.923 83.9907C128.963 83.3793 127.761 83.4761 126.535 84.2499C124.637 85.4648 122.992 88.1656 122.275 90.9978C122.575 91.0999 122.889 91.1419 123.203 91.1216C123.863 88.5989 125.311 86.2193 127.002 85.1398C127.469 84.8246 128.001 84.6461 128.549 84.6214C128.866 84.6196 129.179 84.7089 129.455 84.8806C130.267 85.3952 130.731 86.6488 130.731 88.3165C130.733 88.5919 130.719 88.8671 130.689 89.1406L131.575 89.7016C131.635 89.2428 131.665 88.78 131.666 88.3165C131.666 86.2735 131.03 84.6949 129.923 83.9907Z" fill="#263238"/>
<path opacity="0.1" d="M114.233 84.3621C113.53 84.8071 113.53 85.5228 114.233 85.9717C114.623 86.1892 115.054 86.3026 115.491 86.3026C115.928 86.3026 116.359 86.1892 116.749 85.9717C117.452 85.5267 117.452 84.8109 116.749 84.3621C116.36 84.1427 115.929 84.0283 115.491 84.0283C115.053 84.0283 114.622 84.1427 114.233 84.3621Z" fill="black"/>
<path d="M122.317 79.158C121.357 78.5467 120.155 78.6434 118.929 79.4173C117.03 80.6322 115.386 83.3329 114.669 86.1652C114.969 86.267 115.283 86.309 115.596 86.289C116.257 83.7663 117.705 81.3867 119.396 80.3072C119.863 79.9919 120.395 79.8134 120.943 79.7887C121.26 79.7864 121.573 79.8758 121.849 80.0479C122.661 80.5626 123.129 81.8162 123.129 83.4838C123.129 83.7593 123.114 84.0346 123.083 84.3079L123.969 84.869C124.03 84.4104 124.061 83.9474 124.06 83.4838C124.074 81.4486 123.442 79.87 122.317 79.158Z" fill="#263238"/>
<path opacity="0.1" d="M106.648 79.5449C105.945 79.986 105.945 80.7057 106.648 81.1506C107.038 81.3701 107.47 81.4845 107.908 81.4845C108.346 81.4845 108.778 81.3701 109.168 81.1506C109.871 80.7096 109.871 79.9899 109.168 79.5449C108.778 79.3255 108.346 79.2111 107.908 79.2111C107.47 79.2111 107.038 79.3255 106.648 79.5449Z" fill="black"/>
<path d="M114.742 74.3409C113.783 73.7296 112.581 73.8263 111.354 74.6001C109.452 75.8151 107.811 78.5158 107.094 81.348C107.394 81.4523 107.708 81.4943 108.022 81.4719C108.683 78.9491 110.131 76.5696 111.821 75.4939C112.286 75.1758 112.818 74.9959 113.364 74.9716C113.684 74.9686 113.998 75.0595 114.275 75.2347C115.083 75.7454 115.551 77.0029 115.551 78.6667C115.552 78.9421 115.538 79.2173 115.509 79.4908L116.394 80.0519C116.454 79.593 116.485 79.1302 116.486 78.6667C116.486 76.6237 115.849 75.049 114.742 74.3409Z" fill="#263238"/>
<path opacity="0.1" d="M99.0591 74.7162C98.3561 75.1612 98.3561 75.877 99.0591 76.3258C99.4491 76.5434 99.8802 76.6567 100.317 76.6567C100.755 76.6567 101.186 76.5434 101.576 76.3258C102.279 75.8808 102.279 75.165 101.576 74.7162C101.186 74.4968 100.755 74.3824 100.317 74.3824C99.8799 74.3824 99.4486 74.4968 99.0591 74.7162Z" fill="black"/>
<path d="M107.15 69.516C106.194 68.9085 104.992 69.0014 103.762 69.7791C101.864 70.994 100.219 73.6947 99.502 76.5231C99.8013 76.6288 100.116 76.6708 100.43 76.6469C101.091 74.1242 102.539 71.7446 104.229 70.669C104.696 70.3527 105.228 70.1729 105.776 70.1466C106.094 70.1423 106.408 70.2333 106.683 70.4098C107.495 70.9244 107.962 72.178 107.962 73.8456C107.963 74.1198 107.947 74.3938 107.917 74.6659L108.802 75.2308C108.865 74.7723 108.897 74.3093 108.897 73.8456C108.897 71.8065 108.257 70.224 107.15 69.516Z" fill="#263238"/>
<path opacity="0.1" d="M91.467 69.8913C90.764 70.3362 90.764 71.0521 91.467 71.497C91.8565 71.7164 92.2878 71.8308 92.7253 71.8308C93.1628 71.8308 93.5941 71.7164 93.9836 71.497C94.6866 71.0559 94.6866 70.3362 93.9836 69.8913C93.5939 69.6725 93.1627 69.5585 92.7253 69.5585C92.2879 69.5585 91.8567 69.6725 91.467 69.8913Z" fill="black"/>
<path d="M99.5582 64.6911C98.5986 64.0836 97.3965 64.1803 96.1698 64.9542C94.2718 66.1691 92.6269 68.8698 91.9099 71.7021C92.2098 71.8046 92.5244 71.8452 92.8378 71.822C93.4986 69.2993 94.9467 66.9197 96.6373 65.8441C97.1042 65.5288 97.6366 65.3503 98.1839 65.3256C98.5015 65.3233 98.8142 65.4127 99.0907 65.5849C99.9026 66.0995 100.37 67.3531 100.37 69.0207C100.371 69.2949 100.355 69.5689 100.324 69.841L101.21 70.4059C101.273 69.9474 101.304 69.4844 101.305 69.0207C101.305 66.9778 100.669 65.3991 99.5582 64.6911Z" fill="#263238"/>
<path opacity="0.1" d="M83.8784 65.0663C83.1755 65.5113 83.1755 66.2271 83.8784 66.6759C84.2679 66.8953 84.6992 67.0097 85.1367 67.0097C85.5743 67.0097 86.0055 66.8953 86.395 66.6759C87.098 66.231 87.098 65.5152 86.395 65.0663C86.005 64.8488 85.574 64.7354 85.1367 64.7354C84.6995 64.7354 84.2684 64.8488 83.8784 65.0663Z" fill="black"/>
<path d="M91.9696 59.87C91.0101 59.2587 89.808 59.3554 88.5813 60.1292C86.6833 61.3442 85.0383 64.0449 84.3213 66.8772C84.6214 66.9793 84.9357 67.0212 85.2492 67.001C85.91 64.4782 87.3581 62.0987 89.0488 61.0192C89.5146 60.7045 90.0457 60.5261 90.5918 60.5007C90.9106 60.4984 91.2243 60.5878 91.5021 60.7599C92.3141 61.2745 92.778 62.5282 92.778 64.1958C92.7798 64.4699 92.7658 64.7439 92.7358 65.0161L93.6216 65.581C93.683 65.1223 93.7135 64.6594 93.713 64.1958C93.713 62.1528 93.0803 60.5858 91.9696 59.87Z" fill="#263238"/>
<path opacity="0.1" d="M76.2723 60.2415C75.5693 60.6864 75.5693 61.4022 76.2723 61.851C76.6618 62.0704 77.0931 62.1848 77.5306 62.1848C77.9681 62.1848 78.3994 62.0704 78.7889 61.851C79.4919 61.4061 79.4919 60.6903 78.7889 60.2415C78.3989 60.0239 77.9678 59.9105 77.5306 59.9105C77.0934 59.9105 76.6623 60.0239 76.2723 60.2415Z" fill="black"/>
<path d="M84.3776 55.0451C83.418 54.4338 82.2159 54.5305 80.9893 55.3044C79.0912 56.5193 77.4463 59.22 76.7292 62.0523C77.029 62.1561 77.3436 62.198 77.6572 62.1761C78.318 59.6533 79.7661 57.2738 81.4567 56.1981C81.9224 55.8794 82.4553 55.6994 83.0033 55.6758C83.3209 55.674 83.6334 55.7634 83.9101 55.935C84.722 56.4496 85.1895 57.7033 85.1895 59.3709C85.19 59.6464 85.1748 59.9217 85.1438 60.195L86.0296 60.7561C86.0911 60.2975 86.1216 59.8345 86.1209 59.3709C86.1139 57.328 85.4883 55.7493 84.3776 55.0451Z" fill="#263238"/>
<path opacity="0.1" d="M68.6978 55.4166C67.9948 55.8615 67.9948 56.5773 68.6978 57.0262C69.0873 57.2455 69.5185 57.3599 69.9561 57.3599C70.3936 57.3599 70.8249 57.2455 71.2144 57.0262C71.9174 56.5812 71.9174 55.8654 71.2144 55.4166C70.8244 55.199 70.3933 55.0856 69.9561 55.0856C69.5189 55.0856 69.0878 55.199 68.6978 55.4166Z" fill="black"/>
<path d="M76.7889 50.2202C75.8294 49.6089 74.6273 49.7056 73.4006 50.4795C71.5026 51.6944 69.8577 54.3951 69.1406 57.2274C69.4407 57.3295 69.755 57.3714 70.0685 57.3512C70.7293 54.8285 72.1775 52.4489 73.8681 51.3694C74.3339 51.0547 74.8651 50.8763 75.4111 50.8509C75.7299 50.8486 76.0437 50.938 76.3215 51.1101C77.1299 51.6247 77.5974 52.8784 77.5974 54.546C77.5991 54.8214 77.585 55.0967 77.5552 55.3701L78.4409 55.9312C78.5006 55.4724 78.5311 55.0095 78.5323 54.546C78.5323 52.5031 77.8961 50.9128 76.7889 50.2202Z" fill="#263238"/>
<path opacity="0.1" d="M61.1057 50.5955C60.4027 51.0405 60.4027 51.7563 61.1057 52.2013C61.4952 52.4206 61.9265 52.535 62.364 52.535C62.8016 52.535 63.2328 52.4206 63.6223 52.2013C64.3253 51.7602 64.3253 51.0405 63.6223 50.5955C63.2328 50.3762 62.8016 50.2618 62.364 50.2618C61.9265 50.2618 61.4952 50.3762 61.1057 50.5955Z" fill="black"/>
<path d="M69.1969 45.3953C68.2373 44.784 67.0353 44.8807 65.8086 45.6584C63.9106 46.8695 62.2656 49.5702 61.5486 52.4025C61.8483 52.5063 62.1629 52.5482 62.4765 52.5263C63.1373 50.0036 64.5854 47.624 66.2761 46.5483C66.7417 46.2296 67.2747 46.0496 67.8226 46.026C68.1403 46.0237 68.4529 46.1131 68.7294 46.2852C69.5414 46.7998 70.0053 48.0573 70.0053 49.7211C70.007 49.9965 69.993 50.2718 69.9631 50.5452L70.8489 51.1063C70.9086 50.6475 70.9392 50.1846 70.9403 49.7211C70.9403 47.6782 70.297 46.1034 69.1969 45.3953Z" fill="#263238"/>
<path d="M71.6291 124.165C71.5524 124.164 71.4781 124.135 71.4175 124.084C71.3568 124.032 71.3132 123.96 71.2933 123.878C71.2734 123.797 71.2783 123.71 71.3072 123.632C71.3361 123.554 71.3874 123.488 71.4534 123.445L118.324 93.6521C118.364 93.6241 118.409 93.6053 118.455 93.5968C118.502 93.5883 118.55 93.5904 118.596 93.6028C118.642 93.6152 118.685 93.6377 118.723 93.669C118.761 93.7004 118.793 93.7398 118.817 93.785C118.841 93.8301 118.856 93.8801 118.861 93.9319C118.867 93.9837 118.863 94.0363 118.85 94.0864C118.837 94.1365 118.815 94.1832 118.785 94.2236C118.755 94.264 118.717 94.2973 118.675 94.3214L71.8049 124.114C71.7513 124.148 71.6907 124.165 71.6291 124.165Z" fill="#EBEBEB"/>
<path d="M67.2286 121.332C67.1672 121.332 67.107 121.314 67.054 121.28C67.001 121.246 66.957 121.197 66.9263 121.139C66.9029 121.095 66.8876 121.046 66.8813 120.996C66.875 120.946 66.8778 120.894 66.8896 120.845C66.9013 120.796 66.9218 120.75 66.9498 120.709C66.9778 120.669 67.0128 120.635 67.0528 120.609L113.927 90.816C114.007 90.7697 114.101 90.7594 114.188 90.7872C114.275 90.815 114.349 90.8788 114.394 90.9652C114.439 91.0516 114.453 91.154 114.431 91.2509C114.41 91.3478 114.355 91.4318 114.278 91.4854L67.4043 121.278C67.3511 121.313 67.2905 121.332 67.2286 121.332Z" fill="#EBEBEB"/>
<path d="M62.8315 118.458C62.7537 118.458 62.6779 118.43 62.616 118.378C62.5541 118.326 62.5096 118.253 62.4895 118.171C62.4694 118.088 62.4748 118 62.5049 117.921C62.535 117.842 62.588 117.776 62.6557 117.734L109.526 87.9411C109.566 87.9131 109.611 87.8943 109.658 87.8859C109.705 87.8774 109.752 87.8794 109.798 87.8919C109.845 87.9043 109.888 87.9268 109.926 87.9581C109.964 87.9894 109.995 88.0288 110.019 88.074C110.043 88.1192 110.058 88.1692 110.064 88.221C110.069 88.2728 110.066 88.3254 110.052 88.3755C110.039 88.4256 110.017 88.4722 109.987 88.5126C109.957 88.553 109.92 88.5863 109.878 88.6105L63.0072 118.403C62.954 118.438 62.8934 118.457 62.8315 118.458Z" fill="#EBEBEB"/>
<path d="M58.4309 115.602C58.3696 115.602 58.3094 115.584 58.2563 115.55C58.2033 115.516 58.1593 115.467 58.1286 115.409C58.1052 115.365 58.09 115.316 58.0837 115.266C58.0774 115.215 58.0802 115.164 58.0919 115.115C58.1037 115.065 58.1241 115.019 58.1522 114.979C58.1802 114.938 58.2152 114.904 58.2552 114.879L105.126 85.0857C105.166 85.0577 105.21 85.0389 105.257 85.0304C105.304 85.0219 105.352 85.024 105.398 85.0364C105.444 85.0488 105.487 85.0713 105.525 85.1026C105.563 85.1339 105.595 85.1734 105.619 85.2186C105.642 85.2637 105.657 85.3137 105.663 85.3655C105.669 85.4173 105.665 85.4699 105.652 85.52C105.639 85.5701 105.616 85.6168 105.586 85.6572C105.556 85.6976 105.519 85.7308 105.477 85.755L58.6066 115.548C58.5534 115.583 58.4928 115.601 58.4309 115.602Z" fill="#EBEBEB"/>
<path d="M54.0338 112.747C53.956 112.747 53.8802 112.719 53.8183 112.667C53.7564 112.616 53.7119 112.542 53.6918 112.46C53.6717 112.377 53.6771 112.289 53.7072 112.21C53.7373 112.131 53.7904 112.065 53.8581 112.023L100.729 82.2302C100.769 82.2022 100.813 82.1834 100.86 82.1749C100.907 82.1665 100.955 82.1685 101.001 82.1809C101.047 82.1933 101.09 82.2159 101.128 82.2472C101.166 82.2785 101.198 82.3179 101.221 82.3631C101.245 82.4083 101.26 82.4583 101.266 82.5101C101.272 82.5619 101.268 82.6144 101.255 82.6645C101.242 82.7146 101.219 82.7613 101.189 82.8017C101.159 82.8421 101.122 82.8754 101.08 82.8996L54.2096 112.692C54.1563 112.727 54.0957 112.746 54.0338 112.747Z" fill="#EBEBEB"/>
<path d="M49.6332 109.891C49.5554 109.892 49.4796 109.864 49.4177 109.812C49.3558 109.76 49.3113 109.687 49.2912 109.604C49.2711 109.521 49.2765 109.434 49.3066 109.355C49.3367 109.276 49.3898 109.21 49.4575 109.168L96.328 79.3747C96.3682 79.3491 96.4125 79.3325 96.4584 79.3259C96.5044 79.3192 96.5511 79.3226 96.5959 79.336C96.6406 79.3493 96.6826 79.3722 96.7192 79.4034C96.7559 79.4346 96.7866 79.4735 96.8096 79.5179C96.8554 79.6067 96.8675 79.7119 96.8431 79.8105C96.8187 79.909 96.7599 79.993 96.6795 80.0441L49.809 109.837C49.7558 109.872 49.6951 109.89 49.6332 109.891Z" fill="#EBEBEB"/>
<path d="M45.2361 107.036C45.1583 107.036 45.0825 107.008 45.0206 106.957C44.9587 106.905 44.9142 106.831 44.8941 106.749C44.874 106.666 44.8794 106.578 44.9095 106.499C44.9396 106.42 44.9927 106.354 45.0604 106.312L91.9309 76.5192C92.0113 76.473 92.1047 76.4627 92.1918 76.4905C92.2789 76.5183 92.3528 76.5821 92.3982 76.6685C92.4435 76.7549 92.4568 76.8572 92.4353 76.9541C92.4137 77.0511 92.3589 77.1351 92.2824 77.1886L45.4119 106.982C45.3587 107.016 45.298 107.035 45.2361 107.036Z" fill="#EBEBEB"/>
<path d="M40.8356 104.18C40.7577 104.181 40.6819 104.153 40.62 104.101C40.5582 104.049 40.5137 103.976 40.4936 103.893C40.4735 103.81 40.4789 103.723 40.509 103.644C40.5391 103.565 40.5921 103.499 40.6598 103.457L87.5304 73.6638C87.5705 73.6382 87.6148 73.6216 87.6608 73.6149C87.7067 73.6083 87.7534 73.6117 87.7982 73.625C87.843 73.6383 87.8849 73.6613 87.9216 73.6925C87.9582 73.7237 87.9889 73.7626 88.0119 73.8069C88.0577 73.8958 88.0698 74.001 88.0454 74.0995C88.0211 74.1981 87.9623 74.2821 87.8819 74.3331L41.0113 104.126C40.9581 104.161 40.8975 104.18 40.8356 104.18Z" fill="#EBEBEB"/>
<path d="M36.4385 101.325C36.3607 101.325 36.2848 101.297 36.2229 101.246C36.1611 101.194 36.1166 101.121 36.0965 101.038C36.0764 100.955 36.0818 100.867 36.1119 100.788C36.142 100.709 36.195 100.643 36.2627 100.601L83.1333 70.8083C83.214 70.7578 83.3095 70.7446 83.3991 70.7714C83.4886 70.7982 83.5649 70.8629 83.6113 70.9514C83.6574 71.0398 83.67 71.1446 83.6463 71.2432C83.6226 71.3417 83.5646 71.426 83.4848 71.4776L36.6142 101.271C36.561 101.305 36.5004 101.324 36.4385 101.325Z" fill="#EBEBEB"/>
<path d="M32.0379 98.4693C31.9601 98.4699 31.8843 98.442 31.8224 98.3901C31.7605 98.3382 31.716 98.2651 31.6959 98.1823C31.6758 98.0995 31.6812 98.0118 31.7113 97.9328C31.7414 97.8538 31.7944 97.788 31.8622 97.7457L78.7327 67.9528C78.7728 67.9272 78.8171 67.9106 78.8631 67.904C78.9091 67.8973 78.9558 67.9008 79.0005 67.9141C79.0453 67.9274 79.0872 67.9503 79.1239 67.9815C79.1606 68.0127 79.1913 68.0516 79.2142 68.096C79.2601 68.1848 79.2721 68.29 79.2477 68.3886C79.2234 68.4872 79.1646 68.5711 79.0842 68.6222L32.2136 98.4151C32.1604 98.4499 32.0998 98.4686 32.0379 98.4693Z" fill="#EBEBEB"/>
<path d="M27.6408 95.6138C27.563 95.6144 27.4872 95.5865 27.4253 95.5346C27.3634 95.4827 27.3189 95.4096 27.2988 95.3268C27.2787 95.2441 27.2841 95.1563 27.3142 95.0773C27.3443 94.9983 27.3974 94.9325 27.4651 94.8902L74.3356 65.0973C74.4163 65.0469 74.5119 65.0336 74.6014 65.0604C74.691 65.0873 74.7673 65.152 74.8136 65.2405C74.8598 65.3289 74.8723 65.4337 74.8486 65.5322C74.8249 65.6308 74.7669 65.715 74.6871 65.7667L27.8166 95.5596C27.7633 95.5944 27.7027 95.6131 27.6408 95.6138Z" fill="#EBEBEB"/>
<path d="M23.2402 92.7583C23.1624 92.7589 23.0866 92.7311 23.0247 92.6792C22.9628 92.6272 22.9183 92.5541 22.8982 92.4714C22.8781 92.3886 22.8835 92.3008 22.9136 92.2218C22.9437 92.1428 22.9968 92.077 23.0645 92.0348L69.935 62.2419C69.9752 62.2163 70.0195 62.1997 70.0654 62.1931C70.1114 62.1864 70.1581 62.1898 70.2029 62.2031C70.2476 62.2164 70.2896 62.2394 70.3262 62.2706C70.3629 62.3018 70.3936 62.3407 70.4166 62.385C70.4622 62.4721 70.4753 62.5754 70.4529 62.6729C70.4306 62.7704 70.3747 62.8545 70.2971 62.9074L23.416 92.7003C23.3636 92.7377 23.3026 92.7579 23.2402 92.7583Z" fill="#EBEBEB"/>
<path d="M18.8431 89.9028C18.7653 89.9034 18.6895 89.8756 18.6276 89.8236C18.5657 89.7717 18.5212 89.6986 18.5011 89.6158C18.481 89.5331 18.4864 89.4453 18.5165 89.3663C18.5466 89.2873 18.5997 89.2215 18.6674 89.1793L65.5379 59.3864C65.6183 59.3401 65.7117 59.3298 65.7988 59.3576C65.8859 59.3854 65.9598 59.4492 66.0052 59.5356C66.0505 59.622 66.0638 59.7243 66.0423 59.8213C66.0207 59.9182 65.9659 60.0022 65.8894 60.0557L19.0189 89.8487C18.9662 89.8847 18.9052 89.9035 18.8431 89.9028Z" fill="#EBEBEB"/>
<path d="M14.4426 87.0473C14.3647 87.0479 14.2889 87.0201 14.227 86.9681C14.1651 86.9162 14.1207 86.8431 14.1006 86.7604C14.0804 86.6776 14.0859 86.5898 14.116 86.5108C14.1461 86.4318 14.1991 86.366 14.2668 86.3238L61.1374 56.5309C61.1775 56.5055 61.2218 56.489 61.2678 56.4825C61.3137 56.4759 61.3604 56.4794 61.4051 56.4927C61.4498 56.506 61.4917 56.5288 61.5284 56.5599C61.5651 56.5911 61.5958 56.6298 61.6189 56.674C61.642 56.7182 61.6569 56.767 61.6629 56.8176C61.6688 56.8682 61.6657 56.9195 61.6536 56.9687C61.6415 57.018 61.6208 57.0641 61.5925 57.1045C61.5642 57.1449 61.529 57.1787 61.4889 57.2041L14.6183 86.997C14.5647 87.0305 14.5041 87.0478 14.4426 87.0473Z" fill="#EBEBEB"/>
<path d="M10.0454 84.188C9.9835 84.1883 9.92259 84.1705 9.86889 84.1366C9.8152 84.1026 9.77061 84.0536 9.73964 83.9946C9.71625 83.9506 9.70097 83.9021 9.69468 83.8516C9.68838 83.8012 9.69119 83.7499 9.70295 83.7006C9.7147 83.6514 9.73517 83.6052 9.76318 83.5646C9.79119 83.5241 9.82619 83.4901 9.86617 83.4645L56.7402 53.6716C56.8213 53.6203 56.9176 53.6065 57.0079 53.6334C57.0982 53.6602 57.1752 53.7254 57.2218 53.8147C57.2684 53.904 57.2809 54.01 57.2565 54.1094C57.2321 54.2088 57.1728 54.2935 57.0917 54.3448L10.2177 84.1377C10.1651 84.1705 10.1058 84.1878 10.0454 84.188Z" fill="#EBEBEB"/>
<path d="M76.3391 127.136C76.1517 127.134 75.9701 127.065 75.8219 126.939C75.6738 126.813 75.5673 126.636 75.5186 126.437C75.47 126.238 75.482 126.027 75.5527 125.836C75.6234 125.645 75.749 125.485 75.9103 125.38L125.195 94.0119C125.392 93.8872 125.626 93.8537 125.845 93.9186C126.064 93.9836 126.251 94.1417 126.364 94.3582C126.477 94.5747 126.508 94.8319 126.449 95.0732C126.39 95.3145 126.246 95.52 126.05 95.6447L76.7679 126.997C76.6387 127.084 76.4907 127.133 76.3391 127.136Z" fill="#317DC0"/>
<g opacity="0.25">
<path d="M91.4776 91.1719C91.0909 90.5258 90.3774 90.2665 89.7693 89.9647C89.5198 89.8409 89.2386 89.6745 88.9433 89.5043C88.5567 88.8233 88.0471 87.7128 88.7254 87.5697C89.1261 87.4846 89.9099 87.9566 90.3493 88.0959C90.5953 88.1772 90.5391 87.7825 90.3669 87.709C89.6217 87.3878 88.1982 86.3741 87.9065 87.767C87.8397 88.2032 87.9 88.6515 88.0787 89.0477C87.7333 88.8828 87.3581 88.8074 86.9821 88.8272C86.6306 88.862 86.3283 88.8736 86.2053 89.3263C86.1385 89.5739 86.2369 89.6823 86.251 89.868C86.2672 89.964 86.3095 90.0524 86.3722 90.1214C86.435 90.1905 86.5152 90.237 86.6025 90.2549C86.4708 90.2352 86.3382 90.2235 86.2053 90.2201C85.6816 90.2007 84.2405 89.8138 83.9066 90.5374C83.766 90.8353 84.0823 91.2454 84.0366 91.3576C84.0155 91.4118 82.9822 91.791 82.8099 91.9148C82.7291 91.969 82.7853 92.2824 82.7396 92.3017C82.5815 92.4023 81.527 92.3017 81.2177 92.3017C80.3812 92.3791 78.3109 92.0348 78.5816 93.4625C78.6097 93.6173 78.7222 93.594 78.7503 93.8494C78.7554 93.9671 78.7767 94.0832 78.8136 94.1938C78.7819 94.1938 78.7222 94.217 78.6132 94.3872C78.5429 94.4956 78.2617 94.4608 78.1528 94.6039C77.7556 95.1533 78.3601 95.3429 77.8681 95.6873C77.1651 96.1671 75.717 95.192 75.0105 95.7298C74.3778 96.2096 75.2003 97.5871 74.0861 97.6142C73.84 97.6142 73.9841 98.0011 74.1704 98.0359C75.2249 98.1365 75.0984 97.9198 75.2952 96.9835C75.6221 95.459 77.6923 96.5114 78.8557 96.1555C78.9893 96.1168 78.9998 95.931 78.9366 95.8188C78.6343 95.2772 78.9893 94.9792 79.4497 94.7471C79.4775 94.7342 79.5023 94.7145 79.5223 94.6896C79.5422 94.6647 79.5568 94.6351 79.5649 94.6031C79.573 94.5711 79.5745 94.5375 79.5691 94.5048C79.5638 94.4721 79.5518 94.4412 79.5341 94.4143C79.4076 94.1628 78.9682 93.4006 79.2388 93.0446C79.6436 92.9501 80.0554 92.897 80.469 92.886C81.3698 92.817 82.2732 92.8002 83.1755 92.8357C83.2057 92.8347 83.2353 92.8259 83.2617 92.8098C83.2882 92.7937 83.3108 92.7709 83.3277 92.7433C83.3445 92.7156 83.3551 92.684 83.3586 92.6509C83.3621 92.6179 83.3584 92.5844 83.3477 92.5532C83.2177 92.2321 84.4022 92.027 84.6447 91.9651C84.6684 91.9556 84.6901 91.9411 84.7086 91.9223C84.7271 91.9035 84.742 91.8808 84.7524 91.8556C84.7629 91.8304 84.7687 91.8032 84.7695 91.7755C84.7703 91.7478 84.7661 91.7202 84.7572 91.6943C84.1983 90.1659 86.2545 90.727 87.1086 90.8779C87.1439 90.8868 87.1808 90.8853 87.2154 90.8733C87.25 90.8614 87.2811 90.8395 87.3054 90.8099C87.3298 90.7803 87.3465 90.7442 87.3539 90.7051C87.3613 90.666 87.3592 90.6255 87.3476 90.5877C87.214 90.0731 86.1807 89.5546 87.4039 89.365C87.7303 89.3626 88.0523 89.4476 88.3423 89.6126C88.8695 90.5979 89.6035 91.4298 90.4829 92.0386C91.2772 92.5184 92.0891 92.2127 91.4776 91.1719ZM91.098 91.4466C91.351 91.8336 90.5496 91.5202 90.4512 91.4699C89.9767 91.2377 89.6604 90.6651 89.3968 90.2124C89.6463 90.3633 89.8678 90.4987 90.033 90.5993C90.4512 90.7702 90.8193 91.0631 91.098 91.4466Z" fill="black"/>
<path d="M70.5782 100.86C70.4236 100.199 70.406 99.4714 70.9684 99.3902C71.2355 99.3515 71.0457 98.9452 70.8418 98.9413C70.0861 98.9104 69.8506 99.6339 69.9491 100.489C69.6489 100.335 69.3342 100.218 69.0106 100.141C68.5185 100.036 68.2022 100.021 68.0405 100.574C67.9421 100.903 68.1811 101.116 68.1635 101.414C68.1354 101.847 68.515 101.669 67.9386 101.839C67.7025 101.838 67.4672 101.812 67.2356 101.762C66.6381 101.731 66.5853 101.762 66.2198 102.11C65.8543 102.458 66.7681 102.617 65.675 102.427C65.4009 102.322 65.1107 102.278 64.8209 102.296C64.4202 102.397 64.2093 102.52 64.2726 103.012C64.3042 103.232 64.733 103.522 64.733 103.662C64.7084 104.722 63.6786 103.824 63.2954 103.662C63.2694 103.65 63.2412 103.645 63.2132 103.648C63.1852 103.651 63.1582 103.66 63.1342 103.676C63.1103 103.693 63.0901 103.715 63.0754 103.741C63.0606 103.768 63.0517 103.797 63.0494 103.828C63.0494 104.35 63.3657 104.536 62.6768 104.583C62.5925 104.583 62.118 104.292 61.9739 104.289C61.531 104.289 61.1233 104.927 60.5433 104.873C60.3851 104.873 60.3324 105.016 60.3781 105.159C60.5398 105.635 60.7753 105.933 59.9001 106.32C59.9001 106.32 58.8702 106.181 58.8948 106.181C58.6453 106.181 58.8035 106.629 58.9968 106.645C59.3975 106.676 60.7542 107.303 61.1444 106.711C61.4396 106.273 60.8596 105.767 61.0038 105.488C60.9089 105.674 61.7735 105.229 61.8684 105.194C62.0848 105.091 62.3131 105.022 62.5468 104.989C62.6663 104.989 62.7682 105.206 62.8983 105.206C63.0283 105.206 63.2498 105.295 63.4009 105.206C63.552 105.117 63.5907 104.896 63.6504 104.85C63.8051 104.737 63.4536 104.606 63.7559 104.49C63.9738 104.409 64.1636 104.652 64.3675 104.722C64.6944 104.834 65.1899 105.109 65.4676 104.722C65.8191 104.223 65.1653 103.875 65.2286 103.538C65.3657 102.783 66.3428 103.352 66.7927 103.019C66.8239 102.993 66.8467 102.956 66.8581 102.915C66.8694 102.873 66.8687 102.828 66.856 102.787C66.5783 101.747 68.2936 102.563 68.8348 102.451C68.9297 102.431 69.0317 102.362 69.0176 102.234C69.0036 102.106 68.8032 101.588 68.8067 101.58C68.9403 100.957 69.7206 101.027 70.0826 101.131C70.4341 102.397 71.3409 103.677 72.3392 103.333C72.3759 103.321 72.408 103.296 72.4302 103.261C72.4525 103.227 72.4638 103.185 72.4622 103.143C72.4059 102.319 71.5026 101.452 70.5782 100.86ZM70.9297 101.905C70.8981 101.839 70.8524 101.735 70.7996 101.603C71.08 101.805 71.3193 102.069 71.5026 102.377C71.703 102.996 71.0281 102.079 70.9332 101.905H70.9297Z" fill="black"/>
<path d="M88.852 109.063C88.4654 108.421 87.7518 108.162 87.1438 107.86C86.8942 107.736 86.613 107.566 86.3178 107.396C85.9311 106.715 85.4215 105.608 86.0999 105.461C86.5041 105.376 87.2879 105.848 87.7237 105.987C87.9698 106.065 87.9135 105.67 87.7413 105.6C86.9961 105.279 85.5726 104.261 85.2809 105.658C85.2163 106.094 85.2765 106.542 85.4531 106.939C85.1077 106.774 84.7327 106.697 84.3565 106.715C84.005 106.753 83.7062 106.761 83.5832 107.214C83.5129 107.465 83.6113 107.574 83.6254 107.759C83.6402 107.856 83.682 107.945 83.745 108.014C83.808 108.084 83.8891 108.13 83.9769 108.146C83.9347 108.146 83.8222 108.127 83.5797 108.115C83.0525 108.092 81.6114 107.709 81.2775 108.429C81.1404 108.727 81.4567 109.141 81.411 109.253C81.39 109.303 80.3566 109.686 80.1808 109.806C80.1 109.86 80.1562 110.174 80.1106 110.193C79.9559 110.29 78.8979 110.193 78.5921 110.193C77.7521 110.266 75.6818 109.926 75.9525 111.354C75.9841 111.508 76.0931 111.489 76.1212 111.741C76.1283 111.858 76.1496 111.974 76.1845 112.085C76.1528 112.085 76.0966 112.108 75.9876 112.278C75.9173 112.383 75.6361 112.352 75.5237 112.495C75.1265 113.045 75.7346 113.234 75.239 113.575C74.536 114.054 73.0914 113.083 72.3814 113.621C71.7522 114.101 72.5712 115.478 71.457 115.502C71.2109 115.502 71.355 115.888 71.5413 115.923C72.5958 116.024 72.4693 115.811 72.6696 114.875C72.993 113.346 75.0632 114.399 76.2266 114.047C76.2545 114.033 76.2794 114.013 76.2993 113.988C76.3192 113.963 76.3338 113.933 76.3419 113.901C76.35 113.868 76.3514 113.834 76.346 113.801C76.3407 113.769 76.3287 113.737 76.311 113.71C76.0052 113.168 76.3602 112.87 76.8206 112.634C76.8485 112.622 76.8732 112.602 76.8932 112.577C76.9131 112.552 76.9277 112.522 76.9358 112.49C76.9439 112.458 76.9454 112.425 76.94 112.392C76.9347 112.36 76.9227 112.329 76.905 112.302C76.782 112.054 76.3391 111.292 76.6098 110.932C77.0158 110.839 77.4288 110.787 77.8435 110.777C78.743 110.707 79.6452 110.689 80.5464 110.723C80.5766 110.722 80.6062 110.713 80.6327 110.697C80.6591 110.681 80.6817 110.658 80.6986 110.631C80.7154 110.603 80.726 110.571 80.7295 110.538C80.733 110.505 80.7293 110.472 80.7186 110.441C80.5886 110.123 81.7731 109.918 82.0191 109.852C82.0425 109.843 82.0638 109.828 82.0819 109.809C82.1001 109.79 82.1146 109.767 82.1247 109.742C82.1349 109.717 82.1404 109.69 82.1409 109.662C82.1415 109.635 82.1371 109.607 82.1281 109.582C81.5692 108.057 83.6289 108.618 84.483 108.765C84.5179 108.774 84.5543 108.773 84.5886 108.761C84.6228 108.749 84.6535 108.728 84.6776 108.699C84.7016 108.669 84.7181 108.634 84.7253 108.595C84.7325 108.556 84.7302 108.516 84.7185 108.479C84.585 107.96 83.5551 107.446 84.7783 107.256C85.1046 107.255 85.4265 107.34 85.7167 107.504C86.2437 108.488 86.9764 109.32 87.8538 109.93C88.6516 110.413 89.4741 110.112 88.852 109.063ZM88.4724 109.342C88.729 109.729 87.9241 109.411 87.8256 109.365C87.3511 109.129 87.0348 108.56 86.7536 108.107C87.0032 108.258 87.2281 108.394 87.3898 108.475C87.8152 108.649 88.1895 108.947 88.4724 109.338V109.342Z" fill="black"/>
<path d="M101.695 97.3781C101.544 96.7126 101.523 95.9852 102.085 95.904C102.352 95.8653 102.163 95.4629 101.962 95.4551C101.203 95.4281 100.968 96.1516 101.066 97.0222C100.767 96.8654 100.452 96.7472 100.128 96.6701C99.639 96.5695 99.3192 96.5501 99.1575 97.1034C99.0591 97.4323 99.3016 97.6451 99.2805 97.943C99.2524 98.3764 99.6496 98.1984 99.0556 98.3687C98.8195 98.3692 98.5839 98.3433 98.3526 98.2913C97.7551 98.2603 97.7023 98.2913 97.3368 98.6395C96.9712 98.9877 97.8851 99.1502 96.7955 98.9568C96.5202 98.8515 96.2288 98.8068 95.9379 98.8252C95.5372 98.9258 95.3263 99.0535 95.3896 99.541C95.4212 99.7616 95.8535 100.052 95.85 100.195C95.8254 101.251 94.7955 100.354 94.4124 100.195C94.3864 100.183 94.3582 100.179 94.3302 100.181C94.3022 100.184 94.2751 100.193 94.2512 100.21C94.2273 100.226 94.2071 100.248 94.1924 100.274C94.1776 100.301 94.1687 100.33 94.1664 100.361C94.1488 100.884 94.4827 101.069 93.7938 101.116C93.7095 101.116 93.235 100.829 93.0909 100.826C92.6445 100.826 92.2367 101.46 91.6568 101.41C91.4986 101.41 91.4459 101.553 91.4916 101.692C91.6533 102.168 91.8888 102.466 91.0136 102.872C90.996 102.872 89.9872 102.729 90.0083 102.733C89.7588 102.733 89.9169 103.178 90.1138 103.197C90.5109 103.228 91.8712 103.855 92.2613 103.263C92.5531 102.826 91.9731 102.319 92.1172 102.041C92.0223 102.222 92.887 101.777 92.9819 101.743C93.1979 101.639 93.4264 101.572 93.6603 101.541C93.7798 101.541 93.8817 101.754 94.0117 101.754C94.1418 101.754 94.3632 101.843 94.5109 101.754C94.6585 101.665 94.7007 101.445 94.7604 101.398C94.9151 101.29 94.5636 101.154 94.8658 101.038C95.0838 100.957 95.2736 101.201 95.4774 101.271C95.8043 101.387 96.2999 101.657 96.5811 101.271C96.9326 100.771 96.2753 100.423 96.3386 100.087C96.4792 99.3127 97.4563 99.9047 97.9027 99.5681C97.9343 99.5418 97.9574 99.5052 97.9688 99.4634C97.9802 99.4217 97.9792 99.377 97.9659 99.336C97.6883 98.2951 99.407 99.1116 99.9448 99.0032C100.043 98.98 100.145 98.9104 100.131 98.7865C100.117 98.6627 99.9167 98.1404 99.9167 98.1326C100.05 97.5058 100.834 97.5755 101.193 97.6799C101.544 98.949 102.451 100.226 103.449 99.8854C103.487 99.8733 103.52 99.8477 103.543 99.8127C103.566 99.7776 103.577 99.7351 103.576 99.6919C103.509 98.833 102.634 97.9663 101.695 97.3781ZM102.047 98.419C102.003 98.321 101.964 98.2202 101.931 98.1172C102.212 98.3172 102.452 98.581 102.634 98.891C102.813 99.5101 102.149 98.5969 102.054 98.419H102.047Z" fill="black"/>
</g>
<path d="M100.739 92.6461L107.273 88.4944C107.308 88.4716 107.347 88.4595 107.388 88.4595C107.428 88.4595 107.467 88.4716 107.502 88.4944L114.082 92.6732C114.116 92.6959 114.144 92.728 114.164 92.7663C114.183 92.8046 114.194 92.8478 114.194 92.8918C114.194 92.9357 114.183 92.979 114.164 93.0173C114.144 93.0556 114.116 93.0876 114.082 93.1104L107.554 97.262C107.52 97.2849 107.481 97.297 107.44 97.297C107.4 97.297 107.361 97.2849 107.326 97.262L100.739 93.0872C100.705 93.064 100.677 93.0316 100.657 92.993C100.637 92.9544 100.627 92.9109 100.627 92.8666C100.626 92.8234 100.636 92.7808 100.655 92.7428C100.675 92.7032 100.704 92.6699 100.739 92.6461ZM113.509 92.8937L107.386 89.0052L101.312 92.8744L107.435 96.7629L113.509 92.8937Z" fill="#455A64"/>
<path d="M88.6129 84.9386L95.1435 80.787C95.1787 80.7642 95.2187 80.7521 95.2595 80.7521C95.3003 80.7521 95.3404 80.7642 95.3755 80.787L101.952 84.9618C101.987 84.9838 102.016 85.0156 102.036 85.054C102.057 85.0924 102.067 85.136 102.067 85.1804C102.067 85.2249 102.057 85.2685 102.036 85.3069C102.016 85.3453 101.987 85.3771 101.952 85.3991L95.4212 89.5507C95.3867 89.5736 95.3472 89.5857 95.307 89.5857C95.2667 89.5857 95.2272 89.5736 95.1927 89.5507L88.6129 85.372C88.5782 85.349 88.5493 85.3168 88.5291 85.2782C88.5088 85.2396 88.4977 85.196 88.4969 85.1514C88.4961 85.1076 88.5071 85.0645 88.5286 85.0276C88.5488 84.9901 88.578 84.9593 88.6129 84.9386ZM101.379 85.1862L95.2525 81.2977L89.1788 85.1669L95.2982 89.0555L101.379 85.1862Z" fill="#455A64"/>
<path d="M76.1809 77.0339L82.7115 72.8861C82.746 72.8632 82.7854 72.8511 82.8257 72.8511C82.866 72.8511 82.9055 72.8632 82.9399 72.8861L89.5197 77.0648C89.5544 77.0868 89.5833 77.1184 89.6036 77.1564C89.624 77.1943 89.635 77.2374 89.6357 77.2815C89.6364 77.3264 89.6259 77.3706 89.6055 77.4095C89.5851 77.4483 89.5554 77.4803 89.5197 77.502L82.9891 81.6537C82.954 81.6765 82.9139 81.6885 82.8732 81.6885C82.8324 81.6885 82.7923 81.6765 82.7572 81.6537L76.1809 77.475C76.1462 77.452 76.1173 77.4198 76.097 77.3812C76.0767 77.3426 76.0657 77.299 76.0649 77.2544C76.0645 77.2094 76.0755 77.1653 76.0965 77.1267C76.1181 77.0893 76.1469 77.0576 76.1809 77.0339ZM88.9468 77.2815L82.8275 73.4123L76.7538 77.2815L82.8732 81.1701L88.9468 77.2815Z" fill="#455A64"/>
<path d="M63.7489 69.1329L70.2971 64.9813C70.3321 64.9603 70.3714 64.9493 70.4113 64.9493C70.4512 64.9493 70.4905 64.9603 70.5255 64.9813L77.1053 69.1639C77.1402 69.1856 77.1693 69.2171 77.1897 69.2551C77.21 69.2932 77.221 69.3364 77.2213 69.3806C77.2212 69.4253 77.2104 69.4692 77.1901 69.5079C77.1697 69.5466 77.1405 69.5787 77.1053 69.6011L70.5572 73.7412C70.522 73.764 70.482 73.776 70.4412 73.776C70.4004 73.776 70.3603 73.764 70.3252 73.7412L63.7489 69.5585C63.7224 69.5425 63.6991 69.5207 63.6804 69.4945C63.6618 69.4683 63.6481 69.4383 63.6402 69.4061C63.6323 69.374 63.6304 69.3404 63.6346 69.3074C63.6388 69.2744 63.649 69.2427 63.6645 69.2142C63.6849 69.1787 63.7142 69.1504 63.7489 69.1329ZM76.5148 69.3806L70.3955 65.492L64.3218 69.3612L70.4412 73.2304L76.5148 69.3806Z" fill="#455A64"/>
<path d="M51.3168 61.232L57.8509 57.0803C57.8854 57.0575 57.9249 57.0454 57.9652 57.0454C58.0054 57.0454 58.0449 57.0575 58.0794 57.0803L64.6733 61.263C64.7078 61.2849 64.7364 61.3165 64.7561 61.3546C64.7759 61.3926 64.7861 61.4358 64.7857 61.4796C64.7857 61.5239 64.7753 61.5674 64.7556 61.606C64.7359 61.6446 64.7076 61.6771 64.6733 61.7002L58.1392 65.8518C58.1041 65.8728 58.0648 65.8838 58.0249 65.8838C57.985 65.8838 57.9457 65.8728 57.9107 65.8518L51.3168 61.6692C51.2826 61.647 51.2542 61.6153 51.2345 61.5773C51.2147 61.5393 51.2044 61.4963 51.2044 61.4526C51.204 61.4076 51.215 61.3634 51.236 61.3249C51.2543 61.286 51.2824 61.2538 51.3168 61.232ZM64.0863 61.4796L57.9599 57.5911L51.8898 61.4603L57.995 65.3411L64.0863 61.4796Z" fill="#455A64"/>
<path d="M75.5341 64.6523L80.3494 77.2544C80.3809 77.3344 80.3886 77.4233 80.3715 77.5084C80.3544 77.5935 80.3133 77.6705 80.2541 77.7284C80.1949 77.7863 80.1205 77.8221 80.0417 77.8308C79.9629 77.8395 79.8836 77.8205 79.8152 77.7767L68.9648 70.9592L75.5341 64.6523Z" fill="#FFA8A7"/>
<path d="M79.8152 77.7767C79.8837 77.8206 79.9629 77.8395 80.0417 77.8308C80.1206 77.8222 80.1949 77.7863 80.2541 77.7284C80.3133 77.6705 80.3544 77.5935 80.3715 77.5084C80.3887 77.4233 80.3809 77.3344 80.3495 77.2544L79.4075 74.7936C79.2761 75.1906 79.0477 75.5401 78.7476 75.8036C78.4475 76.0671 78.0872 76.2344 77.7063 76.2871L77.4919 76.318L79.8152 77.7767Z" fill="#317DC0"/>
<path d="M29.6091 22.0756L30.3718 23.0235L31.2892 24.1843L68.9649 70.9592C70.3603 71.0911 71.7493 70.6362 72.8523 69.6862C74.571 68.3242 75.7239 66.173 75.5306 64.6562L37.876 17.893L36.1186 15.7068C37.1836 17.1926 30.6987 23.5497 29.6091 22.0756Z" fill="#317DC0"/>
<path opacity="0.3" d="M29.6091 22.0756L30.3718 23.0235L31.2892 24.1843L68.9649 70.9592C70.3603 71.0911 71.7493 70.6362 72.8523 69.6862C74.571 68.3242 75.7239 66.173 75.5306 64.6562L37.876 17.893L36.1186 15.7068C37.1836 17.1926 30.6987 23.5497 29.6091 22.0756Z" fill="white"/>
<path opacity="0.4" d="M73.8119 68.7886C73.5165 69.1152 73.198 69.4154 72.8593 69.6862C71.7574 70.6357 70.3697 71.0905 68.9754 70.9592L34.2452 27.8446C34.7548 28.3979 36.2205 27.6395 37.6651 26.4633C38.0781 26.1304 38.4681 25.7644 38.8321 25.3683L73.8119 68.7886Z" fill="#317DC0"/>
<path d="M32.5018 25.6933L34.21 27.802C34.6846 28.4327 36.1889 27.6666 37.6651 26.4633C39.6335 24.873 41.3311 22.2342 40.702 21.3985L39.4437 19.8508L38.9867 19.3052C39.6159 20.141 37.9323 22.7875 35.9534 24.37C34.5475 25.5308 33.0888 26.2698 32.5616 25.7629C32.5366 25.7457 32.516 25.7218 32.5018 25.6933Z" fill="#EBEBEB"/>
<path d="M32.9341 26.2156C34.0378 27.6782 40.5227 21.2824 39.419 19.8159L37.7178 17.6956C38.8215 19.162 32.3366 25.5617 31.2329 24.0953L32.9341 26.2156Z" fill="#317DC0"/>
<path d="M29.6091 22.0756L31.2892 24.1688C32.3647 25.6159 38.6704 19.4987 37.876 17.893C37.8623 17.8595 37.8446 17.8283 37.8233 17.8001L36.1151 15.703C37.1836 17.1926 30.6987 23.5498 29.6091 22.0756Z" fill="#EBEBEB"/>
<path opacity="0.15" d="M38.832 25.376C38.4681 25.7721 38.0781 26.1381 37.6651 26.471C36.2275 27.6318 34.7619 28.4056 34.2487 27.8562L31.2821 24.1727L30.3683 23.0119L29.6021 22.064C30.2136 22.8881 32.5123 21.2592 34.2311 19.4058C34.3366 19.4445 34.3401 19.5258 34.2311 19.6496L38.832 25.376Z" fill="black"/>
<path opacity="0.15" d="M80.2265 77.7419C80.1693 77.795 80.0983 77.8266 80.0237 77.8321C79.9491 77.8377 79.8748 77.8169 79.8117 77.7729L68.9684 70.9592C70.3626 71.0905 71.7503 70.6357 72.8523 69.6862C73.1934 69.4157 73.5143 69.1155 73.8118 68.7886C76.1317 72.8048 78.3566 76.2987 80.2265 77.7419Z" fill="black"/>
<path d="M26.0099 17.5293L29.6126 22.0756C30.0801 22.7063 31.5704 21.9596 33.0431 20.7717C35.0149 19.1892 36.7337 16.5543 36.1186 15.7069L32.4877 11.1335C31.0572 9.36915 27.4474 12.1163 26.1013 14.759C25.5811 15.734 25.4616 16.7323 26.0099 17.5293Z" fill="#FFA8A7"/>
<path d="M28.9554 17.4828C30.9097 16.4343 32.5828 14.1321 32.6987 12.3445C32.7339 12.0767 32.7098 11.8035 32.6284 11.5482C32.547 11.2929 32.4108 11.063 32.2313 10.8781C30.6672 9.65542 27.3667 12.2478 26.0943 14.7473C25.5917 15.7146 25.4722 16.6819 25.9784 17.4828C26.5232 18.1445 27.6338 18.1948 28.9554 17.4828Z" fill="#F28F8F"/>
</g>
<defs>
<clipPath id="clip0_800_3787">
<rect width="142" height="142" fill="white" transform="translate(0 1)"/>
</clipPath>
</defs>
</svg>
