<svg width="53" height="43" viewBox="0 0 53 43" fill="none" xmlns="http://www.w3.org/2000/svg">
<path d="M43.5655 21.1833C43.4277 20.7906 43.2615 20.4079 43.0682 20.038C42.9047 19.7218 42.7211 19.4159 42.5185 19.1218C41.5749 17.7922 40.3857 16.6445 39.0113 15.7369V19.2618L35.9098 17.5057V14.0062C27.2726 10.0232 14.5 10.3159 6.43863 14.8334C3.7046 16.1777 1.56211 18.4373 0.405683 21.196C0.405683 21.3996 0.287897 21.5905 0.23555 21.7941C0.0800563 22.3716 0.000908018 22.966 0 23.5629V30.5491C0.0273527 32.2224 0.589953 33.8458 1.60965 35.1939C2.90009 36.8759 4.54686 38.2689 6.43863 39.2787C15.0366 44.1016 28.9608 44.1016 37.5325 39.2787C41.8249 36.8609 43.9842 33.705 43.9842 30.5491V23.5629C43.9816 22.7526 43.8401 21.9484 43.5655 21.1833Z" fill="#F0F0F0"/>
<path d="M28.8822 11.8301C21.2527 10.4176 12.5108 11.4102 6.43863 14.8206C3.7046 16.1649 1.56211 18.4245 0.405683 21.1832C0.405683 21.3868 0.287897 21.5777 0.23555 21.7813C0.0800563 22.3588 0.000908018 22.9532 0 23.5501V30.5363C0.0273527 32.2095 0.589953 33.833 1.60965 35.1811C2.90009 36.8631 4.54686 38.2561 6.43863 39.2659C12.5108 42.6763 21.2527 43.6561 28.8822 42.2436V11.8301Z" fill="#EBEBEB"/>
<path d="M6.45193 14.8211C-1.60945 19.3513 -2.10675 26.5156 4.97313 31.364L35.91 13.9939C27.2728 10.0236 14.5133 10.3545 6.45193 14.8211Z" fill="#FAFAFA"/>
<path d="M4.95966 29.5309C4.95966 29.5309 -3.58593 23.1683 5.91499 15.1386C-1.62293 19.6688 -1.93701 26.5914 4.97274 31.3634L35.9096 13.9933L4.95966 29.5309Z" fill="white"/>
<path d="M39.0113 15.7368L8.07446 33.1069C16.7117 37.0772 29.4842 36.8099 37.5456 32.2797C45.607 27.7495 46.0912 20.5343 39.0113 15.7368Z" fill="#FAFAFA"/>
<path d="M8.07446 33.1069C16.7117 37.0772 29.4842 36.8099 37.5456 32.2797C38.4428 31.7818 39.2925 31.2068 40.0844 30.5618C24.2626 38.2733 11.5424 32.8396 11.5424 32.8396L39.0244 15.7368L8.07446 33.1069Z" fill="white"/>
<path d="M35.9098 17.4927L4.9729 34.9392V31.3634L35.9098 13.9933V17.4927Z" fill="#E0E0E0"/>
<path opacity="0.2" d="M8.07445 33.1068L8.08753 36.6826L4.9729 34.9393L8.07445 33.1068Z" fill="black"/>
<path d="M52.2548 9.98534C52.1195 9.58763 51.9532 9.20051 51.7575 8.82733C51.5873 8.51623 51.3995 8.21461 51.1948 7.92384C50.2562 6.59446 49.0713 5.4466 47.7006 4.53891V8.03837L44.586 6.28227V2.7828C35.9488 -1.18749 23.1893 -0.907532 15.128 3.62268C12.3874 4.95856 10.2422 7.22093 9.09501 9.98534C9.02958 10.1889 8.96415 10.3799 8.9118 10.5707C8.7669 11.1499 8.69223 11.7435 8.68933 12.3395V19.3385C8.71668 21.0117 9.27928 22.6351 10.299 23.9832C11.5869 25.6641 13.2344 27.0535 15.128 28.0553C23.7128 32.8782 37.637 32.8782 46.2219 28.0553C50.5143 25.6502 52.6605 22.4943 52.6605 19.3385V12.3395C52.6609 11.5383 52.5237 10.7427 52.2548 9.98534Z" fill="#F0F0F0"/>
<path d="M37.507 0.619224C29.8644 -0.793286 21.1356 0.211995 15.0634 3.62238C12.3228 4.95826 10.1777 7.22063 9.03044 9.98504C8.96501 10.1886 8.89957 10.3796 8.84723 10.5704C8.70232 11.1496 8.62766 11.7432 8.62476 12.3392V19.3382C8.65211 21.0114 9.21471 22.6348 10.2344 23.9829C11.5223 25.6638 13.1698 27.0532 15.0634 28.055C21.1356 31.4654 29.8644 32.458 37.507 31.0455V0.619224Z" fill="#EBEBEB"/>
<path d="M15.0626 3.62273C7.00126 8.14022 6.50396 15.3046 13.5838 20.1656L44.5207 2.80833C35.8835 -1.18742 23.124 -0.907482 15.0626 3.62273Z" fill="#FAFAFA"/>
<path d="M13.5838 18.3328C13.5838 18.3328 5.03817 11.9701 14.5391 3.92774C6.98808 8.47068 6.68709 15.3805 13.5838 20.1525L44.5206 2.79517L13.5838 18.3328Z" fill="white"/>
<path d="M47.6353 4.5387L16.6985 21.9087C25.3357 25.879 38.0952 25.5991 46.1565 21.0689C54.2179 16.5387 54.7021 9.38704 47.6353 4.5387Z" fill="#FAFAFA"/>
<path d="M16.6985 21.9087C25.3357 25.879 38.0952 25.5991 46.1565 21.0689C47.0525 20.5738 47.902 20.0032 48.6954 19.3637C32.8867 27.0625 20.1534 21.6288 20.1534 21.6288L47.6353 4.5387L16.6985 21.9087Z" fill="white"/>
<path d="M44.5207 6.28189L13.5839 23.741V20.1525L44.5207 2.79517V6.28189Z" fill="#E0E0E0"/>
<path opacity="0.2" d="M16.6985 21.9087V25.4845L13.5839 23.7411L16.6985 21.9087Z" fill="black"/>
</svg>
