<svg width="324" height="324" viewBox="0 0 324 324" fill="none" xmlns="http://www.w3.org/2000/svg">
<path d="M162.188 306.18C247.492 306.18 316.645 270.501 316.645 226.489C316.645 182.477 247.492 146.798 162.188 146.798C76.8833 146.798 7.73047 182.477 7.73047 226.489C7.73047 270.501 76.8833 306.18 162.188 306.18Z" fill="#DEDDDD"/>
<path d="M42.1198 250.938L17.7939 236.935C16.9385 236.436 16.9385 235.639 17.7939 235.133L174.312 144.802C174.795 144.556 175.329 144.428 175.87 144.428C176.412 144.428 176.946 144.556 177.429 144.802L201.755 158.805C202.616 159.298 202.616 160.101 201.755 160.6L45.2367 250.938C44.7539 251.184 44.2199 251.312 43.6782 251.312C43.1365 251.312 42.6025 251.184 42.1198 250.938Z" fill="#E0E0E0"/>
<path d="M248.158 274.37C270.21 274.37 288.088 264.047 288.088 251.314C288.088 238.58 270.21 228.258 248.158 228.258C226.105 228.258 208.228 238.58 208.228 251.314C208.228 264.047 226.105 274.37 248.158 274.37Z" fill="#E0E0E0"/>
<path d="M81.3888 269.205L73.1657 264.462C70.5737 262.965 70.5737 260.542 73.1657 259.045L184.362 195.048C185.817 194.309 187.426 193.924 189.057 193.924C190.689 193.924 192.297 194.309 193.752 195.048L201.969 199.792C204.561 201.288 204.561 203.718 201.969 205.209L90.7718 269.205C89.318 269.943 87.7106 270.327 86.0803 270.327C84.45 270.327 82.8427 269.943 81.3888 269.205Z" fill="#E0E0E0"/>
<path d="M38.8346 215.784C38.8346 215.784 39.7742 205.196 36.2814 196.111C32.7887 187.026 26.7494 180.559 20.2758 178.68C13.8023 176.8 7.24456 181.783 13.433 187.402C19.6214 193.02 31.2724 199.85 33.845 216.626L38.8346 215.784Z" fill="black"/>
<path opacity="0.15" d="M38.8346 215.784C38.8346 215.784 39.7742 205.196 36.2814 196.111C32.7887 187.026 26.7494 180.559 20.2758 178.68C13.8023 176.8 7.24456 181.783 13.433 187.402C19.6214 193.02 31.2724 199.85 33.845 216.626L38.8346 215.784Z" fill="black"/>
<path d="M37.4544 212.687H37.5257C37.619 212.668 37.7011 212.613 37.7544 212.534C37.8078 212.456 37.828 212.359 37.8108 212.265C34.344 193.681 22.6088 183.799 16.848 181.168C16.7602 181.13 16.6611 181.128 16.5717 181.162C16.4822 181.196 16.4094 181.263 16.3685 181.349C16.3491 181.392 16.3384 181.439 16.3371 181.486C16.3357 181.533 16.3437 181.58 16.3606 181.624C16.3774 181.668 16.4029 181.708 16.4354 181.742C16.4679 181.776 16.5068 181.803 16.55 181.822C22.1681 184.414 33.696 194.134 37.0916 212.389C37.1057 212.474 37.1502 212.551 37.217 212.606C37.2837 212.661 37.3681 212.689 37.4544 212.687Z" fill="white"/>
<path d="M39.3919 233.001C39.3919 232.47 39.3919 231.945 39.3919 231.414C39.4058 229.925 39.6105 228.444 40.001 227.007C40.4092 225.601 41.3618 224.48 41.6988 223.08C41.944 221.495 41.5501 219.878 40.6036 218.583C39.7288 217.352 38.4458 216.361 37.9728 214.922C37.3766 213.114 38.5041 211.293 38.0181 209.628C37.5321 207.963 35.6853 206.932 34.1755 206.524C32.1602 205.973 30.0088 206.116 27.9741 205.636C25.3368 205.021 23.0623 203.42 20.6776 202.15C18.293 200.88 15.4936 199.901 12.9016 200.673C12.0567 200.921 11.2736 201.344 10.6035 201.915C9.93338 202.487 9.39133 203.193 9.01277 203.988C8.6342 204.783 8.42764 205.649 8.40658 206.529C8.38551 207.409 8.55042 208.284 8.89052 209.097C9.46724 210.503 10.5364 211.643 11.314 212.946C12.0916 214.248 12.5193 215.745 11.9296 217.164C11.489 218.22 10.7049 219.024 10.342 220.119C9.4154 222.931 9.9338 225.459 12.7396 226.897C14.8132 227.96 17.1979 227.655 19.2715 228.595C20.7748 229.275 22.0449 230.675 21.9283 232.392C21.87 233.286 21.6172 234.148 21.533 235.036C20.9757 240.868 24.8119 244.549 29.7691 245.268C32.3649 245.555 34.9908 245.171 37.396 244.153C39.8973 242.935 39.3919 240.985 39.4696 238.522C39.528 236.675 39.4243 234.842 39.3919 233.001Z" fill="black"/>
<path d="M17.9691 220.638C18.0348 220.656 18.1044 220.656 18.17 220.638C20.6351 219.683 23.2809 219.287 25.9173 219.478C28.5537 219.668 31.1152 220.441 33.4175 221.739C33.4966 221.78 33.5887 221.788 33.6737 221.761C33.7587 221.735 33.8297 221.675 33.8711 221.597C33.9129 221.517 33.9221 221.425 33.8967 221.339C33.8713 221.253 33.8132 221.18 33.735 221.136C31.3378 219.793 28.6729 218.996 25.9315 218.803C23.1901 218.61 20.44 219.027 17.8784 220.022C17.7973 220.061 17.7349 220.131 17.7046 220.216C17.6743 220.3 17.6785 220.394 17.7164 220.476C17.7442 220.519 17.7812 220.556 17.8249 220.584C17.8685 220.612 17.9178 220.631 17.9691 220.638Z" fill="white"/>
<path d="M39.865 238.555C39.7824 238.555 39.7028 238.524 39.6425 238.467C39.5823 238.41 39.546 238.333 39.541 238.25C38.9643 224.079 24.7342 209.09 15.1957 205.001C15.1569 204.986 15.1217 204.963 15.092 204.933C15.0624 204.904 15.0391 204.869 15.0234 204.83C15.0076 204.791 14.9999 204.75 15.0005 204.708C15.0012 204.666 15.0102 204.625 15.0272 204.587C15.06 204.509 15.1221 204.448 15.1998 204.417C15.2775 204.385 15.3645 204.386 15.4419 204.418C25.1619 208.578 39.5864 223.813 40.1761 238.224C40.1778 238.266 40.1713 238.308 40.1569 238.347C40.1426 238.386 40.1206 238.422 40.0923 238.453C40.064 238.483 40.03 238.508 39.9921 238.526C39.9542 238.543 39.9132 238.553 39.8715 238.555H39.865Z" fill="white"/>
<path d="M47.1035 236.403L189.035 154.464V34.1238L47.1035 116.07V236.403Z" fill="black"/>
<path d="M41.3169 112.732L47.1035 116.07L189.035 34.1235L194.822 24.1055L41.3169 112.732Z" fill="#37474F"/>
<path d="M194.821 157.801V24.0796L189.035 34.1236V154.464L194.821 157.801Z" fill="#37474F"/>
<path d="M41.3169 112.733L47.1035 116.07V236.403L41.3169 246.428V112.733Z" fill="#37474F"/>
<path d="M47.1035 236.403L189.035 154.464L194.822 157.801L41.3169 246.428L47.1035 236.403Z" fill="#37474F"/>
<g opacity="0.5">
<path d="M41.3169 112.732L47.1035 116.07L189.035 34.1235L194.822 24.1055L41.3169 112.732Z" fill="#455A64"/>
</g>
<g opacity="0.5">
<path d="M47.1035 236.403L189.035 154.464L194.822 157.801L41.3169 246.428L47.1035 236.403Z" fill="#455A64"/>
</g>
<path d="M194.821 24.1056L190.959 21.8765L37.4546 110.503L41.3167 112.733L194.821 24.1056Z" fill="#455A64"/>
<path d="M37.4546 110.503L41.3167 112.733V246.428L37.4546 244.205V110.503Z" fill="#263238"/>
<g style="mix-blend-mode:multiply" opacity="0.1">
<path d="M189.035 34.1238L187.104 35.2383V153.349L47.1035 234.181V236.403L189.035 154.464V34.1238Z" fill="black"/>
</g>
<path opacity="0.2" d="M116.426 82.296V182.561C116.426 183.902 117.366 184.447 118.526 183.773L177.299 149.831C177.91 149.432 178.418 148.895 178.782 148.263C179.147 147.632 179.358 146.923 179.399 146.195V45.9043L116.426 82.296ZM124.287 86.0673C123.399 86.5793 122.679 86.1645 122.679 85.1407C122.709 84.5824 122.869 84.039 123.149 83.5547C123.428 83.0704 123.818 82.6591 124.287 82.3543C125.174 81.8424 125.894 82.2571 125.894 83.2809C125.859 83.8345 125.696 84.3724 125.417 84.8517C125.138 85.331 124.751 85.7384 124.287 86.0414V86.0673ZM132.063 81.5313C131.175 82.0433 130.455 81.6285 130.455 80.6047C130.486 80.0467 130.647 79.5036 130.926 79.0195C131.205 78.5354 131.595 78.1239 132.063 77.8183C132.95 77.3064 133.67 77.7211 133.67 78.7449C133.644 79.3003 133.488 79.8419 133.215 80.326C132.941 80.81 132.558 81.2229 132.095 81.5313H132.063ZM139.871 76.9953C138.983 77.5073 138.264 77.0925 138.264 76.0687C138.294 75.5107 138.455 74.9676 138.734 74.4835C139.014 73.9994 139.403 73.5879 139.871 73.2823C140.759 72.7704 141.478 73.1851 141.478 74.2089C141.456 74.7688 141.302 75.3156 141.029 75.8044C140.755 76.2933 140.369 76.7103 139.903 77.0213L139.871 76.9953ZM147.686 72.4593C146.798 72.9777 146.079 72.5565 146.079 71.5327C146.11 70.9749 146.272 70.4322 146.551 69.9483C146.83 69.4643 147.219 69.0526 147.686 68.7463C148.574 68.2344 149.293 68.6491 149.293 69.6794C149.277 70.2403 149.129 70.7895 148.859 71.2818C148.59 71.7741 148.208 72.1954 147.744 72.5112L147.686 72.4593ZM155.462 67.9233C154.574 68.4353 153.855 68.0205 153.855 66.9902C153.904 66.4425 154.08 65.9138 154.369 65.4459C154.658 64.9781 155.052 64.5839 155.52 64.2945C156.408 63.7761 157.127 64.1909 157.127 65.2212C157.102 65.7848 156.943 66.3343 156.664 66.8245C156.384 67.3146 155.992 67.7312 155.52 68.04L155.462 67.9233ZM163.27 63.3873C162.382 63.8993 161.663 63.4845 161.663 62.4607C161.692 61.9024 161.853 61.359 162.132 60.8747C162.412 60.3905 162.802 59.9791 163.27 59.6743C164.158 59.1624 164.877 59.5771 164.877 60.6009C164.873 61.1732 164.73 61.7359 164.462 62.2413C164.193 62.7467 163.807 63.1798 163.335 63.504L163.27 63.3873ZM171.079 58.8513C170.191 59.3633 169.472 58.9485 169.472 57.9247C169.502 57.3667 169.663 56.8236 169.942 56.3395C170.221 55.8554 170.611 55.4439 171.079 55.1383C171.966 54.6264 172.686 55.0411 172.686 56.0649C172.681 56.6372 172.538 57.1999 172.27 57.7053C172.001 58.2107 171.615 58.6438 171.143 58.968L171.079 58.8513Z" fill="black"/>
<path d="M118.798 83.6244V183.915C118.798 185.25 119.737 185.795 120.897 185.127L179.671 151.178C180.282 150.781 180.791 150.244 181.156 149.612C181.521 148.981 181.731 148.272 181.77 147.543V47.2522L118.798 83.6244ZM126.658 87.3893C125.77 87.9012 125.051 87.4865 125.051 86.4627C125.082 85.9049 125.244 85.3622 125.523 84.8783C125.802 84.3943 126.191 83.9826 126.658 83.6763C127.546 83.1644 128.265 83.5791 128.265 84.6094C128.235 85.1666 128.074 85.7087 127.794 86.1918C127.515 86.6748 127.126 87.0851 126.658 87.3893ZM134.434 82.8533C133.546 83.3652 132.827 82.9505 132.827 81.9202C132.857 81.363 133.018 80.8209 133.298 80.3378C133.577 79.8548 133.966 79.4445 134.434 79.1403C135.322 78.6219 136.041 79.0366 136.041 80.0669C136.019 80.6274 135.864 81.1747 135.591 81.6645C135.317 82.1542 134.932 82.5726 134.466 82.8857L134.434 82.8533ZM142.242 78.3173C141.355 78.8292 140.635 78.4145 140.635 77.3907C140.665 76.8324 140.825 76.289 141.105 75.8047C141.384 75.3204 141.774 74.9091 142.242 74.6043C143.13 74.0859 143.85 74.5071 143.85 75.5309C143.837 76.1016 143.688 76.661 143.414 77.1618C143.139 77.6625 142.749 78.09 142.275 78.408L142.242 78.3173ZM150.057 73.7813C149.17 74.2932 148.45 73.8785 148.45 72.8547C148.481 72.2966 148.642 71.7536 148.921 71.2695C149.2 70.7854 149.589 70.3739 150.057 70.0683C150.945 69.5564 151.664 69.9711 151.664 70.9949C151.652 71.5656 151.503 72.125 151.228 72.6258C150.954 73.1265 150.564 73.554 150.09 73.872L150.057 73.7813ZM157.833 69.2453C156.946 69.7572 156.226 69.3425 156.226 68.3187C156.257 67.7606 156.418 67.2176 156.697 66.7335C156.976 66.2494 157.365 65.8379 157.833 65.5323C158.721 65.0204 159.44 65.4351 159.44 66.4589C159.433 67.027 159.289 67.5849 159.02 68.0856C158.752 68.5863 158.367 69.0152 157.898 69.336L157.833 69.2453ZM165.642 64.7093C164.754 65.2212 164.035 64.8065 164.035 63.7827C164.065 63.2246 164.226 62.6816 164.505 62.1975C164.785 61.7134 165.174 61.3019 165.642 60.9963C166.53 60.4844 167.249 60.8991 167.249 61.9229C167.248 62.4987 167.108 63.0657 166.839 63.5749C166.57 64.0841 166.182 64.5202 165.707 64.8454L165.642 64.7093ZM173.418 60.1733C172.53 60.6917 171.811 60.2705 171.811 59.2467C171.842 58.6889 172.004 58.1462 172.283 57.6623C172.562 57.1783 172.951 56.7666 173.418 56.4603C174.306 55.9484 175.025 56.3631 175.025 57.3934C175.031 57.9696 174.897 58.5386 174.634 59.0512C174.371 59.5638 173.987 60.0046 173.515 60.3353L173.418 60.1733Z" fill="#FAFAFA"/>
<g opacity="0.24">
<path d="M125.861 102.242C125.634 102.239 125.412 102.182 125.213 102.073C124.962 101.9 124.763 101.664 124.634 101.388C124.505 101.113 124.452 100.808 124.481 100.505V96.2605C124.522 95.4909 124.744 94.742 125.13 94.0744C125.515 93.4067 126.051 92.8392 126.697 92.4178L175.089 64.4631C175.328 64.2659 175.62 64.1462 175.929 64.1201C176.237 64.0941 176.546 64.1629 176.814 64.3173C177.082 64.4717 177.296 64.7044 177.428 64.9841C177.56 65.2639 177.603 65.5772 177.552 65.8822V70.1266C177.51 70.8962 177.288 71.6452 176.903 72.3128C176.518 72.9804 175.981 73.5479 175.336 73.9693L126.943 101.924C126.617 102.124 126.243 102.234 125.861 102.242ZM176.133 64.6575C175.843 64.6693 175.562 64.7564 175.316 64.9102L126.924 92.865C126.347 93.2401 125.868 93.7461 125.524 94.3419C125.181 94.9376 124.983 95.6062 124.947 96.2929V100.537C124.896 100.755 124.917 100.984 125.006 101.19C125.095 101.395 125.248 101.567 125.442 101.679C125.636 101.79 125.861 101.837 126.083 101.811C126.306 101.785 126.514 101.689 126.677 101.535L175.07 73.5805C175.646 73.206 176.124 72.701 176.468 72.1064C176.811 71.5119 177.01 70.8447 177.046 70.159V65.9146C177.073 65.697 177.041 65.4763 176.954 65.2749C176.868 65.0735 176.73 64.8985 176.554 64.7677C176.429 64.683 176.283 64.6338 176.133 64.6251V64.6575Z" fill="black"/>
<path d="M177.061 67.8714L124.579 98.1843L124.822 98.6052L177.304 68.2923L177.061 67.8714Z" fill="black"/>
<path d="M125.861 174.96C125.633 174.96 125.41 174.899 125.213 174.785C124.962 174.614 124.761 174.377 124.632 174.101C124.503 173.826 124.451 173.52 124.481 173.217V109.895C124.523 109.124 124.745 108.375 125.13 107.706C125.515 107.037 126.052 106.469 126.697 106.045L175.09 78.0972C175.328 77.8999 175.621 77.7802 175.929 77.7542C176.237 77.7281 176.546 77.7969 176.814 77.9513C177.082 78.1058 177.296 78.3385 177.428 78.6182C177.56 78.8979 177.603 79.2113 177.552 79.5163V142.839C177.51 143.608 177.288 144.357 176.903 145.025C176.518 145.693 175.981 146.26 175.336 146.681L126.924 174.636C126.603 174.833 126.237 174.944 125.861 174.96ZM176.133 78.2656C175.843 78.2774 175.562 78.3645 175.316 78.5184L126.924 106.467C126.347 106.842 125.868 107.348 125.524 107.944C125.181 108.539 124.983 109.208 124.947 109.895V173.211C124.925 173.429 124.959 173.649 125.045 173.851C125.131 174.053 125.267 174.229 125.44 174.364C125.641 174.45 125.861 174.481 126.079 174.455C126.296 174.429 126.502 174.346 126.678 174.215L175.07 146.26C175.646 145.886 176.125 145.381 176.468 144.786C176.812 144.192 177.01 143.524 177.047 142.839V79.5163C177.073 79.2987 177.041 79.078 176.955 78.8766C176.868 78.6752 176.73 78.5002 176.554 78.3693C176.426 78.296 176.281 78.258 176.133 78.2592V78.2656Z" fill="black"/>
<path d="M177.168 81.4444L124.579 111.819L124.822 112.24L177.411 81.8652L177.168 81.4444Z" fill="black"/>
<path d="M177.171 85.9871L124.583 116.362L124.826 116.782L177.415 86.408L177.171 85.9871Z" fill="black"/>
<path d="M177.168 90.5298L124.58 120.904L124.823 121.325L177.412 90.9507L177.168 90.5298Z" fill="black"/>
<path d="M177.169 95.0779L124.581 125.452L124.824 125.873L177.413 95.4988L177.169 95.0779Z" fill="black"/>
<path d="M177.167 99.6207L124.578 129.995L124.821 130.416L177.41 100.042L177.167 99.6207Z" fill="black"/>
<path d="M177.171 104.163L124.582 134.538L124.825 134.958L177.414 104.584L177.171 104.163Z" fill="black"/>
<path d="M177.168 108.706L124.579 139.08L124.822 139.501L177.411 109.127L177.168 108.706Z" fill="black"/>
<path d="M177.169 113.254L124.58 143.628L124.823 144.049L177.412 113.675L177.169 113.254Z" fill="black"/>
<path d="M177.166 117.797L124.577 148.171L124.82 148.592L177.409 118.218L177.166 117.797Z" fill="black"/>
<path d="M177.164 122.339L124.575 152.714L124.818 153.135L177.407 122.76L177.164 122.339Z" fill="black"/>
<path d="M177.171 126.888L124.582 157.262L124.825 157.683L177.414 127.308L177.171 126.888Z" fill="black"/>
<path d="M177.168 131.43L124.58 161.805L124.823 162.226L177.412 131.851L177.168 131.43Z" fill="black"/>
<path d="M177.166 135.973L124.577 166.347L124.82 166.768L177.409 136.394L177.166 135.973Z" fill="black"/>
<path d="M177.163 140.515L124.574 170.89L124.817 171.311L177.406 140.936L177.163 140.515Z" fill="black"/>
</g>
<path opacity="0.2" d="M54.0693 118.26L109.817 86.0737V133.89L54.0693 166.076V118.26Z" fill="black"/>
<path d="M57.9053 120.469L113.653 88.2898V136.106L57.9053 168.292V120.469Z" fill="#F5F5F5"/>
<path d="M56.3115 119.556V167.372L57.9056 168.292V120.47L56.3115 119.556Z" fill="#E0E0E0"/>
<path d="M113.653 88.2898L112.059 87.3696L56.3115 119.556L57.9056 120.469L113.653 88.2898Z" fill="black"/>
<g opacity="0.8">
<path d="M113.653 88.2898L112.059 87.3696L56.3115 119.556L57.9056 120.469L113.653 88.2898Z" fill="white"/>
</g>
<path d="M56.3115 119.556L57.9056 120.47V129.665L56.3115 128.751V119.556Z" fill="black"/>
<g opacity="0.5">
<path d="M56.3115 119.556L57.9056 120.47V129.665L56.3115 128.751V119.556Z" fill="white"/>
</g>
<path d="M57.9053 129.665L113.653 97.4849V88.2898L57.9053 120.469V129.665Z" fill="black"/>
<g opacity="0.65">
<path d="M57.9053 129.665L113.653 97.4849V88.2898L57.9053 120.469V129.665Z" fill="white"/>
</g>
<path d="M61.6899 132.633C61.6899 133.145 62.0658 133.332 62.5388 133.067L66.7184 130.65C66.9605 130.499 67.1636 130.293 67.3111 130.048C67.4586 129.804 67.5464 129.528 67.5673 129.244C67.5673 128.738 67.185 128.544 66.7184 128.816L62.5388 131.226C62.2974 131.378 62.0949 131.585 61.9475 131.829C61.8001 132.073 61.7119 132.348 61.6899 132.633Z" fill="#455A64"/>
<path d="M68.7402 128.563C68.7402 129.075 69.1161 129.263 69.5891 128.991L73.7687 126.58C74.0101 126.428 74.2126 126.222 74.36 125.978C74.5074 125.734 74.5957 125.458 74.6176 125.174C74.6176 124.662 74.2353 124.474 73.7687 124.74L69.5891 127.157C69.347 127.308 69.1439 127.514 68.9964 127.758C68.8489 128.003 68.7612 128.278 68.7402 128.563Z" fill="#455A64"/>
<path d="M75.8164 124.494C75.8164 124.999 76.1987 125.193 76.6653 124.921L80.8449 122.511C81.0871 122.358 81.2902 122.151 81.4376 121.905C81.5851 121.66 81.6728 121.384 81.6938 121.098C81.6938 120.593 81.3114 120.398 80.8449 120.67L76.6653 123.081C76.4237 123.234 76.2212 123.442 76.0739 123.687C75.9265 123.932 75.8384 124.208 75.8164 124.494Z" fill="#455A64"/>
<path d="M82.8403 120.424C82.8403 120.93 83.2227 121.124 83.6892 120.852L87.8688 118.441C88.1111 118.289 88.3141 118.082 88.4616 117.836C88.609 117.591 88.6967 117.314 88.7177 117.029C88.7177 116.523 88.3354 116.329 87.8688 116.601L83.6892 119.012C83.447 119.164 83.2439 119.371 83.0965 119.617C82.949 119.862 82.8613 120.139 82.8403 120.424Z" fill="#455A64"/>
<path d="M89.8906 116.348C89.8906 116.86 90.2729 117.048 90.7395 116.783L94.9191 114.366C95.1619 114.215 95.3655 114.009 95.5131 113.765C95.6607 113.52 95.7481 113.244 95.768 112.959C95.768 112.454 95.3921 112.26 94.9191 112.532L90.7201 114.942C90.4823 115.096 90.2835 115.304 90.1396 115.548C89.9956 115.792 89.9104 116.066 89.8906 116.348Z" fill="#455A64"/>
<path d="M96.9409 112.279C96.9409 112.791 97.3232 112.979 97.7898 112.707L101.969 110.296C102.212 110.145 102.415 109.939 102.563 109.695C102.71 109.45 102.798 109.175 102.818 108.89C102.818 108.378 102.442 108.19 101.969 108.456L97.7898 110.873C97.5477 111.024 97.3446 111.23 97.1971 111.474C97.0496 111.719 96.9618 111.994 96.9409 112.279Z" fill="#455A64"/>
<path d="M103.991 108.216C103.991 108.721 104.374 108.916 104.84 108.644L109.02 106.233C109.263 106.082 109.467 105.875 109.614 105.629C109.762 105.384 109.849 105.106 109.869 104.82C109.869 104.315 109.493 104.121 109.02 104.393L104.84 106.803C104.599 106.957 104.396 107.164 104.249 107.409C104.101 107.655 104.013 107.931 103.991 108.216Z" fill="#455A64"/>
<path d="M62.0527 137.467L67.1849 134.518V139.139L62.0527 142.165V137.467Z" fill="black"/>
<path d="M62.0527 143.96L67.1849 141.005V145.631L62.0527 148.658V143.96Z" fill="black"/>
<path d="M62.0527 150.452L67.1849 147.498V152.118L62.0527 155.144V150.452Z" fill="black"/>
<path d="M62.0527 156.939L67.1849 153.991V158.611L62.0527 161.637V156.939Z" fill="black"/>
<path d="M69.1094 133.391L74.2415 130.442V135.063L69.1094 138.089V133.391Z" fill="#E0E0E0"/>
<path d="M69.1094 139.884L74.2415 136.935V141.556L69.1094 144.582V139.884Z" fill="#E0E0E0"/>
<path d="M69.1094 146.377L74.2415 143.428V148.048L69.1094 151.075V146.377Z" fill="#E0E0E0"/>
<path d="M69.1094 152.87L74.2415 149.915V154.542L69.1094 157.568V152.87Z" fill="#E0E0E0"/>
<path d="M76.166 129.321L81.2917 126.366V130.993L76.166 134.013V129.321Z" fill="#E0E0E0"/>
<path d="M76.166 135.814L81.2917 132.859V137.48L76.166 140.506V135.814Z" fill="#E0E0E0"/>
<path d="M76.166 142.301L81.2917 139.352V143.973L76.166 146.999V142.301Z" fill="#E0E0E0"/>
<path d="M76.166 148.794L81.2917 145.845V150.465L76.166 153.492V148.794Z" fill="#E0E0E0"/>
<path d="M83.2227 125.245L88.3483 122.297V126.917L83.2227 129.943V125.245Z" fill="#E0E0E0"/>
<path d="M83.2227 131.738L88.3483 128.79V133.41L83.2227 136.436V131.738Z" fill="#E0E0E0"/>
<path d="M83.2227 138.231L88.3483 135.276V139.897L83.2227 142.923V138.231Z" fill="#E0E0E0"/>
<path d="M83.2227 144.724L88.3483 141.769V146.39L83.2227 149.416V144.724Z" fill="#E0E0E0"/>
<path d="M90.2798 121.169L95.4055 118.221V122.841L90.2798 125.867V121.169Z" fill="#E0E0E0"/>
<path d="M90.2798 127.662L95.4055 124.714V129.334L90.2798 132.36V127.662Z" fill="#E0E0E0"/>
<path d="M90.2798 134.155L95.4055 131.207V135.827L90.2798 138.853V134.155Z" fill="#E0E0E0"/>
<path d="M90.2798 140.648L95.4055 137.693V142.32L90.2798 145.34V140.648Z" fill="#E0E0E0"/>
<path d="M97.3364 117.1L102.462 114.145V118.765L97.3364 121.798V117.1Z" fill="#E0E0E0"/>
<path d="M97.3364 123.593L102.462 120.638V125.258L97.3364 128.284V123.593Z" fill="#E0E0E0"/>
<path d="M97.3364 130.08L102.462 127.131V131.751L97.3364 134.778V130.08Z" fill="#E0E0E0"/>
<path d="M97.3364 136.572L102.462 133.624V138.244L97.3364 141.27V136.572Z" fill="#E0E0E0"/>
<path d="M104.387 113.024L109.519 110.076V114.696L104.387 117.722V113.024Z" fill="#E0E0E0"/>
<path d="M104.387 119.517L109.519 116.562V121.189L104.387 124.215V119.517Z" fill="#E0E0E0"/>
<path d="M104.387 126.01L109.519 123.055V127.675L104.387 130.702V126.01Z" fill="#E0E0E0"/>
<path d="M104.387 132.496L109.519 129.548V134.168L104.387 137.194V132.496Z" fill="#E0E0E0"/>
<path d="M85.2574 111.022L85.199 111.074C85.155 111.122 85.1023 111.162 85.0435 111.19C84.9334 111.268 84.875 111.19 84.7714 111.126L83.9225 110.627C83.5726 110.426 83.1643 110.186 82.7302 109.92C82.296 109.655 81.8294 109.376 81.3758 109.084C81.2398 108.994 81.4925 108.547 81.6415 108.624C82.121 108.871 82.5941 109.136 83.0412 109.382C83.4883 109.629 83.8966 109.855 84.253 110.03L85.1083 110.516C85.2055 110.581 85.3092 110.588 85.3027 110.724C85.315 110.786 85.315 110.85 85.3027 110.912L85.2574 111.022Z" fill="#455A64"/>
<path d="M86.1323 111.631C85.4843 112.765 84.4086 113.381 83.2811 112.772L83.2163 112.739C83.0512 112.613 82.921 112.447 82.8382 112.256C82.7554 112.066 82.7227 111.857 82.7433 111.65C82.7762 111.058 82.9475 110.482 83.2435 109.967C83.5395 109.453 83.9518 109.015 84.4475 108.689C84.6141 108.577 84.8044 108.505 85.0034 108.48C85.2025 108.454 85.4048 108.474 85.5945 108.54L85.6593 108.572C85.6942 108.593 85.7268 108.616 85.7565 108.644C86.7868 109.298 86.7803 110.51 86.1323 111.631Z" fill="#37474F"/>
<path d="M87.4801 113.873L88.7761 111.715C87.8107 111.219 86.9134 110.601 86.1063 109.875L86.061 109.823L86.0156 109.784C85.8884 109.704 85.7398 109.664 85.5894 109.67C85.439 109.676 85.294 109.727 85.1732 109.817C84.8485 110.031 84.5789 110.318 84.3863 110.656C84.1937 110.994 84.0837 111.372 84.0651 111.761C84.0501 111.899 84.0722 112.038 84.1292 112.165C84.1861 112.291 84.2759 112.4 84.3891 112.48C84.4544 112.518 84.5276 112.54 84.603 112.545C85.6169 112.858 86.5844 113.304 87.4801 113.873Z" fill="#455A64"/>
<path d="M89.858 112.104C89.858 111.75 89.7173 111.411 89.467 111.16C89.2166 110.91 88.8771 110.769 88.5231 110.769C88.3611 110.77 88.2007 110.8 88.05 110.86H87.9982C87.9256 110.884 87.856 110.917 87.7908 110.957C87.396 111.212 87.0674 111.557 86.8319 111.964C86.5965 112.37 86.4609 112.827 86.4365 113.296C86.4387 113.41 86.4518 113.523 86.4754 113.633C86.5396 113.956 86.7207 114.244 86.984 114.441C87.2473 114.639 87.5742 114.732 87.902 114.703C88.2297 114.674 88.5353 114.525 88.7599 114.284C88.9846 114.044 89.1126 113.729 89.1192 113.4C89.1224 113.359 89.1224 113.318 89.1192 113.277C89.338 113.168 89.5225 113.001 89.6528 112.794C89.783 112.587 89.854 112.349 89.858 112.104Z" fill="#37474F"/>
<path d="M88.5231 111.456C89.2683 111.028 89.871 111.378 89.871 112.24C89.8458 112.708 89.7105 113.163 89.4763 113.568C89.2421 113.973 88.9155 114.318 88.5231 114.573C87.7779 115.007 87.1753 114.657 87.1753 113.795C87.2005 113.327 87.3357 112.871 87.5699 112.465C87.804 112.058 88.1306 111.713 88.5231 111.456Z" fill="#455A64"/>
<path opacity="0.2" d="M66.8608 169.944V211.851L101.581 191.808V149.895L66.8608 169.944Z" fill="black"/>
<path d="M105.572 193.875C105.572 193.875 85.076 205.351 82.4969 206.783C79.9179 208.215 78.2396 204.068 78.2201 201.554C75.6281 203.2 70.3664 204.23 70.1007 200.945L68.2539 177.072L102.974 157.023L105.572 193.875Z" fill="#455A64"/>
<path d="M102.974 157.023L68.2539 177.066V170.638L102.974 150.589V157.023Z" fill="#37474F"/>
<path d="M71.1895 202.701L80.6956 206.893L77.7343 199.15L71.1895 202.701Z" fill="#37474F"/>
<path d="M202.293 195.56C202.171 193.293 201.517 191.087 200.382 189.121C199.247 187.155 197.663 185.484 195.761 184.246C193.979 183.215 192.365 183.112 191.186 183.766H191.147L107.568 231.861L116.847 247.834L200.355 199.785C201.567 199.098 202.293 197.64 202.293 195.56Z" fill="black"/>
<path opacity="0.7" d="M202.293 195.56C202.171 193.293 201.517 191.087 200.382 189.121C199.247 187.155 197.663 185.484 195.761 184.246C193.979 183.215 192.365 183.112 191.186 183.766H191.147L107.568 231.861L116.847 247.834L200.355 199.785C201.567 199.098 202.293 197.64 202.293 195.56Z" fill="white"/>
<path d="M200.381 189.119C199.285 187.125 197.694 185.447 195.761 184.246C193.979 183.215 192.365 183.112 191.186 183.766H191.147L107.568 231.861L112.208 239.851L200.336 189.132L200.381 189.119Z" fill="black"/>
<path opacity="0.8" d="M200.381 189.119C199.285 187.125 197.694 185.447 195.761 184.246C193.979 183.215 192.365 183.112 191.186 183.766H191.147L107.568 231.861L112.208 239.851L200.336 189.132L200.381 189.119Z" fill="white"/>
<path opacity="0.3" d="M110.458 236.792L198.275 186.248C197.54 185.453 196.693 184.77 195.761 184.22C195.579 184.11 195.398 184.019 195.223 183.935L108.683 233.74L110.458 236.792Z" fill="white"/>
<path d="M112.227 232.308C114.133 233.55 115.718 235.224 116.855 237.195C117.991 239.165 118.646 241.376 118.765 243.648C118.765 247.815 115.837 249.48 112.227 247.419C110.327 246.178 108.746 244.507 107.611 242.542C106.476 240.576 105.82 238.371 105.695 236.105C105.695 231.913 108.624 230.228 112.227 232.308Z" fill="#E0E0E0"/>
<path d="M195.171 202.824C196.351 202.137 197.076 200.679 197.076 198.599C196.957 196.33 196.304 194.121 195.168 192.153C194.033 190.184 192.449 188.512 190.545 187.272C188.763 186.242 187.149 186.132 185.97 186.792L187.829 185.71C189.002 185.062 190.622 185.16 192.404 186.19C194.303 187.43 195.883 189.099 197.018 191.062C198.152 193.025 198.809 195.227 198.936 197.491C198.936 199.571 198.204 201.036 197.025 201.716L195.171 202.824Z" fill="black"/>
<path opacity="0.05" d="M116.873 247.834L200.381 199.785C201.56 199.098 202.286 197.64 202.286 195.56C202.282 194.788 202.193 194.018 202.021 193.266L114.541 243.81L116.873 247.834Z" fill="black"/>
<path d="M119.297 243.927C119.297 239.423 116.135 233.947 112.227 231.692C110.283 230.565 108.514 230.461 107.238 231.2L78.5571 247.756L88.6335 265.032L117.223 248.527C118.5 247.769 119.297 246.182 119.297 243.927Z" fill="#455A64"/>
<path opacity="0.15" d="M115.13 234.103L86.5013 250.627C85.6624 249.681 84.6807 248.872 83.5918 248.229L112.227 231.692C113.314 232.34 114.294 233.153 115.13 234.103Z" fill="white"/>
<path d="M119.297 243.927C119.297 246.188 118.506 247.769 117.217 248.508L88.6401 265.032C89.8973 264.293 90.6684 262.719 90.6684 260.496C90.6138 258.631 90.1725 256.797 89.3724 255.111L118.008 238.574C118.801 240.251 119.24 242.073 119.297 243.927Z" fill="#37474F"/>
<path d="M83.592 248.229C87.48 250.478 90.6617 255.96 90.6617 260.464C90.6617 264.967 87.48 266.795 83.592 264.54C79.704 262.284 76.5288 256.809 76.5288 252.305C76.5288 247.802 79.704 245.974 83.592 248.229Z" fill="#37474F"/>
<path d="M83.5918 264.539C87.4798 266.795 90.6615 264.967 90.6615 260.464C90.5771 258.002 89.8631 255.604 88.5879 253.498C89.8839 256.388 90.6615 261.17 88.9702 263.386C87.2789 265.602 85.134 264.928 83.5918 264.539Z" fill="#263238"/>
<path d="M83.5922 251.119C81.0844 249.681 79.0562 250.854 79.0562 253.757C79.1413 255.335 79.5962 256.871 80.3842 258.24C81.1721 259.61 82.271 260.776 83.5922 261.643C86.1064 263.094 88.1282 261.915 88.1282 259.012C88.0435 257.433 87.5888 255.896 86.8009 254.525C86.013 253.154 84.9138 251.987 83.5922 251.119ZM83.5922 260.062C82.664 259.457 81.8916 258.642 81.3377 257.683C80.7837 256.723 80.4638 255.647 80.404 254.541C80.404 252.513 81.8361 251.69 83.5922 252.707C84.5222 253.31 85.2964 254.125 85.8516 255.084C86.4068 256.044 86.7272 257.121 86.7868 258.228C86.7868 260.263 85.3612 261.079 83.5922 260.062Z" fill="#263238"/>
<path d="M95.9559 253.323L94.1934 254.346L95.9559 255.364L97.725 254.346L95.9559 253.323Z" fill="#455A64"/>
<path d="M122.174 243.039L120.405 242.022C120.151 241.902 119.871 241.852 119.592 241.877C119.312 241.902 119.045 242.001 118.817 242.164L95.9751 255.357V261.475L118.817 248.288C119.472 247.862 120.018 247.288 120.411 246.613C120.804 245.938 121.032 245.18 121.079 244.4V244.173L121.286 244.303L122.174 243.039Z" fill="#455A64"/>
<path d="M122.829 244.497V245.404C122.781 246.184 122.551 246.941 122.159 247.616C121.766 248.291 121.221 248.865 120.567 249.292L97.7251 262.505V256.381L120.567 243.194C121.824 242.482 122.829 243.065 122.829 244.497Z" fill="#37474F"/>
<path d="M94.1934 260.464V254.346L97.7185 256.388L97.725 262.505L94.1934 260.464Z" fill="#263238"/>
<path d="M261.887 180.695L258.903 180.551L256.868 176.616L260.845 170.405L266.179 169.2L269.16 169.338L261.887 180.695Z" fill="black"/>
<path opacity="0.1" d="M261.887 180.695L258.903 180.551L256.868 176.616L260.845 170.405L266.179 169.2L269.16 169.338L261.887 180.695Z" fill="black"/>
<path d="M259.849 176.755L263.831 170.54L269.16 169.338L261.887 180.695L259.849 176.755Z" fill="black"/>
<path opacity="0.1" d="M263.832 170.54L260.846 170.406L266.18 169.2L269.161 169.339L263.832 170.54Z" fill="black"/>
<path d="M241.344 189.604C243.036 186.962 245.811 185.728 248.902 183.998C251.993 182.268 253.683 179.603 256.33 175.46C256.563 175.165 256.871 174.937 257.223 174.8C257.574 174.664 257.955 174.625 258.327 174.686C259.366 174.789 260.366 175.136 261.245 175.699C262.124 176.262 262.858 177.025 263.386 177.926C263.592 178.24 263.71 178.602 263.73 178.977C263.749 179.351 263.668 179.724 263.496 180.058C260.828 184.225 259.113 186.911 258.839 190.375C258.565 193.839 258.598 196.939 256.906 199.581L241.344 189.604Z" fill="#263238"/>
<path d="M241.344 189.604L240.939 190.238L198.167 256.99L194.461 262.773L196.283 263.952L197.769 264.911L200.733 266.817L202.224 267.781L205.183 269.692L208.14 271.62L209.937 272.82L211.139 270.955L256.558 200.111C256.576 200.104 256.592 200.091 256.603 200.074L256.82 199.733C256.837 199.728 256.851 199.717 256.86 199.701C257.398 198.695 257.396 197.349 256.743 195.845C256.668 195.651 256.582 195.462 256.487 195.278C255.974 194.319 255.326 193.44 254.562 192.668C253.729 191.821 252.797 191.076 251.788 190.45C249.894 189.18 247.706 188.415 245.434 188.227C243.548 188.105 242.144 188.644 241.344 189.604Z" fill="#37474F"/>
<path d="M254.55 192.653C253.719 191.812 252.792 191.073 251.788 190.45L202.187 267.777L205.146 269.688L208.14 271.621L209.937 272.82L211.139 270.955L256.558 200.111C256.576 200.104 256.592 200.091 256.603 200.074L256.82 199.734C256.837 199.728 256.851 199.717 256.86 199.701C257.398 198.695 257.396 197.349 256.743 195.845C256.668 195.651 256.582 195.462 256.487 195.278C255.972 194.313 255.319 193.429 254.55 192.653Z" fill="#455A64"/>
<path opacity="0.2" d="M208.141 271.62L256.72 195.814C256.644 195.62 256.559 195.431 256.463 195.247C255.951 194.289 255.302 193.409 254.538 192.637L205.16 269.693L208.141 271.62Z" fill="white"/>
<path d="M209.734 268.143C208.583 266.187 206.988 264.529 205.077 263.305C203.166 262.081 200.994 261.325 198.736 261.098C194.572 260.904 192.752 263.749 194.685 267.434C195.836 269.389 197.432 271.045 199.343 272.269C201.254 273.493 203.425 274.25 205.683 274.479C209.827 274.688 211.63 271.823 209.734 268.143Z" fill="#E0E0E0"/>
<path d="M198.454 260.551C202.953 260.757 208.28 264.173 210.349 268.172C211.386 270.174 211.406 271.946 210.607 273.187L192.741 301.066L175.976 290.202L193.787 262.409C194.581 261.164 196.198 260.445 198.454 260.551Z" fill="black"/>
<path opacity="0.3" d="M208.078 265.166L190.245 293.002C191.153 293.881 191.915 294.899 192.504 296.017L210.357 268.174C209.756 267.06 208.987 266.046 208.078 265.166Z" fill="white"/>
<path opacity="0.1" d="M198.453 260.551C196.197 260.445 194.584 261.169 193.781 262.414L175.971 290.197C176.771 288.98 178.369 288.268 180.601 288.385C182.467 288.521 184.284 289.041 185.939 289.913L203.778 262.064C202.128 261.194 200.314 260.679 198.453 260.551Z" fill="black"/>
<path d="M192.51 296.013C190.437 292.009 185.115 288.598 180.612 288.386C176.109 288.175 174.139 291.257 176.208 295.255C178.277 299.254 183.604 302.671 188.107 302.882C192.61 303.093 194.575 300.016 192.51 296.013Z" fill="black"/>
<path opacity="0.15" d="M192.51 296.013C190.437 292.009 185.115 288.598 180.612 288.386C176.109 288.175 174.139 291.257 176.208 295.255C178.277 299.254 183.604 302.671 188.107 302.882C192.61 303.093 194.575 300.016 192.51 296.013Z" fill="black"/>
<path opacity="0.2" d="M189.76 299.139C190.29 298.33 190.281 297.182 189.622 295.866C188.819 294.503 187.706 293.349 186.374 292.496C185.042 291.643 183.528 291.115 181.955 290.956C180.529 290.889 179.489 291.334 178.966 292.121C178.443 292.908 178.436 294.078 179.101 295.39C179.903 296.755 181.016 297.912 182.348 298.767C183.681 299.622 185.196 300.152 186.771 300.313C188.202 300.376 189.242 299.922 189.76 299.139ZM188.137 298.083C187.895 298.391 187.576 298.631 187.213 298.777C186.849 298.924 186.453 298.973 186.065 298.919C184.962 298.807 183.9 298.437 182.967 297.838C182.033 297.24 181.253 296.43 180.691 295.474C180.436 295.157 180.287 294.768 180.266 294.361C180.244 293.955 180.35 293.552 180.57 293.209C180.789 292.867 181.11 292.601 181.488 292.451C181.867 292.301 182.282 292.273 182.677 292.371C183.779 292.485 184.838 292.856 185.77 293.454C186.702 294.052 187.48 294.861 188.042 295.815C188.259 296.15 188.382 296.537 188.399 296.936C188.416 297.335 188.325 297.731 188.137 298.083Z" fill="black"/>
<path d="M187.988 283.425L186.884 285.144L185.951 283.333L187.05 281.618L187.988 283.425Z" fill="black"/>
<path d="M199.459 257.729L200.396 259.545C200.503 259.804 200.539 260.087 200.501 260.365C200.462 260.642 200.351 260.905 200.179 261.126L185.956 283.329L179.838 283.044L194.066 260.846C194.525 260.208 195.127 259.688 195.824 259.326C196.522 258.965 197.294 258.772 198.08 258.764L198.308 258.78L198.188 258.569L199.459 257.729Z" fill="black"/>
<path d="M198.028 256.984L197.124 256.946C196.34 256.951 195.567 257.142 194.87 257.502C194.172 257.862 193.57 258.382 193.111 259.019L178.883 281.226L184.991 281.51L199.254 259.325C200.015 258.089 199.481 257.063 198.028 256.984Z" fill="black"/>
<path opacity="0.15" d="M198.028 256.984L197.124 256.946C196.34 256.951 195.567 257.142 194.87 257.502C194.172 257.862 193.57 258.382 193.111 259.019L178.883 281.226L184.991 281.51L199.254 259.325C200.015 258.089 199.481 257.063 198.028 256.984Z" fill="black"/>
<path d="M180.776 284.86L186.884 285.144L185.009 281.521L178.901 281.237L180.776 284.86Z" fill="black"/>
<path opacity="0.2" d="M180.776 284.86L186.884 285.144L185.009 281.521L178.901 281.237L180.776 284.86Z" fill="black"/>
</svg>
