<svg width="324" height="324" viewBox="0 0 324 324" fill="none" xmlns="http://www.w3.org/2000/svg">
<g clip-path="url(#clip0_871_8822)">
<path d="M161.857 323.628C251.275 323.628 323.762 282.712 323.762 232.24C323.762 181.767 251.275 140.851 161.857 140.851C72.4397 140.851 -0.0475464 181.767 -0.0475464 232.24C-0.0475464 282.712 72.4397 323.628 161.857 323.628Z" fill="#D4D5D7"/>
<path d="M41.2234 243.609L189.999 149.642V11.6373L41.2234 105.612V243.609Z" fill="#4B7FB0"/>
<path d="M35.1577 101.785L41.2234 105.612L189.998 11.6372L196.064 0.148621L35.1577 101.785Z" fill="#37474F"/>
<path d="M196.064 153.469V0.118896L189.998 11.6372V149.642L196.064 153.469Z" fill="#37474F"/>
<path d="M35.1577 101.785L41.2234 105.612V243.609L35.1577 255.105V101.785Z" fill="#37474F"/>
<path d="M41.2234 243.609L189.998 149.642L196.064 153.469L35.1577 255.105L41.2234 243.609Z" fill="#37474F"/>
<g opacity="0.5">
<path d="M35.1577 101.785L41.2234 105.612L189.998 11.6372L196.064 0.148621L35.1577 101.785Z" fill="#455A64"/>
</g>
<g opacity="0.5">
<path d="M41.2234 243.609L189.998 149.642L196.064 153.469L35.1577 255.105L41.2234 243.609Z" fill="#455A64"/>
</g>
<path d="M196.064 0.148617L192.016 -2.40771L31.1094 99.2287L35.1577 101.785L196.064 0.148617Z" fill="#455A64"/>
<path d="M31.1094 99.2287L35.1577 101.785V255.105L31.1094 252.556V99.2287Z" fill="#263238"/>
<g style="mix-blend-mode:multiply" opacity="0.1">
<path d="M189.999 11.6373L187.974 12.9154V148.364L41.2234 241.06V243.609L189.999 149.642V11.6373Z" fill="black"/>
</g>
<path opacity="0.2" d="M113.889 66.8807V181.864C113.889 183.402 114.874 184.026 116.09 183.253L177.697 144.329C178.337 143.871 178.87 143.255 179.252 142.531C179.634 141.807 179.856 140.995 179.898 140.16V25.1472L113.889 66.8807ZM122.128 71.2057C121.198 71.7928 120.444 71.3172 120.444 70.143C120.474 69.5028 120.643 68.8796 120.936 68.3242C121.228 67.7689 121.637 67.2972 122.128 66.9476C123.059 66.3606 123.813 66.8362 123.813 68.0103C123.777 68.6451 123.606 69.2619 123.314 69.8116C123.021 70.3612 122.615 70.8285 122.128 71.176V71.2057ZM130.279 66.0039C129.349 66.5909 128.595 66.1153 128.595 64.9412C128.626 64.3013 128.795 63.6785 129.088 63.1233C129.381 62.5681 129.789 62.0962 130.279 61.7458C131.21 61.1587 131.964 61.6343 131.964 62.8084C131.937 63.4454 131.774 64.0665 131.487 64.6216C131.2 65.1767 130.798 65.6502 130.313 66.0039H130.279ZM138.464 60.802C137.534 61.3891 136.78 60.9135 136.78 59.7394C136.811 59.0994 136.98 58.4766 137.273 57.9215C137.566 57.3663 137.974 56.8944 138.464 56.5439C139.395 55.9569 140.149 56.4325 140.149 57.6066C140.126 58.2486 139.965 58.8757 139.678 59.4363C139.391 59.9969 138.987 60.4751 138.498 60.8317L138.464 60.802ZM146.656 55.6002C145.725 56.1947 144.971 55.7117 144.971 54.5375C145.004 53.8979 145.173 53.2755 145.466 52.7205C145.759 52.1656 146.166 51.6934 146.656 51.3421C147.586 50.755 148.34 51.2306 148.34 52.4122C148.324 53.0554 148.168 53.6852 147.886 54.2498C147.604 54.8144 147.203 55.2976 146.717 55.6596L146.656 55.6002ZM154.807 50.3984C153.876 50.9854 153.122 50.5098 153.122 49.3283C153.174 48.7001 153.359 48.0938 153.662 47.5573C153.965 47.0207 154.378 46.5687 154.868 46.2369C155.798 45.6424 156.552 46.118 156.552 47.2995C156.526 47.9459 156.36 48.5761 156.067 49.1382C155.774 49.7002 155.363 50.178 154.868 50.5321L154.807 50.3984ZM162.992 45.1965C162.061 45.7836 161.307 45.308 161.307 44.1339C161.338 43.4936 161.506 42.8704 161.799 42.3151C162.092 41.7597 162.5 41.288 162.992 40.9384C163.922 40.3514 164.676 40.827 164.676 42.0011C164.671 42.6574 164.522 43.3027 164.24 43.8822C163.959 44.4618 163.554 44.9585 163.06 45.3303L162.992 45.1965ZM171.177 39.9947C170.246 40.5817 169.492 40.1061 169.492 38.932C169.524 38.2921 169.693 37.6693 169.985 37.1141C170.278 36.559 170.686 36.087 171.177 35.7366C172.107 35.1495 172.861 35.6251 172.861 36.7993C172.856 37.4555 172.707 38.1008 172.425 38.6804C172.144 39.26 171.739 39.7567 171.245 40.1284L171.177 39.9947Z" fill="black"/>
<path d="M116.375 68.4042V183.417C116.375 184.948 117.36 185.572 118.576 184.806L180.183 145.874C180.824 145.418 181.358 144.803 181.74 144.078C182.123 143.354 182.343 142.541 182.384 141.705V26.6929L116.375 68.4042ZM124.614 72.7217C123.684 73.3087 122.93 72.8331 122.93 71.659C122.963 71.0193 123.132 70.397 123.425 69.842C123.717 69.287 124.125 68.8149 124.614 68.4636C125.545 67.8765 126.299 68.3521 126.299 69.5337C126.267 70.1726 126.098 70.7944 125.805 71.3483C125.513 71.9023 125.105 72.3729 124.614 72.7217ZM132.765 67.5198C131.835 68.1069 131.081 67.6313 131.081 66.4498C131.112 65.8108 131.281 65.1891 131.574 64.6351C131.867 64.0811 132.275 63.6106 132.765 63.2618C133.696 62.6673 134.45 63.1429 134.45 64.3244C134.426 64.9672 134.264 65.5949 133.978 66.1565C133.691 66.7181 133.287 67.1979 132.799 67.557L132.765 67.5198ZM140.95 62.318C140.02 62.9051 139.266 62.4295 139.266 61.2554C139.296 60.6151 139.465 59.9919 139.758 59.4366C140.05 58.8812 140.459 58.4095 140.95 58.0599C141.881 57.4654 142.635 57.9485 142.635 59.1226C142.622 59.7771 142.465 60.4186 142.178 60.9928C141.89 61.5671 141.481 62.0573 140.984 62.422L140.95 62.318ZM149.142 57.1162C148.211 57.7032 147.457 57.2276 147.457 56.0535C147.489 55.4136 147.658 54.7908 147.951 54.2356C148.243 53.6805 148.651 53.2085 149.142 52.8581C150.072 52.271 150.826 52.7466 150.826 53.9208C150.813 54.5753 150.657 55.2167 150.369 55.791C150.082 56.3653 149.673 56.8555 149.176 57.2202L149.142 57.1162ZM157.293 51.9143C156.362 52.5014 155.608 52.0258 155.608 50.8517C155.64 50.2117 155.809 49.589 156.102 49.0338C156.394 48.4786 156.802 48.0067 157.293 47.6563C158.223 47.0692 158.977 47.5448 158.977 48.7189C158.969 49.3704 158.818 50.0102 158.537 50.5844C158.256 51.1586 157.852 51.6504 157.361 52.0184L157.293 51.9143ZM165.478 46.7125C164.547 47.2996 163.793 46.824 163.793 45.6498C163.825 45.0099 163.994 44.3871 164.287 43.832C164.579 43.2768 164.987 42.8049 165.478 42.4544C166.408 41.8674 167.162 42.343 167.162 43.5171C167.162 44.1774 167.014 44.8276 166.733 45.4115C166.451 45.9955 166.044 46.4956 165.546 46.8686L165.478 46.7125ZM173.629 41.5107C172.698 42.1052 171.944 41.6221 171.944 40.448C171.977 39.8083 172.146 39.186 172.439 38.631C172.731 38.076 173.139 37.6039 173.629 37.2526C174.559 36.6655 175.313 37.1411 175.313 38.3227C175.32 38.9834 175.179 39.636 174.904 40.2239C174.628 40.8117 174.225 41.3172 173.731 41.6965L173.629 41.5107Z" fill="#FAFAFA"/>
<g opacity="0.24">
<path d="M123.779 89.754C123.541 89.7515 123.308 89.6852 123.1 89.5607C122.837 89.3627 122.628 89.0917 122.493 88.7756C122.358 88.4595 122.302 88.1097 122.332 87.7624V82.895C122.376 82.0124 122.609 81.1535 123.012 80.3879C123.416 79.6223 123.979 78.9715 124.655 78.4883L175.381 46.4301C175.631 46.2039 175.938 46.0667 176.261 46.0368C176.584 46.0069 176.908 46.0858 177.188 46.2629C177.469 46.44 177.694 46.7068 177.832 47.0276C177.971 47.3484 178.016 47.7078 177.962 48.0575V52.925C177.919 53.8075 177.686 54.6664 177.282 55.432C176.878 56.1976 176.316 56.8484 175.639 57.3317L124.913 89.3898C124.572 89.6197 124.18 89.7454 123.779 89.754ZM176.475 46.653C176.171 46.6665 175.876 46.7664 175.619 46.9429L124.893 79.001C124.289 79.4312 123.786 80.0115 123.426 80.6947C123.066 81.3779 122.859 82.1446 122.821 82.9321V87.7995C122.768 88.0497 122.789 88.312 122.883 88.5477C122.976 88.7834 123.136 88.9799 123.34 89.1083C123.543 89.2366 123.779 89.29 124.012 89.2604C124.245 89.2308 124.464 89.1198 124.635 88.944L175.361 56.8858C175.964 56.4564 176.466 55.8772 176.826 55.1954C177.186 54.5136 177.394 53.7484 177.432 52.9621V48.0947C177.46 47.8451 177.427 47.5921 177.336 47.3611C177.245 47.1301 177.101 46.9294 176.916 46.7794C176.785 46.6823 176.633 46.6258 176.475 46.6159V46.653Z" fill="#4B7FB0"/>
<path d="M177.448 50.3387L122.435 85.1012L122.689 85.5838L177.702 50.8213L177.448 50.3387Z" fill="#4B7FB0"/>
<path d="M123.779 173.147C123.54 173.146 123.306 173.077 123.1 172.946C122.836 172.749 122.626 172.478 122.491 172.162C122.356 171.846 122.301 171.495 122.332 171.148V98.5302C122.376 97.6468 122.609 96.7871 123.013 96.0204C123.416 95.2537 123.979 94.6014 124.655 94.1161L175.381 62.0654C175.631 61.8392 175.938 61.7019 176.261 61.672C176.584 61.6421 176.908 61.721 177.188 61.8981C177.469 62.0752 177.694 62.3421 177.832 62.6628C177.971 62.9836 178.016 63.343 177.962 63.6928V136.31C177.919 137.193 177.686 138.052 177.282 138.817C176.878 139.583 176.316 140.234 175.639 140.717L124.893 172.775C124.556 173.001 124.173 173.129 123.779 173.147ZM176.475 62.2586C176.171 62.2721 175.876 62.372 175.619 62.5484L124.893 94.5991C124.289 95.0293 123.786 95.6096 123.426 96.2928C123.066 96.976 122.859 97.7427 122.821 98.5302V171.14C122.798 171.391 122.833 171.643 122.923 171.875C123.014 172.106 123.156 172.308 123.337 172.463C123.548 172.561 123.779 172.597 124.007 172.567C124.235 172.537 124.451 172.442 124.635 172.292L175.361 140.234C175.964 139.805 176.466 139.225 176.826 138.544C177.186 137.862 177.394 137.097 177.432 136.31V63.6928C177.46 63.4432 177.427 63.1901 177.336 62.9592C177.245 62.7282 177.101 62.5275 176.916 62.3775C176.782 62.2934 176.629 62.2498 176.475 62.2511V62.2586Z" fill="#4B7FB0"/>
<path d="M177.559 65.9041L122.434 100.737L122.689 101.22L177.814 66.3867L177.559 65.9041Z" fill="#4B7FB0"/>
<path d="M177.563 71.1136L122.438 105.947L122.693 106.429L177.818 71.5962L177.563 71.1136Z" fill="#4B7FB0"/>
<path d="M177.56 76.323L122.436 111.156L122.691 111.639L177.815 76.8056L177.56 76.323Z" fill="#4B7FB0"/>
<path d="M177.561 81.5389L122.436 116.372L122.691 116.855L177.816 82.0215L177.561 81.5389Z" fill="#4B7FB0"/>
<path d="M177.558 86.7483L122.434 121.581L122.689 122.064L177.813 87.2309L177.558 86.7483Z" fill="#4B7FB0"/>
<path d="M177.563 91.9577L122.438 126.791L122.693 127.273L177.817 92.4404L177.563 91.9577Z" fill="#4B7FB0"/>
<path d="M177.56 97.1672L122.435 132L122.69 132.483L177.815 97.6498L177.56 97.1672Z" fill="#4B7FB0"/>
<path d="M177.561 102.383L122.436 137.216L122.691 137.699L177.815 102.866L177.561 102.383Z" fill="#4B7FB0"/>
<path d="M177.558 107.592L122.433 142.426L122.688 142.908L177.813 108.075L177.558 107.592Z" fill="#4B7FB0"/>
<path d="M177.555 112.802L122.431 147.635L122.685 148.118L177.81 113.285L177.555 112.802Z" fill="#4B7FB0"/>
<path d="M177.563 118.018L122.438 152.851L122.693 153.333L177.818 118.5L177.563 118.018Z" fill="#4B7FB0"/>
<path d="M177.56 123.227L122.435 158.06L122.69 158.543L177.815 123.71L177.56 123.227Z" fill="#4B7FB0"/>
<path d="M177.557 128.437L122.433 163.27L122.688 163.752L177.812 128.919L177.557 128.437Z" fill="#4B7FB0"/>
<path d="M177.555 133.646L122.43 168.479L122.685 168.962L177.81 134.129L177.555 133.646Z" fill="#4B7FB0"/>
</g>
<path opacity="0.2" d="M48.5253 108.124L106.961 71.2131V126.048L48.5253 162.959V108.124Z" fill="black"/>
<path d="M52.5464 110.658L110.982 73.7546V128.589L52.5464 165.5V110.658Z" fill="#F5F5F5"/>
<path d="M50.8755 109.61V164.445L52.5464 165.5V110.658L50.8755 109.61Z" fill="#E0E0E0"/>
<path d="M110.982 73.7546L109.311 72.6993L50.8755 109.61L52.5464 110.658L110.982 73.7546Z" fill="#4B7FB0"/>
<g opacity="0.8">
<path d="M110.982 73.7546L109.311 72.6993L50.8755 109.61L52.5464 110.658L110.982 73.7546Z" fill="white"/>
</g>
<path d="M50.8755 109.61L52.5464 110.658V121.203L50.8755 120.155V109.61Z" fill="#4B7FB0"/>
<g opacity="0.5">
<path d="M50.8755 109.61L52.5464 110.658V121.203L50.8755 120.155V109.61Z" fill="white"/>
</g>
<path d="M52.5464 121.203L110.982 84.2994V73.7546L52.5464 110.658V121.203Z" fill="#4B7FB0"/>
<g opacity="0.65">
<path d="M52.5464 121.203L110.982 84.2994V73.7546L52.5464 110.658V121.203Z" fill="white"/>
</g>
<path d="M56.5132 124.606C56.5132 125.193 56.9072 125.409 57.403 125.104L61.7841 122.332C62.0379 122.159 62.2508 121.923 62.4054 121.642C62.56 121.362 62.652 121.046 62.674 120.72C62.674 120.14 62.2732 119.917 61.7841 120.229L57.403 122.994C57.15 123.168 56.9377 123.404 56.7832 123.684C56.6287 123.964 56.5362 124.28 56.5132 124.606Z" fill="#455A64"/>
<path d="M63.9034 119.939C63.9034 120.527 64.2974 120.742 64.7932 120.43L69.1743 117.666C69.4274 117.491 69.6397 117.255 69.7942 116.975C69.9487 116.695 70.0412 116.379 70.0642 116.053C70.0642 115.466 69.6634 115.25 69.1743 115.555L64.7932 118.327C64.5394 118.5 64.3266 118.737 64.172 119.017C64.0174 119.297 63.9253 119.613 63.9034 119.939Z" fill="#455A64"/>
<path d="M71.3208 115.273C71.3208 115.852 71.7215 116.075 72.2106 115.763L76.5917 112.999C76.8456 112.824 77.0585 112.586 77.213 112.305C77.3676 112.023 77.4595 111.706 77.4815 111.379C77.4815 110.799 77.0808 110.576 76.5917 110.888L72.2106 113.653C71.9574 113.828 71.7451 114.066 71.5906 114.348C71.4362 114.629 71.3438 114.946 71.3208 115.273Z" fill="#455A64"/>
<path d="M78.6838 110.606C78.6838 111.186 79.0845 111.408 79.5736 111.096L83.9547 108.332C84.2087 108.157 84.4215 107.919 84.576 107.638C84.7306 107.357 84.8226 107.039 84.8445 106.712C84.8445 106.132 84.4438 105.909 83.9547 106.221L79.5736 108.986C79.3197 109.161 79.1068 109.399 78.9523 109.68C78.7977 109.961 78.7057 110.278 78.6838 110.606Z" fill="#455A64"/>
<path d="M86.074 105.932C86.074 106.519 86.4747 106.734 86.9638 106.43L91.3449 103.658C91.5994 103.485 91.8129 103.249 91.9676 102.969C92.1223 102.688 92.2138 102.372 92.2347 102.045C92.2347 101.466 91.8407 101.243 91.3449 101.555L86.9434 104.319C86.6941 104.496 86.4858 104.733 86.3349 105.013C86.184 105.293 86.0947 105.608 86.074 105.932Z" fill="#455A64"/>
<path d="M93.4641 101.265C93.4641 101.852 93.8649 102.067 94.354 101.755L98.7351 98.9909C98.9892 98.8181 99.2024 98.5818 99.357 98.3016C99.5117 98.0213 99.6035 97.7049 99.6249 97.3783C99.6249 96.7913 99.2309 96.5758 98.7351 96.8804L94.354 99.6523C94.1002 99.8256 93.8873 100.062 93.7327 100.342C93.5781 100.622 93.4861 100.938 93.4641 101.265Z" fill="#455A64"/>
<path d="M100.854 96.6055C100.854 97.1851 101.255 97.4081 101.744 97.096L106.125 94.3316C106.38 94.158 106.594 93.9206 106.749 93.6389C106.903 93.3573 106.995 93.0394 107.015 92.7116C107.015 92.1319 106.621 91.909 106.125 92.2211L101.744 94.9855C101.491 95.1613 101.279 95.3992 101.124 95.6804C100.97 95.9617 100.877 96.2784 100.854 96.6055Z" fill="#455A64"/>
<path d="M56.8936 130.15L62.2732 126.769V132.067L56.8936 135.538V130.15Z" fill="#4B7FB0"/>
<path d="M56.8936 137.596L62.2732 134.207V139.513L56.8936 142.984V137.596Z" fill="#4B7FB0"/>
<path d="M56.8936 145.042L62.2732 141.653V146.952L56.8936 150.422V145.042Z" fill="#4B7FB0"/>
<path d="M56.8936 152.481L62.2732 149.099V154.398L56.8936 157.868V152.481Z" fill="#4B7FB0"/>
<path d="M64.2906 125.476L69.6702 122.094V127.393L64.2906 130.863V125.476Z" fill="#E0E0E0"/>
<path d="M64.2906 132.922L69.6702 129.541V134.839L64.2906 138.309V132.922Z" fill="#E0E0E0"/>
<path d="M64.2906 140.368L69.6702 136.987V142.285L64.2906 145.755V140.368Z" fill="#E0E0E0"/>
<path d="M64.2906 147.814L69.6702 144.425V149.731L64.2906 153.201V147.814Z" fill="#E0E0E0"/>
<path d="M71.6875 120.809L77.0604 117.42V122.726L71.6875 126.189V120.809Z" fill="#E0E0E0"/>
<path d="M71.6875 128.255L77.0604 124.866V130.165L71.6875 133.635V128.255Z" fill="#E0E0E0"/>
<path d="M71.6875 135.694L77.0604 132.312V137.611L71.6875 141.081V135.694Z" fill="#E0E0E0"/>
<path d="M71.6875 143.14L77.0604 139.758V145.057L71.6875 148.527V143.14Z" fill="#E0E0E0"/>
<path d="M79.0845 116.135L84.4574 112.753V118.052L79.0845 121.522V116.135Z" fill="#E0E0E0"/>
<path d="M79.0845 123.581L84.4574 120.2V125.498L79.0845 128.968V123.581Z" fill="#E0E0E0"/>
<path d="M79.0845 131.027L84.4574 127.638V132.937L79.0845 136.407V131.027Z" fill="#E0E0E0"/>
<path d="M79.0845 138.473L84.4574 135.084V140.383L79.0845 143.853V138.473Z" fill="#E0E0E0"/>
<path d="M86.4815 111.46L91.8543 108.079V113.378L86.4815 116.848V111.46Z" fill="#E0E0E0"/>
<path d="M86.4815 118.907L91.8543 115.525V120.824L86.4815 124.294V118.907Z" fill="#E0E0E0"/>
<path d="M86.4815 126.353L91.8543 122.971V128.27L86.4815 131.74V126.353Z" fill="#E0E0E0"/>
<path d="M86.4815 133.799L91.8543 130.41V135.716L86.4815 139.179V133.799Z" fill="#E0E0E0"/>
<path d="M93.8785 106.794L99.2513 103.405V108.703L93.8785 112.181V106.794Z" fill="#E0E0E0"/>
<path d="M93.8785 114.24L99.2513 110.851V116.15L93.8785 119.62V114.24Z" fill="#E0E0E0"/>
<path d="M93.8785 121.678L99.2513 118.297V123.596L93.8785 127.066V121.678Z" fill="#E0E0E0"/>
<path d="M93.8785 129.124L99.2513 125.743V131.042L93.8785 134.512V129.124Z" fill="#E0E0E0"/>
<path d="M101.269 102.119L106.648 98.7383V104.037L101.269 107.507V102.119Z" fill="#E0E0E0"/>
<path d="M101.269 109.566L106.648 106.177V111.483L101.269 114.953V109.566Z" fill="#E0E0E0"/>
<path d="M101.269 117.012L106.648 113.623V118.921L101.269 122.392V117.012Z" fill="#E0E0E0"/>
<path d="M101.269 124.45L106.648 121.069V126.367L101.269 129.838V124.45Z" fill="#E0E0E0"/>
<path d="M81.2174 99.8232L81.1562 99.8826C81.1101 99.9381 81.0548 99.9835 80.9932 100.016C80.8777 100.106 80.8166 100.016 80.7079 99.9421L79.8181 99.3699C79.4513 99.1395 79.0234 98.8646 78.5683 98.5599C78.1132 98.2552 77.6242 97.9357 77.1487 97.6013C77.006 97.4972 77.271 96.9845 77.4272 97.0737C77.9298 97.356 78.4257 97.6607 78.8943 97.9431C79.363 98.2255 79.791 98.4856 80.1645 98.6862L81.0611 99.2436C81.163 99.3179 81.2717 99.3253 81.2649 99.4814C81.2777 99.5525 81.2777 99.6257 81.2649 99.6969L81.2174 99.8232Z" fill="#455A64"/>
<path d="M82.1343 100.522C81.4551 101.822 80.3276 102.528 79.1457 101.83L79.0777 101.792C78.9047 101.648 78.7682 101.457 78.6814 101.239C78.5947 101.02 78.5604 100.781 78.5819 100.544C78.6164 99.8646 78.796 99.2035 79.1063 98.6138C79.4165 98.024 79.8487 97.522 80.3683 97.148C80.5429 97.0196 80.7424 96.9373 80.951 96.9077C81.1597 96.878 81.3718 96.9018 81.5706 96.9771L81.6385 97.0142C81.6752 97.0372 81.7093 97.0646 81.7404 97.096C82.8204 97.8465 82.8136 99.2361 82.1343 100.522Z" fill="#37474F"/>
<path d="M83.5472 103.093L84.9057 100.618C83.8937 100.049 82.9532 99.3401 82.1072 98.5079L82.0596 98.4484L82.0121 98.4038C81.8787 98.3118 81.7229 98.266 81.5653 98.2727C81.4077 98.2793 81.2556 98.338 81.1291 98.441C80.7887 98.6863 80.506 99.016 80.3042 99.4034C80.1024 99.7908 79.987 100.225 79.9676 100.67C79.9518 100.828 79.9749 100.988 80.0347 101.133C80.0944 101.278 80.1885 101.403 80.3072 101.495C80.3756 101.539 80.4524 101.564 80.5313 101.57C81.5941 101.928 82.6083 102.441 83.5472 103.093Z" fill="#455A64"/>
<path d="M86.04 101.064C86.04 100.658 85.8926 100.269 85.6302 99.9818C85.3678 99.6947 85.0119 99.5334 84.6408 99.5334C84.471 99.5339 84.3028 99.5692 84.1449 99.6374H84.0906C84.0145 99.6653 83.9415 99.7027 83.8732 99.7489C83.4594 100.041 83.1148 100.437 82.868 100.903C82.6212 101.37 82.4792 101.893 82.4536 102.432C82.4559 102.561 82.4696 102.691 82.4944 102.818C82.5616 103.188 82.7515 103.518 83.0275 103.744C83.3035 103.971 83.6461 104.077 83.9897 104.044C84.3333 104.011 84.6536 103.84 84.889 103.565C85.1245 103.289 85.2587 102.928 85.2657 102.55C85.269 102.503 85.269 102.456 85.2657 102.409C85.4949 102.284 85.6884 102.092 85.8249 101.855C85.9615 101.618 86.0359 101.344 86.04 101.064Z" fill="#37474F"/>
<path d="M84.6408 100.321C85.4219 99.8306 86.0536 100.232 86.0536 101.22C86.0272 101.756 85.8854 102.278 85.6399 102.743C85.3944 103.208 85.0521 103.603 84.6408 103.895C83.8596 104.393 83.2279 103.992 83.2279 103.004C83.2544 102.467 83.3961 101.944 83.6415 101.478C83.887 101.012 84.2293 100.615 84.6408 100.321Z" fill="#455A64"/>
<path opacity="0.2" d="M61.9336 167.395V215.453L98.3276 192.468V144.403L61.9336 167.395Z" fill="black"/>
<path d="M102.512 194.838C102.512 194.838 81.0272 207.999 78.3238 209.641C75.6204 211.284 73.8611 206.528 73.8408 203.644C71.1238 205.532 65.6083 206.714 65.3298 202.946L63.394 175.569L99.7879 152.577L102.512 194.838Z" fill="#455A64"/>
<path d="M99.7879 152.577L63.394 175.562V168.19L99.7879 145.198V152.577Z" fill="#37474F"/>
<path d="M66.4709 204.96L76.4355 209.768L73.3313 200.887L66.4709 204.96Z" fill="#37474F"/>
<path d="M203.896 196.771C203.769 194.171 203.083 191.641 201.893 189.386C200.703 187.131 199.043 185.216 197.049 183.796C195.181 182.614 193.49 182.495 192.254 183.246H192.213L104.604 238.4L114.331 256.718L201.865 201.616C203.135 200.828 203.896 199.156 203.896 196.771Z" fill="#4B7FB0"/>
<path opacity="0.7" d="M203.896 196.771C203.769 194.171 203.083 191.641 201.893 189.386C200.703 187.131 199.043 185.216 197.049 183.796C195.181 182.614 193.49 182.495 192.254 183.246H192.213L104.604 238.4L114.331 256.718L201.865 201.616C203.135 200.828 203.896 199.156 203.896 196.771Z" fill="white"/>
<path d="M201.892 189.384C200.743 187.097 199.075 185.173 197.049 183.796C195.181 182.614 193.49 182.495 192.254 183.246H192.213L104.604 238.4L109.467 247.563L201.845 189.399L201.892 189.384Z" fill="#4B7FB0"/>
<path opacity="0.8" d="M201.892 189.384C200.743 187.097 199.075 185.173 197.049 183.796C195.181 182.614 193.49 182.495 192.254 183.246H192.213L104.604 238.4L109.467 247.563L201.845 189.399L201.892 189.384Z" fill="white"/>
<path opacity="0.3" d="M107.633 244.055L199.685 186.092C198.914 185.18 198.026 184.397 197.049 183.766C196.859 183.64 196.669 183.536 196.485 183.439L105.772 240.555L107.633 244.055Z" fill="white"/>
<path d="M109.488 238.913C111.485 240.337 113.147 242.257 114.338 244.517C115.529 246.777 116.215 249.312 116.341 251.917C116.341 256.696 113.271 258.605 109.488 256.242C107.496 254.819 105.838 252.903 104.649 250.649C103.459 248.395 102.771 245.866 102.641 243.267C102.641 238.459 105.711 236.527 109.488 238.913Z" fill="#E0E0E0"/>
<path d="M196.431 205.101C197.667 204.313 198.428 202.641 198.428 200.256C198.303 197.653 197.618 195.12 196.428 192.863C195.238 190.606 193.577 188.688 191.581 187.266C189.713 186.084 188.022 185.958 186.786 186.716L188.735 185.475C189.965 184.732 191.663 184.843 193.531 186.025C195.52 187.447 197.177 189.361 198.366 191.612C199.556 193.863 200.245 196.389 200.377 198.985C200.377 201.37 199.61 203.05 198.374 203.83L196.431 205.101Z" fill="#4B7FB0"/>
<path opacity="0.05" d="M114.358 256.718L201.892 201.616C203.128 200.828 203.889 199.156 203.889 196.771C203.885 195.885 203.792 195.003 203.611 194.14L111.912 252.103L114.358 256.718Z" fill="black"/>
<path d="M116.898 252.237C116.898 247.072 113.583 240.793 109.488 238.207C107.45 236.914 105.595 236.795 104.257 237.642L74.194 256.629L84.7562 276.44L114.725 257.513C116.063 256.644 116.898 254.823 116.898 252.237Z" fill="#455A64"/>
<path opacity="0.15" d="M112.531 240.971L82.5215 259.921C81.6422 258.836 80.6131 257.908 79.4717 257.171L109.488 238.207C110.627 238.949 111.654 239.882 112.531 240.971Z" fill="white"/>
<path d="M116.898 252.237C116.898 254.83 116.069 256.644 114.718 257.491L84.763 276.44C86.0808 275.593 86.8891 273.787 86.8891 271.238C86.8319 269.099 86.3693 266.997 85.5306 265.063L115.546 246.099C116.378 248.021 116.838 250.111 116.898 252.237Z" fill="#37474F"/>
<path d="M79.4717 257.171C83.5472 259.75 86.8823 266.037 86.8823 271.201C86.8823 276.366 83.5472 278.462 79.4717 275.876C75.3962 273.289 72.0679 267.01 72.0679 261.845C72.0679 256.681 75.3962 254.585 79.4717 257.171Z" fill="#37474F"/>
<path d="M79.4717 275.876C83.5472 278.462 86.8823 276.366 86.8823 271.201C86.7938 268.379 86.0454 265.629 84.7087 263.213C86.0672 266.527 86.8823 272.011 85.1094 274.553C83.3366 277.094 81.0883 276.321 79.4717 275.876Z" fill="#263238"/>
<path d="M79.4717 260.486C76.843 258.836 74.717 260.181 74.717 263.51C74.8063 265.32 75.2831 267.081 76.109 268.652C76.9349 270.223 78.0868 271.559 79.4717 272.554C82.1072 274.218 84.2264 272.866 84.2264 269.537C84.1376 267.726 83.6611 265.963 82.8352 264.391C82.0092 262.819 80.8571 261.481 79.4717 260.486ZM79.4717 270.741C78.4988 270.047 77.6892 269.112 77.1085 268.012C76.5279 266.912 76.1925 265.678 76.1298 264.409C76.1298 262.083 77.6309 261.14 79.4717 262.306C80.4466 262.998 81.2581 263.932 81.8401 265.033C82.4221 266.133 82.758 267.368 82.8204 268.638C82.8204 270.971 81.326 271.907 79.4717 270.741Z" fill="#263238"/>
<path d="M92.4317 263.012L90.5842 264.186L92.4317 265.353L94.286 264.186L92.4317 263.012Z" fill="#455A64"/>
<path d="M119.914 251.219L118.06 250.052C117.794 249.915 117.5 249.858 117.207 249.887C116.915 249.915 116.634 250.029 116.395 250.216L92.4521 265.346V272.361L116.395 257.238C117.082 256.75 117.654 256.092 118.066 255.318C118.478 254.543 118.718 253.674 118.766 252.779V252.519L118.983 252.668L119.914 251.219Z" fill="#455A64"/>
<path d="M120.6 252.891V253.931C120.55 254.825 120.309 255.694 119.898 256.468C119.486 257.242 118.915 257.9 118.229 258.39L94.286 273.542V266.52L118.229 251.397C119.547 250.58 120.6 251.249 120.6 252.891Z" fill="#37474F"/>
<path d="M90.5842 271.201V264.186L94.2792 266.527L94.286 273.542L90.5842 271.201Z" fill="#263238"/>
<path d="M259.842 189.629L256.907 188.613L256.153 183.789L262.146 178.252L267.867 178.493L270.801 179.503L259.842 189.629Z" fill="#4B7FB0"/>
<path opacity="0.1" d="M259.842 189.629L256.907 188.613L256.153 183.789L262.146 178.252L267.867 178.493L270.801 179.503L259.842 189.629Z" fill="black"/>
<path d="M259.094 184.869L265.092 179.343L270.803 179.589L259.848 189.689L259.094 184.869Z" fill="#4B7FB0"/>
<path opacity="0.1" d="M265.023 179.265L262.083 178.257L267.806 178.498L270.741 179.509L265.023 179.265Z" fill="black"/>
<path d="M236.594 193.19C239.147 190.816 242.326 190.281 245.983 189.301C249.64 188.321 252.198 185.92 256.195 182.195C256.525 181.942 256.907 181.784 257.303 181.738C257.699 181.692 258.094 181.759 258.446 181.933C259.453 182.346 260.342 183.012 261.039 183.878C261.737 184.743 262.224 185.783 262.46 186.913C262.564 187.313 262.565 187.74 262.462 188.152C262.36 188.564 262.158 188.945 261.878 189.257C257.852 193.003 255.262 195.418 253.862 199.095C252.463 202.772 251.488 206.144 248.935 208.519L236.594 193.19Z" fill="#263238"/>
<path d="M237.222 192.706L236.611 193.269L172.206 252.549L166.627 257.685L168.061 259.475L169.233 260.932L171.571 263.832L172.745 265.296L175.077 268.199L177.401 271.121L178.804 272.926L180.611 271.271L248.988 208.365C249.009 208.363 249.029 208.354 249.045 208.339L249.372 208.036C249.391 208.035 249.409 208.027 249.423 208.012C250.287 207.088 250.723 205.643 250.561 203.842C250.549 203.612 250.525 203.385 250.489 203.159C250.29 201.983 249.929 200.853 249.417 199.804C248.861 198.656 248.174 197.588 247.37 196.625C245.893 194.717 243.959 193.265 241.752 192.408C239.909 191.734 238.332 191.907 237.222 192.706Z" fill="#37474F"/>
<path d="M249.44 200.132C248.886 198.994 248.203 197.936 247.404 196.981L172.771 265.377L175.099 268.272L177.455 271.202L178.855 273.002L180.661 271.354L249.014 208.686C249.035 208.684 249.055 208.675 249.071 208.66L249.398 208.358C249.417 208.357 249.435 208.349 249.449 208.335C250.312 207.413 250.749 205.974 250.588 204.177C250.576 203.949 250.552 203.722 250.517 203.497C250.318 202.317 249.955 201.184 249.44 200.132Z" fill="#455A64"/>
<path opacity="0.2" d="M177.471 271.122L250.567 204.305C250.555 204.077 250.532 203.851 250.497 203.627C250.299 202.458 249.94 201.334 249.43 200.29L175.13 268.21L177.471 271.122Z" fill="white"/>
<path d="M180.711 267.539C180.19 265.049 179.124 262.757 177.599 260.849C176.074 258.941 174.132 257.471 171.932 256.558C167.801 255.123 165.039 257.718 165.783 262.34C166.305 264.829 167.372 267.121 168.897 269.028C170.422 270.936 172.362 272.407 174.562 273.321C178.667 274.768 181.419 272.146 180.711 267.539Z" fill="#E0E0E0"/>
<path d="M172.036 255.811C176.471 257.336 180.692 262.576 181.464 267.504C181.851 269.971 181.296 271.895 180.094 273.008L153.156 298.017L139.906 281.404L166.761 256.472C167.96 255.353 169.812 255.043 172.036 255.811Z" fill="#4B7FB0"/>
<path opacity="0.3" d="M180.156 264.054L153.308 288.711C153.928 289.914 154.357 291.223 154.58 292.59L181.45 267.93C181.213 266.565 180.776 265.258 180.156 264.054Z" fill="white"/>
<path opacity="0.1" d="M171.939 255.724C169.724 254.96 167.88 255.269 166.674 256.368L139.871 280.936C141.066 279.865 142.891 279.565 145.077 280.333C146.893 281.015 148.535 282.095 149.901 283.504L176.755 258.875C175.393 257.47 173.752 256.397 171.939 255.724Z" fill="black"/>
<path d="M154.845 292.224C154.064 287.211 149.817 281.896 145.351 280.341C140.884 278.787 137.894 281.599 138.673 286.606C139.452 291.612 143.701 296.934 148.167 298.489C152.634 300.043 155.618 297.234 154.845 292.224Z" fill="#4B7FB0"/>
<path opacity="0.15" d="M154.845 292.224C154.064 287.211 149.817 281.896 145.351 280.341C140.884 278.787 137.894 281.599 138.673 286.606C139.452 291.612 143.701 296.934 148.167 298.489C152.634 300.043 155.618 297.234 154.845 292.224Z" fill="black"/>
<path opacity="0.2" d="M151.056 294.858C151.854 294.123 152.22 292.857 151.985 291.215C151.621 289.48 150.877 287.884 149.814 286.554C148.751 285.225 147.398 284.2 145.865 283.563C144.451 283.07 143.259 283.255 142.475 283.967C141.691 284.679 141.302 285.964 141.543 287.602C141.906 289.34 142.649 290.939 143.712 292.272C144.775 293.604 146.128 294.632 147.662 295.272C149.083 295.761 150.279 295.567 151.056 294.858ZM149.766 293.219C149.421 293.487 149.022 293.657 148.608 293.712C148.194 293.766 147.779 293.703 147.406 293.53C146.331 293.083 145.383 292.364 144.638 291.431C143.893 290.499 143.372 289.379 143.117 288.162C142.964 287.738 142.941 287.267 143.052 286.813C143.163 286.36 143.402 285.948 143.734 285.635C144.067 285.322 144.477 285.125 144.907 285.07C145.337 285.016 145.765 285.107 146.131 285.331C147.203 285.78 148.149 286.499 148.892 287.431C149.636 288.362 150.156 289.48 150.41 290.695C150.52 291.128 150.517 291.59 150.404 292.034C150.291 292.478 150.07 292.887 149.766 293.219Z" fill="black"/>
<path d="M154.171 277.216L152.504 278.774L152.156 276.522L153.817 274.966L154.171 277.216Z" fill="#4B7FB0"/>
<path d="M173.788 252.926L174.13 255.136C174.152 255.443 174.096 255.755 173.967 256.041C173.839 256.326 173.643 256.574 173.399 256.761L151.991 276.373L145.987 274.306L167.398 254.701C168.063 254.152 168.833 253.77 169.645 253.585C170.458 253.4 171.291 253.416 172.076 253.634L172.299 253.717L172.248 253.457L173.788 252.926Z" fill="#4B7FB0"/>
<path d="M172.571 251.612L171.683 251.311C170.899 251.091 170.067 251.071 169.255 251.255C168.442 251.439 167.672 251.82 167.008 252.369L145.593 271.99L151.589 274.053L173.03 254.465C174.191 253.365 173.993 252.115 172.571 251.612Z" fill="#4B7FB0"/>
<path opacity="0.15" d="M172.571 251.612L171.683 251.311C170.899 251.091 170.067 251.071 169.255 251.255C168.442 251.439 167.672 251.82 167.008 252.369L145.593 271.99L151.589 274.053L173.03 254.465C174.191 253.365 173.993 252.115 172.571 251.612Z" fill="black"/>
<path d="M146.462 276.499L152.52 278.603L151.814 274.069L145.756 271.964L146.462 276.499Z" fill="#4B7FB0"/>
<path opacity="0.2" d="M146.462 276.499L152.52 278.603L151.814 274.069L145.756 271.964L146.462 276.499Z" fill="black"/>
</g>
<defs>
<clipPath id="clip0_871_8822">
<rect width="324" height="324" fill="white"/>
</clipPath>
</defs>
</svg>
