<svg width="37" height="119" viewBox="0 0 37 119" fill="none" xmlns="http://www.w3.org/2000/svg">
<path d="M15.7156 25.8466C12.2517 24.7796 7.2213 25.9536 4.48085 28.4718C3.11394 29.7288 2.57602 31.0838 2.81417 32.2581L12.6261 80.513L12.6469 80.5105C12.9728 81.5689 13.9537 82.4646 15.5571 82.9519C19.0245 84.0185 24.0546 82.8411 26.7919 80.3267C28.0584 79.1626 28.606 77.9155 28.4929 76.8071L28.5137 76.8047L18.7015 28.5462C18.4633 27.3719 17.4491 26.3782 15.7156 25.8466Z" fill="#4B7FB0"/>
<path opacity="0.7" d="M15.7156 25.8466C12.2517 24.7796 7.2213 25.9536 4.48085 28.4718C3.11394 29.7288 2.57602 31.0838 2.81417 32.2581L12.6261 80.513L12.6469 80.5105C12.9728 81.5689 13.9537 82.4646 15.5571 82.9519C19.0245 84.0185 24.0546 82.8411 26.7919 80.3267C28.0584 79.1626 28.606 77.9155 28.4929 76.8071L28.5137 76.8047L18.7015 28.5462C18.4633 27.3719 17.4491 26.3782 15.7156 25.8466Z" fill="white"/>
<path d="M5.70407 35.0722C2.21899 34.0021 1.62789 31.0761 4.38175 28.555C7.1356 26.0339 12.1958 24.8407 15.6774 25.9112C19.1589 26.9817 19.7561 29.8963 16.9845 32.416C14.2129 34.9358 9.18915 36.1422 5.70407 35.0722Z" fill="#4B7FB0"/>
<path opacity="0.8" d="M5.70407 35.0722C2.21899 34.0021 1.62789 31.0761 4.38175 28.555C7.1356 26.0339 12.1958 24.8407 15.6774 25.9112C19.1589 26.9817 19.7561 29.8963 16.9845 32.416C14.2129 34.9358 9.18915 36.1422 5.70407 35.0722Z" fill="white"/>
<path d="M22.443 115.99C18.9614 114.919 18.3675 112.001 21.1242 109.472C23.8809 106.944 28.9347 105.758 32.4195 106.825C35.9042 107.891 36.495 110.814 33.7383 113.342C30.9816 115.871 25.9278 117.056 22.443 115.99Z" fill="#4B7FB0"/>
<path opacity="0.7" d="M22.443 115.99C18.9614 114.919 18.3675 112.001 21.1242 109.472C23.8809 106.944 28.9347 105.758 32.4195 106.825C35.9042 107.891 36.495 110.814 33.7383 113.342C30.9816 115.871 25.9278 117.056 22.443 115.99Z" fill="white"/>
<path d="M26.337 106.84C24.4158 107.268 22.6183 108.174 21.1103 109.472C18.3596 111.995 18.9521 114.908 22.4259 115.976C24.3016 116.479 26.2868 116.498 28.2007 116.031L26.337 106.84Z" fill="#4B7FB0"/>
<path d="M28.1813 115.081C32.5908 114.051 35.7447 111.151 35.2258 108.604C34.7068 106.057 30.7115 104.827 26.302 105.857C21.8925 106.888 18.7386 109.788 19.2575 112.335C19.7764 114.882 23.7717 116.112 28.1813 115.081Z" fill="#4B7FB0"/>
<path opacity="0.8" d="M28.1813 115.081C32.5908 114.051 35.7447 111.151 35.2258 108.604C34.7068 106.057 30.7115 104.827 26.302 105.857C21.8925 106.888 18.7386 109.788 19.2575 112.335C19.7764 114.882 23.7717 116.112 28.1813 115.081Z" fill="white"/>
<path d="M23.3237 77.9986C23.285 77.5675 22.9503 77.1928 22.3275 77.0034C21.688 76.8442 21.0159 76.84 20.3657 76.9914C19.7155 77.1427 19.1056 77.4453 18.5855 77.8745C18.3912 78.0199 18.2373 78.2136 18.1397 78.4358C18.0421 78.658 18.0043 78.9007 18.0302 79.1389L24.546 111.135C24.6152 111.363 24.7437 111.566 24.9185 111.724C25.0932 111.882 25.308 111.99 25.5407 112.036C26.1804 112.194 26.8527 112.198 27.5028 112.046C28.1529 111.894 28.7626 111.591 29.2824 111.161C29.774 110.709 29.9335 110.223 29.8019 109.81L23.3237 77.9986Z" fill="#4B7FB0"/>
<path opacity="0.7" d="M23.3237 77.9986C23.285 77.5675 22.9503 77.1928 22.3275 77.0034C21.688 76.8442 21.0159 76.84 20.3657 76.9914C19.7155 77.1427 19.1056 77.4453 18.5855 77.8745C18.3912 78.0199 18.2373 78.2136 18.1397 78.4358C18.0421 78.658 18.0043 78.9007 18.0302 79.1389L24.546 111.135C24.6152 111.363 24.7437 111.566 24.9185 111.724C25.0932 111.882 25.308 111.99 25.5407 112.036C26.1804 112.194 26.8527 112.198 27.5028 112.046C28.1529 111.894 28.7626 111.591 29.2824 111.161C29.774 110.709 29.9335 110.223 29.8019 109.81L23.3237 77.9986Z" fill="white"/>
<g opacity="0.3">
<path d="M22.6174 77.1269C22.5306 77.086 22.441 77.051 22.3492 77.0219C22.2485 76.9931 22.146 76.9701 22.0424 76.9531L29.0588 111.34C29.1437 111.274 29.2327 111.214 29.3101 111.142C29.3822 111.074 29.4505 111.003 29.5146 110.928L22.6174 77.1269Z" fill="white"/>
<path d="M21.5054 76.8951C21.234 76.8898 20.9619 76.9093 20.6925 76.9532L27.8276 111.936C27.9534 111.897 28.0789 111.854 28.2003 111.804L28.2488 111.798C28.3667 111.749 28.4809 111.697 28.5841 111.639L21.5054 76.8951Z" fill="white"/>
</g>
<path d="M26.0065 111.185C25.5865 110.718 25.2919 108.684 24.8541 106.537C24.6286 105.429 19.5969 80.7262 18.9581 77.5874C18.8287 77.6745 18.7051 77.7702 18.5881 77.8739C18.3938 78.0192 18.2399 78.213 18.1423 78.4352C18.0447 78.6573 18.0069 78.9 18.0328 79.1382L24.5453 111.134C24.6145 111.362 24.743 111.565 24.9178 111.723C25.0926 111.881 25.3073 111.989 25.54 112.035C26.1797 112.193 26.8519 112.197 27.502 112.045C28.1521 111.893 28.7618 111.59 29.2816 111.16L29.3812 111.06C29.5855 110.801 29.6924 110.626 29.6924 110.626C29.0238 111.37 26.6322 111.876 26.0065 111.185Z" fill="#4B7FB0"/>
<path d="M22.302 77.0321C21.6598 76.8727 20.9848 76.869 20.3317 77.0215C19.6785 77.1739 19.0657 77.4781 18.5429 77.9094C18.3475 78.0555 18.1928 78.2501 18.0945 78.4733C17.9963 78.6964 17.9581 78.9401 17.9838 79.1792L18.809 83.2458C20.6287 83.1864 22.4297 82.7656 24.1081 82.0075L23.298 78.0308C23.2596 77.598 22.9288 77.2391 22.302 77.0321Z" fill="#4B7FB0"/>
<g opacity="0.3">
<path d="M22.5829 77.1498C22.496 77.1088 22.4064 77.0738 22.3147 77.0447C22.214 77.0159 22.1115 76.9929 22.0078 76.976L23.11 82.4057C23.2796 82.3468 23.4489 82.2844 23.614 82.2156L22.5829 77.1498Z" fill="white"/>
<path d="M21.8398 82.7958C22.1032 82.7292 22.3622 82.6526 22.6206 82.5691L21.4707 76.918C21.1991 76.9128 20.9269 76.9324 20.6574 76.9764L21.8398 82.7958Z" fill="white"/>
</g>
<path opacity="0.05" d="M18.8982 77.628C18.7687 77.7151 18.645 77.8109 18.528 77.9146C18.3335 78.0601 18.1795 78.2539 18.0819 78.4762C17.9842 78.6985 17.9463 78.9413 17.9722 79.1796L18.7976 83.2325C19.2053 83.2214 19.6129 83.1892 20.0185 83.1361C19.7038 81.5777 19.2863 79.5361 18.8982 77.628Z" fill="black"/>
<path d="M21.9649 71.5622C21.9261 71.1266 21.591 70.7546 20.9667 70.5652C20.3255 70.4059 19.6515 70.4022 18.9994 70.5543C18.3473 70.7064 17.7355 71.0101 17.2136 71.4407C17.019 71.5862 16.8648 71.7799 16.7668 72.002C16.6687 72.2242 16.6302 72.4668 16.6553 72.7051L17.9743 79.204C18.0436 79.4317 18.1724 79.6348 18.3475 79.7927C18.5226 79.9506 18.7377 80.0576 18.9707 80.1027C19.6121 80.2614 20.2862 80.2646 20.9382 80.1119C21.5903 79.9591 22.2019 79.6548 22.7235 79.2237C23.2169 78.7701 23.3772 78.2825 23.2459 77.872L21.9649 71.5622Z" fill="#4B7FB0"/>
<path opacity="0.5" d="M21.9649 71.5622C21.9261 71.1266 21.591 70.7546 20.9667 70.5652C20.3255 70.4059 19.6515 70.4022 18.9994 70.5543C18.3473 70.7064 17.7355 71.0101 17.2136 71.4407C17.019 71.5862 16.8648 71.7799 16.7668 72.002C16.6687 72.2242 16.6302 72.4668 16.6553 72.7051L17.9743 79.204C18.0436 79.4317 18.1724 79.6348 18.3475 79.7927C18.5226 79.9506 18.7377 80.0576 18.9707 80.1027C19.6121 80.2614 20.2862 80.2646 20.9382 80.1119C21.5903 79.9591 22.2019 79.6548 22.7235 79.2237C23.2169 78.7701 23.3772 78.2825 23.2459 77.872L21.9649 71.5622Z" fill="white"/>
<path opacity="0.05" d="M21.9649 71.5622C21.9261 71.1266 21.591 70.7546 20.9667 70.5652C20.3255 70.4059 19.6515 70.4022 18.9994 70.5543C18.3473 70.7064 17.7355 71.0101 17.2136 71.4407C17.019 71.5862 16.8648 71.7799 16.7668 72.002C16.6687 72.2242 16.6302 72.4668 16.6553 72.7051L17.9743 79.204C18.0436 79.4317 18.1724 79.6348 18.3475 79.7927C18.5226 79.9506 18.7377 80.0576 18.9707 80.1027C19.6121 80.2614 20.2862 80.2646 20.9382 80.1119C21.5903 79.9591 22.2019 79.6548 22.7235 79.2237C23.2169 78.7701 23.3772 78.2825 23.2459 77.872L21.9649 71.5622Z" fill="black"/>
<g opacity="0.3">
<path d="M22.4924 79.4198C22.5799 79.3586 22.6639 79.2923 22.7438 79.2212C22.8169 79.1548 22.8852 79.0832 22.9484 79.0072L21.6968 72.8553L21.1797 72.9767L22.4924 79.4198Z" fill="white"/>
<path d="M22.0311 79.6951L20.7685 73.4086L19.9771 73.5944L21.2824 80.0058C21.5397 79.9239 21.7902 79.8199 22.0311 79.6951Z" fill="white"/>
</g>
<path opacity="0.1" d="M18.9562 80.0882C19.1026 80.1342 19.2532 80.1668 19.4061 80.1857C18.8555 77.4826 18.1405 73.8855 17.8613 72.6081C17.7311 72.6952 17.6075 72.7922 17.4917 72.8981C17.2978 73.0431 17.1442 73.2363 17.0466 73.4578C16.949 73.6793 16.9108 73.9213 16.9361 74.159L17.9619 79.1913C18.0312 79.4184 18.1598 79.6211 18.3345 79.7787C18.5093 79.9363 18.7238 80.0431 18.9562 80.0882Z" fill="black"/>
<path d="M14.0416 70.4875C11.762 72.5949 12.2389 75.0291 15.1409 75.9217C18.0428 76.8143 22.2577 75.825 24.5563 73.733C26.8549 71.6411 26.3682 69.1762 23.4697 68.2832C20.5713 67.3902 16.3389 68.3816 14.0416 70.4875Z" fill="#263238"/>
<path d="M13.9208 69.9026C11.6412 72.01 12.1178 74.4407 15.0198 75.3333C17.9217 76.2259 22.1369 75.2401 24.4352 73.1446C26.7335 71.0491 26.2414 68.6026 23.3359 67.7104C20.4305 66.8182 16.2188 67.8036 13.9208 69.9026Z" fill="#37474F"/>
<path d="M17.3694 28.8686C17.1839 27.9693 16.3573 27.231 14.9234 26.836C12.0509 26.0712 7.86883 27.0489 5.56226 29.0089C4.40598 29.9945 3.94253 31.0451 4.12458 31.9448L12.398 72.6318C12.5976 73.6103 13.4427 74.4378 14.8845 74.8811C17.7682 75.7712 21.9638 74.7884 24.2491 72.7078C25.389 71.6573 25.8384 70.5275 25.6388 69.549L17.3694 28.8686Z" fill="#4B7FB0"/>
<path d="M5.70618 35.0672C9.19076 36.137 14.2474 34.9514 16.9851 32.4113C17.3008 32.1221 17.59 31.8047 17.8487 31.4633L17.3337 28.9173C17.1478 28.0138 16.3174 27.2724 14.8763 26.8763C11.9895 26.1093 7.78529 27.0938 5.46564 29.0644C4.30279 30.0553 3.83631 31.1112 4.01875 32.0151L4.53722 34.5607C4.90825 34.7682 5.29979 34.9378 5.70618 35.0672Z" fill="#4B7FB0"/>
<path opacity="0.2" d="M5.70618 35.0672C9.19076 36.137 14.2474 34.9514 16.9851 32.4113C17.3008 32.1221 17.59 31.8047 17.8487 31.4633L17.3337 28.9173C17.1478 28.0138 16.3174 27.2724 14.8763 26.8763C11.9895 26.1093 7.78529 27.0938 5.46564 29.0644C4.30279 30.0553 3.83631 31.1112 4.01875 32.0151L4.53722 34.5607C4.90825 34.7682 5.29979 34.9378 5.70618 35.0672Z" fill="white"/>
<path d="M13.8283 69.4584C12.682 70.5106 12.2333 71.6451 12.4297 72.6281C12.6261 73.6112 13.4781 74.4414 14.9263 74.8859C17.823 75.7782 22.0389 74.7889 24.3362 72.6982C25.4822 71.6425 25.9344 70.5075 25.7345 69.5249C25.5346 68.5423 24.6899 67.7147 23.2379 67.2672C21.7859 66.8197 19.6855 65.2562 17.9846 65.6543C16.2836 66.0525 14.9778 68.4023 13.8283 69.4584Z" fill="#455A64"/>
<path opacity="0.2" d="M14.4105 72.678C14.3767 71.3052 15.9166 70.2522 16.5515 68.3227C17.1674 66.4555 17.8291 65.7407 18.7048 65.5722C18.4619 65.5604 18.2175 65.5802 17.9778 65.6311C16.2741 66.0296 14.9736 68.3919 13.8246 69.4475C12.6756 70.5031 12.2303 71.6332 12.4266 72.6158C12.6229 73.5983 13.4745 74.4282 14.922 74.8725C17.8173 75.7644 22.0297 74.7969 24.3457 72.6518C18.2974 76.3741 14.4479 74.1315 14.4105 72.678Z" fill="black"/>
<path d="M13.8283 69.4584C12.682 70.5106 12.2333 71.6451 12.4297 72.6281C12.6261 73.6112 13.4781 74.4414 14.9263 74.8859C17.823 75.7782 22.0389 74.7889 24.3362 72.6982C25.4822 71.6425 25.9344 70.5075 25.7345 69.5249C25.5346 68.5423 24.6899 67.7147 23.2379 67.2672C21.7859 66.8197 19.6855 65.2562 17.9846 65.6543C16.2836 66.0525 14.9778 68.4023 13.8283 69.4584Z" fill="#4B7FB0"/>
<path opacity="0.3" d="M23.4667 73.3285C23.7628 73.1296 24.0446 72.9096 24.3098 72.6701C24.6059 72.4017 24.8733 72.1028 25.1074 71.7784L16.3475 28.9384L14.4805 29.3745L23.4667 73.3285Z" fill="white"/>
<path opacity="0.3" d="M21.6878 74.2842C22.0177 74.142 22.336 73.9872 22.6426 73.8197L13.7603 30.317L12.7603 30.5516L21.6878 74.2842Z" fill="white"/>
<path opacity="0.1" d="M23.3406 73.4167C18.9136 75.5975 15.4635 73.2246 15.0366 71.1168C14.6098 69.0089 8.39271 38.4479 7.20712 32.5982L4.46217 30.3134C4.14777 30.8125 4.02483 31.4059 4.11708 31.979L12.392 72.656C12.5916 73.6342 13.4366 74.4616 14.8779 74.9048C17.4166 75.6672 20.9754 75.0245 23.3406 73.4167Z" fill="black"/>
<path d="M5.47865 29.0978C3.15593 31.0836 3.60842 33.32 6.48604 34.0886C9.36366 34.8573 13.5799 33.8712 15.9039 31.8995C18.2279 29.9278 17.7741 27.6774 14.8927 26.9057C12.0113 26.1339 7.79758 27.109 5.47865 29.0978Z" fill="#4B7FB0"/>
<path opacity="0.3" d="M5.47865 29.0978C3.15593 31.0836 3.60842 33.32 6.48604 34.0886C9.36366 34.8573 13.5799 33.8712 15.9039 31.8995C18.2279 29.9278 17.7741 27.6774 14.8927 26.9057C12.0113 26.1339 7.79758 27.109 5.47865 29.0978Z" fill="white"/>
<path d="M13.7915 25.2347C13.6724 24.6459 13.1642 24.1496 12.2931 23.8837C10.5575 23.3476 8.03238 23.9394 6.65684 25.2011C5.97097 25.8335 5.71797 26.5092 5.81964 27.1001L6.70052 31.4383C6.81959 32.0271 7.32784 32.5234 8.19546 32.7897C9.93449 33.3254 12.4596 32.7336 13.8317 31.4723C14.521 30.8395 14.7914 30.1617 14.6724 29.5729L13.7915 25.2347Z" fill="#4B7FB0"/>
<path opacity="0.7" d="M13.7915 25.2347C13.6724 24.6459 13.1642 24.1496 12.2931 23.8837C10.5575 23.3476 8.03238 23.9394 6.65684 25.2011C5.97097 25.8335 5.71797 26.5092 5.81964 27.1001L6.70052 31.4383C6.81959 32.0271 7.32784 32.5234 8.19546 32.7897C9.93449 33.3254 12.4596 32.7336 13.8317 31.4723C14.521 30.8395 14.7914 30.1617 14.6724 29.5729L13.7915 25.2347Z" fill="white"/>
<path opacity="0.4" d="M13.6558 31.6142C13.721 31.5608 13.7975 31.5165 13.8555 31.4604C14.0313 31.2994 14.19 31.1203 14.329 30.9263L13.0742 24.753L12.2993 24.9331L13.6558 31.6142Z" fill="white"/>
<path opacity="0.4" d="M12.6969 32.2172C12.8775 32.1268 13.053 32.0261 13.2227 31.9158L11.8947 25.4013L11.3325 25.5314L12.6969 32.2172Z" fill="white"/>
<path d="M8.15756 31.2241C8.03218 30.6041 7.93753 30.132 7.47425 27.8449L6.22487 25.6591C6.0561 25.8565 5.93124 26.0874 5.85906 26.3356C5.78688 26.5838 5.76913 26.8432 5.80705 27.0957L6.68819 31.4355C6.8073 32.0246 7.31574 32.521 8.18371 32.7874C9.92344 33.3233 12.4496 32.7312 13.8223 31.4694C13.9992 31.3074 14.159 31.1274 14.2988 30.9324C12.0898 32.9578 8.42651 32.5502 8.15756 31.2241Z" fill="#4B7FB0"/>
<path d="M6.64382 25.2097C5.26926 26.477 5.5645 27.9365 7.30688 28.4698C9.04926 29.0031 11.5765 28.4139 12.9545 27.1461C14.3326 25.8784 14.0342 24.4228 12.2918 23.8895C10.5494 23.3562 8.02249 23.9489 6.64382 25.2097Z" fill="#4B7FB0"/>
<path opacity="0.8" d="M6.64382 25.2097C5.26926 26.477 5.5645 27.9365 7.30688 28.4698C9.04926 29.0031 11.5765 28.4139 12.9545 27.1461C14.3326 25.8784 14.0342 24.4228 12.2918 23.8895C10.5494 23.3562 8.02249 23.9489 6.64382 25.2097Z" fill="white"/>
<path d="M10.085 20.7861C9.6317 20.6746 9.15545 20.6726 8.69471 20.7804C8.23397 20.8882 7.80162 21.1027 7.43254 21.4066C7.29454 21.5096 7.18524 21.6469 7.11591 21.8044C7.04658 21.9619 7.01973 22.134 7.03812 22.3028L7.91827 26.6323C7.96929 26.79 8.06088 26.9303 8.18393 27.0391C8.30698 27.148 8.4572 27.2217 8.61964 27.2528C9.07349 27.3652 9.55048 27.3675 10.0119 27.2596C10.4734 27.1517 10.9063 26.9367 11.2756 26.6319C11.4129 26.5286 11.5215 26.3911 11.5902 26.2337C11.6589 26.0763 11.6853 25.9046 11.6666 25.7361L10.7899 21.4062C10.7382 21.2483 10.646 21.1081 10.5223 20.9993C10.3987 20.8905 10.2479 20.817 10.085 20.7861Z" fill="#4B7FB0"/>
<path opacity="0.7" d="M10.085 20.7861C9.6317 20.6746 9.15545 20.6726 8.69471 20.7804C8.23397 20.8882 7.80162 21.1027 7.43254 21.4066C7.29454 21.5096 7.18524 21.6469 7.11591 21.8044C7.04658 21.9619 7.01973 22.134 7.03812 22.3028L7.91827 26.6323C7.96929 26.79 8.06088 26.9303 8.18393 27.0391C8.30698 27.148 8.4572 27.2217 8.61964 27.2528C9.07349 27.3652 9.55048 27.3675 10.0119 27.2596C10.4734 27.1517 10.9063 26.9367 11.2756 26.6319C11.4129 26.5286 11.5215 26.3911 11.5902 26.2337C11.6589 26.0763 11.6853 25.9046 11.6666 25.7361L10.7899 21.4062C10.7382 21.2483 10.646 21.1081 10.5223 20.9993C10.3987 20.8905 10.2479 20.817 10.085 20.7861Z" fill="white"/>
<path opacity="0.4" d="M10.8099 26.9689C10.9815 26.8796 11.1421 26.7697 11.2881 26.6415C11.317 26.6134 11.3356 26.5866 11.3643 26.5551L10.3884 21.8094L9.78164 21.952L10.8099 26.9689Z" fill="white"/>
<path opacity="0.4" d="M10.0194 27.2752C10.167 27.2387 10.3125 27.1932 10.4551 27.1391L9.47744 22.3384L9.03545 22.4437L10.0194 27.2752Z" fill="white"/>
<path d="M11.5617 26.2862C11.2852 26.5818 10.9324 26.7936 10.5453 26.8961C10.1582 26.9987 9.7533 26.9878 9.37893 26.8647C8.65278 26.5993 8.61002 26.1182 8.47296 25.3666C8.3359 24.6149 8.08581 23.461 7.78667 21.9924L7.24835 21.627C7.16541 21.721 7.10364 21.8317 7.06749 21.9512C7.03134 22.0706 7.02171 22.1959 7.03927 22.3179L7.91946 26.6484C7.97048 26.8061 8.06209 26.9464 8.18517 27.0553C8.30824 27.1642 8.4585 27.2379 8.62097 27.2691C9.07494 27.3814 9.55204 27.3837 10.0136 27.2758C10.4752 27.1679 10.9082 26.9527 11.2776 26.6479C11.3911 26.5434 11.4871 26.4212 11.5617 26.2862Z" fill="#4B7FB0"/>
<path d="M7.42135 21.4168C6.76963 22.0145 6.91163 22.7007 7.7342 22.9555C8.18923 23.0676 8.66739 23.0694 9.12982 22.9605C9.59225 22.8517 10.0259 22.6353 10.3955 22.3291C11.0476 21.7349 10.9053 21.0452 10.083 20.7939C9.62813 20.6821 9.15025 20.6802 8.68792 20.7884C8.22559 20.8966 7.79174 21.1119 7.42135 21.4168Z" fill="#4B7FB0"/>
<path opacity="0.8" d="M7.42135 21.4168C6.76963 22.0145 6.91163 22.7007 7.7342 22.9555C8.18923 23.0676 8.66739 23.0694 9.12982 22.9605C9.59225 22.8517 10.0259 22.6353 10.3955 22.3291C11.0476 21.7349 10.9053 21.0452 10.083 20.7939C9.62813 20.6821 9.15025 20.6802 8.68792 20.7884C8.22559 20.8966 7.79174 21.1119 7.42135 21.4168Z" fill="white"/>
<path d="M8.5878 21.73C8.51978 21.5321 8.47086 21.3275 8.44171 21.1192L7.9982 18.9187C7.8179 18.0066 7.59268 16.9454 7.36747 15.8069L6.70635 12.2425L5.44597 5.52753C5.27606 4.61417 5.13032 3.85236 5.03328 3.3199C4.98114 3.05235 4.94125 2.843 4.91455 2.70228C4.88786 2.56156 4.89417 2.47658 4.92153 2.46982C4.94575 2.46695 4.98693 2.53576 5.01709 2.67607C5.04725 2.81638 5.09343 3.01796 5.15311 3.29163C5.26746 3.82203 5.4371 4.5775 5.63437 5.4841C6.03584 7.29648 6.56894 9.71442 7.10234 12.1358C7.36527 13.3435 7.62852 14.5546 7.87794 15.6901C8.12737 16.8257 8.33498 17.8855 8.50836 18.7984C8.68173 19.7114 8.85483 20.4664 8.96571 20.9973C9.02039 21.1993 9.05551 21.4066 9.0706 21.6165C9.04554 21.6558 9.01314 21.6899 8.97527 21.7169C8.9374 21.7439 8.89479 21.7632 8.84992 21.7738C8.80504 21.7843 8.75878 21.7859 8.7138 21.7784C8.66881 21.7709 8.62599 21.7544 8.5878 21.73Z" fill="#455A64"/>
<path opacity="0.5" d="M15.182 26.9795C17.6588 28.0178 17.2866 30.0547 15.3329 31.8149C13.3792 33.5751 9.379 34.422 7.92869 34.3133C10.6415 34.5179 13.9482 33.5563 15.9093 31.88C18.1487 29.9654 17.7998 27.8207 15.182 26.9795Z" fill="white"/>
<path d="M25.9165 81.0007C23.0731 83.028 18.679 83.9008 15.5476 82.9419C13.9457 82.4298 12.9702 81.5546 12.6373 80.4972L12.613 80.5001L2.80383 32.2502C3.0423 33.4279 4.04948 34.4224 5.78975 34.9531L14.8193 79.3435C15.3157 81.7985 19.2734 83.6891 25.9165 81.0007Z" fill="#4B7FB0"/>
<path opacity="0.3" d="M9.41146 35.4408C12.2093 35.2501 15.1383 34.1579 17.0123 32.4372C19.7611 29.9093 19.1717 26.9948 15.6925 25.93C15.3824 25.8316 15.0663 25.7516 14.7459 25.6906C16.568 26.1214 18.5863 27.5343 18.1812 29.7494C17.7761 31.9645 14.5161 34.7194 9.41146 35.4408Z" fill="white"/>
<path opacity="0.4" d="M18.7699 28.5971L28.6079 76.7457L28.5837 76.7486C28.7011 77.8541 28.1597 79.0974 26.8941 80.2583L26.7123 80.4132C28.7083 78.2427 27.9812 76.6201 27.4446 74.0099L18.5447 30.438C18.8068 29.8574 18.8854 29.2142 18.7699 28.5971Z" fill="white"/>
<path opacity="0.3" d="M12.2939 23.8919C12.2429 23.8733 12.1862 23.8694 12.1321 23.8547C13.0036 24.1849 13.8846 25.0582 13.2486 26.23C12.6127 27.4017 9.74079 29.1489 6.50418 28.0986C6.75001 28.2676 7.02182 28.396 7.30971 28.4791C9.05207 29.0124 11.5793 28.4232 12.9573 27.1555C14.3353 25.8877 14.0363 24.4252 12.2939 23.8919Z" fill="white"/>
<path opacity="0.3" d="M10.0841 20.7945C9.90784 20.7447 9.72558 20.7167 9.54129 20.7112C10.0866 20.8225 10.6826 21.2279 10.5343 21.7791C10.4073 22.2535 9.38484 23.2345 7.59723 22.8977C7.64249 22.9193 7.68887 22.9385 7.73619 22.9552C8.19102 23.0673 8.66897 23.069 9.13121 22.9602C9.59345 22.8514 10.0269 22.6351 10.3964 22.329C11.0447 21.7355 10.906 21.0457 10.0841 20.7945Z" fill="white"/>
<path opacity="0.4" d="M32.2185 105.905C31.9613 105.826 31.6914 105.763 31.4152 105.708C36.6384 106.831 35.1628 111.563 30.9085 113.653C26.573 115.78 21.9335 115.039 20.6428 114.314C21.135 114.644 21.6752 114.897 22.2459 115.065C25.7307 116.135 30.7879 114.953 33.5406 112.422C36.2934 109.89 35.7125 106.96 32.2185 105.905Z" fill="white"/>
</svg>
