<svg width="325" height="324" viewBox="0 0 325 324" fill="none" xmlns="http://www.w3.org/2000/svg">
<path d="M162.5 312.725C242.619 312.725 307.568 272.978 307.568 223.949C307.568 174.919 242.619 135.173 162.5 135.173C82.3812 135.173 17.4321 174.919 17.4321 223.949C17.4321 272.978 82.3812 312.725 162.5 312.725Z" fill="#F0F0F0"/>
<path d="M281.129 236.747L286.223 233.805C286.392 233.747 286.539 233.638 286.643 233.493C286.747 233.348 286.803 233.174 286.803 232.995C286.803 232.816 286.747 232.642 286.643 232.497C286.539 232.351 286.392 232.242 286.223 232.185L233.735 201.891C233.3 201.671 232.819 201.556 232.332 201.556C231.844 201.556 231.364 201.671 230.929 201.891L225.835 204.833C225.666 204.89 225.519 204.999 225.415 205.145C225.311 205.29 225.255 205.464 225.255 205.643C225.255 205.822 225.311 205.996 225.415 206.141C225.519 206.286 225.666 206.395 225.835 206.453L278.323 236.747C278.758 236.967 279.239 237.082 279.726 237.082C280.214 237.082 280.694 236.967 281.129 236.747Z" fill="#E0E0E0"/>
<path d="M100.739 255.863C121.092 255.863 137.591 246.338 137.591 234.589C137.591 222.84 121.092 213.315 100.739 213.315C80.3863 213.315 63.8872 222.84 63.8872 234.589C63.8872 246.338 80.3863 255.863 100.739 255.863Z" fill="#E0E0E0"/>
<path d="M56.2603 251.813C66.7534 251.813 75.2597 246.901 75.2597 240.842C75.2597 234.783 66.7534 229.872 56.2603 229.872C45.7673 229.872 37.261 234.783 37.261 240.842C37.261 246.901 45.7673 251.813 56.2603 251.813Z" fill="#E0E0E0"/>
<path d="M178.071 239.131C205.213 239.131 227.216 226.43 227.216 210.762C227.216 195.094 205.213 182.393 178.071 182.393C150.93 182.393 128.927 195.094 128.927 210.762C128.927 226.43 150.93 239.131 178.071 239.131Z" fill="#E0E0E0"/>
<path d="M224.131 270.43C238.837 270.43 250.758 263.548 250.758 255.059C250.758 246.57 238.837 239.689 224.131 239.689C209.426 239.689 197.505 246.57 197.505 255.059C197.505 263.548 209.426 270.43 224.131 270.43Z" fill="#E0E0E0"/>
<path d="M157.186 269.626C152.002 266.626 143.578 266.626 138.355 269.626C136.301 270.819 135.07 272.296 134.642 273.832C129.672 276.845 129.744 281.608 134.863 284.563C139.982 287.518 148.471 287.563 153.687 284.563C155.748 283.377 156.972 281.899 157.407 280.357C162.37 277.344 162.306 272.588 157.186 269.626Z" fill="#E0E0E0"/>
<path d="M197.822 276.521L193.17 273.838L186.761 270.138C185.387 269.44 183.867 269.076 182.325 269.076C180.784 269.076 179.264 269.44 177.89 270.138C175.447 271.551 175.46 273.845 177.89 275.257L184.312 278.951L188.958 281.64C190.332 282.339 191.852 282.703 193.393 282.703C194.935 282.703 196.455 282.339 197.829 281.64C200.291 280.221 200.278 277.927 197.822 276.521Z" fill="#E0E0E0"/>
<path d="M255.637 259.239L260.296 256.556L266.705 252.85C268.08 252.155 269.6 251.793 271.14 251.793C272.681 251.793 274.201 252.155 275.576 252.85C278.019 254.269 278.006 256.563 275.576 257.975L269.154 261.669L264.489 264.384C263.114 265.082 261.595 265.446 260.053 265.446C258.512 265.446 256.992 265.082 255.618 264.384C253.175 262.939 253.181 260.645 255.637 259.239Z" fill="#E0E0E0"/>
<path d="M226.652 54.27L230.896 56.7195C230.876 56.5322 230.865 56.3441 230.864 56.1557V54.931C230.864 52.7408 232.4 51.853 234.298 52.9481C235.11 53.4431 235.806 54.1059 236.34 54.8921C236.651 52.1446 238.808 51.1143 241.433 52.6306C242.936 53.6065 244.186 54.9244 245.081 56.4765C245.977 58.0285 246.492 59.7706 246.584 61.56V63.4004C246.604 64.1348 246.455 64.8639 246.15 65.5323L249.682 67.567C250.236 67.928 250.697 68.4151 251.027 68.9883C251.357 69.5616 251.547 70.2047 251.581 70.8653C251.581 72.0771 250.732 72.5696 249.682 71.9604L226.652 58.6635C226.098 58.3034 225.636 57.8176 225.305 57.2456C224.974 56.6736 224.783 56.0315 224.747 55.3716C224.766 54.1534 225.622 53.6609 226.652 54.27Z" fill="#EBEBEB"/>
<path d="M254.736 42.9949L257.108 43.8956V38.7116C257.108 34.6227 260.348 33.6442 263.912 35.6854C267.45 37.7331 270.321 42.7097 270.321 46.7986V47.5633C270.82 47.41 271.347 47.3718 271.864 47.4514C272.38 47.5311 272.871 47.7266 273.301 48.0233C274.644 48.9003 275.762 50.0812 276.563 51.4704C277.365 52.8596 277.828 54.4181 277.915 56.0196V56.3761L281.155 58.2617C282.037 58.8365 282.771 59.6103 283.299 60.5209C283.827 61.4314 284.134 62.4533 284.194 63.5041C284.194 65.4481 282.833 66.2256 281.155 65.2536L254.736 50.0127C253.852 49.4346 253.116 48.6565 252.588 47.7413C252.06 46.8261 251.755 45.7995 251.697 44.7445C251.697 42.8069 253.058 42.0229 254.736 42.9949Z" fill="#EBEBEB"/>
<path d="M284.674 223.56C282.73 212.9 285.814 201.878 289.411 195.728C293.007 189.579 299.331 184.544 304.49 185.503C309.298 186.397 309.674 192.475 304.71 197.264C299.746 202.053 290.966 211.222 288.575 217.482C286.981 221.648 286.073 224.37 286.073 224.37L284.674 223.56Z" fill="black"/>
<path opacity="0.15" d="M284.674 223.56C282.73 212.9 285.814 201.878 289.411 195.728C293.007 189.579 299.331 184.544 304.49 185.503C309.298 186.397 309.674 192.475 304.71 197.264C299.746 202.053 290.966 211.222 288.575 217.482C286.981 221.648 286.073 224.37 286.073 224.37L284.674 223.56Z" fill="black"/>
<path d="M285.192 221.162C285.259 221.147 285.32 221.11 285.364 221.058C285.408 221.005 285.435 220.94 285.438 220.871C286.158 205.967 296.143 192.508 302.766 188.879C302.832 188.837 302.88 188.77 302.899 188.694C302.919 188.618 302.909 188.537 302.871 188.468C302.833 188.399 302.77 188.347 302.696 188.322C302.621 188.297 302.539 188.302 302.468 188.335C295.716 192.028 285.542 205.727 284.81 220.838C284.806 220.922 284.836 221.003 284.891 221.065C284.947 221.126 285.025 221.164 285.108 221.169L285.192 221.162Z" fill="white"/>
<path d="M284.881 230.837C285.212 228.355 288.121 225.478 292.34 221.538C297.025 217.184 303.356 214.566 304.483 211.546C305.812 207.917 302.539 205.157 297.265 206.608C291.99 208.06 283.657 216.73 283.78 227.94L284.881 230.837Z" fill="black"/>
<path d="M284.039 229.969C284.099 229.956 284.153 229.926 284.196 229.882C284.238 229.838 284.267 229.783 284.279 229.723C286.871 216.678 295.722 210.931 300.018 209.732C300.098 209.709 300.166 209.656 300.207 209.584C300.248 209.512 300.258 209.426 300.236 209.346C300.213 209.266 300.16 209.198 300.088 209.158C300.015 209.117 299.93 209.107 299.85 209.129C295.094 210.464 286.339 216.257 283.65 229.599C283.635 229.681 283.652 229.765 283.698 229.834C283.744 229.903 283.815 229.952 283.896 229.969C283.943 229.981 283.992 229.981 284.039 229.969Z" fill="white"/>
<path d="M47.3374 216.471C47.3374 216.471 46.2746 207.354 41.7192 200.271C37.1638 193.188 30.9106 188.821 25.1239 188.374C19.3373 187.927 14.6263 193.298 20.8601 196.953C27.0938 200.608 38.1293 204.334 43.2679 218.065L47.3374 216.471Z" fill="black"/>
<path opacity="0.15" d="M47.3374 216.471C47.3374 216.471 46.2746 207.354 41.7192 200.271C37.1638 193.188 30.9106 188.821 25.1239 188.374C19.3373 187.927 14.6263 193.298 20.8601 196.953C27.0938 200.608 38.1293 204.334 43.2679 218.065L47.3374 216.471Z" fill="black"/>
<path d="M45.6267 214.106H45.685C45.7235 214.091 45.7587 214.068 45.7884 214.039C45.8182 214.011 45.8419 213.976 45.8582 213.938C45.8745 213.9 45.883 213.859 45.8833 213.818C45.8836 213.777 45.8757 213.736 45.8599 213.697C39.678 198.599 27.9687 192.313 22.6421 191.108C22.6007 191.094 22.5566 191.088 22.5129 191.092C22.4691 191.095 22.4266 191.108 22.3882 191.129C22.3497 191.15 22.3162 191.18 22.2899 191.215C22.2635 191.25 22.2449 191.29 22.2352 191.333C22.2255 191.376 22.225 191.42 22.2337 191.463C22.2425 191.506 22.2602 191.547 22.2858 191.583C22.3114 191.618 22.3442 191.648 22.3822 191.67C22.4201 191.692 22.4623 191.706 22.506 191.711C27.69 192.897 39.1985 199.072 45.2832 213.931C45.3115 213.995 45.3611 214.048 45.4237 214.079C45.4863 214.111 45.558 214.121 45.6267 214.106Z" fill="white"/>
<path d="M38.3172 235.224C38.7834 236.499 39.6358 237.597 40.7555 238.365C41.8752 239.133 43.2065 239.532 44.5639 239.507C45.5979 239.551 46.6093 239.196 47.3892 238.516C48.7889 237.168 48.5685 234.907 49.2619 233.092C50.195 230.649 52.6963 229.016 53.0138 226.314C53.0833 225.764 53.041 225.206 52.8896 224.672C52.7381 224.139 52.4807 223.642 52.1325 223.21C51.7534 222.808 51.3463 222.434 50.9143 222.089C50.4413 221.668 49.9164 221.311 49.4239 220.923C48.7153 220.429 48.1479 219.759 47.778 218.979C47.3179 217.858 47.5706 216.594 47.4345 215.395C47.2848 214.191 46.7432 213.069 45.8931 212.202C45.043 211.336 43.9316 210.773 42.7301 210.6C41.5205 210.413 40.2992 210.314 39.0753 210.302C37.2609 210.302 35.3623 211.008 33.5544 210.62C31.7465 210.231 30.1394 209.479 28.3056 209.324C27.3427 209.192 26.3624 209.28 25.4386 209.582C24.5148 209.884 23.6716 210.391 22.9725 211.067C22.5722 211.455 22.2736 211.936 22.103 212.467C21.9324 212.998 21.895 213.563 21.9941 214.112C22.2986 215.298 23.4132 216.056 24.4565 216.704C25.4997 217.352 26.6402 218.033 27.0485 219.18C27.9168 221.493 25.4155 224.124 26.4005 226.398C26.6372 226.864 26.966 227.276 27.3671 227.61C27.7681 227.944 28.2329 228.193 28.7333 228.342C29.5433 228.634 30.3921 228.776 31.2281 228.99C31.634 229.049 32.0429 229.086 32.4528 229.1C33.6689 229.034 34.873 229.369 35.8807 230.053C37.4359 231.213 37.572 233.416 38.3172 235.224Z" fill="black"/>
<path d="M42.892 220.56C42.8685 220.518 42.8351 220.482 42.7948 220.456C36.8397 214.235 28.6425 212.084 25.9469 211.89C25.8733 211.886 25.8012 211.911 25.7457 211.959C25.6901 212.007 25.6554 212.075 25.6488 212.149C25.6452 212.222 25.6704 212.293 25.7188 212.347C25.7673 212.402 25.8352 212.435 25.908 212.44C28.4546 212.622 36.0492 214.598 41.8229 220.255C39.7636 219.89 37.6512 219.955 35.6182 220.446C33.5853 220.936 31.6758 221.842 30.0098 223.106C29.9839 223.132 29.9634 223.162 29.9494 223.195C29.9353 223.229 29.9281 223.265 29.9281 223.301C29.9281 223.337 29.9353 223.373 29.9494 223.406C29.9634 223.44 29.9839 223.47 30.0098 223.495C30.0389 223.53 30.076 223.556 30.1177 223.573C30.1595 223.59 30.2047 223.597 30.2496 223.592C30.3051 223.583 30.3568 223.559 30.3986 223.521C32.1085 222.229 34.0807 221.328 36.1765 220.88C38.2722 220.432 40.4406 220.449 42.5292 220.929C46.0131 224.605 48.1901 229.326 48.724 234.362C48.7336 234.43 48.768 234.492 48.8207 234.537C48.8733 234.581 48.9404 234.604 49.0092 234.602C49.082 234.594 49.1487 234.557 49.1948 234.5C49.2409 234.443 49.2627 234.37 49.2554 234.297C48.7019 229.143 46.4655 224.315 42.892 220.56Z" fill="white"/>
<path d="M285.115 229.392V132.743C285.029 131.185 284.578 129.67 283.797 128.319C283.017 126.968 281.93 125.82 280.624 124.967L234.83 98.496C232.348 97.064 230.333 98.2239 230.333 101.088V197.789C230.419 199.347 230.871 200.863 231.652 202.214C232.434 203.565 233.522 204.713 234.83 205.565L280.624 231.984C283.106 233.442 285.115 232.282 285.115 229.392Z" fill="#E0E0E0"/>
<path d="M283.028 230.636V133.961C282.944 132.403 282.494 130.887 281.714 129.536C280.933 128.184 279.845 127.036 278.537 126.185L232.743 99.7402C230.261 98.3081 228.246 99.468 228.246 102.332V199.007C228.332 200.566 228.784 202.082 229.566 203.433C230.347 204.784 231.435 205.932 232.743 206.783L278.492 233.228C281 234.66 283.028 233.5 283.028 230.636Z" fill="#F5F5F5"/>
<path d="M278.492 126.185L237.195 102.339C249.462 110.264 274.131 124.533 277.216 126.963C280.3 129.393 281.894 130.98 281.894 138.821C281.894 146.662 283.028 225.31 283.028 225.31V133.942C282.936 132.383 282.478 130.868 281.689 129.52C280.901 128.172 279.806 127.029 278.492 126.185Z" fill="#FAFAFA"/>
<path d="M254.037 116.679C254.199 116.788 254.333 116.935 254.427 117.106C254.522 117.277 254.575 117.468 254.581 117.664V214.028C254.581 214.397 254.341 214.553 254.037 214.384C253.876 214.273 253.744 214.127 253.651 213.956C253.558 213.785 253.506 213.594 253.499 213.399V117.035C253.499 116.64 253.739 116.511 254.037 116.679Z" fill="#E0E0E0"/>
<g style="mix-blend-mode:hard-light" opacity="0.7">
<path d="M249.332 197.083C249.332 196.777 249.306 196.471 249.254 196.169C249.254 196.098 249.209 195.871 249.196 195.826C248.621 193.262 247.053 191.032 244.835 189.624L236.968 185.088L236.897 185.056C236.049 184.513 235.07 184.208 234.063 184.173C233.056 184.139 232.059 184.376 231.175 184.86C230.292 185.344 229.555 186.056 229.042 186.923C228.529 187.79 228.258 188.779 228.259 189.786C228.261 190.093 228.289 190.398 228.343 190.7C228.359 190.816 228.381 190.93 228.408 191.043C228.977 193.604 230.539 195.834 232.75 197.245L240.623 201.781L240.688 201.813C241.536 202.358 242.516 202.664 243.523 202.7C244.531 202.735 245.53 202.498 246.414 202.014C247.299 201.53 248.037 200.817 248.55 199.949C249.063 199.081 249.334 198.091 249.332 197.083Z" fill="#FAFAFA"/>
</g>
<path d="M232.439 187.35C232.439 190.039 234.454 193.376 236.936 194.808L244.803 199.344C247.284 200.776 249.3 199.759 249.3 197.07C249.3 194.381 247.284 191.043 244.803 189.611L236.936 185.075C234.428 183.65 232.439 184.68 232.439 187.35Z" fill="#E0E0E0"/>
<path d="M233.611 184.175C232.164 184.233 230.795 184.849 229.791 185.894C228.788 186.939 228.227 188.331 228.227 189.78C228.228 190.086 228.256 190.392 228.311 190.693C228.326 190.809 228.348 190.924 228.376 191.037C228.877 193.233 230.094 195.2 231.836 196.629C229.665 193.622 228.44 191.704 228.965 188.724C229.182 187.581 229.744 186.533 230.574 185.72C231.405 184.907 232.465 184.367 233.611 184.175Z" fill="white"/>
<path d="M237.35 198.191C237.017 197.952 236.752 197.629 236.584 197.254C236.415 196.88 236.349 196.467 236.391 196.059C236.453 194.919 236.783 193.81 237.353 192.821C237.924 191.833 238.72 190.993 239.677 190.369C240.009 190.127 240.399 189.978 240.808 189.937C241.217 189.896 241.63 189.965 242.003 190.136L246.228 192.586C247.297 193.205 248.076 194.224 248.394 195.418C248.712 196.612 248.542 197.883 247.923 198.952C247.303 200.021 246.284 200.8 245.09 201.118C243.896 201.436 242.625 201.266 241.556 200.647L237.35 198.191Z" fill="#F5F5F5"/>
<path d="M231.525 194.821C230.482 194.19 229.728 193.175 229.424 191.994C229.121 190.813 229.292 189.561 229.902 188.505C230.512 187.449 231.511 186.674 232.686 186.347C233.86 186.02 235.116 186.166 236.184 186.754L242.016 190.136C241.643 189.965 241.23 189.896 240.821 189.937C240.412 189.978 240.022 190.127 239.69 190.369C238.733 190.993 237.937 191.833 237.366 192.821C236.796 193.81 236.466 194.919 236.404 196.059C236.362 196.467 236.428 196.88 236.597 197.254C236.765 197.629 237.03 197.952 237.363 198.191L231.525 194.821Z" fill="black"/>
<path opacity="0.4" d="M232.575 187.991C232.339 188.4 232.275 188.885 232.397 189.34C232.518 189.796 232.815 190.184 233.223 190.421L240.26 194.504C240.853 193.524 241.186 192.408 241.225 191.264C241.225 191.147 241.225 191.043 241.225 190.94L235.018 187.337C234.815 187.218 234.59 187.14 234.357 187.108C234.124 187.077 233.886 187.092 233.659 187.153C233.432 187.214 233.219 187.319 233.033 187.463C232.847 187.607 232.691 187.787 232.575 187.991Z" fill="white"/>
<path d="M237.35 198.191C237.017 197.952 236.752 197.629 236.584 197.254C236.415 196.88 236.349 196.467 236.391 196.059C236.453 194.919 236.783 193.81 237.353 192.821C237.924 191.833 238.72 190.993 239.677 190.369C240.009 190.127 240.399 189.978 240.808 189.937C241.217 189.896 241.63 189.965 242.003 190.136L246.228 192.586C247.297 193.205 248.076 194.224 248.394 195.418C248.712 196.612 248.542 197.883 247.923 198.952C247.303 200.021 246.284 200.8 245.09 201.118C243.896 201.436 242.625 201.266 241.556 200.647L237.35 198.191Z" fill="#F5F5F5"/>
<path opacity="0.1" d="M239.677 190.37C238.72 190.993 237.924 191.833 237.353 192.821C236.783 193.81 236.453 194.919 236.391 196.059C236.349 196.467 236.415 196.88 236.584 197.254C236.752 197.629 237.017 197.952 237.35 198.191L237.02 197.996L236.767 197.854C236.432 197.616 236.167 197.293 235.999 196.918C235.83 196.543 235.764 196.131 235.808 195.722C235.87 194.582 236.199 193.473 236.77 192.484C237.341 191.496 238.137 190.656 239.094 190.033C239.426 189.791 239.816 189.641 240.225 189.6C240.634 189.559 241.046 189.628 241.42 189.799L242.003 190.136C241.629 189.965 241.217 189.896 240.808 189.937C240.399 189.978 240.009 190.128 239.677 190.37Z" fill="black"/>
<path d="M248.522 196.124C248.618 196.979 248.475 197.845 248.108 198.624C247.741 199.403 247.165 200.064 246.444 200.535C245.722 201.005 244.885 201.266 244.024 201.288C243.163 201.31 242.313 201.093 241.569 200.66L237.35 198.204C237.017 197.965 236.752 197.642 236.584 197.267C236.415 196.893 236.349 196.48 236.391 196.072C236.396 195.592 236.463 195.115 236.592 194.653L243.649 198.735C245.969 200.057 248.496 197.64 248.522 196.124Z" fill="#E0E0E0"/>
<path d="M246.915 196.299C246.798 196.501 246.643 196.678 246.457 196.821C246.272 196.963 246.06 197.067 245.834 197.127C245.609 197.187 245.373 197.202 245.142 197.171C244.91 197.14 244.687 197.064 244.485 196.947L237.357 192.819C237.911 191.816 238.712 190.971 239.683 190.363C239.776 190.308 239.871 190.259 239.968 190.214L246.273 193.862C246.682 194.1 246.978 194.491 247.099 194.948C247.219 195.405 247.153 195.891 246.915 196.299Z" fill="white"/>
<path opacity="0.1" d="M230.151 187.972C230.203 187.901 230.261 187.836 230.32 187.765L230.443 187.622C230.488 187.57 230.54 187.525 230.592 187.473L230.747 187.317L230.838 187.246C231.083 187.036 231.35 186.854 231.635 186.702L231.953 186.546C230.657 187.337 229.821 190.726 232.14 192.067C232.931 192.527 234.117 193.234 236.573 194.659C236.444 195.121 236.376 195.599 236.372 196.078C236.329 196.487 236.396 196.899 236.564 197.274C236.733 197.648 236.997 197.971 237.331 198.21L231.499 194.841C230.431 194.221 229.651 193.204 229.332 192.011C229.012 190.818 229.179 189.548 229.795 188.477C229.873 188.354 229.95 188.231 230.034 188.114L230.151 187.972Z" fill="black"/>
<g style="mix-blend-mode:hard-light" opacity="0.7">
<path d="M278.79 213.957C278.789 213.651 278.765 213.345 278.719 213.043C278.719 212.972 278.667 212.745 278.654 212.7C278.082 210.137 276.516 207.906 274.299 206.498L266.426 201.962L266.355 201.93C265.507 201.387 264.528 201.082 263.521 201.047C262.514 201.013 261.517 201.25 260.633 201.734C259.75 202.218 259.013 202.93 258.5 203.797C257.987 204.664 257.716 205.653 257.717 206.66C257.719 206.967 257.747 207.272 257.801 207.574C257.801 207.639 257.847 207.814 257.866 207.917C258.434 210.478 259.996 212.709 262.208 214.119L270.081 218.655H270.146C270.994 219.2 271.974 219.506 272.981 219.541C273.989 219.577 274.988 219.34 275.872 218.856C276.757 218.372 277.495 217.658 278.008 216.791C278.521 215.923 278.792 214.933 278.79 213.924V213.957Z" fill="#FAFAFA"/>
</g>
<path d="M261.936 204.224C261.936 206.913 263.944 210.257 266.426 211.689L274.299 216.225C276.775 217.657 278.79 216.639 278.79 213.95C278.79 211.261 276.775 207.924 274.299 206.492L266.426 201.956C263.944 200.524 261.936 201.528 261.936 204.224Z" fill="#E0E0E0"/>
<path d="M263.102 201.049C261.655 201.109 260.287 201.725 259.284 202.77C258.28 203.814 257.719 205.206 257.717 206.654C257.719 206.96 257.747 207.266 257.801 207.567C257.801 207.632 257.847 207.807 257.866 207.911C258.367 210.107 259.585 212.075 261.326 213.503C259.162 210.496 257.931 208.578 258.456 205.604C258.673 204.462 259.235 203.413 260.065 202.599C260.896 201.784 261.955 201.243 263.102 201.049Z" fill="white"/>
<path d="M266.828 215.065C266.495 214.827 266.23 214.505 266.062 214.131C265.894 213.758 265.827 213.347 265.869 212.939C265.931 211.799 266.26 210.688 266.831 209.699C267.402 208.709 268.198 207.868 269.154 207.243C269.486 207.001 269.877 206.852 270.286 206.811C270.695 206.77 271.107 206.839 271.481 207.01L275.706 209.46C276.235 209.765 276.699 210.173 277.071 210.658C277.443 211.143 277.715 211.697 277.873 212.287C278.031 212.878 278.071 213.494 277.991 214.1C277.911 214.706 277.712 215.29 277.407 215.82C277.101 216.349 276.693 216.813 276.208 217.185C275.723 217.557 275.169 217.829 274.579 217.987C273.988 218.145 273.372 218.185 272.766 218.105C272.16 218.025 271.576 217.827 271.046 217.521L266.828 215.065Z" fill="#F5F5F5"/>
<path d="M260.996 211.695C259.927 211.077 259.147 210.06 258.828 208.867C258.509 207.675 258.677 206.404 259.295 205.335C259.913 204.266 260.93 203.486 262.123 203.167C263.315 202.848 264.586 203.016 265.655 203.634L271.487 207.01C271.114 206.839 270.701 206.77 270.292 206.811C269.883 206.852 269.493 207.001 269.161 207.243C268.204 207.868 267.408 208.709 266.837 209.699C266.267 210.688 265.937 211.799 265.875 212.939C265.833 213.347 265.9 213.758 266.068 214.131C266.237 214.505 266.501 214.827 266.834 215.065L260.996 211.695Z" fill="black"/>
<path opacity="0.4" d="M262.065 204.865C261.948 205.067 261.872 205.29 261.841 205.522C261.81 205.754 261.825 205.989 261.885 206.215C261.945 206.44 262.049 206.652 262.191 206.838C262.334 207.023 262.511 207.178 262.713 207.295L269.751 211.384C270.342 210.403 270.674 209.288 270.716 208.144C270.716 208.034 270.716 207.924 270.716 207.82L264.508 204.217C264.306 204.098 264.081 204.02 263.849 203.988C263.616 203.956 263.379 203.97 263.151 204.031C262.924 204.091 262.711 204.196 262.525 204.339C262.338 204.482 262.182 204.661 262.065 204.865Z" fill="white"/>
<path d="M266.828 215.065C266.495 214.827 266.23 214.505 266.062 214.131C265.894 213.758 265.827 213.347 265.869 212.939C265.931 211.799 266.26 210.688 266.831 209.699C267.402 208.709 268.198 207.868 269.154 207.243C269.486 207.001 269.877 206.852 270.286 206.811C270.695 206.77 271.107 206.839 271.481 207.01L275.706 209.46C276.235 209.765 276.699 210.173 277.071 210.658C277.443 211.143 277.715 211.697 277.873 212.287C278.031 212.878 278.071 213.494 277.991 214.1C277.911 214.706 277.712 215.29 277.407 215.82C277.101 216.349 276.693 216.813 276.208 217.185C275.723 217.557 275.169 217.829 274.579 217.987C273.988 218.145 273.372 218.185 272.766 218.105C272.16 218.025 271.576 217.827 271.046 217.521L266.828 215.065Z" fill="#F5F5F5"/>
<path opacity="0.1" d="M269.167 207.243C268.211 207.868 267.415 208.709 266.844 209.699C266.273 210.688 265.944 211.799 265.882 212.939C265.84 213.347 265.907 213.758 266.075 214.131C266.244 214.505 266.508 214.827 266.841 215.065L266.511 214.877L266.258 214.728C265.924 214.491 265.659 214.169 265.49 213.795C265.321 213.422 265.255 213.01 265.299 212.602C265.36 211.462 265.69 210.351 266.261 209.362C266.832 208.372 267.628 207.531 268.584 206.906C268.916 206.664 269.307 206.515 269.716 206.474C270.125 206.433 270.537 206.502 270.91 206.673L271.494 207.01C271.12 206.839 270.708 206.77 270.299 206.811C269.89 206.852 269.499 207.001 269.167 207.243Z" fill="black"/>
<path d="M278.012 212.998C278.109 213.853 277.965 214.719 277.598 215.498C277.231 216.277 276.655 216.938 275.934 217.409C275.213 217.879 274.375 218.14 273.514 218.162C272.654 218.184 271.804 217.967 271.059 217.534L266.828 215.065C266.495 214.827 266.23 214.505 266.062 214.131C265.894 213.758 265.827 213.347 265.869 212.939C265.873 212.457 265.941 211.978 266.07 211.514C268.539 212.933 271.552 214.682 273.127 215.596C275.459 216.937 277.987 214.52 278.012 212.998Z" fill="#E0E0E0"/>
<path d="M276.405 213.192C276.289 213.394 276.133 213.572 275.948 213.714C275.762 213.856 275.551 213.96 275.325 214.02C275.099 214.081 274.864 214.096 274.632 214.065C274.401 214.034 274.177 213.957 273.975 213.84L266.847 209.712C267.402 208.71 268.202 207.864 269.174 207.256C269.271 207.198 269.368 207.153 269.459 207.107L275.764 210.756C276.171 210.995 276.466 211.385 276.587 211.842C276.707 212.298 276.642 212.783 276.405 213.192Z" fill="white"/>
<path opacity="0.1" d="M259.642 204.852C259.694 204.78 259.751 204.711 259.81 204.645C259.848 204.594 259.889 204.547 259.933 204.502L260.082 204.347C260.133 204.294 260.187 204.244 260.244 204.198C260.275 204.167 260.31 204.141 260.348 204.12C260.593 203.908 260.86 203.723 261.145 203.569C261.242 203.517 261.346 203.466 261.456 203.42C260.16 204.204 259.324 207.6 261.644 208.935C262.435 209.395 263.627 210.101 266.076 211.527C265.948 211.991 265.88 212.47 265.876 212.952C265.834 213.36 265.9 213.771 266.069 214.144C266.237 214.518 266.501 214.84 266.835 215.078L261.003 211.708C259.934 211.089 259.155 210.071 258.837 208.878C258.518 207.685 258.687 206.414 259.305 205.345C259.376 205.22 259.454 205.099 259.538 204.982L259.642 204.852Z" fill="black"/>
<g style="mix-blend-mode:hard-light" opacity="0.7">
<path d="M249.332 172.757C249.332 172.448 249.306 172.141 249.254 171.837C249.254 171.772 249.209 171.539 249.196 171.5C248.912 170.229 248.381 169.027 247.633 167.962C246.885 166.897 245.934 165.989 244.835 165.292L236.968 160.756H236.897C236.049 160.213 235.07 159.908 234.063 159.873C233.056 159.839 232.059 160.076 231.175 160.56C230.292 161.044 229.555 161.756 229.042 162.623C228.529 163.49 228.258 164.479 228.259 165.486C228.261 165.793 228.289 166.098 228.343 166.4C228.358 166.516 228.379 166.63 228.408 166.743C228.977 169.305 230.538 171.538 232.75 172.951L240.623 177.487H240.688C241.536 178.032 242.516 178.338 243.523 178.374C244.531 178.409 245.53 178.172 246.414 177.688C247.299 177.204 248.037 176.491 248.55 175.623C249.063 174.755 249.334 173.765 249.332 172.757Z" fill="#FAFAFA"/>
</g>
<path d="M232.439 163.024C232.439 165.707 234.454 169.05 236.936 170.482L244.803 175.018C247.284 176.45 249.3 175.433 249.3 172.75C249.3 170.068 247.284 166.724 244.803 165.285L236.936 160.749C234.428 159.317 232.439 160.335 232.439 163.024Z" fill="#E0E0E0"/>
<path d="M233.611 159.842C232.164 159.902 230.797 160.519 229.793 161.563C228.79 162.608 228.229 163.999 228.227 165.447C228.228 165.754 228.256 166.059 228.311 166.361C228.325 166.477 228.347 166.591 228.376 166.704C228.877 168.901 230.094 170.868 231.836 172.297C229.665 169.29 228.44 167.372 228.965 164.398C229.183 163.255 229.744 162.206 230.575 161.392C231.405 160.578 232.465 160.037 233.611 159.842Z" fill="white"/>
<path d="M237.351 173.858C237.011 173.622 236.741 173.299 236.569 172.923C236.397 172.547 236.329 172.131 236.372 171.72C236.434 170.579 236.763 169.469 237.334 168.479C237.905 167.49 238.701 166.649 239.657 166.024C239.99 165.783 240.381 165.634 240.79 165.594C241.199 165.554 241.611 165.624 241.984 165.797L246.209 168.24C246.739 168.546 247.205 168.953 247.578 169.438C247.951 169.923 248.225 170.477 248.384 171.069C248.543 171.66 248.585 172.277 248.505 172.884C248.426 173.491 248.228 174.076 247.923 174.607C247.617 175.137 247.21 175.603 246.725 175.976C246.24 176.349 245.686 176.623 245.094 176.782C244.503 176.942 243.886 176.983 243.279 176.904C242.672 176.824 242.087 176.626 241.556 176.321L237.351 173.858Z" fill="#F5F5F5"/>
<path d="M231.525 170.489C230.996 170.183 230.532 169.776 230.16 169.291C229.788 168.805 229.515 168.252 229.357 167.661C229.199 167.071 229.159 166.455 229.239 165.849C229.319 165.242 229.518 164.658 229.824 164.129C230.13 163.599 230.537 163.136 231.022 162.764C231.507 162.392 232.061 162.119 232.652 161.961C233.242 161.803 233.858 161.763 234.464 161.843C235.07 161.923 235.655 162.122 236.184 162.428L242.016 165.81C241.643 165.638 241.231 165.567 240.822 165.607C240.413 165.647 240.022 165.796 239.69 166.037C238.729 166.657 237.928 167.494 237.351 168.482C236.775 169.469 236.439 170.579 236.372 171.72C236.329 172.128 236.396 172.539 236.564 172.912C236.733 173.286 236.997 173.608 237.331 173.846L231.525 170.489Z" fill="black"/>
<path opacity="0.4" d="M232.575 163.659C232.339 164.068 232.275 164.554 232.397 165.011C232.518 165.467 232.815 165.857 233.223 166.095L240.26 170.178C240.853 169.198 241.185 168.082 241.226 166.938C241.226 166.828 241.226 166.724 241.226 166.62L235.018 163.017C234.816 162.898 234.592 162.819 234.359 162.787C234.126 162.754 233.89 162.768 233.662 162.828C233.435 162.888 233.222 162.992 233.035 163.134C232.849 163.277 232.692 163.455 232.575 163.659Z" fill="white"/>
<path d="M237.351 173.858C237.011 173.622 236.741 173.299 236.569 172.923C236.397 172.547 236.329 172.131 236.372 171.72C236.434 170.579 236.763 169.469 237.334 168.479C237.905 167.49 238.701 166.649 239.657 166.024C239.99 165.783 240.381 165.634 240.79 165.594C241.199 165.554 241.611 165.624 241.984 165.797L246.209 168.24C246.739 168.546 247.205 168.953 247.578 169.438C247.951 169.923 248.225 170.477 248.384 171.069C248.543 171.66 248.585 172.277 248.505 172.884C248.426 173.491 248.228 174.076 247.923 174.607C247.617 175.137 247.21 175.603 246.725 175.976C246.24 176.349 245.686 176.623 245.094 176.782C244.503 176.942 243.886 176.983 243.279 176.904C242.672 176.824 242.087 176.626 241.556 176.321L237.351 173.858Z" fill="#F5F5F5"/>
<path opacity="0.1" d="M239.677 166.037C238.718 166.658 237.92 167.496 237.345 168.484C236.771 169.471 236.438 170.58 236.372 171.72C236.329 172.128 236.396 172.539 236.564 172.912C236.733 173.286 236.997 173.608 237.331 173.845L237.02 173.664L236.767 173.515C236.433 173.278 236.167 172.957 235.998 172.583C235.83 172.209 235.764 171.797 235.808 171.39C235.87 170.249 236.199 169.139 236.77 168.149C237.341 167.159 238.137 166.318 239.094 165.694C239.426 165.452 239.817 165.304 240.226 165.264C240.635 165.224 241.047 165.294 241.42 165.467L242.003 165.804C241.63 165.632 241.217 165.563 240.808 165.604C240.399 165.645 240.009 165.794 239.677 166.037Z" fill="black"/>
<path d="M248.522 171.791C248.618 172.647 248.475 173.513 248.108 174.291C247.741 175.07 247.165 175.732 246.444 176.202C245.722 176.673 244.885 176.934 244.024 176.956C243.163 176.978 242.313 176.76 241.569 176.327L237.351 173.865C237.01 173.628 236.74 173.304 236.568 172.926C236.395 172.549 236.328 172.132 236.372 171.72C236.377 171.238 236.444 170.759 236.573 170.294L243.63 174.377C245.969 175.731 248.496 173.321 248.522 171.791Z" fill="#E0E0E0"/>
<path d="M246.915 171.973C246.678 172.38 246.289 172.677 245.834 172.799C245.378 172.92 244.893 172.856 244.485 172.621L237.357 168.493C237.909 167.487 238.71 166.639 239.683 166.031L239.968 165.882L246.273 169.53C246.682 169.769 246.979 170.161 247.099 170.619C247.219 171.077 247.153 171.564 246.915 171.973Z" fill="white"/>
<path opacity="0.1" d="M230.151 163.646C230.204 163.574 230.26 163.505 230.32 163.439C230.357 163.388 230.398 163.34 230.443 163.296C230.489 163.243 230.539 163.193 230.592 163.147L230.747 162.991L230.838 162.92C231.083 162.708 231.35 162.524 231.635 162.369L231.953 162.22C230.657 163.004 229.821 166.4 232.141 167.741C232.931 168.195 234.117 168.901 236.573 170.333C236.448 170.785 236.38 171.251 236.372 171.72C236.329 172.127 236.396 172.539 236.564 172.912C236.733 173.286 236.997 173.608 237.331 173.845L231.499 170.476C230.431 169.858 229.652 168.842 229.333 167.65C229.013 166.458 229.179 165.188 229.795 164.119C229.873 163.989 229.95 163.873 230.035 163.756C230.07 163.716 230.109 163.679 230.151 163.646Z" fill="black"/>
<g style="mix-blend-mode:hard-light" opacity="0.7">
<path d="M278.79 189.631C278.789 189.323 278.765 189.015 278.719 188.711C278.719 188.646 278.667 188.419 278.654 188.374C278.371 187.104 277.841 185.903 277.094 184.839C276.347 183.775 275.397 182.869 274.299 182.172L266.426 177.636L266.355 177.604C265.506 177.063 264.527 176.76 263.52 176.726C262.514 176.693 261.517 176.931 260.634 177.415C259.751 177.9 259.014 178.612 258.501 179.479C257.988 180.345 257.717 181.334 257.717 182.341C257.719 182.645 257.747 182.949 257.801 183.248C257.801 183.319 257.847 183.494 257.866 183.591C258.434 186.154 259.995 188.387 262.208 189.799L270.081 194.335L270.146 194.368C270.994 194.913 271.974 195.219 272.981 195.254C273.989 195.29 274.988 195.053 275.872 194.569C276.757 194.085 277.495 193.371 278.008 192.504C278.521 191.636 278.792 190.646 278.79 189.637V189.631Z" fill="#FAFAFA"/>
</g>
<path d="M261.936 179.898C261.936 182.587 263.944 185.924 266.426 187.356L274.299 191.892C276.775 193.324 278.79 192.307 278.79 189.624C278.79 186.942 276.775 183.598 274.299 182.166L266.426 177.63C263.944 176.191 261.936 177.209 261.936 179.898Z" fill="#E0E0E0"/>
<path d="M263.102 176.723C261.654 176.781 260.286 177.397 259.282 178.442C258.278 179.487 257.718 180.879 257.717 182.328C257.719 182.632 257.747 182.936 257.801 183.235C257.801 183.306 257.847 183.481 257.866 183.578C258.365 185.776 259.583 187.743 261.326 189.171C259.162 186.164 257.931 184.252 258.456 181.272C258.673 180.13 259.234 179.081 260.065 178.268C260.896 177.455 261.955 176.915 263.102 176.723Z" fill="white"/>
<path d="M266.828 190.739C266.494 190.5 266.23 190.177 266.061 189.802C265.893 189.428 265.826 189.015 265.869 188.607C265.931 187.466 266.261 186.356 266.832 185.367C267.402 184.377 268.198 183.536 269.154 182.911C269.487 182.669 269.878 182.521 270.287 182.481C270.696 182.441 271.108 182.511 271.481 182.684L275.706 185.127C276.249 185.426 276.726 185.831 277.111 186.317C277.496 186.802 277.78 187.36 277.946 187.957C278.113 188.554 278.158 189.179 278.08 189.794C278.003 190.409 277.803 191.002 277.493 191.539C277.183 192.075 276.769 192.545 276.275 192.92C275.782 193.294 275.218 193.567 274.618 193.721C274.017 193.875 273.392 193.908 272.779 193.818C272.166 193.727 271.577 193.516 271.046 193.195L266.828 190.739Z" fill="#F5F5F5"/>
<path d="M260.996 187.363C259.927 186.745 259.147 185.728 258.828 184.535C258.509 183.342 258.677 182.072 259.295 181.003C259.913 179.934 260.93 179.154 262.123 178.835C263.315 178.516 264.586 178.684 265.655 179.302L271.487 182.684C271.114 182.511 270.702 182.441 270.293 182.481C269.884 182.521 269.493 182.669 269.161 182.911C268.205 183.536 267.409 184.377 266.838 185.367C266.267 186.356 265.938 187.466 265.875 188.607C265.833 189.015 265.899 189.428 266.068 189.802C266.236 190.177 266.501 190.5 266.834 190.739L260.996 187.363Z" fill="black"/>
<path opacity="0.4" d="M262.065 180.533C261.83 180.942 261.766 181.428 261.887 181.885C262.008 182.341 262.305 182.731 262.713 182.969L269.751 187.052C270.343 186.072 270.675 184.956 270.716 183.812C270.716 183.702 270.716 183.598 270.716 183.494L264.508 179.891C264.306 179.773 264.082 179.695 263.85 179.663C263.617 179.631 263.381 179.645 263.154 179.705C262.927 179.764 262.714 179.868 262.527 180.01C262.34 180.152 262.183 180.33 262.065 180.533Z" fill="white"/>
<path d="M266.828 190.739C266.494 190.5 266.23 190.177 266.061 189.802C265.893 189.428 265.826 189.015 265.869 188.607C265.931 187.466 266.261 186.356 266.832 185.367C267.402 184.377 268.198 183.536 269.154 182.911C269.487 182.669 269.878 182.521 270.287 182.481C270.696 182.441 271.108 182.511 271.481 182.684L275.706 185.127C276.249 185.426 276.726 185.831 277.111 186.317C277.496 186.802 277.78 187.36 277.946 187.957C278.113 188.554 278.158 189.179 278.08 189.794C278.003 190.409 277.803 191.002 277.493 191.539C277.183 192.075 276.769 192.545 276.275 192.92C275.782 193.294 275.218 193.567 274.618 193.721C274.017 193.875 273.392 193.908 272.779 193.818C272.166 193.727 271.577 193.516 271.046 193.195L266.828 190.739Z" fill="#F5F5F5"/>
<path opacity="0.1" d="M269.167 182.911C268.211 183.536 267.415 184.377 266.845 185.367C266.274 186.356 265.944 187.466 265.882 188.607C265.84 189.015 265.906 189.428 266.074 189.802C266.243 190.177 266.507 190.5 266.841 190.739L266.511 190.544L266.258 190.395C265.923 190.159 265.657 189.837 265.488 189.464C265.319 189.09 265.254 188.678 265.299 188.27C265.361 187.129 265.691 186.019 266.261 185.03C266.832 184.04 267.628 183.199 268.584 182.574C268.917 182.332 269.308 182.184 269.717 182.144C270.125 182.104 270.538 182.174 270.911 182.347L271.494 182.684C271.121 182.511 270.709 182.441 270.3 182.481C269.891 182.521 269.5 182.669 269.167 182.911Z" fill="black"/>
<path d="M278.012 188.672C278.122 189.65 277.915 190.638 277.423 191.49C276.805 192.56 275.787 193.341 274.594 193.66C273.401 193.98 272.129 193.812 271.059 193.195L266.828 190.739C266.494 190.5 266.23 190.177 266.061 189.802C265.893 189.428 265.826 189.015 265.869 188.607C265.874 188.125 265.941 187.646 266.07 187.181L273.127 191.264C275.459 192.605 277.987 190.194 278.012 188.672Z" fill="#E0E0E0"/>
<path d="M276.405 188.847C276.289 189.049 276.133 189.226 275.948 189.369C275.762 189.511 275.551 189.615 275.325 189.675C275.099 189.735 274.864 189.75 274.632 189.719C274.401 189.688 274.177 189.612 273.975 189.495L266.847 185.367C267.402 184.362 268.202 183.515 269.174 182.905L269.459 182.762L275.764 186.41C275.967 186.527 276.144 186.684 276.286 186.87C276.428 187.056 276.532 187.268 276.592 187.495C276.651 187.721 276.666 187.957 276.634 188.189C276.602 188.421 276.524 188.645 276.405 188.847Z" fill="white"/>
<path opacity="0.1" d="M259.642 180.52C259.694 180.448 259.75 180.379 259.81 180.312C259.849 180.267 259.888 180.215 259.933 180.17L260.082 180.021L260.244 179.865L260.329 179.794C260.574 179.584 260.841 179.402 261.126 179.25C261.225 179.19 261.329 179.138 261.437 179.094C260.141 179.878 259.305 183.274 261.625 184.615C262.415 185.075 263.607 185.782 266.057 187.207C265.928 187.672 265.861 188.151 265.856 188.633C265.814 189.041 265.88 189.454 266.048 189.828C266.217 190.202 266.481 190.526 266.815 190.765L260.983 187.389C260.454 187.083 259.989 186.677 259.617 186.192C259.245 185.707 258.973 185.153 258.815 184.562C258.657 183.972 258.618 183.356 258.698 182.75C258.779 182.144 258.979 181.56 259.285 181.032C259.357 180.907 259.435 180.786 259.519 180.669L259.642 180.52Z" fill="black"/>
<g style="mix-blend-mode:hard-light" opacity="0.7">
<path d="M249.332 148.424C249.332 148.118 249.306 147.813 249.254 147.511C249.254 147.44 249.209 147.213 249.196 147.167C248.621 144.604 247.053 142.374 244.835 140.966L236.968 136.43L236.897 136.398C236.049 135.854 235.07 135.55 234.063 135.515C233.056 135.481 232.059 135.718 231.175 136.201C230.292 136.685 229.555 137.398 229.042 138.265C228.529 139.132 228.258 140.121 228.259 141.128C228.261 141.434 228.289 141.74 228.343 142.042C228.359 142.157 228.381 142.272 228.408 142.385C228.977 144.945 230.539 147.175 232.75 148.586L240.623 153.122H240.688C241.536 153.667 242.516 153.974 243.523 154.009C244.531 154.044 245.53 153.808 246.414 153.324C247.299 152.84 248.037 152.126 248.55 151.258C249.063 150.391 249.334 149.4 249.332 148.392V148.424Z" fill="#FAFAFA"/>
</g>
<path d="M232.439 138.672C232.439 141.361 234.454 144.698 236.936 146.131L244.803 150.667C247.284 152.099 249.3 151.081 249.3 148.392C249.3 145.703 247.284 142.366 244.803 140.934L236.936 136.398C234.428 134.991 232.439 136.009 232.439 138.672Z" fill="#E0E0E0"/>
<path d="M233.611 135.516C232.164 135.575 230.795 136.191 229.791 137.236C228.788 138.28 228.227 139.673 228.227 141.121C228.228 141.428 228.256 141.734 228.311 142.035C228.326 142.151 228.348 142.265 228.376 142.379C228.877 144.575 230.094 146.542 231.836 147.971C229.665 144.964 228.44 143.046 228.965 140.065C229.182 138.923 229.744 137.875 230.574 137.062C231.405 136.248 232.465 135.709 233.611 135.516Z" fill="white"/>
<path d="M237.35 149.533C237.017 149.293 236.752 148.97 236.584 148.596C236.415 148.221 236.349 147.809 236.391 147.401C236.453 146.261 236.783 145.151 237.353 144.163C237.924 143.174 238.72 142.334 239.677 141.711C240.009 141.469 240.399 141.32 240.808 141.279C241.217 141.238 241.63 141.307 242.003 141.478L246.228 143.927C246.757 144.234 247.221 144.642 247.593 145.128C247.964 145.614 248.237 146.168 248.394 146.76C248.551 147.351 248.591 147.967 248.51 148.574C248.429 149.18 248.229 149.765 247.923 150.294C247.616 150.823 247.208 151.287 246.722 151.659C246.236 152.03 245.681 152.302 245.09 152.46C244.499 152.617 243.883 152.656 243.276 152.576C242.67 152.495 242.085 152.295 241.556 151.988L237.35 149.533Z" fill="#F5F5F5"/>
<path d="M231.525 146.163C230.482 145.532 229.728 144.517 229.424 143.336C229.121 142.155 229.292 140.902 229.902 139.847C230.512 138.791 231.511 138.016 232.686 137.689C233.86 137.361 235.116 137.507 236.184 138.095L242.016 141.478C241.643 141.307 241.23 141.238 240.821 141.279C240.412 141.32 240.022 141.469 239.69 141.711C238.733 142.334 237.937 143.174 237.366 144.163C236.796 145.151 236.466 146.261 236.404 147.401C236.362 147.809 236.428 148.221 236.597 148.596C236.765 148.97 237.03 149.293 237.363 149.533L231.525 146.163Z" fill="black"/>
<path opacity="0.4" d="M232.575 139.32C232.339 139.729 232.275 140.213 232.397 140.669C232.518 141.124 232.815 141.513 233.223 141.75L240.26 145.833C240.853 144.853 241.186 143.737 241.225 142.593C241.225 142.476 241.225 142.372 241.225 142.269L235.005 138.672C234.803 138.555 234.579 138.478 234.348 138.447C234.116 138.416 233.881 138.432 233.655 138.492C233.429 138.552 233.218 138.656 233.032 138.798C232.847 138.94 232.691 139.118 232.575 139.32Z" fill="white"/>
<path d="M237.35 149.533C237.017 149.293 236.752 148.97 236.584 148.596C236.415 148.221 236.349 147.809 236.391 147.401C236.453 146.261 236.783 145.151 237.353 144.163C237.924 143.174 238.72 142.334 239.677 141.711C240.009 141.469 240.399 141.32 240.808 141.279C241.217 141.238 241.63 141.307 242.003 141.478L246.228 143.927C246.757 144.234 247.221 144.642 247.593 145.128C247.964 145.614 248.237 146.168 248.394 146.76C248.551 147.351 248.591 147.967 248.51 148.574C248.429 149.18 248.229 149.765 247.923 150.294C247.616 150.823 247.208 151.287 246.722 151.659C246.236 152.03 245.681 152.302 245.09 152.46C244.499 152.617 243.883 152.656 243.276 152.576C242.67 152.495 242.085 152.295 241.556 151.988L237.35 149.533Z" fill="#F5F5F5"/>
<path opacity="0.1" d="M239.677 141.711C238.72 142.334 237.924 143.174 237.353 144.163C236.783 145.151 236.453 146.261 236.391 147.401C236.349 147.809 236.415 148.221 236.584 148.596C236.752 148.97 237.017 149.293 237.35 149.533L237.02 149.338L236.767 149.196C236.432 148.957 236.167 148.634 235.999 148.26C235.83 147.885 235.764 147.472 235.808 147.064C235.87 145.924 236.199 144.814 236.77 143.826C237.341 142.837 238.137 141.997 239.094 141.374C239.426 141.132 239.816 140.983 240.225 140.942C240.634 140.901 241.046 140.97 241.42 141.141L242.003 141.478C241.629 141.307 241.217 141.238 240.808 141.279C240.399 141.32 240.009 141.469 239.677 141.711Z" fill="black"/>
<path d="M248.522 147.465C248.618 148.321 248.475 149.187 248.108 149.965C247.741 150.744 247.165 151.406 246.444 151.876C245.722 152.347 244.885 152.608 244.024 152.63C243.163 152.652 242.313 152.434 241.569 152.001L237.35 149.545C237.017 149.306 236.752 148.983 236.584 148.609C236.415 148.234 236.349 147.822 236.391 147.414C236.396 146.934 236.463 146.457 236.592 145.994L243.649 150.077C245.969 151.399 248.496 148.988 248.522 147.465Z" fill="#E0E0E0"/>
<path d="M246.915 147.64C246.798 147.843 246.643 148.02 246.457 148.162C246.272 148.304 246.06 148.409 245.834 148.469C245.609 148.529 245.373 148.544 245.142 148.513C244.91 148.482 244.687 148.406 244.485 148.288L237.357 144.161C237.911 143.158 238.712 142.313 239.683 141.705C239.776 141.65 239.871 141.6 239.968 141.556L246.273 145.204C246.682 145.442 246.978 145.832 247.099 146.289C247.219 146.746 247.153 147.232 246.915 147.64Z" fill="white"/>
<path opacity="0.1" d="M230.151 139.32L230.32 139.113L230.443 138.97L230.592 138.821L230.747 138.666L230.838 138.594C231.085 138.387 231.352 138.204 231.635 138.05L231.953 137.894C230.657 138.685 229.821 142.074 232.14 143.415C232.931 143.875 234.117 144.582 236.573 146.007C236.444 146.47 236.376 146.947 236.372 147.426C236.329 147.835 236.396 148.247 236.564 148.622C236.733 148.996 236.997 149.319 237.331 149.558L231.499 146.189C230.431 145.57 229.651 144.552 229.332 143.359C229.012 142.167 229.179 140.896 229.795 139.825C229.873 139.702 229.95 139.579 230.034 139.463L230.151 139.32Z" fill="black"/>
<g style="mix-blend-mode:hard-light" opacity="0.7">
<path d="M278.79 165.298C278.789 164.992 278.765 164.687 278.719 164.385C278.719 164.313 278.667 164.087 278.654 164.041C278.082 161.478 276.516 159.248 274.299 157.84L266.426 153.304H266.355C265.507 152.761 264.528 152.456 263.521 152.421C262.514 152.387 261.517 152.624 260.633 153.108C259.75 153.592 259.013 154.304 258.5 155.171C257.987 156.038 257.716 157.027 257.717 158.034C257.719 158.341 257.747 158.646 257.801 158.948C257.801 159.013 257.847 159.188 257.866 159.291C258.434 161.852 259.996 164.083 262.208 165.493L270.081 170.029H270.146C270.994 170.574 271.974 170.88 272.981 170.915C273.989 170.951 274.988 170.714 275.872 170.23C276.757 169.746 277.495 169.032 278.008 168.165C278.521 167.297 278.792 166.307 278.79 165.298Z" fill="#FAFAFA"/>
</g>
<path d="M261.936 155.572C261.936 158.255 263.944 161.598 266.426 163.03L274.299 167.566C276.775 168.998 278.79 167.981 278.79 165.292C278.79 162.603 276.775 159.266 274.299 157.833L266.426 153.297C263.944 151.865 261.936 152.883 261.936 155.572Z" fill="#E0E0E0"/>
<path d="M263.102 152.39C261.655 152.45 260.287 153.067 259.284 154.111C258.28 155.156 257.719 156.547 257.717 157.995C257.719 158.302 257.747 158.608 257.801 158.909C257.801 158.974 257.847 159.149 257.866 159.253C258.367 161.449 259.585 163.416 261.326 164.845C259.162 161.838 257.931 159.92 258.456 156.946C258.673 155.803 259.235 154.754 260.065 153.94C260.896 153.126 261.955 152.585 263.102 152.39Z" fill="white"/>
<path d="M266.828 166.406C266.495 166.168 266.23 165.846 266.062 165.473C265.894 165.1 265.827 164.688 265.869 164.281C265.931 163.14 266.26 162.03 266.831 161.04C267.402 160.051 268.198 159.21 269.154 158.585C269.486 158.343 269.877 158.194 270.286 158.153C270.695 158.112 271.107 158.181 271.481 158.352L275.706 160.801C276.775 161.419 277.554 162.436 277.873 163.629C278.192 164.822 278.024 166.092 277.407 167.161C276.789 168.23 275.772 169.01 274.579 169.329C273.386 169.648 272.115 169.48 271.046 168.862L266.828 166.406Z" fill="#F5F5F5"/>
<path d="M260.996 163.037C259.927 162.419 259.147 161.402 258.828 160.209C258.509 159.016 258.677 157.746 259.295 156.677C259.913 155.608 260.93 154.828 262.123 154.509C263.315 154.19 264.586 154.358 265.655 154.976L271.487 158.352C271.114 158.181 270.701 158.112 270.292 158.153C269.883 158.194 269.493 158.343 269.161 158.585C268.204 159.21 267.408 160.051 266.837 161.04C266.267 162.03 265.937 163.14 265.875 164.281C265.833 164.688 265.898 165.099 266.066 165.472C266.233 165.845 266.496 166.168 266.828 166.406L260.996 163.037Z" fill="black"/>
<path opacity="0.4" d="M262.065 156.207C261.83 156.616 261.766 157.102 261.887 157.559C262.008 158.015 262.305 158.405 262.713 158.643L269.751 162.726C270.342 161.745 270.674 160.63 270.716 159.486C270.716 159.376 270.716 159.265 270.716 159.162L264.508 155.559C264.306 155.439 264.081 155.361 263.849 155.329C263.616 155.297 263.379 155.312 263.151 155.372C262.924 155.433 262.711 155.537 262.525 155.681C262.338 155.824 262.182 156.003 262.065 156.207Z" fill="white"/>
<path d="M266.828 166.406C266.495 166.168 266.23 165.846 266.062 165.473C265.894 165.1 265.827 164.688 265.869 164.281C265.931 163.14 266.26 162.03 266.831 161.04C267.402 160.051 268.198 159.21 269.154 158.585C269.486 158.343 269.877 158.194 270.286 158.153C270.695 158.112 271.107 158.181 271.481 158.352L275.706 160.801C276.775 161.419 277.554 162.436 277.873 163.629C278.192 164.822 278.024 166.092 277.407 167.161C276.789 168.23 275.772 169.01 274.579 169.329C273.386 169.648 272.115 169.48 271.046 168.862L266.828 166.406Z" fill="#F5F5F5"/>
<path opacity="0.1" d="M269.167 158.585C268.211 159.21 267.415 160.051 266.844 161.04C266.273 162.03 265.944 163.14 265.882 164.281C265.839 164.687 265.903 165.098 266.069 165.471C266.236 165.844 266.497 166.167 266.828 166.406L266.498 166.219L266.245 166.069C265.911 165.832 265.646 165.51 265.477 165.137C265.309 164.763 265.243 164.352 265.286 163.944C265.347 162.803 265.677 161.693 266.248 160.703C266.819 159.714 267.615 158.873 268.571 158.248C268.903 158.006 269.294 157.857 269.703 157.816C270.112 157.775 270.524 157.844 270.898 158.015L271.481 158.352C271.109 158.183 270.699 158.116 270.293 158.157C269.886 158.198 269.498 158.345 269.167 158.585Z" fill="black"/>
<path d="M278.012 164.339C278.109 165.195 277.965 166.061 277.598 166.84C277.231 167.618 276.655 168.28 275.934 168.751C275.213 169.221 274.375 169.482 273.514 169.504C272.654 169.526 271.804 169.308 271.059 168.875L266.828 166.406C266.495 166.168 266.23 165.846 266.062 165.473C265.894 165.1 265.827 164.688 265.869 164.281C265.873 163.799 265.941 163.32 266.07 162.855C268.539 164.275 271.552 166.031 273.127 166.938C275.459 168.279 277.987 165.888 278.012 164.339Z" fill="#E0E0E0"/>
<path d="M276.405 164.521C276.289 164.723 276.133 164.9 275.948 165.043C275.762 165.185 275.551 165.289 275.325 165.349C275.099 165.409 274.864 165.424 274.632 165.393C274.401 165.362 274.177 165.286 273.975 165.169L266.847 161.041C267.402 160.038 268.202 159.193 269.174 158.585C269.271 158.527 269.368 158.481 269.459 158.436L275.764 162.084C276.171 162.324 276.466 162.714 276.587 163.17C276.707 163.627 276.642 164.112 276.405 164.521Z" fill="white"/>
<path opacity="0.1" d="M259.642 156.168C259.694 156.096 259.751 156.027 259.81 155.961C259.848 155.91 259.889 155.863 259.933 155.818L260.082 155.663C260.133 155.61 260.187 155.56 260.244 155.514C260.269 155.486 260.298 155.462 260.329 155.442C260.574 155.23 260.841 155.046 261.126 154.891C261.223 154.84 261.327 154.788 261.437 154.742C260.141 155.527 259.305 158.922 261.625 160.257C262.415 160.717 263.607 161.423 266.057 162.849C265.928 163.313 265.86 163.793 265.856 164.275C265.814 164.684 265.882 165.098 266.053 165.472C266.224 165.847 266.491 166.169 266.828 166.406L260.996 163.037C259.928 162.419 259.149 161.402 258.831 160.21C258.512 159.018 258.68 157.748 259.298 156.68C259.368 156.552 259.446 156.429 259.532 156.311L259.642 156.168Z" fill="black"/>
<g style="mix-blend-mode:hard-light" opacity="0.7">
<path d="M249.332 124.099C249.332 123.79 249.306 123.482 249.254 123.178C249.254 123.114 249.209 122.88 249.196 122.841C248.907 121.569 248.37 120.366 247.615 119.302C246.86 118.238 245.902 117.333 244.796 116.64L236.929 112.104H236.858C236.009 111.563 235.031 111.26 234.025 111.227C233.019 111.193 232.023 111.431 231.14 111.914C230.257 112.397 229.52 113.109 229.007 113.975C228.493 114.84 228.222 115.828 228.22 116.834C228.222 117.141 228.25 117.447 228.304 117.748C228.319 117.864 228.341 117.979 228.369 118.092C228.938 120.654 230.499 122.886 232.711 124.299L240.584 128.835L240.649 128.868C241.497 129.413 242.477 129.719 243.485 129.754C244.492 129.79 245.491 129.553 246.375 129.069C247.26 128.585 247.998 127.871 248.511 127.004C249.025 126.136 249.295 125.146 249.293 124.137L249.332 124.099Z" fill="#FAFAFA"/>
</g>
<path d="M232.439 114.366C232.439 117.055 234.454 120.392 236.936 121.824L244.796 126.36C247.278 127.792 249.293 126.775 249.293 124.092C249.293 121.409 247.278 118.066 244.796 116.634L236.929 112.098C234.428 110.659 232.439 111.676 232.439 114.366Z" fill="#E0E0E0"/>
<path d="M233.611 111.184C232.164 111.244 230.797 111.861 229.793 112.905C228.79 113.949 228.229 115.341 228.227 116.789C228.228 117.095 228.256 117.401 228.311 117.703C228.325 117.818 228.347 117.933 228.376 118.046C228.875 120.243 230.093 122.211 231.836 123.638C229.665 120.632 228.44 118.714 228.965 115.739C229.183 114.597 229.744 113.548 230.575 112.734C231.405 111.92 232.465 111.379 233.611 111.184Z" fill="white"/>
<path d="M237.351 125.2C237.017 124.962 236.752 124.64 236.584 124.267C236.415 123.894 236.349 123.482 236.391 123.075C236.453 121.934 236.783 120.824 237.353 119.834C237.924 118.844 238.72 118.003 239.677 117.379C240.009 117.137 240.4 116.989 240.809 116.949C241.218 116.909 241.63 116.979 242.003 117.152L246.228 119.595C246.767 119.897 247.241 120.302 247.622 120.789C248.002 121.275 248.283 121.833 248.446 122.428C248.609 123.024 248.653 123.646 248.573 124.259C248.494 124.872 248.293 125.462 247.984 125.997C247.674 126.531 247.261 126.999 246.769 127.372C246.277 127.746 245.715 128.017 245.117 128.172C244.519 128.326 243.896 128.36 243.285 128.272C242.673 128.183 242.086 127.974 241.556 127.656L237.351 125.2Z" fill="#F5F5F5"/>
<path d="M231.525 121.824C230.996 121.518 230.532 121.111 230.16 120.626C229.788 120.141 229.515 119.587 229.357 118.996C229.199 118.406 229.159 117.79 229.239 117.184C229.319 116.578 229.518 115.993 229.824 115.464C230.13 114.935 230.537 114.471 231.022 114.099C231.507 113.727 232.061 113.454 232.652 113.296C233.242 113.138 233.858 113.098 234.464 113.178C235.07 113.258 235.655 113.457 236.184 113.763L242.016 117.146C241.643 116.973 241.231 116.903 240.822 116.942C240.413 116.982 240.022 117.131 239.69 117.372C238.733 117.997 237.937 118.838 237.366 119.828C236.796 120.817 236.466 121.927 236.404 123.068C236.362 123.476 236.428 123.887 236.597 124.261C236.765 124.634 237.03 124.956 237.363 125.194L231.525 121.824Z" fill="black"/>
<path opacity="0.4" d="M232.575 115.001C232.339 115.41 232.275 115.896 232.397 116.352C232.518 116.809 232.815 117.199 233.223 117.437L240.26 121.52C240.853 120.539 241.185 119.424 241.226 118.28C241.226 118.169 241.226 118.066 241.226 117.962L235.018 114.359C234.816 114.239 234.592 114.161 234.359 114.129C234.126 114.096 233.89 114.11 233.662 114.17C233.435 114.229 233.222 114.334 233.035 114.476C232.849 114.619 232.692 114.797 232.575 115.001Z" fill="white"/>
<path d="M237.351 125.2C237.017 124.962 236.752 124.64 236.584 124.267C236.415 123.894 236.349 123.482 236.391 123.075C236.453 121.934 236.783 120.824 237.353 119.834C237.924 118.844 238.72 118.003 239.677 117.379C240.009 117.137 240.4 116.989 240.809 116.949C241.218 116.909 241.63 116.979 242.003 117.152L246.228 119.595C246.767 119.897 247.241 120.302 247.622 120.789C248.002 121.275 248.283 121.833 248.446 122.428C248.609 123.024 248.653 123.646 248.573 124.259C248.494 124.872 248.293 125.462 247.984 125.997C247.674 126.531 247.261 126.999 246.769 127.372C246.277 127.746 245.715 128.017 245.117 128.172C244.519 128.326 243.896 128.36 243.285 128.272C242.673 128.183 242.086 127.974 241.556 127.656L237.351 125.2Z" fill="#F5F5F5"/>
<path opacity="0.1" d="M239.677 117.379C238.72 118.003 237.924 118.844 237.353 119.834C236.783 120.824 236.453 121.934 236.391 123.075C236.349 123.482 236.415 123.894 236.584 124.267C236.752 124.641 237.017 124.963 237.35 125.2L237.02 125.012L236.767 124.863C236.433 124.626 236.167 124.305 235.998 123.931C235.83 123.557 235.764 123.145 235.808 122.738C235.87 121.597 236.199 120.487 236.77 119.497C237.341 118.508 238.137 117.666 239.094 117.042C239.426 116.8 239.817 116.652 240.226 116.612C240.635 116.572 241.047 116.642 241.42 116.815L242.003 117.152C241.63 116.979 241.218 116.909 240.809 116.949C240.4 116.989 240.009 117.137 239.677 117.379Z" fill="black"/>
<path d="M248.522 123.12C248.631 124.098 248.425 125.086 247.932 125.939C247.627 126.471 247.219 126.937 246.733 127.311C246.247 127.685 245.692 127.96 245.1 128.12C244.508 128.279 243.89 128.32 243.282 128.241C242.674 128.161 242.087 127.962 241.556 127.656L237.338 125.194C237.004 124.956 236.739 124.634 236.571 124.261C236.402 123.887 236.336 123.476 236.379 123.068C236.383 122.586 236.451 122.107 236.579 121.643L243.636 125.725C245.969 127.073 248.496 124.662 248.522 123.12Z" fill="#E0E0E0"/>
<path d="M246.915 123.314C246.678 123.722 246.289 124.019 245.834 124.14C245.378 124.262 244.893 124.198 244.485 123.962L237.357 119.835C237.909 118.829 238.71 117.981 239.683 117.372L239.968 117.223L246.273 120.872C246.682 121.111 246.979 121.502 247.099 121.96C247.219 122.418 247.153 122.905 246.915 123.314Z" fill="white"/>
<path opacity="0.1" d="M230.151 114.988C230.204 114.916 230.26 114.846 230.32 114.78C230.357 114.73 230.398 114.682 230.443 114.638L230.592 114.489L230.747 114.333L230.838 114.262C231.083 114.05 231.35 113.865 231.635 113.711C231.738 113.653 231.844 113.601 231.953 113.556C230.657 114.34 229.821 117.735 232.141 119.076C232.931 119.53 234.117 120.243 236.573 121.668C236.444 122.133 236.377 122.612 236.372 123.094C236.329 123.502 236.396 123.913 236.564 124.286C236.733 124.66 236.997 124.982 237.331 125.22L231.499 121.85C230.431 121.232 229.652 120.216 229.333 119.024C229.013 117.832 229.179 116.562 229.795 115.493C229.873 115.363 229.95 115.247 230.035 115.13C230.068 115.079 230.107 115.031 230.151 114.988Z" fill="black"/>
<g style="mix-blend-mode:hard-light" opacity="0.7">
<path d="M278.79 140.972C278.789 140.664 278.765 140.357 278.719 140.052C278.719 139.988 278.667 139.761 278.654 139.715C278.371 138.446 277.841 137.245 277.094 136.181C276.347 135.117 275.397 134.211 274.299 133.514L266.426 128.978L266.355 128.946C265.506 128.404 264.527 128.101 263.52 128.068C262.514 128.035 261.517 128.273 260.634 128.757C259.751 129.241 259.014 129.954 258.501 130.82C257.988 131.687 257.717 132.675 257.717 133.682C257.719 133.987 257.747 134.29 257.801 134.59C257.801 134.661 257.847 134.836 257.866 134.933C258.434 137.496 259.995 139.728 262.208 141.141L270.081 145.677H270.146C270.994 146.222 271.974 146.528 272.981 146.564C273.989 146.599 274.988 146.362 275.872 145.878C276.757 145.394 277.495 144.681 278.008 143.813C278.521 142.945 278.792 141.955 278.79 140.947V140.972Z" fill="#FAFAFA"/>
</g>
<path d="M261.936 131.24C261.936 133.929 263.944 137.266 266.426 138.698L274.299 143.234C276.775 144.666 278.79 143.649 278.79 140.96C278.79 138.27 276.775 134.933 274.299 133.501L266.426 128.965C263.944 127.533 261.936 128.55 261.936 131.24Z" fill="#E0E0E0"/>
<path d="M263.102 128.064C261.654 128.123 260.286 128.739 259.282 129.784C258.278 130.828 257.718 132.221 257.717 133.67C257.719 133.974 257.747 134.277 257.801 134.577C257.801 134.648 257.847 134.823 257.866 134.92C258.365 137.117 259.583 139.085 261.326 140.512C259.162 137.506 257.931 135.594 258.456 132.613C258.673 131.471 259.234 130.423 260.065 129.61C260.896 128.796 261.955 128.257 263.102 128.064Z" fill="white"/>
<path d="M266.828 142.081C266.494 141.841 266.23 141.518 266.061 141.144C265.893 140.769 265.826 140.357 265.869 139.949C265.931 138.808 266.261 137.698 266.832 136.708C267.402 135.719 268.198 134.878 269.154 134.253C269.488 134.013 269.878 133.866 270.287 133.826C270.696 133.786 271.107 133.855 271.481 134.026L275.706 136.475C276.235 136.781 276.699 137.188 277.071 137.674C277.443 138.159 277.715 138.713 277.873 139.303C278.031 139.894 278.071 140.51 277.991 141.116C277.911 141.722 277.713 142.306 277.407 142.835C277.101 143.365 276.693 143.829 276.208 144.201C275.723 144.572 275.169 144.845 274.579 145.003C273.988 145.161 273.372 145.201 272.766 145.121C272.16 145.041 271.576 144.842 271.046 144.536L266.828 142.081Z" fill="#F5F5F5"/>
<path d="M260.996 138.704C259.927 138.087 259.147 137.069 258.828 135.877C258.509 134.684 258.677 133.413 259.295 132.344C259.913 131.275 260.93 130.496 262.123 130.177C263.315 129.858 264.586 130.026 265.655 130.643L271.487 134.026C271.114 133.855 270.702 133.786 270.293 133.826C269.885 133.866 269.494 134.013 269.161 134.253C268.205 134.878 267.409 135.719 266.838 136.708C266.267 137.698 265.938 138.808 265.875 139.949C265.833 140.357 265.899 140.769 266.068 141.144C266.236 141.518 266.501 141.841 266.834 142.081L260.996 138.704Z" fill="black"/>
<path opacity="0.4" d="M262.065 131.875C261.83 132.284 261.766 132.77 261.887 133.226C262.008 133.683 262.305 134.073 262.713 134.311L269.751 138.393C270.343 137.413 270.675 136.298 270.716 135.153C270.716 135.043 270.716 134.94 270.716 134.836L264.508 131.233C264.306 131.114 264.082 131.037 263.85 131.004C263.617 130.972 263.381 130.987 263.154 131.046C262.927 131.106 262.714 131.21 262.527 131.352C262.34 131.494 262.183 131.672 262.065 131.875Z" fill="white"/>
<path d="M266.828 142.081C266.494 141.841 266.23 141.518 266.061 141.144C265.893 140.769 265.826 140.357 265.869 139.949C265.931 138.808 266.261 137.698 266.832 136.708C267.402 135.719 268.198 134.878 269.154 134.253C269.488 134.013 269.878 133.866 270.287 133.826C270.696 133.786 271.107 133.855 271.481 134.026L275.706 136.475C276.235 136.781 276.699 137.188 277.071 137.674C277.443 138.159 277.715 138.713 277.873 139.303C278.031 139.894 278.071 140.51 277.991 141.116C277.911 141.722 277.713 142.306 277.407 142.835C277.101 143.365 276.693 143.829 276.208 144.201C275.723 144.572 275.169 144.845 274.579 145.003C273.988 145.161 273.372 145.201 272.766 145.121C272.16 145.041 271.576 144.842 271.046 144.536L266.828 142.081Z" fill="#F5F5F5"/>
<path opacity="0.1" d="M269.167 134.253C268.211 134.878 267.415 135.719 266.845 136.708C266.274 137.698 265.944 138.808 265.882 139.949C265.84 140.357 265.906 140.769 266.074 141.144C266.243 141.518 266.507 141.841 266.841 142.08L266.511 141.886L266.258 141.744C265.923 141.505 265.658 141.182 265.489 140.808C265.321 140.433 265.255 140.02 265.299 139.612C265.361 138.471 265.691 137.361 266.262 136.371C266.832 135.382 267.628 134.541 268.584 133.916C268.917 133.674 269.308 133.526 269.717 133.486C270.126 133.446 270.538 133.516 270.911 133.689L271.494 134.026C271.12 133.855 270.709 133.786 270.3 133.826C269.891 133.866 269.501 134.013 269.167 134.253Z" fill="black"/>
<path d="M278.012 140.013C278.122 140.992 277.915 141.98 277.423 142.832C276.805 143.902 275.787 144.682 274.594 145.002C273.401 145.321 272.129 145.154 271.059 144.536L266.828 142.08C266.494 141.841 266.23 141.518 266.061 141.144C265.893 140.769 265.826 140.357 265.869 139.949C265.874 139.467 265.941 138.987 266.07 138.523L273.127 142.605C275.459 143.947 277.987 141.536 278.012 140.013Z" fill="#E0E0E0"/>
<path d="M276.406 140.188C276.289 140.391 276.133 140.568 275.948 140.71C275.762 140.852 275.551 140.957 275.325 141.017C275.099 141.077 274.864 141.092 274.632 141.061C274.401 141.03 274.178 140.954 273.976 140.836L266.828 136.728C267.382 135.723 268.183 134.876 269.154 134.266L269.44 134.123L275.745 137.771C276.151 138.006 276.448 138.392 276.572 138.844C276.695 139.297 276.636 139.78 276.406 140.188Z" fill="white"/>
<path opacity="0.1" d="M259.642 131.862C259.694 131.79 259.75 131.72 259.81 131.654C259.849 131.609 259.888 131.557 259.933 131.512L260.082 131.363L260.244 131.207L260.329 131.136C260.574 130.926 260.841 130.743 261.126 130.591C261.225 130.532 261.329 130.48 261.437 130.436C260.141 131.226 259.305 134.616 261.625 135.957C262.415 136.417 263.607 137.123 266.057 138.549C265.928 139.013 265.861 139.493 265.856 139.974C265.814 140.383 265.88 140.795 266.048 141.17C266.217 141.544 266.481 141.867 266.815 142.106L260.983 138.73C260.454 138.425 259.989 138.018 259.617 137.533C259.245 137.048 258.973 136.495 258.815 135.904C258.657 135.314 258.618 134.698 258.698 134.092C258.779 133.486 258.979 132.902 259.285 132.373C259.357 132.249 259.435 132.128 259.519 132.011L259.642 131.862Z" fill="black"/>
<path d="M208.54 104.522C206.667 103.448 204.717 102.51 202.708 101.717C200.852 101 199.253 99.7422 198.119 98.1061C196.986 96.47 196.37 94.5312 196.352 92.5409V81.3435H159.791V92.5409C159.778 94.5357 159.164 96.4801 158.029 98.1205C156.893 99.7608 155.29 101.021 153.428 101.736C151.419 102.53 149.47 103.467 147.596 104.542C139.172 109.402 134.979 115.772 134.979 122.135V206.57C134.979 212.933 139.185 219.303 147.596 224.163C164.444 233.883 191.705 233.883 208.508 224.163C216.932 219.303 221.131 212.939 221.131 206.57V122.116C221.163 115.746 216.932 109.382 208.54 104.522Z" fill="black"/>
<path opacity="0.7" d="M208.54 104.522C206.667 103.448 204.717 102.51 202.708 101.717C200.852 101 199.253 99.7422 198.119 98.1061C196.986 96.47 196.37 94.5312 196.352 92.5409V81.3435H159.791V92.5409C159.778 94.5357 159.164 96.4801 158.029 98.1205C156.893 99.7608 155.29 101.021 153.428 101.736C151.419 102.53 149.47 103.467 147.596 104.542C139.172 109.402 134.979 115.772 134.979 122.135V206.57C134.979 212.933 139.185 219.303 147.596 224.163C164.444 233.883 191.705 233.883 208.508 224.163C216.932 219.303 221.131 212.939 221.131 206.57V122.116C221.163 115.746 216.932 109.382 208.54 104.522Z" fill="white"/>
<path d="M178.097 231.433C201.879 231.433 221.157 220.412 221.157 206.816C221.157 193.22 201.879 182.198 178.097 182.198C154.316 182.198 135.038 193.22 135.038 206.816C135.038 220.412 154.316 231.433 178.097 231.433Z" fill="black"/>
<path opacity="0.5" d="M178.097 231.433C201.879 231.433 221.157 220.412 221.157 206.816C221.157 193.22 201.879 182.198 178.097 182.198C154.316 182.198 135.038 193.22 135.038 206.816C135.038 220.412 154.316 231.433 178.097 231.433Z" fill="white"/>
<path opacity="0.4" d="M199.844 93.1177C191.919 88.5428 180.722 86.9876 170.561 88.4715V81.3435H159.791V92.5345C159.78 94.5305 159.167 96.4768 158.032 98.1186C156.896 99.7603 155.292 101.021 153.428 101.736C151.422 102.536 149.473 103.474 147.596 104.542C147.525 104.542 147.466 104.626 147.389 104.659C139.107 109.506 134.979 115.817 134.979 122.155V206.544C134.979 212.92 139.185 219.277 147.596 224.137C159.701 231.129 177.21 233.06 192.347 230.001C157.316 232.405 148.892 217.553 148.892 206.809V124.714C148.892 120.923 149.462 117.794 152.132 115.156C153.429 116.343 154.857 117.378 156.389 118.241C168.41 125.174 187.882 125.174 199.89 118.241C211.897 111.307 211.865 100.064 199.844 93.1177Z" fill="white"/>
<path opacity="0.4" d="M208.54 104.522C206.667 103.448 204.717 102.51 202.708 101.717C200.852 101 199.253 99.7422 198.119 98.1061C196.986 96.47 196.37 94.5312 196.352 92.5409V81.3435H192.36V96.3317C192.36 99.7856 195.334 103.071 198.775 104.95C202.216 106.829 213.154 111.579 215.805 116.776C218.332 121.72 217.509 131.551 217.509 143.215V202.831C217.509 210.399 214.353 221.35 200.298 227.934C203.155 226.959 205.916 225.722 208.547 224.24C216.971 219.38 221.163 213.27 221.163 206.57V122.116C221.163 115.746 216.932 109.382 208.54 104.522Z" fill="white"/>
<path d="M208.864 97.0575V100.246C208.864 104.782 205.877 109.357 199.844 112.849C187.837 119.776 168.371 119.776 156.331 112.849C153.681 111.403 151.379 109.394 149.585 106.965C148.16 105.034 147.376 102.704 147.343 100.304V96.9927C147.333 96.2984 147.414 95.6057 147.583 94.9321C148.328 91.083 151.257 87.3505 156.331 84.4215C156.476 84.3303 156.628 84.2501 156.785 84.1818C168.844 77.4944 187.986 77.5851 199.844 84.4215C204.918 87.3505 207.879 91.083 208.625 94.9062C208.794 95.6105 208.875 96.3332 208.864 97.0575Z" fill="#F0F0F0"/>
<path d="M180.644 114.735V103.414C180.644 98.9367 181.778 104.996 173.924 104.996C167.114 104.996 161.055 89.288 156.817 84.1818C156.66 84.2501 156.508 84.3303 156.364 84.4215C151.29 87.3505 148.361 91.083 147.616 94.9321C147.447 95.6056 147.366 96.2983 147.376 96.9927V100.304C147.408 102.704 148.192 105.034 149.618 106.965C151.411 109.394 153.713 111.402 156.364 112.849C168.403 119.776 187.869 119.776 199.877 112.849C191.362 116.193 180.644 119.005 180.644 114.735Z" fill="#E0E0E0"/>
<path d="M178.097 114.748C195.086 114.748 208.858 106.796 208.858 96.9862C208.858 87.1767 195.086 79.2245 178.097 79.2245C161.109 79.2245 147.337 87.1767 147.337 96.9862C147.337 106.796 161.109 114.748 178.097 114.748Z" fill="#455A64"/>
<path d="M208.864 86.3914V92.7547C208.874 93.479 208.794 94.2018 208.625 94.9061C207.879 98.7293 204.918 102.462 199.844 105.384C194.466 108.495 187.604 110.192 180.612 110.497C171.922 110.912 162.993 109.201 156.331 105.358C153.693 103.917 151.393 101.929 149.585 99.5263C148.598 98.1569 147.919 96.5894 147.596 94.932C147.427 94.2497 147.346 93.5484 147.356 92.8454V86.333C147.356 81.797 150.344 77.261 156.344 73.7618C156.882 73.4638 157.42 73.1657 157.99 72.8935C170.082 66.8347 188.388 67.1328 199.857 73.7618C205.877 77.2546 208.89 81.823 208.864 86.3914Z" fill="#F0F0F0"/>
<path d="M178.097 103.939C195.086 103.939 208.858 95.9871 208.858 86.1776C208.858 76.3681 195.086 68.4159 178.097 68.4159C161.109 68.4159 147.337 76.3681 147.337 86.1776C147.337 95.9871 161.109 103.939 178.097 103.939Z" fill="#FAFAFA"/>
<path d="M149.585 99.507C151.393 101.909 153.693 103.898 156.331 105.339C162.993 109.188 171.922 110.892 180.612 110.478C180.696 108.242 181.947 106.531 173.892 104.976C167.205 103.68 157.316 100.907 152.702 93.5972C148.464 86.8774 150.901 78.0452 157.977 72.8612C157.407 73.1334 156.869 73.4314 156.331 73.7295C150.331 77.1963 147.343 81.7323 147.343 86.3007V92.8131C147.333 93.516 147.414 94.2173 147.583 94.8997C147.908 96.5626 148.591 98.1349 149.585 99.507Z" fill="#E0E0E0"/>
<path d="M208.69 152.623C191.783 162.292 164.373 162.292 147.467 152.623C139.01 147.796 134.785 141.458 134.785 135.127V176.936C134.785 183.267 139.01 189.605 147.467 194.432C164.373 204.101 191.783 204.101 208.69 194.432C217.146 189.605 221.371 183.267 221.371 176.936V135.127C221.371 141.458 217.146 147.796 208.69 152.623Z" fill="black"/>
<path d="M208.69 148.619C191.783 158.28 164.373 158.28 147.467 148.619C139.01 143.785 134.785 137.454 134.785 131.123V172.932C134.785 179.269 139.01 185.6 147.467 190.428C164.373 200.089 191.783 200.089 208.69 190.428C217.146 185.594 221.371 179.263 221.371 172.932V131.116C221.371 137.454 217.146 143.785 208.69 148.619Z" fill="#FAFAFA"/>
<path d="M164.036 173.269C163.999 170.653 163.439 168.071 162.39 165.674V165.622C161.191 162.888 159.455 160.594 157.524 159.479C154.705 157.859 152.34 160.523 151.4 164.249C151.309 164.624 150.869 164.644 150.81 164.249C149.955 159.389 147.492 153.693 144.589 152.034C142.645 150.926 140.922 151.224 139.729 152.591C138.712 153.783 138.09 155.747 138.096 158.306C138.096 166.238 142.885 173.359 146.89 180.857L151.212 188.095L155.32 185.697C159.26 182.84 164.049 181.2 164.036 173.269Z" fill="black"/>
<path d="M145.153 170.677L147 165.836C147.045 165.682 147.139 165.547 147.268 165.451C147.396 165.355 147.553 165.304 147.713 165.305C147.875 165.306 148.031 165.363 148.156 165.465C148.281 165.568 148.367 165.71 148.4 165.869L151.257 176.982L153.532 170.761C153.585 170.619 153.68 170.497 153.806 170.412C153.931 170.327 154.08 170.284 154.232 170.288C154.381 170.297 154.524 170.353 154.64 170.447C154.756 170.541 154.84 170.669 154.88 170.813L156.571 176.826L162.448 180.215L162.312 180.423C162.111 180.704 161.894 180.974 161.664 181.233L161.541 181.375L155.573 177.928C155.411 177.835 155.292 177.681 155.243 177.5L154.076 173.359L151.711 179.839C151.657 179.986 151.557 180.111 151.427 180.196C151.296 180.281 151.141 180.322 150.985 180.313C150.831 180.301 150.685 180.24 150.568 180.138C150.451 180.036 150.37 179.9 150.337 179.749L147.596 169.057L146.3 171.966C146.271 172.072 146.218 172.17 146.145 172.252C146.072 172.334 145.981 172.398 145.879 172.439C145.775 172.483 145.663 172.502 145.551 172.496C145.438 172.489 145.329 172.456 145.231 172.4L140.533 169.685L140.501 169.621C140.274 169.109 140.054 168.603 139.853 168.091L139.606 167.482L145.153 170.677Z" fill="#FAFAFA"/>
<path d="M178.402 170.599C176.75 170.599 175.084 170.547 173.393 170.444C173.222 170.432 173.063 170.353 172.95 170.224C172.837 170.096 172.78 169.928 172.79 169.757C172.802 169.586 172.881 169.427 173.009 169.314C173.138 169.201 173.306 169.143 173.477 169.154C184.863 169.847 195.509 168.137 204.296 164.197C204.374 164.162 204.458 164.143 204.543 164.14C204.629 164.138 204.713 164.152 204.793 164.183C204.873 164.213 204.946 164.259 205.008 164.317C205.07 164.376 205.12 164.446 205.155 164.524C205.19 164.602 205.209 164.686 205.211 164.771C205.214 164.856 205.199 164.941 205.169 165.021C205.139 165.101 205.093 165.174 205.034 165.236C204.976 165.298 204.905 165.348 204.827 165.383C197.168 168.824 188.109 170.599 178.402 170.599Z" fill="#E0E0E0"/>
<path d="M178.402 177.636C176.75 177.636 175.084 177.584 173.393 177.481C173.222 177.469 173.063 177.39 172.95 177.262C172.837 177.133 172.78 176.965 172.79 176.794C172.802 176.623 172.881 176.464 173.009 176.351C173.138 176.238 173.306 176.181 173.477 176.191C184.863 176.885 195.509 175.174 204.296 171.234C204.453 171.164 204.632 171.158 204.793 171.22C204.954 171.281 205.084 171.404 205.155 171.561C205.225 171.719 205.23 171.897 205.169 172.058C205.108 172.219 204.985 172.349 204.827 172.42C197.168 175.861 188.109 177.636 178.402 177.636Z" fill="#E0E0E0"/>
<path d="M178.402 184.68C176.75 184.68 175.084 184.628 173.393 184.524C173.221 184.513 173.061 184.434 172.947 184.305C172.833 184.175 172.776 184.006 172.787 183.834C172.798 183.663 172.877 183.502 173.007 183.388C173.136 183.275 173.305 183.217 173.477 183.228C184.862 183.928 195.509 182.218 204.296 178.278C204.452 178.208 204.63 178.202 204.791 178.263C204.951 178.324 205.081 178.446 205.151 178.602C205.187 178.68 205.207 178.764 205.21 178.849C205.213 178.935 205.199 179.02 205.169 179.1C205.139 179.18 205.093 179.254 205.035 179.316C204.976 179.378 204.906 179.429 204.827 179.464C197.168 182.892 188.109 184.68 178.402 184.68Z" fill="#E0E0E0"/>
<path d="M154.957 273.787C154.889 273.587 154.807 273.392 154.711 273.203C154.63 273.042 154.539 272.887 154.439 272.737C153.972 272.06 153.383 271.475 152.702 271.013V272.808L151.166 271.914V270.132C146.89 268.104 140.565 268.253 136.573 270.553C135.22 271.238 134.159 272.388 133.586 273.793C133.586 273.897 133.528 273.994 133.502 274.098C133.425 274.392 133.386 274.694 133.385 274.998V278.556C133.399 279.408 133.677 280.235 134.182 280.921C134.821 281.778 135.637 282.487 136.573 283.001C140.831 285.457 147.725 285.457 151.97 283.001C154.095 281.77 155.165 280.163 155.165 278.556V274.998C155.163 274.586 155.093 274.176 154.957 273.787Z" fill="#F0F0F0"/>
<path d="M147.687 269.024C143.909 268.304 139.58 268.81 136.573 270.546C135.22 271.231 134.159 272.382 133.586 273.786C133.586 273.89 133.528 273.987 133.502 274.091C133.425 274.385 133.386 274.688 133.385 274.992V278.549C133.399 279.401 133.677 280.228 134.182 280.914C134.821 281.771 135.637 282.48 136.573 282.995C139.58 284.731 143.909 285.23 147.687 284.511V269.024Z" fill="#EBEBEB"/>
<path d="M136.58 270.547C132.588 272.853 132.342 276.502 135.848 278.971L151.166 270.125C146.89 268.104 140.572 268.272 136.58 270.547Z" fill="#FAFAFA"/>
<path d="M135.841 278.037C135.841 278.037 131.61 274.797 136.314 270.708C132.582 273.015 132.426 276.54 135.848 278.97L151.166 270.125L135.841 278.037Z" fill="white"/>
<path d="M152.702 271.013L137.383 279.858C141.66 281.88 147.985 281.744 151.976 279.437C155.968 277.13 156.208 273.456 152.702 271.013Z" fill="#FAFAFA"/>
<path d="M137.383 279.858C141.66 281.88 147.985 281.744 151.976 279.437C152.421 279.183 152.841 278.891 153.233 278.562C145.399 282.489 139.1 279.722 139.1 279.722L152.708 271.013L137.383 279.858Z" fill="white"/>
<path d="M151.166 271.907L135.848 280.791V278.97L151.166 270.125V271.907Z" fill="#E0E0E0"/>
<path opacity="0.2" d="M137.383 279.858L137.39 281.679L135.848 280.791L137.383 279.858Z" fill="black"/>
<path d="M159.26 268.084C159.193 267.882 159.111 267.684 159.014 267.494C158.929 267.336 158.836 267.182 158.735 267.034C158.27 266.357 157.684 265.773 157.005 265.311V267.093L155.463 266.198V264.416C151.186 262.395 144.868 262.537 140.876 264.844C139.519 265.524 138.457 266.676 137.889 268.084C137.856 268.188 137.824 268.285 137.798 268.382C137.726 268.677 137.689 268.979 137.688 269.283V272.847C137.702 273.699 137.98 274.526 138.485 275.212C139.123 276.068 139.939 276.776 140.876 277.286C145.127 279.742 152.022 279.742 156.273 277.286C158.398 276.061 159.461 274.454 159.461 272.847V269.283C159.461 268.875 159.393 268.47 159.26 268.084Z" fill="#F0F0F0"/>
<path d="M151.957 263.315C148.173 262.596 143.851 263.107 140.844 264.844C139.487 265.524 138.425 266.676 137.857 268.084C137.824 268.188 137.792 268.285 137.766 268.382C137.694 268.677 137.657 268.979 137.656 269.283V272.847C137.669 273.699 137.948 274.526 138.453 275.212C139.091 276.068 139.906 276.776 140.844 277.286C143.851 279.022 148.173 279.528 151.957 278.809V263.315Z" fill="#EBEBEB"/>
<path d="M140.844 264.844C136.852 267.145 136.606 270.793 140.111 273.268L155.43 264.43C151.153 262.395 144.835 262.537 140.844 264.844Z" fill="#FAFAFA"/>
<path d="M140.111 272.335C140.111 272.335 135.88 269.095 140.584 265C136.846 267.313 136.696 270.832 140.111 273.262L155.43 264.423L140.111 272.335Z" fill="white"/>
<path d="M156.972 265.311L141.654 274.156C145.93 276.178 152.248 276.035 156.24 273.728C160.232 271.421 160.471 267.78 156.972 265.311Z" fill="#FAFAFA"/>
<path d="M141.654 274.156C145.93 276.178 152.248 276.035 156.24 273.728C156.684 273.476 157.104 273.186 157.497 272.86C149.669 276.78 143.364 274.013 143.364 274.013L156.972 265.311L141.654 274.156Z" fill="white"/>
<path d="M155.43 266.198L140.111 275.089V273.262L155.43 264.423V266.198Z" fill="#E0E0E0"/>
<path opacity="0.2" d="M141.654 274.156V275.977L140.111 275.089L141.654 274.156Z" fill="black"/>
<path d="M186.191 277.59C185.543 277.214 185.135 276.404 185.135 275.251C185.203 273.996 185.566 272.775 186.194 271.686C186.822 270.597 187.698 269.672 188.75 268.985C189.115 268.72 189.544 268.557 189.993 268.512C190.441 268.468 190.894 268.544 191.303 268.732L195.956 271.428C197.132 272.108 197.989 273.226 198.34 274.538C198.69 275.85 198.505 277.247 197.826 278.423C197.146 279.598 196.027 280.456 194.715 280.806C193.403 281.157 192.006 280.972 190.83 280.292L186.191 277.59Z" fill="#F5F5F5"/>
<path d="M179.782 273.884C179.153 273.573 178.594 273.137 178.14 272.601C177.686 272.066 177.347 271.443 177.144 270.771C176.94 270.1 176.877 269.393 176.958 268.696C177.039 267.999 177.262 267.326 177.614 266.718C177.966 266.111 178.438 265.582 179.003 265.165C179.567 264.748 180.211 264.451 180.895 264.293C181.579 264.135 182.288 264.119 182.978 264.246C183.668 264.373 184.325 264.641 184.908 265.032L191.304 268.752C190.894 268.563 190.441 268.488 189.993 268.532C189.544 268.576 189.115 268.739 188.75 269.004C187.698 269.691 186.822 270.617 186.194 271.705C185.566 272.794 185.203 274.015 185.135 275.27C185.135 276.424 185.536 277.214 186.191 277.61L179.782 273.884Z" fill="black"/>
<path opacity="0.4" d="M180.936 266.373C180.805 266.595 180.719 266.841 180.684 267.097C180.65 267.352 180.666 267.612 180.732 267.861C180.798 268.11 180.913 268.343 181.071 268.547C181.228 268.751 181.425 268.922 181.648 269.05L189.392 273.54C190.044 272.46 190.41 271.231 190.455 269.97C190.455 269.847 190.455 269.73 190.455 269.62L183.612 265.68C183.391 265.548 183.146 265.462 182.892 265.425C182.637 265.389 182.378 265.404 182.129 265.468C181.88 265.532 181.647 265.646 181.442 265.801C181.237 265.957 181.065 266.151 180.936 266.373Z" fill="white"/>
<path d="M186.191 277.59C185.543 277.214 185.135 276.404 185.135 275.251C185.203 273.996 185.566 272.775 186.194 271.686C186.822 270.597 187.698 269.672 188.75 268.985C189.115 268.72 189.544 268.557 189.993 268.512C190.441 268.468 190.894 268.544 191.303 268.732L195.956 271.428C197.132 272.108 197.989 273.226 198.34 274.538C198.69 275.85 198.505 277.247 197.826 278.423C197.146 279.598 196.027 280.456 194.715 280.806C193.403 281.157 192.006 280.972 190.83 280.292L186.191 277.59Z" fill="#F5F5F5"/>
<path opacity="0.1" d="M188.751 268.985C187.698 269.672 186.822 270.597 186.194 271.686C185.566 272.775 185.203 273.996 185.135 275.251C185.135 276.404 185.536 277.195 186.191 277.59L185.828 277.383L185.549 277.221C184.901 276.845 184.493 276.035 184.493 274.882C184.56 273.626 184.922 272.404 185.551 271.315C186.179 270.227 187.055 269.301 188.109 268.615C188.474 268.351 188.903 268.188 189.351 268.143C189.8 268.099 190.252 268.174 190.662 268.363L191.31 268.732C190.9 268.543 190.446 268.466 189.996 268.511C189.546 268.555 189.116 268.719 188.751 268.985Z" fill="black"/>
<path d="M198.477 275.316C198.599 276.393 198.372 277.481 197.829 278.42C197.493 279.003 197.045 279.513 196.511 279.923C195.977 280.333 195.368 280.633 194.718 280.807C194.068 280.981 193.39 281.025 192.723 280.937C192.056 280.848 191.413 280.629 190.83 280.292L186.191 277.59C185.543 277.214 185.135 276.404 185.135 275.251C185.139 274.721 185.214 274.194 185.355 273.683L193.131 278.173C195.671 279.651 198.451 276.994 198.477 275.316Z" fill="#EBEBEB"/>
<path d="M196.714 275.517C196.587 275.741 196.416 275.937 196.212 276.094C196.008 276.252 195.775 276.367 195.525 276.433C195.276 276.5 195.017 276.516 194.761 276.481C194.506 276.446 194.26 276.36 194.038 276.23L186.191 271.694C186.796 270.585 187.678 269.652 188.751 268.985L189.062 268.823L195.995 272.834C196.221 272.961 196.418 273.132 196.577 273.336C196.735 273.54 196.852 273.774 196.919 274.024C196.986 274.274 197.002 274.535 196.967 274.791C196.932 275.047 196.846 275.294 196.714 275.517Z" fill="white"/>
<path opacity="0.1" d="M178.272 266.328C178.331 266.25 178.389 266.173 178.454 266.101L178.59 265.946L178.752 265.777C178.809 265.718 178.87 265.662 178.933 265.609L179.024 265.531C179.295 265.301 179.588 265.099 179.899 264.928L180.242 264.76C178.81 265.622 177.903 269.354 180.45 270.832C181.324 271.337 182.633 272.128 185.329 273.67C185.188 274.181 185.114 274.708 185.109 275.238C185.109 276.391 185.511 277.182 186.165 277.577L179.756 273.871C178.581 273.191 177.723 272.071 177.372 270.759C177.021 269.447 177.205 268.049 177.884 266.872C177.961 266.736 178.052 266.607 178.143 266.477L178.272 266.328Z" fill="black"/>
<path d="M267.806 260.256C268.176 259.994 268.469 259.639 268.655 259.227C268.842 258.815 268.916 258.361 268.869 257.91C268.8 256.656 268.437 255.436 267.809 254.349C267.181 253.261 266.305 252.337 265.253 251.651C264.255 251.074 263.348 251.003 262.694 251.398L258.048 254.087C256.871 254.766 256.013 255.884 255.661 257.196C255.309 258.508 255.493 259.906 256.172 261.082C256.85 262.259 257.969 263.117 259.281 263.469C260.593 263.821 261.99 263.637 263.167 262.958L267.806 260.256Z" fill="#F5F5F5"/>
<path d="M274.215 256.55C275.392 255.871 276.25 254.753 276.602 253.441C276.954 252.129 276.77 250.731 276.091 249.555C275.412 248.378 274.294 247.52 272.982 247.168C271.67 246.816 270.272 247 269.096 247.679L262.694 251.424C263.342 251.042 264.256 251.1 265.253 251.677C266.305 252.363 267.181 253.287 267.809 254.375C268.437 255.462 268.801 256.682 268.869 257.936C268.916 258.387 268.842 258.841 268.655 259.253C268.469 259.665 268.176 260.02 267.807 260.282L274.215 256.55Z" fill="black"/>
<path opacity="0.4" d="M273.068 249.033C273.199 249.255 273.284 249.501 273.318 249.757C273.353 250.013 273.336 250.273 273.269 250.522C273.202 250.771 273.086 251.004 272.928 251.208C272.77 251.412 272.573 251.582 272.349 251.709L264.612 256.2C263.959 255.12 263.593 253.891 263.549 252.629C263.549 252.513 263.549 252.396 263.549 252.279L270.379 248.314C270.602 248.181 270.849 248.094 271.106 248.059C271.363 248.023 271.625 248.039 271.875 248.106C272.126 248.173 272.361 248.29 272.565 248.449C272.77 248.608 272.941 248.807 273.068 249.033Z" fill="white"/>
<path d="M267.806 260.256C268.176 259.994 268.469 259.639 268.655 259.227C268.842 258.815 268.916 258.361 268.869 257.91C268.8 256.656 268.437 255.436 267.809 254.349C267.181 253.261 266.305 252.337 265.253 251.651C264.255 251.074 263.348 251.003 262.694 251.398L258.048 254.087C256.871 254.766 256.013 255.884 255.661 257.196C255.309 258.508 255.493 259.906 256.172 261.082C256.85 262.259 257.969 263.117 259.281 263.469C260.593 263.821 261.99 263.637 263.167 262.958L267.806 260.256Z" fill="#F5F5F5"/>
<path opacity="0.1" d="M265.253 251.651C266.305 252.337 267.181 253.261 267.809 254.349C268.437 255.436 268.8 256.657 268.869 257.911C268.916 258.361 268.842 258.815 268.655 259.227C268.469 259.639 268.176 259.995 267.806 260.256L268.176 260.042L268.448 259.88C268.818 259.621 269.111 259.267 269.298 258.856C269.485 258.444 269.558 257.99 269.511 257.541C269.442 256.287 269.079 255.067 268.451 253.979C267.823 252.891 266.947 251.967 265.895 251.282C265.529 251.016 265.1 250.852 264.65 250.806C264.2 250.76 263.747 250.835 263.335 251.022L262.687 251.398C263.348 251.016 264.236 251.074 265.253 251.651Z" fill="black"/>
<path d="M255.52 257.982C255.418 258.921 255.578 259.871 255.983 260.725C256.388 261.579 257.022 262.304 257.814 262.82C258.606 263.336 259.526 263.622 260.471 263.646C261.416 263.67 262.349 263.432 263.167 262.958L267.807 260.256C268.176 259.995 268.469 259.639 268.655 259.227C268.842 258.815 268.916 258.361 268.869 257.911C268.862 257.382 268.786 256.857 268.642 256.349L260.866 260.84C258.326 262.31 255.553 259.66 255.52 257.982Z" fill="#EBEBEB"/>
<path d="M257.29 258.176C257.417 258.401 257.587 258.598 257.791 258.756C257.995 258.914 258.228 259.03 258.477 259.096C258.726 259.163 258.986 259.18 259.242 259.146C259.497 259.111 259.743 259.026 259.966 258.896L267.813 254.36C267.204 253.256 266.323 252.326 265.253 251.657C265.151 251.597 265.045 251.543 264.936 251.495L258.002 255.506C257.779 255.634 257.584 255.805 257.427 256.008C257.27 256.212 257.155 256.444 257.089 256.693C257.023 256.941 257.006 257.2 257.041 257.455C257.075 257.709 257.16 257.954 257.29 258.176Z" fill="white"/>
<path opacity="0.1" d="M275.731 249.02L275.55 248.787L275.407 248.631L275.245 248.469L275.07 248.301L274.98 248.223C274.709 247.991 274.413 247.789 274.098 247.62L273.755 247.452C275.194 248.32 276.101 252.053 273.548 253.524C272.673 254.029 271.37 254.82 268.668 256.368C268.811 256.877 268.888 257.402 268.895 257.93C268.942 258.38 268.868 258.834 268.681 259.247C268.494 259.659 268.201 260.014 267.832 260.276L274.241 256.569C274.824 256.233 275.335 255.785 275.744 255.251C276.154 254.717 276.454 254.108 276.628 253.458C276.802 252.808 276.846 252.13 276.758 251.463C276.67 250.796 276.451 250.153 276.114 249.571C276.036 249.435 275.952 249.299 275.861 249.169L275.731 249.02Z" fill="black"/>
<path d="M245.062 200.148C245.062 197.057 243.021 193.959 238.932 191.601C230.76 186.883 217.509 186.883 209.338 191.601C205.249 193.959 203.208 197.057 203.208 200.148V253.874C203.208 256.964 205.249 260.055 209.338 262.414C217.509 267.138 230.76 267.138 238.932 262.414C243.021 260.055 245.062 256.964 245.062 253.874V200.148Z" fill="black"/>
<path opacity="0.4" d="M237.02 190.635V263.386C237.684 263.105 238.333 262.79 238.964 262.44C240.18 261.753 241.298 260.905 242.288 259.919V194.128C241.297 193.142 240.179 192.292 238.964 191.601C238.316 191.251 237.668 190.933 237.02 190.635Z" fill="white"/>
<path opacity="0.4" d="M231.531 265.168C232.549 264.944 233.555 264.67 234.545 264.345V189.676C233.556 189.349 232.55 189.074 231.531 188.853V265.168Z" fill="white"/>
<path opacity="0.1" d="M244.699 197.919C243.401 196.174 241.741 194.73 239.832 193.687C231.765 189.028 219.038 188.711 210.323 192.722V191.089C209.992 191.257 209.675 191.419 209.338 191.601C205.249 193.959 203.208 197.057 203.208 200.148V208.326V242.158V253.873C203.208 256.964 205.249 260.055 209.338 262.414C217.509 267.138 230.76 267.138 238.932 262.414C240.318 261.639 241.577 260.656 242.664 259.498C238.776 263.133 229.056 265.136 221.883 263.717C214.71 262.297 210.323 257.71 210.323 254.444V243.804C214.36 245.987 219.641 247.044 224.799 247.044V225.31C219.615 225.31 214.36 224.513 210.323 222.342V212.777C219.038 216.788 231.765 216.471 239.832 211.812C241.956 210.671 243.755 209.01 245.062 206.984V200.148C245.059 199.39 244.937 198.638 244.699 197.919Z" fill="black"/>
<path opacity="0.1" d="M206.739 255.37V193.428C204.387 195.456 203.208 197.802 203.208 200.148V253.874C203.208 256.965 205.249 260.055 209.338 262.414C211.814 263.791 214.497 264.759 217.282 265.278C209.422 263.146 206.739 257.774 206.739 255.37Z" fill="black"/>
<path d="M246.332 190.59C246.332 187.311 244.168 184.026 239.852 181.518C231.182 176.515 217.127 176.515 208.456 181.518C204.121 184.019 201.976 187.304 201.976 190.59V200.426C201.976 203.705 204.141 206.991 208.456 209.498C217.127 214.501 231.182 214.501 239.852 209.498C244.187 206.997 246.332 203.712 246.332 200.426V190.59Z" fill="#E0E0E0"/>
<mask id="mask0_505_8839" style="mask-type:luminance" maskUnits="userSpaceOnUse" x="201" y="177" width="46" height="37">
<path d="M246.332 190.59C246.332 187.311 244.168 184.026 239.852 181.518C231.182 176.515 217.127 176.515 208.456 181.518C204.121 184.019 201.976 187.304 201.976 190.59V200.426C201.976 203.705 204.141 206.991 208.456 209.498C217.127 214.501 231.182 214.501 239.852 209.498C244.187 206.997 246.332 203.712 246.332 200.426V190.59Z" fill="white"/>
</mask>
<g mask="url(#mask0_505_8839)">
<g opacity="0.2">
<path d="M246.863 189.676H245.801V204.982H246.863V189.676Z" fill="black"/>
<path d="M244.414 193.81H243.351V209.2H244.414V193.81Z" fill="black"/>
<path d="M240.707 196.655H239.645V212.123H240.707V196.655Z" fill="black"/>
<path d="M236.482 198.424H235.419V213.976H236.482V198.424Z" fill="black"/>
<path d="M231.836 199.604H230.773V215.24H231.836V199.604Z" fill="black"/>
<path d="M226.918 200.193H225.855V215.914H226.918V200.193Z" fill="black"/>
<path d="M221.922 200.174H220.859V215.972H221.922V200.174Z" fill="black"/>
<path d="M217.049 199.526H215.986V215.408H217.049V199.526Z" fill="black"/>
<path d="M212.48 198.21H211.417V214.177H212.48V198.21Z" fill="black"/>
<path d="M208.34 196.176H207.277V212.227H208.34V196.176Z" fill="black"/>
<path d="M205.054 193.344H203.991V209.472H205.054V193.344Z" fill="black"/>
<path d="M202.469 188.769H201.406V204.982H202.469V188.769Z" fill="black"/>
</g>
<path opacity="0.1" d="M229.445 212.855C218.461 212.92 212.662 209.349 210.906 206.44C209.564 204.224 209.337 200.141 209.337 196.072C209.337 196.072 208.1 186.844 208.339 186.818C208.579 186.793 205.702 186.17 203.57 185.743C202.534 187.142 201.963 188.83 201.937 190.57V200.426C201.937 203.705 204.102 206.991 208.417 209.498C214.133 212.777 222.155 213.892 229.445 212.855Z" fill="black"/>
</g>
<path d="M224.131 203.407C236.392 203.407 246.332 197.669 246.332 190.59C246.332 183.511 236.392 177.772 224.131 177.772C211.87 177.772 201.931 183.511 201.931 190.59C201.931 197.669 211.87 203.407 224.131 203.407Z" fill="#EBEBEB"/>
<path d="M241.025 198.891C248.464 193.856 248.075 186.287 239.832 181.524C235.607 179.088 230.112 177.844 224.559 177.785C221.719 178.227 218.978 179.161 216.459 180.546C208.968 184.829 208.968 193.383 216.459 197.666C223.146 201.489 233.54 201.891 241.025 198.891Z" fill="#F5F5F5"/>
<path opacity="0.1" d="M210.543 261.462C218.047 265.233 230.223 265.233 237.726 261.462C245.23 257.69 245.237 251.573 237.726 247.802C230.216 244.03 218.047 244.03 210.543 247.802C203.039 251.573 203.033 257.69 210.543 261.462Z" fill="black"/>
<path d="M203.208 214.268C203.208 217.359 205.249 220.45 209.338 222.808C213.426 225.167 218.779 226.346 224.131 226.346V247.646C218.779 247.646 213.42 246.467 209.338 244.108C205.255 241.749 203.208 238.658 203.208 235.567V214.268Z" fill="white"/>
<path d="M203.635 195.508C203.635 195.508 210.854 202.779 224.799 202.396C238.744 202.014 244.33 194.4 245.062 192.028C245.437 190.638 245.462 189.176 245.134 187.774C244.806 186.372 244.136 185.073 243.183 183.993C244.127 184.82 244.892 185.83 245.434 186.961C245.975 188.093 246.281 189.323 246.332 190.577V200.426C246.332 201.256 246.76 204.12 242.256 207.827C242.256 207.827 244.9 204.826 244.9 201.943V195.139C244.9 195.139 239.962 203.394 224.812 203.394C209.662 203.394 204.4 196.746 203.635 195.508Z" fill="white"/>
</svg>
