<svg width="119" height="98" viewBox="0 0 119 98" fill="none" xmlns="http://www.w3.org/2000/svg">
<path d="M3.83668 42.6798L70.0548 83.3166C71.1593 83.911 72.3938 84.23 73.6585 84.248C74.9231 84.266 76.1824 83.9824 77.3345 83.4201L115.377 62.2648C117.437 61.1172 117.518 59.2087 115.556 58.0045L49.3019 17.3459C48.1968 16.7514 46.9616 16.4326 45.6964 16.4154C44.4311 16.3982 43.1714 16.6831 42.0194 17.2469L4.0128 38.424C1.93506 39.5607 1.85657 41.4646 3.83668 42.6798Z" fill="#E0E0E0"/>
<path d="M3.88978 40.6864L70.1257 81.3341C71.2296 81.9301 72.4643 82.2501 73.7292 82.2681C74.9941 82.2861 76.2537 82.0015 77.4053 81.4376L115.43 60.2714C117.49 59.1238 117.571 57.2153 115.609 56.0111L49.3727 15.3634C48.2677 14.7689 47.0325 14.4501 45.7672 14.4329C44.502 14.4157 43.2423 14.7006 42.0903 15.2644L4.08562 36.3986C2.01437 37.5645 1.92743 39.4821 3.88978 40.6864Z" fill="#F5F5F5"/>
<path d="M77.4284 81.4051L111.718 62.3158C100.956 67.632 80.4562 79.0252 77.4505 80.1781C74.4448 81.3311 72.6641 81.7874 67.292 78.4906C61.9198 75.1937 7.54133 42.9241 7.54133 42.9241L70.1422 81.3417C71.2501 81.9324 72.4875 82.246 73.7537 82.257C75.0198 82.268 76.2789 81.9761 77.4284 81.4051Z" fill="#FAFAFA"/>
<path d="M94.5735 68.1777C94.428 68.2461 94.2695 68.279 94.111 68.2737C93.9526 68.2685 93.7986 68.2252 93.6618 68.1475L27.6274 27.6008C27.3743 27.4453 27.372 27.2107 27.6199 27.0666C27.7656 27.0002 27.9236 26.9688 28.0814 26.9749C28.2392 26.9809 28.3924 27.0242 28.5288 27.1014L94.5633 67.6482C94.8341 67.8145 94.8186 68.0382 94.5735 68.1777Z" fill="#E0E0E0"/>
<g style="mix-blend-mode:hard-light" opacity="0.7">
<path d="M41.5143 31.0366C41.7239 31.1656 41.9446 31.2757 42.1739 31.3658C42.2227 31.3958 42.3978 31.4591 42.4345 31.469C44.4398 32.1413 46.649 31.9735 48.5769 31.0023L55.1019 27.3652L55.1551 27.3286C55.8958 26.9591 56.5299 26.3974 56.991 25.7025C57.4521 25.0076 57.7231 24.2051 57.7756 23.3791C57.8281 22.5532 57.6601 21.7343 57.2894 21.0084C56.9186 20.2825 56.3587 19.6764 55.6684 19.2536C55.4578 19.126 55.2362 19.0174 55.006 18.9289C54.9201 18.8914 54.8322 18.8585 54.7426 18.8302C52.7417 18.1554 50.5358 18.3183 48.6087 19.2833L42.0808 22.925L42.0305 22.957C41.2886 23.3258 40.6532 23.8874 40.1911 24.5826C39.729 25.2778 39.4573 26.0811 39.4044 26.9078C39.3516 27.7346 39.5197 28.5543 39.891 29.2809C40.2623 30.0074 40.823 30.6139 41.5143 31.0366Z" fill="#FAFAFA"/>
</g>
<path d="M55.5226 23.2229C53.6807 22.0926 50.5192 22.1101 48.4599 23.2572L41.9348 26.8943C39.8755 28.0413 39.6966 29.8891 41.5385 31.0193C43.3805 32.1496 46.5419 32.1321 48.6012 30.985L55.1264 27.3479C57.1925 26.1799 57.3513 24.3449 55.5226 23.2229Z" fill="#E0E0E0"/>
<path d="M57.1845 25.3893C57.7736 24.3442 57.9464 23.1201 57.6669 21.9733C57.3874 20.8265 56.6772 19.8458 55.6849 19.2363C55.4742 19.1087 55.2525 19.0001 55.0222 18.9116C54.9363 18.8741 54.8483 18.8411 54.7588 18.8129C53.0362 18.2427 51.1592 18.2738 49.4232 18.9011C52.4268 18.6349 54.2733 18.5779 56.0874 20.2012C56.7756 20.8343 57.2497 21.671 57.4458 22.5985C57.6419 23.5261 57.5507 24.5 57.1845 25.3893Z" fill="white"/>
<path d="M45.9624 22.1257C46.2712 21.991 46.6076 21.9404 46.9372 21.979C47.2669 22.0177 47.5782 22.1443 47.8394 22.3459C48.5934 22.8684 49.21 23.5669 49.639 24.3846C50.0681 25.2024 50.2975 26.1164 50.3087 27.0523C50.3302 27.388 50.2626 27.7259 50.1131 28.0313C49.9635 28.3366 49.7373 28.5984 49.4577 28.7897L45.9441 30.7375C45.0552 31.2304 44.0189 31.3512 43.063 31.0733C42.1071 30.7954 41.31 30.1416 40.847 29.2557C40.3841 28.3699 40.2932 27.3244 40.5943 26.3495C40.8955 25.3746 41.564 24.5499 42.4529 24.057L45.9624 22.1257Z" fill="#F5F5F5"/>
<path d="M50.7997 19.4403C51.6853 18.9704 52.7081 18.8655 53.6488 19.148C54.5895 19.4305 55.373 20.078 55.8312 20.9514C56.2895 21.8248 56.3859 22.8547 56.0998 23.8199C55.8137 24.7852 55.1679 25.6089 54.301 26.1143L49.45 28.8024C49.7295 28.6112 49.9558 28.3494 50.1053 28.0441C50.2549 27.7387 50.3225 27.4008 50.301 27.065C50.2898 26.1291 50.0604 25.2151 49.6313 24.3974C49.2023 23.5796 48.5857 22.8811 47.8317 22.3586C47.5704 22.157 47.2592 22.0305 46.9295 21.9918C46.5998 21.9531 46.2635 22.0037 45.9547 22.1384L50.7997 19.4403Z" fill="#4B7FB0"/>
<path opacity="0.4" d="M55.0224 23.051C54.8449 22.7136 54.5405 22.4647 54.1759 22.3589C53.8112 22.253 53.4159 22.2989 53.0765 22.4864L47.2227 25.7295C47.636 26.5594 48.2556 27.2624 49.0223 27.7716C49.1022 27.8206 49.1732 27.8642 49.2442 27.9078L54.4092 25.0475C54.579 24.9546 54.7297 24.829 54.8527 24.6779C54.9756 24.5268 55.0683 24.3534 55.1254 24.1676C55.1825 23.9818 55.2027 23.7875 55.1851 23.5958C55.1674 23.4041 55.1121 23.2189 55.0224 23.051Z" fill="white"/>
<path d="M45.9624 22.1257C46.2712 21.991 46.6076 21.9404 46.9372 21.979C47.2669 22.0177 47.5782 22.1443 47.8394 22.3459C48.5934 22.8684 49.21 23.5669 49.639 24.3846C50.0681 25.2024 50.2975 26.1164 50.3087 27.0523C50.3302 27.388 50.2626 27.7259 50.1131 28.0313C49.9635 28.3366 49.7373 28.5984 49.4577 28.7897L45.9441 30.7375C45.0552 31.2304 44.0189 31.3512 43.063 31.0733C42.1071 30.7954 41.31 30.1416 40.847 29.2557C40.3841 28.3699 40.2932 27.3244 40.5943 26.3495C40.8955 25.3746 41.564 24.5499 42.4529 24.057L45.9624 22.1257Z" fill="#F5F5F5"/>
<path opacity="0.1" d="M50.308 27.0544C50.2968 26.1183 50.0673 25.2042 49.6382 24.3863C49.2091 23.5684 48.5924 22.8698 47.8383 22.3472C47.577 22.1456 47.2657 22.019 46.936 21.9803C46.6063 21.9416 46.2699 21.9922 45.9611 22.127L46.2379 21.9757L46.4454 21.8575C46.754 21.7217 47.0906 21.6705 47.4205 21.7092C47.7505 21.7479 48.0618 21.8752 48.3226 22.0778C49.0767 22.6004 49.6934 23.299 50.1225 24.1169C50.5516 24.9348 50.7811 25.8489 50.7923 26.785C50.8137 27.1207 50.7462 27.4587 50.5966 27.7641C50.447 28.0695 50.2207 28.3313 49.9411 28.5226L49.4568 28.792C49.7364 28.6007 49.9627 28.3389 50.1123 28.0335C50.2619 27.7281 50.3295 27.3901 50.308 27.0544Z" fill="black"/>
<path d="M42.5235 30.865C41.8957 30.5733 41.3653 30.1086 40.9913 29.5227C40.6174 28.9368 40.4147 28.2528 40.4058 27.547C40.397 26.8412 40.5823 26.1413 40.9411 25.5256C41.3 24.9099 41.8182 24.4024 42.438 24.0599L45.9524 22.1197C46.2612 21.985 46.5974 21.9344 46.927 21.9731C47.2566 22.0118 47.5678 22.1383 47.829 22.3398C48.1556 22.5446 48.4529 22.7927 48.7135 23.0777L42.8523 26.3342C40.9392 27.4133 41.4964 30.2095 42.5235 30.865Z" fill="#E0E0E0"/>
<path d="M43.1034 29.6617C43.0155 29.4944 42.9616 29.3103 42.9448 29.1199C42.928 28.9295 42.9487 28.7366 43.0055 28.5522C43.0624 28.3679 43.1544 28.1957 43.2762 28.0455C43.398 27.8953 43.5472 27.7702 43.7154 27.6772L49.6393 24.3893C50.0852 25.2014 50.3161 26.1207 50.3105 27.0606C50.3079 27.1486 50.3006 27.2366 50.2887 27.3241L45.0508 30.2336C44.7104 30.4211 44.314 30.4662 43.9489 30.3589C43.5837 30.2517 43.2796 30.0009 43.1034 29.6617Z" fill="white"/>
<path opacity="0.1" d="M56.0875 21.3514C56.1138 21.4179 56.1328 21.4863 56.1563 21.5573L56.2005 21.704C56.2163 21.7578 56.2248 21.8134 56.2378 21.8717L56.2767 22.0467L56.2861 22.1406C56.3234 22.4016 56.3322 22.6667 56.3126 22.9312L56.2812 23.2204C56.3028 21.9746 54.3445 19.9608 52.4174 21.032C51.7587 21.3958 50.7594 21.9347 48.7155 23.0664C48.4549 22.7813 48.1574 22.5331 47.8306 22.3282C47.5693 22.1266 47.258 22 46.9283 21.9613C46.5986 21.9227 46.2622 21.9733 45.9534 22.108L50.7963 19.414C51.6848 18.9213 52.7205 18.7998 53.6764 19.0761C54.6323 19.3523 55.4306 20.0038 55.8961 20.8878C55.9467 20.9943 55.9972 21.1009 56.0405 21.2093L56.0875 21.3514Z" fill="black"/>
<g style="mix-blend-mode:hard-light" opacity="0.7">
<path d="M17.1647 44.6871C17.3746 44.8152 17.5941 44.9268 17.8215 45.0209C17.8703 45.0508 18.0482 45.1096 18.0849 45.1195C20.0886 45.7937 22.2971 45.6274 24.2245 44.6573L30.7523 41.0157L30.8055 40.9791C31.5461 40.6096 32.1803 40.048 32.6414 39.353C33.1024 38.6581 33.3734 37.8556 33.426 37.0296C33.4785 36.2037 33.3105 35.3848 32.9398 34.6589C32.569 33.933 32.0091 33.3269 31.3188 32.9041C31.1082 32.7765 30.8866 32.6679 30.6564 32.5794C30.612 32.5522 30.4725 32.5106 30.393 32.4808C28.3922 31.8047 26.1859 31.9677 24.2591 32.9338L17.7312 36.5755L17.7031 36.6211C16.9612 36.99 16.3258 37.5515 15.8637 38.2467C15.4016 38.942 15.1298 39.7452 15.077 40.5719C15.0242 41.3987 15.1923 42.2184 15.5636 42.945C15.9348 43.6715 16.4956 44.278 17.1869 44.7007L17.1647 44.6871Z" fill="#FAFAFA"/>
</g>
<path d="M31.1561 36.9007C29.3142 35.7705 26.1511 35.7807 24.0918 36.9277L17.5638 40.5694C15.5073 41.7119 15.3285 43.5596 17.1704 44.6899C19.0123 45.8201 22.1738 45.8026 24.2303 44.6601L30.7583 41.0184C32.8176 39.8714 33.0025 38.0337 31.1561 36.9007Z" fill="#E0E0E0"/>
<path d="M32.8208 39.0625C33.4086 38.0171 33.5807 36.7935 33.3013 35.6471C33.0219 34.5007 32.3125 33.5199 31.3212 32.9095C31.1105 32.7819 30.8888 32.6733 30.6586 32.5848C30.6142 32.5575 30.4746 32.516 30.3951 32.4861C28.6725 31.916 26.7955 31.947 25.0596 32.5743C28.0604 32.3127 29.9097 32.2511 31.7193 33.8717C32.4076 34.5054 32.8819 35.3422 33.0788 36.27C33.2757 37.1978 33.1857 38.1722 32.8208 39.0625Z" fill="white"/>
<path d="M21.6045 35.7898C21.9124 35.655 22.2478 35.6041 22.5767 35.6423C22.9056 35.6805 23.2163 35.8064 23.4771 36.0073C24.2316 36.5301 24.8488 37.229 25.2786 38.0472C25.7084 38.8653 25.9387 39.7798 25.9508 40.7164C25.9723 41.0521 25.9047 41.3901 25.7551 41.6954C25.6056 42.0008 25.3794 42.2625 25.0998 42.4538L21.5862 44.4016C21.1466 44.646 20.6662 44.8018 20.1723 44.8599C19.6783 44.9181 19.1805 44.8776 18.7074 44.7407C18.2342 44.6038 17.795 44.3731 17.4146 44.062C17.0343 43.7508 16.7204 43.3652 16.4908 42.9271C16.2611 42.4891 16.1204 42.0072 16.0764 41.509C16.0325 41.0107 16.0863 40.5059 16.2347 40.0233C16.3832 39.5408 16.6234 39.0899 16.9416 38.6964C17.2598 38.303 17.6498 37.9747 18.0893 37.7303L21.6045 35.7898Z" fill="#F5F5F5"/>
<path d="M26.4444 33.0998C27.3321 32.6061 28.3677 32.4842 29.3232 32.7607C30.2788 33.0372 31.0762 33.6895 31.5399 34.5742C32.0036 35.4589 32.0957 36.5034 31.7959 37.478C31.4961 38.4526 30.829 39.2775 29.9413 39.7711L25.0947 42.4619C25.3743 42.2706 25.6005 42.0089 25.7501 41.7035C25.8997 41.3981 25.9672 41.0602 25.9458 40.7245C25.9337 39.7879 25.7034 38.8734 25.2736 38.0553C24.8438 37.2371 24.2266 36.5382 23.472 36.0153C23.2112 35.8145 22.9006 35.6886 22.5717 35.6504C22.2428 35.6122 21.9073 35.6631 21.5995 35.7979L26.4444 33.0998Z" fill="#4B7FB0"/>
<path opacity="0.4" d="M30.6589 36.7243C30.5715 36.5567 30.4518 36.4091 30.3067 36.2899C30.1615 36.1708 29.9937 36.0825 29.813 36.03C29.6322 35.9775 29.442 35.962 29.2532 35.9842C29.0644 36.0065 28.8809 36.0661 28.713 36.1596L22.8547 39.4001C23.2694 40.229 23.8887 40.9317 24.6543 41.4422C24.7297 41.4885 24.8052 41.5348 24.8762 41.5783L30.0412 38.7181C30.211 38.6256 30.3618 38.5003 30.485 38.3496C30.6082 38.199 30.7012 38.0258 30.7586 37.8404C30.8161 37.6549 30.8369 37.4607 30.8197 37.2691C30.8026 37.0775 30.7479 36.8923 30.6589 36.7243Z" fill="white"/>
<path d="M21.6045 35.7898C21.9124 35.655 22.2478 35.6041 22.5767 35.6423C22.9056 35.6805 23.2163 35.8064 23.4771 36.0073C24.2316 36.5301 24.8488 37.229 25.2786 38.0472C25.7084 38.8653 25.9387 39.7798 25.9508 40.7164C25.9723 41.0521 25.9047 41.3901 25.7551 41.6954C25.6056 42.0008 25.3794 42.2625 25.0998 42.4538L21.5862 44.4016C21.1466 44.646 20.6662 44.8018 20.1723 44.8599C19.6783 44.9181 19.1805 44.8776 18.7074 44.7407C18.2342 44.6038 17.795 44.3731 17.4146 44.062C17.0343 43.7508 16.7204 43.3652 16.4908 42.9271C16.2611 42.4891 16.1204 42.0072 16.0764 41.509C16.0325 41.0107 16.0863 40.5059 16.2347 40.0233C16.3832 39.5408 16.6234 39.0899 16.9416 38.6964C17.2598 38.303 17.6498 37.9747 18.0893 37.7303L21.6045 35.7898Z" fill="#F5F5F5"/>
<path opacity="0.1" d="M25.9444 40.7276C25.9323 39.7908 25.702 38.8763 25.2721 38.058C24.8422 37.2397 24.2249 36.5407 23.4702 36.0177C23.2094 35.8169 22.8987 35.691 22.5698 35.6528C22.2408 35.6145 21.9054 35.6654 21.5974 35.8002L21.8698 35.6463L22.0817 35.5308C22.3895 35.3949 22.7252 35.3434 23.0543 35.3817C23.3835 35.4199 23.6942 35.5465 23.9545 35.7483C24.7092 36.2713 25.3265 36.9702 25.7564 37.7886C26.1863 38.6069 26.4166 39.5215 26.4287 40.4582C26.4501 40.794 26.3825 41.132 26.2329 41.4374C26.0833 41.7428 25.8571 42.0046 25.5775 42.1959L25.0932 42.4653C25.3728 42.274 25.5991 42.0122 25.7487 41.7068C25.8983 41.4014 25.9658 41.0634 25.9444 40.7276Z" fill="black"/>
<path d="M18.1599 44.5382C17.5321 44.2465 17.0016 43.7818 16.6277 43.1959C16.2538 42.61 16.051 41.926 16.0422 41.2201C16.0333 40.5143 16.2187 39.8145 16.5775 39.1988C16.9364 38.583 17.4546 38.0756 18.0744 37.7331L21.6033 35.7892C21.9111 35.6544 22.2465 35.6036 22.5753 35.6418C22.9041 35.6799 23.2147 35.8058 23.4754 36.0066C23.8035 36.2123 24.1023 36.4612 24.3643 36.7472C22.32 37.8904 19.8129 39.2782 18.5031 40.0037C16.5712 41.0837 17.1284 43.88 18.1599 44.5382Z" fill="#E0E0E0"/>
<path d="M18.7264 43.3268C18.6386 43.1594 18.5847 42.9753 18.5679 42.7849C18.5511 42.5946 18.5717 42.4016 18.6286 42.2173C18.6854 42.0329 18.7774 41.8607 18.8992 41.7105C19.021 41.5604 19.1703 41.4352 19.3384 41.3422L25.2623 38.0543C25.7082 38.8664 25.9392 39.7857 25.9336 40.7256C25.9313 40.8186 25.9201 40.9062 25.9118 40.9891L20.6738 43.8987C20.3332 44.0847 19.9373 44.129 19.5726 44.0219C19.2078 43.9147 18.9037 43.6649 18.7264 43.3268Z" fill="white"/>
<path opacity="0.1" d="M31.7195 35.0219C31.746 35.0892 31.769 35.1579 31.7883 35.2278C31.8066 35.2755 31.8214 35.3245 31.8325 35.3745L31.8743 35.5449C31.8885 35.603 31.8991 35.6621 31.906 35.7218C31.9138 35.7563 31.9165 35.7919 31.9142 35.8275C31.9529 36.0893 31.9632 36.3553 31.9451 36.6208C31.9384 36.7111 31.9288 36.806 31.912 36.9027C31.9381 35.6597 29.9753 33.6431 28.0527 34.7171C27.3939 35.0808 26.3919 35.6243 24.3508 36.7514C24.0887 36.4654 23.7897 36.2163 23.4615 36.0106C23.2006 35.8097 22.89 35.6838 22.561 35.6456C22.2321 35.6074 21.8966 35.6583 21.5887 35.7931L26.4316 33.099C27.3201 32.6062 28.356 32.485 29.3117 32.7622C30.2675 33.0394 31.0648 33.6923 31.5286 34.5774C31.5829 34.6803 31.6321 34.7861 31.6758 34.8943L31.7195 35.0219Z" fill="black"/>
<g style="mix-blend-mode:hard-light" opacity="0.7">
<path d="M58.1839 41.2726C58.395 41.4025 58.6171 41.5135 58.848 41.6045C58.8924 41.6317 59.0718 41.6978 59.1041 41.705C60.0975 42.0392 61.1516 42.1703 62.2063 42.0907C63.261 42.011 64.2956 41.7223 65.2509 41.241L71.776 37.6039L71.8069 37.5537C72.5476 37.1842 73.1818 36.6225 73.6428 35.9276C74.1039 35.2327 74.3749 34.4302 74.4274 33.6042C74.4799 32.7783 74.312 31.9594 73.9412 31.2335C73.5705 30.5076 73.0106 29.9014 72.3203 29.4787C72.1097 29.3511 71.888 29.2425 71.6579 29.154C71.5723 29.1156 71.4844 29.0827 71.3945 29.0553C69.3924 28.3795 67.1852 28.5415 65.2561 29.5057L58.7283 33.1473L58.7001 33.193C57.9582 33.5618 57.3228 34.1234 56.8607 34.8186C56.3986 35.5138 56.1269 36.3171 56.074 37.1438C56.0212 37.9706 56.1893 38.7903 56.5606 39.5168C56.9319 40.2434 57.4926 40.8499 58.1839 41.2726Z" fill="#FAFAFA"/>
</g>
<path d="M72.1923 33.4588C70.3548 32.3313 67.1889 32.3461 65.1296 33.4931L58.6044 37.1303C56.5451 38.2773 56.3662 40.1251 58.2037 41.2526C60.0412 42.3801 63.2071 42.3653 65.2709 41.221L71.796 37.5839C73.8666 36.4186 74.0342 34.5891 72.1923 33.4588Z" fill="#E0E0E0"/>
<path d="M73.8586 35.6279C74.4463 34.5825 74.6185 33.359 74.339 32.2125C74.0596 31.0661 73.3502 30.0854 72.3589 29.475C72.1482 29.3474 71.9265 29.2387 71.6963 29.1502C71.6107 29.1118 71.5227 29.0788 71.4328 29.0515C69.7102 28.4814 67.8332 28.5124 66.0973 29.1397C69.1009 28.8735 70.9474 28.8166 72.757 30.4371C73.4453 31.0708 73.9196 31.9077 74.1165 32.8355C74.3134 33.7633 74.2234 34.7376 73.8586 35.6279Z" fill="white"/>
<path d="M62.6366 32.3643C62.946 32.2245 63.2845 32.1702 63.6169 32.207C63.9493 32.2438 64.2634 32.3704 64.5264 32.5735C65.281 33.0964 65.8983 33.7953 66.3281 34.6134C66.7578 35.4316 66.9881 36.3461 67.0002 37.2827C67.0212 37.6185 66.953 37.9563 66.8026 38.2613C66.6522 38.5662 66.4251 38.8272 66.1447 39.0173L62.6356 40.9679C62.1958 41.2133 61.7149 41.3701 61.2203 41.4292C60.7257 41.4883 60.2271 41.4485 59.753 41.3122C59.2789 41.1759 58.8386 40.9457 58.4572 40.6347C58.0758 40.3237 57.7607 39.9381 57.5301 39.4998C57.2994 39.0615 57.1576 38.5792 57.1128 38.0803C57.068 37.5815 57.1211 37.0758 57.269 36.5923C57.4168 36.1088 57.6566 35.6569 57.9747 35.2624C58.2927 34.8679 58.6828 34.5384 59.1226 34.2929L62.6366 32.3643Z" fill="#F5F5F5"/>
<path d="M67.4738 29.679C67.9133 29.4345 68.3937 29.2788 68.8877 29.2206C69.3816 29.1624 69.8794 29.203 70.3526 29.3399C70.8257 29.4768 71.265 29.7074 71.6453 30.0186C72.0257 30.3298 72.3396 30.7154 72.5692 31.1534C72.7988 31.5915 72.9396 32.0734 72.9835 32.5716C73.0275 33.0698 72.9737 33.5747 72.8252 34.0572C72.6768 34.5398 72.4366 34.9907 72.1184 35.3841C71.8002 35.7776 71.4102 36.1059 70.9706 36.3503L66.1196 39.0384C66.4 38.8483 66.6271 38.5873 66.7775 38.2823C66.9279 37.9773 66.9961 37.6395 66.9751 37.3037C66.9682 36.3661 66.7427 35.4495 66.3169 34.6282C65.891 33.807 65.2769 33.1043 64.5243 32.5772C64.2637 32.3759 63.9531 32.2496 63.6241 32.2114C63.2951 32.1732 62.9595 32.2244 62.6517 32.3597L67.4738 29.679Z" fill="#4B7FB0"/>
<path opacity="0.4" d="M71.6965 33.2897C71.5185 32.9516 71.2135 32.7022 70.8481 32.5959C70.4827 32.4896 70.0865 32.535 69.7461 32.7223L63.8923 35.9655C64.3062 36.7949 64.9257 37.4978 65.6919 38.0075C65.7673 38.0538 65.8383 38.0974 65.9094 38.141L71.0744 35.2807C71.2442 35.1886 71.3951 35.0637 71.5185 34.9135C71.6419 34.7632 71.7352 34.5904 71.7931 34.4052C71.8509 34.22 71.8722 34.026 71.8556 33.8346C71.839 33.6431 71.7849 33.4579 71.6965 33.2897Z" fill="white"/>
<path d="M62.6366 32.3643C62.946 32.2245 63.2845 32.1702 63.6169 32.207C63.9493 32.2438 64.2634 32.3704 64.5264 32.5735C65.281 33.0964 65.8983 33.7953 66.3281 34.6134C66.7578 35.4316 66.9881 36.3461 67.0002 37.2827C67.0212 37.6185 66.953 37.9563 66.8026 38.2613C66.6522 38.5662 66.4251 38.8272 66.1447 39.0173L62.6356 40.9679C62.1958 41.2133 61.7149 41.3701 61.2203 41.4292C60.7257 41.4883 60.2271 41.4485 59.753 41.3122C59.2789 41.1759 58.8386 40.9457 58.4572 40.6347C58.0758 40.3237 57.7607 39.9381 57.5301 39.4998C57.2994 39.0615 57.1576 38.5792 57.1128 38.0803C57.068 37.5815 57.1211 37.0758 57.269 36.5923C57.4168 36.1088 57.6566 35.6569 57.9747 35.2624C58.2927 34.8679 58.6828 34.5384 59.1226 34.2929L62.6366 32.3643Z" fill="#F5F5F5"/>
<path opacity="0.1" d="M66.9821 37.293C66.9732 36.3564 66.7461 35.4411 66.3193 34.6214C65.8924 33.8017 65.2778 33.1006 64.5253 32.5749C64.2647 32.3736 63.954 32.2473 63.6249 32.2091C63.2959 32.1709 62.9603 32.2221 62.6525 32.3574L62.912 32.2144L63.1239 32.099C63.4315 31.9625 63.7673 31.9108 64.0966 31.949C64.4258 31.9872 64.7366 32.1141 64.9967 32.3165C65.7514 32.8395 66.3687 33.5384 66.7985 34.3567C67.2284 35.175 67.4587 36.0896 67.4708 37.0264C67.4918 37.3622 67.4236 37.7001 67.2732 38.0051C67.1227 38.3101 66.8956 38.5712 66.6152 38.7613L66.1309 39.0307C66.4109 38.8398 66.6375 38.5781 66.7871 38.2726C66.9368 37.9671 67.0041 37.6289 66.9821 37.293Z" fill="black"/>
<path d="M59.1976 41.1036C58.5698 40.8119 58.0394 40.3472 57.6654 39.7613C57.2915 39.1754 57.0888 38.4914 57.0799 37.7856C57.071 37.0798 57.2564 36.38 57.6152 35.7642C57.9741 35.1485 58.4923 34.641 59.1121 34.2985L62.6309 32.361C62.9411 32.2208 63.2805 32.1664 63.6137 32.2037C63.9469 32.241 64.2616 32.3685 64.5248 32.5729C64.8527 32.7789 65.1515 33.0278 65.4137 33.3135L59.5525 36.57C57.6089 37.6491 58.1616 40.4427 59.1976 41.1036Z" fill="#E0E0E0"/>
<path d="M59.773 39.8976C59.597 39.5594 59.5625 39.1607 59.6772 38.7888C59.7919 38.4168 60.0464 38.1019 60.385 37.9131L66.309 34.6252C66.7579 35.4372 66.9905 36.3578 66.9846 37.2992L66.9628 37.5628L61.7248 40.4723C61.3834 40.6596 60.9862 40.7042 60.6204 40.5965C60.2545 40.4888 59.9498 40.2375 59.773 39.8976Z" fill="white"/>
<path opacity="0.1" d="M72.7572 31.5873C72.7837 31.6546 72.8067 31.7233 72.826 31.7932C72.8443 31.8409 72.8591 31.8899 72.8702 31.9399C72.8863 31.9949 72.8987 32.0509 72.9075 32.1076L72.9465 32.2826L72.9559 32.3765C72.9946 32.6383 73.0049 32.9043 72.9868 33.1698L72.9509 33.4563C72.977 32.2132 71.0142 30.1967 69.0872 31.2679C68.4328 31.6344 67.4336 32.1733 65.3852 33.3023C65.1301 33.0241 64.8402 32.7806 64.5226 32.5778C64.262 32.3764 63.9513 32.2502 63.6222 32.2119C63.2932 32.1737 62.9576 32.2249 62.6498 32.3602L67.4927 29.6662C68.3801 29.1734 69.415 29.0514 70.3702 29.3272C71.3254 29.603 72.123 30.2539 72.5881 31.1373C72.643 31.2466 72.6892 31.3504 72.7324 31.4588C72.7447 31.5007 72.753 31.5437 72.7572 31.5873Z" fill="black"/>
<g style="mix-blend-mode:hard-light" opacity="0.7">
<path d="M33.8344 54.923C34.0457 55.052 34.2667 55.1645 34.4956 55.2595C34.54 55.2867 34.7178 55.3455 34.7545 55.3554C35.7466 55.6898 36.7995 55.8211 37.853 55.7418C38.9065 55.6625 39.94 55.3741 40.8941 54.8932L47.422 51.2516L47.4752 51.215C48.2149 50.8441 48.8479 50.2815 49.3079 49.5862C49.7679 48.8909 50.0381 48.0884 50.0901 47.2627C50.1421 46.437 49.9741 45.6184 49.6036 44.8926C49.2331 44.1669 48.6737 43.5606 47.984 43.1372C47.7749 43.0106 47.5547 42.9029 47.3261 42.8153C47.2773 42.7854 47.1377 42.7438 47.0627 42.7166C45.0607 42.0397 42.8531 42.2016 40.9243 43.167L34.3965 46.8086L34.3461 46.8407C33.6042 47.2095 32.9688 47.771 32.5067 48.4663C32.0446 49.1615 31.7729 49.9647 31.7201 50.7915C31.6672 51.6183 31.8353 52.438 32.2066 53.1645C32.5779 53.8911 33.1386 54.4976 33.83 54.9203L33.8344 54.923Z" fill="#FAFAFA"/>
</g>
<path d="M47.8258 47.1366C45.9839 46.0064 42.8252 46.0193 40.7659 47.1664L34.238 50.808C32.1815 51.9505 32.0026 53.7982 33.8401 54.9258C35.6776 56.0533 38.8435 56.0385 40.9 54.896L47.428 51.2543C49.4917 50.11 49.6678 48.2669 47.8258 47.1366Z" fill="#E0E0E0"/>
<path d="M49.4905 49.2984C50.0796 48.2533 50.2525 47.0293 49.973 45.8825C49.6935 44.7357 48.9832 43.755 47.9909 43.1455C47.7817 43.0188 47.5615 42.9111 47.3327 42.8235C47.2839 42.7935 47.1443 42.7519 47.0693 42.7248C45.3469 42.153 43.4694 42.1841 41.7337 42.813C44.7345 42.5513 46.5794 42.4871 48.3935 44.1104C49.0816 44.7435 49.5557 45.5802 49.7518 46.5077C49.948 47.4352 49.8568 48.4092 49.4905 49.2984Z" fill="white"/>
<path d="M38.2741 46.0257C38.5829 45.891 38.9192 45.8404 39.2489 45.8791C39.5786 45.9177 39.8898 46.0443 40.1511 46.2459C40.9054 46.7691 41.5224 47.468 41.9521 48.2861C42.3819 49.1042 42.6123 50.0185 42.6249 50.955C42.6459 51.2908 42.5777 51.6287 42.4273 51.9336C42.2768 52.2386 42.0497 52.4996 41.7693 52.6897L38.2602 54.6402C37.8195 54.8972 37.3349 55.064 36.8349 55.1308C36.3348 55.1977 35.8294 55.1633 35.3481 55.0296C34.8668 54.896 34.4194 54.6658 34.0321 54.3525C33.6447 54.0392 33.3252 53.6491 33.0923 53.205C32.8593 52.761 32.7176 52.272 32.6754 51.7665C32.6333 51.2611 32.6915 50.7495 32.8467 50.2616C33.0019 49.7737 33.251 49.3194 33.5794 48.9252C33.9077 48.5311 34.3087 48.2051 34.7589 47.9662L38.2741 46.0257Z" fill="#F5F5F5"/>
<path d="M43.1185 43.3385C44.0062 42.8449 45.0417 42.7229 45.9973 42.9994C46.9529 43.276 47.7502 43.9283 48.214 44.813C48.6777 45.6976 48.7698 46.7422 48.47 47.7168C48.1702 48.6914 47.5031 49.5162 46.6154 50.0098L41.7643 52.6979C42.0447 52.5078 42.2719 52.2468 42.4223 51.9419C42.5727 51.6369 42.6409 51.2991 42.6199 50.9633C42.6074 50.0268 42.3769 49.1124 41.9471 48.2943C41.5174 47.4762 40.9004 46.7773 40.1461 46.2541C39.8848 46.0525 39.5736 45.926 39.2439 45.8873C38.9142 45.8486 38.5779 45.8992 38.2691 46.0339L43.1185 43.3385Z" fill="#4B7FB0"/>
<path opacity="0.4" d="M47.3329 46.9629C47.1549 46.6248 46.8499 46.3754 46.4845 46.2691C46.1191 46.1628 45.723 46.2083 45.3826 46.3955L39.5287 49.6387C39.9427 50.4681 40.5621 51.171 41.3283 51.6808C41.4038 51.7271 41.4748 51.7706 41.5458 51.8142L46.7108 48.954C46.8801 48.8613 47.0306 48.7362 47.1535 48.5858C47.2765 48.4355 47.3696 48.2629 47.4274 48.0779C47.4852 47.8929 47.5066 47.6991 47.4904 47.5078C47.4742 47.3164 47.4206 47.1313 47.3329 46.9629Z" fill="white"/>
<path d="M38.2741 46.0257C38.5829 45.891 38.9192 45.8404 39.2489 45.8791C39.5786 45.9177 39.8898 46.0443 40.1511 46.2459C40.9054 46.7691 41.5224 47.468 41.9521 48.2861C42.3819 49.1042 42.6123 50.0185 42.6249 50.955C42.6459 51.2908 42.5777 51.6287 42.4273 51.9336C42.2768 52.2386 42.0497 52.4996 41.7693 52.6897L38.2602 54.6402C37.8195 54.8972 37.3349 55.064 36.8349 55.1308C36.3348 55.1977 35.8294 55.1633 35.3481 55.0296C34.8668 54.896 34.4194 54.6658 34.0321 54.3525C33.6447 54.0392 33.3252 53.6491 33.0923 53.205C32.8593 52.761 32.7176 52.272 32.6754 51.7665C32.6333 51.2611 32.6915 50.7495 32.8467 50.2616C33.0019 49.7737 33.251 49.3194 33.5794 48.9252C33.9077 48.5311 34.3087 48.2051 34.7589 47.9662L38.2741 46.0257Z" fill="#F5F5F5"/>
<path opacity="0.1" d="M42.6184 50.9663C42.6059 50.0297 42.3754 49.1152 41.9456 48.297C41.5158 47.4787 40.8987 46.7797 40.1443 46.2564C39.883 46.0548 39.5717 45.9282 39.242 45.8895C38.9123 45.8509 38.5759 45.9015 38.2671 46.0362L38.5439 45.885L38.7558 45.7695C39.0633 45.6325 39.3992 45.5804 39.7286 45.6187C40.058 45.657 40.3688 45.7842 40.6286 45.987C41.383 46.5103 42.0001 47.2093 42.4299 48.0276C42.8597 48.8458 43.0902 49.7603 43.1027 50.6969C43.1237 51.0328 43.0555 51.3707 42.9051 51.6757C42.7547 51.9807 42.5275 52.2417 42.2471 52.4319L41.7628 52.7013C42.0432 52.5111 42.2704 52.2501 42.4208 51.9451C42.5712 51.6401 42.6395 51.3022 42.6184 50.9663Z" fill="black"/>
<path d="M34.8295 54.7741C34.112 54.4399 33.5254 53.8793 33.1555 53.1742C32.6915 52.2892 32.5991 51.2444 32.8987 50.2693C33.1983 49.2943 33.8652 48.4688 34.7529 47.9745L38.2729 46.0252C38.5817 45.8905 38.9179 45.8399 39.2475 45.8786C39.5771 45.9172 39.8883 46.0438 40.1495 46.2453C40.4773 46.4513 40.7761 46.7002 41.0384 46.9859L35.1772 50.2424C33.2452 51.3224 33.798 54.116 34.8295 54.7741Z" fill="#E0E0E0"/>
<path d="M35.4094 53.5709C35.3216 53.4036 35.2677 53.2195 35.2509 53.0291C35.2341 52.8387 35.2547 52.6458 35.3116 52.4614C35.3684 52.2771 35.4604 52.1049 35.5822 51.9547C35.704 51.8045 35.8533 51.6793 36.0214 51.5863L41.9453 48.2984C42.3925 49.1112 42.625 50.0313 42.621 50.9725L42.5947 51.2333L37.3568 54.1428C37.1884 54.2363 37.0043 54.2958 36.8151 54.3176C36.6259 54.3395 36.4353 54.3234 36.2543 54.2702C36.0732 54.2171 35.9054 54.1279 35.7604 54.0079C35.6154 53.8879 35.4961 53.7394 35.4094 53.5709Z" fill="white"/>
<path opacity="0.1" d="M48.3935 45.2606C48.42 45.3279 48.4429 45.3967 48.4623 45.4665C48.4765 45.513 48.4951 45.5622 48.5065 45.6132L48.5438 45.7809L48.5799 45.9605L48.5922 46.0498C48.6294 46.3108 48.6382 46.5759 48.6187 46.8404C48.6161 46.9357 48.6066 47.0308 48.59 47.125C48.6161 45.882 46.6533 43.8654 44.7262 44.9366C44.0675 45.3004 43.0654 45.8439 41.0243 46.971C40.762 46.6852 40.463 46.4362 40.135 46.2302C39.8737 46.0285 39.5624 45.9019 39.2327 45.8633C38.903 45.8246 38.5666 45.8752 38.2578 46.0099L43.1051 43.3186C43.5444 43.0738 44.0247 42.9177 44.5186 42.8593C45.0125 42.801 45.5103 42.8415 45.9834 42.9786C46.4564 43.1157 46.8955 43.3466 47.2755 43.6582C47.6555 43.9697 47.9689 44.3558 48.1977 44.7942C48.252 44.8972 48.3012 45.003 48.3449 45.1112L48.3935 45.2606Z" fill="black"/>
<g style="mix-blend-mode:hard-light" opacity="0.7">
<path d="M74.858 51.5112C75.0675 51.6402 75.2882 51.7503 75.5176 51.8404C75.5664 51.8704 75.7414 51.9337 75.7781 51.9436C77.7835 52.6159 79.9926 52.4481 81.9205 51.4769L88.4456 47.8398L88.4987 47.8032C89.2394 47.4337 89.8735 46.872 90.3346 46.1771C90.7957 45.4822 91.0667 44.6797 91.1192 43.8537C91.1717 43.0278 91.0038 42.2089 90.633 41.483C90.2623 40.7571 89.7024 40.151 89.0121 39.7282C88.8014 39.6006 88.5798 39.492 88.3497 39.4035C88.2637 39.366 88.1758 39.3331 88.0863 39.3048C86.0853 38.63 83.8794 38.7929 81.9523 39.7579L75.4245 43.3996L75.3963 43.4452C74.6544 43.8141 74.019 44.3756 73.5569 45.0708C73.0948 45.7661 72.8231 46.5693 72.7703 47.396C72.7174 48.2228 72.8855 49.0425 73.2568 49.7691C73.6281 50.4956 74.1889 51.1021 74.8802 51.5248L74.858 51.5112Z" fill="#FAFAFA"/>
</g>
<path d="M88.8796 43.7056C87.0377 42.5754 83.8762 42.5929 81.8169 43.74L75.2917 47.3771C73.2324 48.5241 73.0536 50.3719 74.8955 51.5021C76.7374 52.6324 79.8989 52.6148 81.9582 51.4678L88.4834 47.8307C90.5362 46.6545 90.7038 44.825 88.8796 43.7056Z" fill="#E0E0E0"/>
<path d="M90.5282 45.8639C91.1173 44.8188 91.2902 43.5948 91.0107 42.4479C90.7312 41.3011 90.021 40.3204 89.0286 39.7109C88.8179 39.5833 88.5962 39.4747 88.366 39.3862C88.28 39.3487 88.1921 39.3157 88.1025 39.2875C86.3799 38.7173 84.5029 38.7484 82.767 39.3757C85.7706 39.1095 87.6171 39.0525 89.4312 40.6758C90.1193 41.309 90.5934 42.1456 90.7895 43.0731C90.9857 44.0007 90.8945 44.9746 90.5282 45.8639Z" fill="white"/>
<path d="M79.3062 42.6003C79.615 42.4656 79.9513 42.415 80.281 42.4536C80.6106 42.4923 80.9219 42.6189 81.1831 42.8205C81.9371 43.343 82.5537 44.0415 82.9828 44.8592C83.4118 45.677 83.6413 46.591 83.6525 47.5269C83.6739 47.8626 83.6064 48.2005 83.4568 48.5059C83.3072 48.8112 83.081 49.073 82.8014 49.2643L79.2878 51.2121C78.8477 51.4561 78.3668 51.6114 77.8724 51.669C77.3781 51.7267 76.88 51.6855 76.4067 51.5479C75.9334 51.4103 75.4941 51.179 75.1139 50.8671C74.7337 50.5553 74.42 50.169 74.1908 49.7303C73.9616 49.2917 73.8212 48.8093 73.7779 48.3106C73.7345 47.812 73.789 47.3068 73.9381 46.8241C74.0872 46.3414 74.3281 45.8904 74.647 45.4971C74.9658 45.1038 75.3565 44.7757 75.7966 44.5316L79.3062 42.6003Z" fill="#F5F5F5"/>
<path d="M84.1434 39.9149C85.029 39.445 86.0519 39.3401 86.9926 39.6226C87.9332 39.9051 88.7168 40.5526 89.175 41.426C89.6332 42.2995 89.7296 43.3293 89.4435 44.2945C89.1574 45.2598 88.5116 46.0835 87.6447 46.5889L82.7937 49.277C83.0733 49.0858 83.2995 48.824 83.4491 48.5187C83.5987 48.2133 83.6662 47.8754 83.6448 47.5396C83.6336 46.6037 83.4041 45.6897 82.9751 44.872C82.546 44.0542 81.9294 43.3557 81.1754 42.8332C80.9142 42.6316 80.6029 42.5051 80.2732 42.4664C79.9436 42.4277 79.6073 42.4783 79.2984 42.613L84.1434 39.9149Z" fill="#4B7FB0"/>
<path opacity="0.4" d="M88.3751 43.5312C88.1976 43.1937 87.8932 42.9448 87.5285 42.839C87.1638 42.7332 86.7685 42.779 86.4292 42.9665L80.5754 46.2097C80.9887 47.0395 81.6083 47.7425 82.375 48.2517C82.4548 48.3008 82.5259 48.3443 82.5969 48.3879L87.763 45.5158C87.9312 45.4228 88.0805 45.2976 88.2023 45.1475C88.3241 44.9973 88.4161 44.8251 88.473 44.6407C88.5298 44.4563 88.5505 44.2634 88.5337 44.073C88.5169 43.8826 88.463 43.6985 88.3751 43.5312Z" fill="white"/>
<path d="M79.3062 42.6003C79.615 42.4656 79.9513 42.415 80.281 42.4536C80.6106 42.4923 80.9219 42.6189 81.1831 42.8205C81.9371 43.343 82.5537 44.0415 82.9828 44.8592C83.4118 45.677 83.6413 46.591 83.6525 47.5269C83.6739 47.8626 83.6064 48.2005 83.4568 48.5059C83.3072 48.8112 83.081 49.073 82.8014 49.2643L79.2878 51.2121C78.8477 51.4561 78.3668 51.6114 77.8724 51.669C77.3781 51.7267 76.88 51.6855 76.4067 51.5479C75.9334 51.4103 75.4941 51.179 75.1139 50.8671C74.7337 50.5553 74.42 50.169 74.1908 49.7303C73.9616 49.2917 73.8212 48.8093 73.7779 48.3106C73.7345 47.812 73.789 47.3068 73.9381 46.8241C74.0872 46.3414 74.3281 45.8904 74.647 45.4971C74.9658 45.1038 75.3565 44.7757 75.7966 44.5316L79.3062 42.6003Z" fill="#F5F5F5"/>
<path opacity="0.1" d="M83.6516 47.5291C83.6404 46.593 83.411 45.6789 82.9818 44.861C82.5527 44.0431 81.9361 43.3445 81.1819 42.8219C80.9207 42.6203 80.6094 42.4937 80.2796 42.455C79.9499 42.4163 79.6136 42.467 79.3047 42.6017L79.5815 42.4505L79.789 42.3323C80.0976 42.1964 80.4342 42.1453 80.7642 42.184C81.0941 42.2227 81.4055 42.3499 81.6662 42.5525C82.4203 43.0751 83.037 43.7737 83.4661 44.5916C83.8953 45.4095 84.1247 46.3236 84.1359 47.2597C84.1574 47.5955 84.0898 47.9334 83.9402 48.2388C83.7906 48.5442 83.5644 48.8061 83.2847 48.9973L82.8004 49.2667C83.0801 49.0754 83.3063 48.8136 83.4559 48.5082C83.6055 48.2028 83.6731 47.8649 83.6516 47.5291Z" fill="black"/>
<path d="M75.8671 51.3396C75.2394 51.0479 74.7089 50.5832 74.335 49.9973C73.961 49.4114 73.7583 48.7274 73.7495 48.0216C73.7406 47.3158 73.9259 46.616 74.2848 46.0002C74.6436 45.3845 75.1619 44.877 75.7817 44.5345L79.2961 42.5943C79.6048 42.4596 79.9411 42.409 80.2706 42.4477C80.6002 42.4864 80.9114 42.6129 81.1726 42.8144C81.4992 43.0192 81.7966 43.2673 82.0571 43.5523L76.1959 46.8088C74.2828 47.8879 74.8356 50.6814 75.8671 51.3396Z" fill="#E0E0E0"/>
<path d="M76.4471 50.1363C76.3593 49.969 76.3054 49.7849 76.2886 49.5945C76.2718 49.4041 76.2924 49.2112 76.3493 49.0269C76.4061 48.8425 76.4981 48.6703 76.6199 48.5201C76.7417 48.37 76.891 48.2448 77.0591 48.1518L82.9831 44.8639C83.4289 45.676 83.6599 46.5953 83.6543 47.5352C83.6517 47.6232 83.6444 47.7112 83.6325 47.7987L78.3945 50.7082C78.0541 50.8957 77.6578 50.9408 77.2926 50.8335C76.9274 50.7263 76.6233 50.4755 76.4471 50.1363Z" fill="white"/>
<path opacity="0.1" d="M89.4268 41.8233L89.4957 42.0293L89.5398 42.176L89.5772 42.3437L89.6161 42.5186L89.6255 42.6125C89.6606 42.8738 89.6694 43.1386 89.652 43.4031L89.6205 43.6923C89.6422 42.4465 87.6838 40.4327 85.7568 41.5039C85.098 41.8677 84.0988 42.4066 82.0548 43.5383C81.7942 43.2532 81.4967 43.005 81.17 42.8002C80.9087 42.5985 80.5974 42.472 80.2677 42.4333C79.938 42.3946 79.6016 42.4452 79.2927 42.5799L84.1356 39.8859C85.0241 39.3932 86.0598 39.2717 87.0158 39.548C87.9717 39.8242 88.7699 40.4757 89.2355 41.3597C89.286 41.4662 89.3366 41.5728 89.3799 41.6812L89.4268 41.8233Z" fill="black"/>
<g style="mix-blend-mode:hard-light" opacity="0.7">
<path d="M50.5085 65.1616C50.7183 65.2897 50.9378 65.4013 51.1652 65.4954C51.214 65.5254 51.3919 65.5842 51.4286 65.5941C53.4324 66.2682 55.6408 66.102 57.5682 65.1319L64.096 61.4903L64.127 61.44C64.8677 61.0705 65.5018 60.5089 65.9629 59.814C66.424 59.1191 66.695 58.3165 66.7475 57.4906C66.8 56.6646 66.6321 55.8458 66.2613 55.1199C65.8905 54.394 65.3306 53.7878 64.6404 53.365C64.4297 53.2375 64.2081 53.1289 63.978 53.0404C63.9336 53.0131 63.794 52.9716 63.7146 52.9417C61.7137 52.2657 59.5075 52.4286 57.5806 53.3948L51.0528 57.0364L51.0246 57.0821C50.2827 57.4509 49.6474 58.0124 49.1852 58.7077C48.7231 59.4029 48.4514 60.2061 48.3986 61.0329C48.3457 61.8596 48.5138 62.6794 48.8851 63.4059C49.2564 64.1325 49.8172 64.739 50.5085 65.1616Z" fill="#FAFAFA"/>
</g>
<path d="M64.4954 57.3726C62.6579 56.2451 59.4948 56.2554 57.4355 57.4024L50.9075 61.0441C48.851 62.1866 48.6721 64.0343 50.5141 65.1645C52.356 66.2948 55.5175 66.2773 57.574 65.1348L64.1019 61.4931C66.1613 60.3461 66.3373 58.5029 64.4954 57.3726Z" fill="#E0E0E0"/>
<path d="M66.1646 59.5372C66.7524 58.4918 66.9245 57.2683 66.6451 56.1218C66.3657 54.9754 65.6563 53.9947 64.665 53.3843C64.4543 53.2567 64.2326 53.148 64.0023 53.0595C63.958 53.0323 63.8184 52.9907 63.7389 52.9608C62.0163 52.3907 60.1393 52.4217 58.4034 53.049C61.4041 52.7874 63.2534 52.7259 65.0631 54.3464C65.7513 54.9801 66.2257 55.817 66.4226 56.7448C66.6195 57.6726 66.5294 58.6469 66.1646 59.5372Z" fill="white"/>
<path d="M54.9482 56.2644C55.256 56.1296 55.5915 56.0787 55.9204 56.1169C56.2492 56.1551 56.5599 56.2811 56.8207 56.4819C57.5753 57.0047 58.1925 57.7036 58.6223 58.5218C59.0521 59.3399 59.2824 60.2544 59.2945 61.191C59.3159 61.5267 59.2483 61.8647 59.0988 62.17C58.9492 62.4754 58.723 62.7371 58.4434 62.9284L54.9298 64.8762C54.0421 65.3698 53.0066 65.4918 52.051 65.2153C51.0954 64.9388 50.2981 64.2864 49.8344 63.4018C49.3707 62.5171 49.2786 61.4726 49.5784 60.498C49.8782 59.5234 50.5453 58.6985 51.4329 58.2049L54.9482 56.2644Z" fill="#F5F5F5"/>
<path d="M59.7882 53.5745C60.6759 53.0809 61.7114 52.9589 62.667 53.2354C63.6226 53.5119 64.4199 54.1643 64.8836 55.0489C65.3474 55.9336 65.4394 56.9781 65.1397 57.9527C64.8399 58.9273 64.1727 59.7522 63.2851 60.2458L58.4385 62.9366C58.7181 62.7454 58.9443 62.4836 59.0939 62.1782C59.2434 61.8729 59.311 61.535 59.2895 61.1992C59.2774 60.2626 59.0472 59.3482 58.6174 58.53C58.1876 57.7118 57.5703 57.013 56.8158 56.4901C56.5557 56.289 56.2458 56.1626 55.9174 56.1236C55.589 56.0846 55.2539 56.1344 54.946 56.268L59.7882 53.5745Z" fill="#4B7FB0"/>
<path opacity="0.4" d="M64.0025 57.1989C63.8245 56.8608 63.5195 56.6114 63.1541 56.5051C62.7887 56.3988 62.3925 56.4442 62.0521 56.6315L56.1983 59.8747C56.613 60.7036 57.2323 61.4063 57.9979 61.9167C58.0733 61.963 58.1488 62.0093 58.2198 62.0529L63.3848 59.1927C63.5546 59.1001 63.7055 58.9749 63.8286 58.8242C63.9518 58.6735 64.0448 58.5004 64.1023 58.315C64.1597 58.1295 64.1805 57.9353 64.1634 57.7437C64.1462 57.5521 64.0915 57.3669 64.0025 57.1989Z" fill="white"/>
<path d="M54.9482 56.2644C55.256 56.1296 55.5915 56.0787 55.9204 56.1169C56.2492 56.1551 56.5599 56.2811 56.8207 56.4819C57.5753 57.0047 58.1925 57.7036 58.6223 58.5218C59.0521 59.3399 59.2824 60.2544 59.2945 61.191C59.3159 61.5267 59.2483 61.8647 59.0988 62.17C58.9492 62.4754 58.723 62.7371 58.4434 62.9284L54.9298 64.8762C54.0421 65.3698 53.0066 65.4918 52.051 65.2153C51.0954 64.9388 50.2981 64.2864 49.8344 63.4018C49.3707 62.5171 49.2786 61.4726 49.5784 60.498C49.8782 59.5234 50.5453 58.6985 51.4329 58.2049L54.9482 56.2644Z" fill="#F5F5F5"/>
<path opacity="0.1" d="M59.288 61.2023C59.2759 60.2656 59.0456 59.351 58.6157 58.5327C58.1858 57.7144 57.5685 57.0154 56.8138 56.4924C56.5544 56.2911 56.2452 56.1641 55.9173 56.1243C55.5894 56.0845 55.2546 56.1333 54.9467 56.2658L55.219 56.1119L55.431 55.9964C55.7387 55.8605 56.0744 55.809 56.4035 55.8473C56.7327 55.8855 57.0434 56.012 57.3038 56.2139C58.0585 56.7369 58.6758 57.4358 59.1056 58.2541C59.5355 59.0724 59.7658 59.987 59.7779 60.9238C59.7993 61.2596 59.7318 61.5976 59.5822 61.903C59.4326 62.2084 59.2063 62.4702 58.9267 62.6615L58.4424 62.9309C58.7196 62.7397 58.9439 62.4791 59.0924 62.1755C59.2409 61.8719 59.3084 61.5361 59.288 61.2023Z" fill="black"/>
<path d="M51.5035 65.0129C50.8757 64.7212 50.3453 64.2565 49.9713 63.6706C49.5974 63.0847 49.3947 62.4007 49.3858 61.6949C49.377 60.9891 49.5623 60.2892 49.9211 59.6735C50.28 59.0578 50.7982 58.5503 51.418 58.2078L54.9469 56.2639C55.2548 56.1292 55.5901 56.0783 55.9189 56.1165C56.2477 56.1547 56.5583 56.2806 56.819 56.4813C57.1471 56.687 57.446 56.936 57.708 57.2219C55.6636 58.3651 53.1521 59.7502 51.8468 60.4785C49.9148 61.5584 50.4542 64.3438 51.5035 65.0129Z" fill="#E0E0E0"/>
<path d="M52.0791 63.8069C51.9912 63.6396 51.9373 63.4554 51.9205 63.265C51.9037 63.0747 51.9244 62.8818 51.9812 62.6974C52.0381 62.513 52.13 62.3408 52.2519 62.1907C52.3737 62.0405 52.5229 61.9153 52.6911 61.8223L58.615 58.5344C59.0609 59.3465 59.2918 60.2658 59.2862 61.2057C59.2839 61.2987 59.2728 61.3863 59.2644 61.4692L54.0265 64.3788C53.6858 64.5648 53.29 64.6091 52.9252 64.502C52.5605 64.3948 52.2563 64.145 52.0791 63.8069Z" fill="white"/>
<path opacity="0.1" d="M65.0809 55.5075C65.1074 55.5748 65.1304 55.6435 65.1498 55.7134C65.168 55.7611 65.1828 55.8101 65.1939 55.8601L65.2357 56.0305C65.2499 56.0887 65.2605 56.1477 65.2674 56.2074C65.2751 56.2364 65.2792 56.2664 65.2796 56.2967C65.3183 56.5584 65.3287 56.8244 65.3105 57.09C65.3038 57.1803 65.2943 57.2752 65.2775 57.3719C65.3036 56.1288 63.3408 54.1123 61.4181 55.1862C60.7594 55.55 59.7573 56.0935 57.7162 57.2206C57.4541 56.9346 57.1551 56.6855 56.8269 56.4798C56.5644 56.2781 56.2517 56.1523 55.9208 56.1152C55.5899 56.0781 55.2528 56.1311 54.944 56.2687L59.7869 53.5746C60.6744 53.0816 61.7095 52.96 62.6645 53.2367C63.6195 53.5135 64.4163 54.1658 64.8795 55.0503C64.9366 55.1534 64.9872 55.2602 65.0312 55.3699L65.0809 55.5075Z" fill="black"/>
<g style="mix-blend-mode:hard-light" opacity="0.7">
<path d="M91.5276 61.7472C91.7386 61.8771 91.9608 61.9881 92.1916 62.0791C92.236 62.1064 92.4155 62.1724 92.4477 62.1797C93.4448 62.5109 94.5022 62.6377 95.5592 62.5529C96.6162 62.4681 97.652 62.1733 98.607 61.6855L105.132 58.0484L105.163 57.9982C105.902 57.6275 106.535 57.0653 106.995 56.3705C107.455 55.6757 107.725 54.8738 107.778 54.0485C107.83 53.2233 107.663 52.405 107.293 51.6793C106.924 50.9536 106.365 50.3471 105.676 49.9232C105.466 49.7956 105.244 49.687 105.014 49.5985C104.928 49.5601 104.84 49.5272 104.751 49.4998C102.748 48.8241 100.541 48.986 98.6122 49.9502L92.0843 53.5918L92.034 53.6239C91.2921 53.9927 90.6567 54.5543 90.1946 55.2495C89.7325 55.9447 89.4608 56.7479 89.4079 57.5747C89.3551 58.4014 89.5232 59.2212 89.8945 59.9477C90.2658 60.6743 90.8265 61.2808 91.5178 61.7035L91.5276 61.7472Z" fill="#FAFAFA"/>
</g>
<path d="M105.536 53.9335C103.694 52.8032 100.533 52.8208 98.4732 53.9678L91.9509 57.6004C89.8915 58.7474 89.7127 60.5951 91.5502 61.7227C93.3877 62.8502 96.5536 62.8354 98.6129 61.6884L105.138 58.0512C107.21 56.8932 107.378 55.0637 105.536 53.9335Z" fill="#E0E0E0"/>
<path d="M107.202 56.1026C107.79 55.0573 107.962 53.8337 107.683 52.6873C107.403 51.5408 106.694 50.5601 105.703 49.9497C105.492 49.8221 105.27 49.7135 105.04 49.6249C104.954 49.5865 104.866 49.5536 104.777 49.5262C103.054 48.9545 101.177 48.9855 99.4411 49.6145C102.445 49.3482 104.291 49.2913 106.101 50.9119C106.789 51.5456 107.263 52.3824 107.46 53.3102C107.657 54.238 107.567 55.2124 107.202 56.1026Z" fill="white"/>
<path d="M95.9803 52.839C96.2881 52.7037 96.6236 52.6525 96.9526 52.6907C97.2816 52.7289 97.5923 52.8552 97.8528 53.0565C98.6074 53.5794 99.2246 54.2782 99.6544 55.0964C100.084 55.9146 100.315 56.829 100.327 57.7656C100.348 58.1014 100.279 58.4392 100.129 58.7442C99.9786 59.0492 99.7515 59.3102 99.4711 59.5003L95.962 61.4508C95.5211 61.7039 95.0373 61.8671 94.5386 61.9309C94.04 61.9948 93.5365 61.958 93.0575 61.8227C92.5784 61.6875 92.1334 61.4564 91.7483 61.143C91.3632 60.8296 91.0456 60.4401 90.8142 59.9972C90.5827 59.5543 90.4419 59.0668 90.4 58.5631C90.3581 58.0593 90.4159 57.5495 90.5701 57.0631C90.7242 56.5767 90.9716 56.1235 91.2979 55.7299C91.6242 55.3363 92.0229 55.0101 92.4707 54.7704L95.9803 52.839Z" fill="#F5F5F5"/>
<path d="M100.822 50.1563C101.261 49.9118 101.742 49.7561 102.236 49.6979C102.73 49.6397 103.228 49.6803 103.701 49.8172C104.174 49.9541 104.613 50.1847 104.993 50.4959C105.374 50.8071 105.688 51.1927 105.917 51.6307C106.147 52.0688 106.288 52.5507 106.332 53.0489C106.376 53.5471 106.322 54.052 106.173 54.5345C106.025 55.0171 105.785 55.468 105.467 55.8614C105.148 56.2549 104.758 56.5832 104.319 56.8276L99.4677 59.5157C99.7481 59.3256 99.9752 59.0646 100.126 58.7596C100.276 58.4546 100.344 58.1168 100.323 57.781C100.311 56.8444 100.081 55.9299 99.6511 55.1118C99.2213 54.2936 98.6041 53.5947 97.8495 53.0719C97.5889 52.8705 97.2782 52.7443 96.9492 52.7061C96.6202 52.6679 96.2847 52.7191 95.9769 52.8544L100.822 50.1563Z" fill="#4B7FB0"/>
<path opacity="0.4" d="M105.04 53.7644C104.862 53.4263 104.557 53.1769 104.192 53.0706C103.826 52.9643 103.43 53.0097 103.09 53.197L97.2361 56.4402C97.65 57.2696 98.2694 57.9725 99.0356 58.4822C99.1111 58.5285 99.1821 58.5721 99.2531 58.6157L104.418 55.7555C104.588 55.6633 104.739 55.5385 104.862 55.3882C104.986 55.2379 105.079 55.0651 105.137 54.8799C105.195 54.6947 105.216 54.5008 105.199 54.3093C105.183 54.1178 105.129 53.9326 105.04 53.7644Z" fill="white"/>
<path d="M95.9803 52.839C96.2881 52.7037 96.6236 52.6525 96.9526 52.6907C97.2816 52.7289 97.5923 52.8552 97.8528 53.0565C98.6074 53.5794 99.2246 54.2782 99.6544 55.0964C100.084 55.9146 100.315 56.829 100.327 57.7656C100.348 58.1014 100.279 58.4392 100.129 58.7442C99.9786 59.0492 99.7515 59.3102 99.4711 59.5003L95.962 61.4508C95.5211 61.7039 95.0373 61.8671 94.5386 61.9309C94.04 61.9948 93.5365 61.958 93.0575 61.8227C92.5784 61.6875 92.1334 61.4564 91.7483 61.143C91.3632 60.8296 91.0456 60.4401 90.8142 59.9972C90.5827 59.5543 90.4419 59.0668 90.4 58.5631C90.3581 58.0593 90.4159 57.5495 90.5701 57.0631C90.7242 56.5767 90.9716 56.1235 91.2979 55.7299C91.6242 55.3363 92.0229 55.0101 92.4707 54.7704L95.9803 52.839Z" fill="#F5F5F5"/>
<path opacity="0.1" d="M100.326 57.7677C100.314 56.8309 100.083 55.9163 99.6535 55.098C99.2236 54.2797 98.6063 53.5808 97.8516 53.0578C97.591 52.8565 97.2803 52.7302 96.9513 52.692C96.6222 52.6538 96.2866 52.705 95.9788 52.8403L96.2512 52.6864L96.4631 52.5709C96.7707 52.4344 97.1065 52.3827 97.4358 52.4209C97.7651 52.4592 98.0758 52.586 98.3359 52.7884C99.0906 53.3114 99.7079 54.0103 100.138 54.8286C100.568 55.6469 100.798 56.5615 100.81 57.4983C100.831 57.8341 100.763 58.172 100.612 58.477C100.462 58.7821 100.235 59.0431 99.9544 59.2332L99.4701 59.5026C99.7505 59.3125 99.9777 59.0514 100.128 58.7464C100.279 58.4414 100.347 58.1035 100.326 57.7677Z" fill="black"/>
<path d="M92.5501 61.5837C91.8327 61.2495 91.2461 60.6889 90.8761 59.9837C90.6447 59.545 90.5024 59.062 90.4572 58.5623C90.4121 58.0627 90.4651 57.5562 90.6132 57.0719C90.7613 56.5876 91.0015 56.135 91.3202 55.74C91.6388 55.3449 92.0297 55.0151 92.4703 54.7695L95.9892 52.832C96.2969 52.6967 96.6323 52.6456 96.9612 52.6838C97.2902 52.722 97.6007 52.8482 97.8612 53.0495C98.1891 53.2554 98.4879 53.5044 98.7502 53.79L92.889 57.0466C90.9526 58.1238 91.5053 60.9174 92.5501 61.5837Z" fill="#E0E0E0"/>
<path d="M93.1168 60.3724C92.9407 60.0342 92.9063 59.6354 93.021 59.2635C93.1357 58.8916 93.3902 58.5767 93.7288 58.3878L99.6527 55.0999C100.102 55.912 100.334 56.8325 100.328 57.7739L100.307 58.0375L95.0686 60.947C94.7272 61.1343 94.33 61.1789 93.9641 61.0712C93.5982 60.9635 93.2935 60.7122 93.1168 60.3724Z" fill="white"/>
<path opacity="0.1" d="M106.101 52.062C106.127 52.1293 106.15 52.198 106.17 52.2679C106.188 52.3156 106.203 52.3646 106.214 52.4146L106.251 52.5823L106.29 52.7573L106.3 52.8512C106.338 53.113 106.349 53.379 106.331 53.6445C106.326 53.7413 106.315 53.8379 106.299 53.9337C106.325 52.6906 104.362 50.6741 102.435 51.7453C101.781 52.1118 100.777 52.648 98.7334 53.7797C98.471 53.4939 98.1721 53.2449 97.8441 53.0388C97.5835 52.8375 97.2728 52.7112 96.9437 52.673C96.6147 52.6348 96.2791 52.686 95.9713 52.8213L100.814 50.1273C101.702 49.6344 102.736 49.5125 103.692 49.7883C104.647 50.0641 105.445 50.715 105.91 51.5984C105.965 51.7076 106.011 51.8115 106.054 51.9199C106.075 51.9653 106.09 52.0129 106.101 52.062Z" fill="black"/>
<g style="mix-blend-mode:hard-light" opacity="0.7">
<path d="M67.178 75.3976C67.3893 75.5266 67.6104 75.6391 67.8392 75.7341C67.8836 75.7613 68.0615 75.8201 68.0982 75.83C69.0902 76.1644 70.1432 76.2957 71.1967 76.2164C72.2502 76.1371 73.2836 75.8487 74.2378 75.3678L80.7656 71.7262L80.8188 71.6896C81.5585 71.3187 82.1915 70.7561 82.6515 70.0608C83.1116 69.3655 83.3817 68.563 83.4338 67.7373C83.4858 66.9116 83.3177 66.093 82.9472 65.3672C82.5767 64.6415 82.0174 64.0352 81.3277 63.6119C81.1185 63.4852 80.8984 63.3775 80.6697 63.2899C80.6209 63.26 80.4814 63.2184 80.4063 63.1913C78.4044 62.5143 76.1967 62.6763 74.268 63.6416L67.7401 67.2832L67.7119 67.3289C66.9701 67.6977 66.3347 68.2593 65.8726 68.9545C65.4105 69.6497 65.1387 70.453 65.0859 71.2797C65.0331 72.1065 65.2012 72.9262 65.5724 73.6528C65.9437 74.3793 66.5045 74.9858 67.1958 75.4085L67.178 75.3976Z" fill="#FAFAFA"/>
</g>
<path d="M81.1694 67.6113C79.3275 66.481 76.1689 66.494 74.1096 67.641L67.5816 71.2827C65.5251 72.4252 65.3462 74.2729 67.1882 75.4032C69.0301 76.5334 72.1915 76.5159 74.248 75.3734L80.776 71.7317C82.8353 70.5847 83.0114 68.7416 81.1694 67.6113Z" fill="#E0E0E0"/>
<path d="M82.8343 69.7732C83.4234 68.7281 83.5962 67.5041 83.3167 66.3572C83.0372 65.2104 82.327 64.2297 81.3346 63.6202C81.1254 63.4935 80.9052 63.3858 80.6765 63.2982C80.6276 63.2682 80.488 63.2267 80.413 63.1995C78.6907 62.6277 76.8132 62.6588 75.0775 63.2877C78.0782 63.0261 79.9231 62.9618 81.7372 64.5851C82.4254 65.2182 82.8994 66.0549 83.0956 66.9824C83.2917 67.91 83.2005 68.8839 82.8343 69.7732Z" fill="white"/>
<path d="M71.6178 66.5004C71.9266 66.3657 72.2629 66.3151 72.5926 66.3538C72.9223 66.3925 73.2335 66.519 73.4948 66.7206C74.2491 67.2438 74.8661 67.9428 75.2958 68.7609C75.7256 69.579 75.9561 70.4933 75.9686 71.4298C75.9879 71.7654 75.919 72.1026 75.7687 72.4073C75.6185 72.712 75.3923 72.9732 75.1131 73.1644L71.5995 75.1123C71.1599 75.3567 70.6795 75.5124 70.1856 75.5706C69.6916 75.6288 69.1938 75.5882 68.7207 75.4513C68.2475 75.3144 67.8083 75.0838 67.4279 74.7726C67.0476 74.4614 66.7337 74.0758 66.5041 73.6378C66.2744 73.1998 66.1337 72.7178 66.0897 72.2196C66.0458 71.7214 66.0996 71.2166 66.248 70.734C66.3965 70.2514 66.6367 69.8005 66.9549 69.4071C67.2731 69.0137 67.6631 68.6854 68.1026 68.441L71.6178 66.5004Z" fill="#F5F5F5"/>
<path d="M76.4623 63.8131C77.3499 63.3195 78.3855 63.1975 79.3411 63.4741C80.2966 63.7506 81.094 64.4029 81.5577 65.2876C82.0214 66.1723 82.1135 67.2168 81.8137 68.1914C81.5139 69.166 80.8468 69.9908 79.9591 70.4845L75.1081 73.1725C75.3873 72.9813 75.6135 72.7201 75.7638 72.4154C75.914 72.1107 75.983 71.7735 75.9636 71.4379C75.9511 70.5014 75.7206 69.587 75.2909 68.7689C74.8611 67.9508 74.2441 67.2519 73.4898 66.7287C73.2286 66.5271 72.9173 66.4006 72.5877 66.3619C72.258 66.3232 71.9217 66.3738 71.6129 66.5085L76.4623 63.8131Z" fill="#4B7FB0"/>
<path opacity="0.4" d="M80.6766 67.4376C80.4986 67.0996 80.1936 66.8501 79.8282 66.7438C79.4628 66.6375 79.0667 66.683 78.7263 66.8703L72.8725 70.1134C73.2864 70.9429 73.9058 71.6457 74.6721 72.1555C74.7475 72.2018 74.8185 72.2454 74.8895 72.289L80.0545 69.4287C80.2238 69.336 80.3743 69.2109 80.4973 69.0606C80.6203 68.9102 80.7133 68.7376 80.7711 68.5526C80.8289 68.3676 80.8503 68.1738 80.8341 67.9825C80.8179 67.7912 80.7644 67.606 80.6766 67.4376Z" fill="white"/>
<path d="M71.6178 66.5004C71.9266 66.3657 72.2629 66.3151 72.5926 66.3538C72.9223 66.3925 73.2335 66.519 73.4948 66.7206C74.2491 67.2438 74.8661 67.9428 75.2958 68.7609C75.7256 69.579 75.9561 70.4933 75.9686 71.4298C75.9879 71.7654 75.919 72.1026 75.7687 72.4073C75.6185 72.712 75.3923 72.9732 75.1131 73.1644L71.5995 75.1123C71.1599 75.3567 70.6795 75.5124 70.1856 75.5706C69.6916 75.6288 69.1938 75.5882 68.7207 75.4513C68.2475 75.3144 67.8083 75.0838 67.4279 74.7726C67.0476 74.4614 66.7337 74.0758 66.5041 73.6378C66.2744 73.1998 66.1337 72.7178 66.0897 72.2196C66.0458 71.7214 66.0996 71.2166 66.248 70.734C66.3965 70.2514 66.6367 69.8005 66.9549 69.4071C67.2731 69.0137 67.6631 68.6854 68.1026 68.441L71.6178 66.5004Z" fill="#F5F5F5"/>
<path opacity="0.1" d="M75.9622 71.441C75.9496 70.5043 75.7191 69.5899 75.2893 68.7716C74.8595 67.9534 74.2424 67.2544 73.488 66.7311C73.2267 66.5295 72.9154 66.4029 72.5857 66.3642C72.256 66.3255 71.9196 66.3761 71.6108 66.5108L71.8876 66.3596L72.0951 66.2414C72.4037 66.1056 72.7403 66.0544 73.0702 66.0931C73.4002 66.1318 73.7115 66.2591 73.9723 66.4617C74.7267 66.985 75.3438 67.684 75.7736 68.5022C76.2034 69.3205 76.4339 70.2349 76.4464 71.1716C76.4675 71.5074 76.3992 71.8453 76.2488 72.1503C76.0984 72.4553 75.8712 72.7164 75.5908 72.9065L75.1065 73.1759C75.3858 72.9846 75.612 72.7233 75.7623 72.4186C75.9126 72.1139 75.9815 71.7766 75.9622 71.441Z" fill="black"/>
<path d="M68.1731 75.2488C67.4557 74.9146 66.8691 74.3539 66.4991 73.6488C66.0351 72.7639 65.9428 71.719 66.2423 70.7439C66.5419 69.7689 67.2089 68.9435 68.0966 68.4492L71.6166 66.4998C71.9253 66.3651 72.2616 66.3145 72.5911 66.3532C72.9207 66.3919 73.2319 66.5184 73.4931 66.7199C73.821 66.9259 74.1198 67.1748 74.382 67.4605L68.5208 70.717C66.5889 71.797 67.1416 74.5906 68.1731 75.2488Z" fill="#E0E0E0"/>
<path d="M68.7532 74.0455C68.6653 73.8782 68.6114 73.6941 68.5946 73.5037C68.5778 73.3133 68.5984 73.1204 68.6553 72.936C68.7121 72.7517 68.8041 72.5795 68.9259 72.4293C69.0478 72.2791 69.197 72.154 69.3652 72.061L75.2842 68.7512C75.7314 69.564 75.9639 70.4841 75.9599 71.4252L75.9336 71.686L70.6957 74.5956C70.3584 74.7831 69.9653 74.8305 69.6017 74.7275C69.238 74.6245 68.9331 74.3795 68.7532 74.0455Z" fill="white"/>
<path opacity="0.1" d="M81.7372 65.7352C81.7637 65.8025 81.7867 65.8713 81.8061 65.9412C81.8202 65.9876 81.8389 66.0368 81.8502 66.0878L81.8876 66.2555L81.9237 66.4351L81.9359 66.5244C81.9731 66.7854 81.982 67.0505 81.9624 67.315C81.9599 67.4103 81.9503 67.5054 81.9338 67.5996C81.9554 66.3539 79.9971 64.34 78.07 65.4112C77.4112 65.775 76.4092 66.3185 74.3681 67.4456C74.1057 67.1598 73.8068 66.9108 73.4788 66.7048C73.2175 66.5031 72.9062 66.3766 72.5765 66.3379C72.2467 66.2992 71.9104 66.3498 71.6015 66.4845L76.4489 63.7932C76.8881 63.5484 77.3685 63.3923 77.8624 63.334C78.3563 63.2756 78.854 63.3161 79.3271 63.4532C79.8002 63.5903 80.2393 63.8212 80.6193 64.1328C80.9992 64.4443 81.3126 64.8304 81.5415 65.2688C81.5958 65.3718 81.6449 65.4776 81.6887 65.5858L81.7372 65.7352Z" fill="black"/>
</svg>
