<svg width="182" height="182" viewBox="0 0 182 182" fill="none" xmlns="http://www.w3.org/2000/svg">
<circle cx="88" cy="93" r="70" fill="#949191"/>
<path d="M136.54 98.7132L138.047 106.197L139.514 107.042L140.966 106.204L142.488 98.7132L139.514 96.9951L136.54 98.7132Z" fill="#E0E0E0"/>
<path d="M136.54 98.7132L138.047 106.197L139.514 107.042L140.966 106.204L142.488 98.7132L139.514 96.9951L136.54 98.7132Z" fill="#263238"/>
<path d="M139.514 107.041V100.431L136.54 98.7131L138.047 106.197L139.514 107.041Z" fill="#455A64"/>
<path opacity="0.05" d="M136.54 98.7132L137.516 103.543L139.514 104.701L141.505 103.551L142.488 98.7132L139.514 96.9951L136.54 98.7132Z" fill="black"/>
<path d="M149.619 91.1639L151.129 98.6441L152.593 99.4922L154.045 98.6514L155.566 91.1639L152.593 89.4458L149.619 91.1639Z" fill="#E0E0E0"/>
<path d="M149.619 91.1639L151.129 98.6441L152.593 99.4922L154.045 98.6514L155.566 91.1639L152.593 89.4458L149.619 91.1639Z" fill="#263238"/>
<path d="M152.593 99.4921V92.8783L149.619 91.1638L151.129 98.644L152.593 99.4921Z" fill="#455A64"/>
<path opacity="0.05" d="M149.619 91.1639L150.594 95.9942L152.593 97.148L154.587 95.9978L155.566 91.1639L152.593 89.4458L149.619 91.1639Z" fill="black"/>
<path d="M115.952 86.8067L117.459 94.2905L118.926 95.135L120.378 94.2978L121.9 86.8067L118.922 85.0886L115.952 86.8067Z" fill="#E0E0E0"/>
<path d="M115.952 86.8067L117.459 94.2905L118.926 95.135L120.378 94.2978L121.9 86.8067L118.922 85.0886L115.952 86.8067Z" fill="#263238"/>
<path d="M118.926 95.1352V88.525L115.952 86.8069L117.459 94.2907L118.926 95.1352Z" fill="#455A64"/>
<path opacity="0.05" d="M115.952 86.8067L116.924 91.637L118.926 92.7945L120.917 91.6443L121.9 86.8067L118.922 85.0886L115.952 86.8067Z" fill="black"/>
<path d="M139.514 103.493L155.723 94.1341V65.5273L139.514 74.8858V103.493Z" fill="#263238"/>
<path d="M139.514 74.8857L115.108 60.7771V89.3839L139.514 103.493V74.8857Z" fill="#37474F"/>
<path d="M115.108 60.7771L139.514 74.8858L155.723 65.5273L131.317 51.4187L115.108 60.7771Z" fill="#455A64"/>
<path d="M137.199 89.0272L117.423 77.5903L116.997 77.8378V87.4729L136.773 98.9098L137.199 98.6659V89.0272Z" fill="#263238"/>
<path d="M136.773 89.2748L116.997 77.8379V87.473L136.773 98.9099V89.2748Z" fill="#455A64"/>
<path d="M128.674 87.1563L125.522 85.3363C125.114 85.0997 124.794 85.2052 124.794 85.5765C124.824 85.8021 124.905 86.0179 125.031 86.2073C125.157 86.3966 125.325 86.5544 125.522 86.6685L128.674 88.4885C129.082 88.7251 129.402 88.6195 129.402 88.2483C129.373 88.0226 129.292 87.8068 129.165 87.6175C129.039 87.4281 128.871 87.2703 128.674 87.1563Z" fill="#37474F"/>
<path d="M137.199 76.7203L117.423 65.2834L116.997 65.5273V75.166L136.773 86.6029L137.203 86.3554L137.199 76.7203Z" fill="#263238"/>
<path d="M136.773 76.9642L116.997 65.5273V75.1661L136.773 86.6029V76.9642Z" fill="#455A64"/>
<path d="M128.674 74.8495L125.525 73.0295C125.114 72.7929 124.797 72.9021 124.797 73.2697C124.826 73.4956 124.907 73.7117 125.033 73.9012C125.159 74.0906 125.328 74.2483 125.525 74.3617L128.674 76.1817C129.082 76.4183 129.402 76.3091 129.402 75.9415C129.373 75.7157 129.292 75.4998 129.165 75.3104C129.039 75.1211 128.871 74.9633 128.674 74.8495Z" fill="#37474F"/>
<path d="M120.71 41.2705V41.6345C120.71 41.6345 120.856 41.5035 120.863 41.4088C120.87 41.3142 120.71 41.2705 120.71 41.2705Z" fill="black"/>
<path d="M120.997 41.1794C121.013 41.2316 121.018 41.2864 121.012 41.3405C121.006 41.3946 120.988 41.4468 120.961 41.494C120.934 41.5411 120.897 41.5821 120.853 41.6144C120.809 41.6467 120.759 41.6696 120.706 41.6818C120.298 41.8092 120.044 41.6818 119.978 41.7946C119.913 41.9074 121.911 43.0577 121.911 43.0577L121.547 41.4088L120.997 41.1794Z" fill="black"/>
<path opacity="0.3" d="M120.997 41.1794C121.013 41.2316 121.018 41.2864 121.012 41.3405C121.006 41.3946 120.988 41.4468 120.961 41.494C120.934 41.5411 120.897 41.5821 120.853 41.6144C120.809 41.6467 120.759 41.6696 120.706 41.6818C120.298 41.8092 120.044 41.6818 119.978 41.7946C119.913 41.9074 121.911 43.0577 121.911 43.0577L121.547 41.4088L120.997 41.1794Z" fill="black"/>
<path d="M121.212 59.1391V59.1646L121.413 59.0481L129.748 54.236V36.764C129.748 36.5238 129.617 36.4 129.457 36.502L129.166 36.6694L121.158 41.2849V41.3541L121.212 59.1391Z" fill="black"/>
<path opacity="0.2" d="M121.212 59.1391V59.1646L121.413 59.0481L129.748 54.236V36.764C129.748 36.5238 129.617 36.4 129.457 36.502L129.166 36.6694L121.158 41.2849V41.3541L121.212 59.1391Z" fill="black"/>
<path d="M122.908 43.5162L123.331 43.043L121.183 41.8054C120.859 42.0493 120.612 42.1694 120.32 42.0566L122.908 43.5162Z" fill="#455A64"/>
<path d="M121.292 41.5507L129.22 36.9752C129.298 36.9375 129.383 36.918 129.469 36.918C129.556 36.918 129.641 36.9375 129.719 36.9752L131.837 38.1983L123.797 42.7956C123.697 42.7717 123.594 42.7684 123.493 42.786C123.392 42.8035 123.296 42.8414 123.21 42.8975C122.974 43.0904 122.988 42.8466 122.988 42.8466L121.168 41.8055C121.329 41.6053 121.292 41.5507 121.292 41.5507Z" fill="#F5F5F5"/>
<path d="M123.065 43.4179C123.149 43.3706 123.182 43.316 123.141 43.2942L123.076 43.2541C123.003 43.2105 123.076 43.1013 123.232 43.0066C123.294 42.9635 123.364 42.9333 123.438 42.9176C123.512 42.902 123.588 42.9013 123.662 42.9156L123.728 42.9557C123.768 42.9775 123.906 42.9302 124.044 42.8501L123.997 60.4677L123.797 60.5842C123.757 60.5949 123.716 60.5949 123.677 60.5842L123.611 60.5441C123.538 60.5291 123.462 60.5294 123.389 60.545C123.315 60.5607 123.246 60.5914 123.185 60.6351C123.021 60.7298 122.952 60.839 123.029 60.8827L123.094 60.9227C123.134 60.9445 123.094 60.9991 123.018 61.0465L123.065 43.4179Z" fill="black"/>
<path opacity="0.4" d="M123.065 43.4179C123.149 43.3706 123.182 43.316 123.141 43.2942L123.076 43.2541C123.003 43.2105 123.076 43.1013 123.232 43.0066C123.294 42.9635 123.364 42.9333 123.438 42.9176C123.512 42.902 123.588 42.9013 123.662 42.9156L123.728 42.9557C123.768 42.9775 123.906 42.9302 124.044 42.8501L123.997 60.4677L123.797 60.5842C123.757 60.5949 123.716 60.5949 123.677 60.5842L123.611 60.5441C123.538 60.5291 123.462 60.5294 123.389 60.545C123.315 60.5607 123.246 60.5914 123.185 60.6351C123.021 60.7298 122.952 60.839 123.029 60.8827L123.094 60.9227C123.134 60.9445 123.094 60.9991 123.018 61.0465L123.065 43.4179Z" fill="black"/>
<path d="M123.797 60.5587V60.5842L123.993 60.4677L132.551 55.5282V38.3729C132.551 38.1327 132.42 38.0089 132.26 38.1108L131.969 38.2783L123.797 42.7955V60.5587Z" fill="black"/>
<path opacity="0.2" d="M123.797 60.5587V60.5842L123.993 60.4677L132.551 55.5282V38.3729C132.551 38.1327 132.42 38.0089 132.26 38.1108L131.969 38.2783L123.797 42.7955V60.5587Z" fill="black"/>
<path d="M123.16 60.952V43.3162L122.628 43.5309V61.1158C122.726 61.1366 122.828 61.1264 122.92 61.0866L123.16 60.952Z" fill="black"/>
<path opacity="0.2" d="M123.16 60.952V43.3162L122.628 43.5309V61.1158C122.726 61.1366 122.828 61.1264 122.92 61.0866L123.16 60.952Z" fill="black"/>
<path d="M119.756 59.4085C119.756 59.4085 119.756 59.4085 119.756 59.4376C119.757 59.4437 119.757 59.4498 119.756 59.4558C119.761 59.4698 119.767 59.4833 119.775 59.4959V59.5141C119.787 59.5375 119.801 59.5595 119.818 59.5796L119.88 59.6451L119.953 59.707L120 59.7434L120.04 59.7725L120.135 59.8308L121.977 60.8973C122.169 61.0083 122.38 61.0824 122.599 61.1157V43.5308L119.756 41.8164V59.4085Z" fill="black"/>
<path d="M122.628 45.591V47.3783C121.561 47.0529 120.582 46.4876 119.767 45.7257V43.9385C120.582 44.7004 121.561 45.2657 122.628 45.591Z" fill="black"/>
<path opacity="0.4" d="M122.628 45.591V47.3783C121.561 47.0529 120.582 46.4876 119.767 45.7257V43.9385C120.582 44.7004 121.561 45.2657 122.628 45.591Z" fill="white"/>
<path d="M122.628 48.0481V48.7142C121.561 48.3888 120.582 47.8235 119.767 47.0616V46.3955C120.582 47.1574 121.561 47.7227 122.628 48.0481Z" fill="black"/>
<path opacity="0.4" d="M122.628 48.0481V48.7142C121.561 48.3888 120.582 47.8235 119.767 47.0616V46.3955C120.582 47.1574 121.561 47.7227 122.628 48.0481Z" fill="white"/>
<path d="M122.006 43.3161L122.151 43.0686C122.336 43.1832 122.546 43.2496 122.763 43.2615C122.751 43.1767 122.769 43.0904 122.814 43.0176C122.883 42.9113 122.978 42.8247 123.091 42.7665C123.219 42.6902 123.361 42.6419 123.509 42.6245H123.538C123.627 42.6176 123.716 42.6339 123.797 42.6718L131.383 38.3038L131.641 38.1546L131.969 37.9653C131.996 37.9496 132.026 37.9414 132.058 37.9414C132.089 37.9414 132.12 37.9496 132.147 37.9653L132.438 38.1364C132.411 38.1197 132.379 38.1108 132.347 38.1108C132.315 38.1108 132.284 38.1197 132.256 38.1364L131.386 38.6423L124.048 42.8757C123.957 42.9442 123.845 42.9812 123.731 42.9812L123.662 42.9412C123.614 42.9233 123.561 42.9233 123.513 42.9412C123.415 42.957 123.322 42.9903 123.236 43.0395C123.076 43.1341 123.007 43.2433 123.08 43.287L123.149 43.327C123.185 43.3489 123.149 43.4035 123.069 43.4508L122.923 43.5345C122.763 43.5629 122.6 43.5582 122.442 43.5206C122.284 43.4831 122.136 43.4134 122.006 43.3161Z" fill="black"/>
<path opacity="0.3" d="M122.006 43.3161L122.151 43.0686C122.336 43.1832 122.546 43.2496 122.763 43.2615C122.751 43.1767 122.769 43.0904 122.814 43.0176C122.883 42.9113 122.978 42.8247 123.091 42.7665C123.219 42.6902 123.361 42.6419 123.509 42.6245H123.538C123.627 42.6176 123.716 42.6339 123.797 42.6718L131.383 38.3038L131.641 38.1546L131.969 37.9653C131.996 37.9496 132.026 37.9414 132.058 37.9414C132.089 37.9414 132.12 37.9496 132.147 37.9653L132.438 38.1364C132.411 38.1197 132.379 38.1108 132.347 38.1108C132.315 38.1108 132.284 38.1197 132.256 38.1364L131.386 38.6423L124.048 42.8757C123.957 42.9442 123.845 42.9812 123.731 42.9812L123.662 42.9412C123.614 42.9233 123.561 42.9233 123.513 42.9412C123.415 42.957 123.322 42.9903 123.236 43.0395C123.076 43.1341 123.007 43.2433 123.08 43.287L123.149 43.327C123.185 43.3489 123.149 43.4035 123.069 43.4508L122.923 43.5345C122.763 43.5629 122.6 43.5582 122.442 43.5206C122.284 43.4831 122.136 43.4134 122.006 43.3161Z" fill="black"/>
<path d="M122.152 43.0613L120.306 41.9984L120.23 41.9511L120.171 41.9074C120.286 41.9399 120.407 41.9473 120.525 41.9291C120.643 41.9109 120.756 41.8675 120.856 41.8019C120.967 41.7448 121.06 41.6578 121.125 41.5507C121.175 41.4705 121.192 41.3739 121.172 41.2814H121.198L121.249 41.2522L128.587 37.0189L129.009 36.775L129.129 36.7059L129.493 36.4984C129.518 36.4859 129.546 36.4794 129.573 36.4794C129.601 36.4794 129.629 36.4859 129.654 36.4984L129.573 36.4511L129.362 36.3273C129.339 36.3155 129.314 36.3093 129.288 36.3093C129.262 36.3093 129.236 36.3155 129.213 36.3273L129.082 36.4038L129.002 36.4511L128.86 36.5311L128.773 36.5821L128.711 36.6185L128.602 36.6804L122.778 40.0474L120.918 41.1394C120.783 41.2158 120.706 41.2923 120.736 41.3214L120.797 41.3578C120.881 41.4051 120.816 41.5179 120.652 41.6126C120.6 41.6507 120.54 41.6753 120.476 41.6842C120.413 41.6931 120.348 41.686 120.288 41.6635L120.208 41.6162C120.19 41.6078 120.17 41.6034 120.15 41.6034C120.129 41.6034 120.11 41.6078 120.091 41.6162L120.051 41.6417L119.957 41.6927L119.844 41.7582C119.82 41.7698 119.801 41.7891 119.79 41.8129C119.779 41.8367 119.776 41.8636 119.782 41.8892C119.78 41.8964 119.78 41.9039 119.782 41.9111L119.8 41.9511L119.847 42.0166L119.906 42.0821L119.982 42.144L120.029 42.1804L120.069 42.2095L120.164 42.2678L122.006 43.3307L122.152 43.0613Z" fill="black"/>
<path opacity="0.3" d="M122.152 43.0613L120.306 41.9984L120.23 41.9511L120.171 41.9074C120.286 41.9399 120.407 41.9473 120.525 41.9291C120.643 41.9109 120.756 41.8675 120.856 41.8019C120.967 41.7448 121.06 41.6578 121.125 41.5507C121.175 41.4705 121.192 41.3739 121.172 41.2814H121.198L121.249 41.2522L128.587 37.0189L129.009 36.775L129.129 36.7059L129.493 36.4984C129.518 36.4859 129.546 36.4794 129.573 36.4794C129.601 36.4794 129.629 36.4859 129.654 36.4984L129.573 36.4511L129.362 36.3273C129.339 36.3155 129.314 36.3093 129.288 36.3093C129.262 36.3093 129.236 36.3155 129.213 36.3273L129.082 36.4038L129.002 36.4511L128.86 36.5311L128.773 36.5821L128.711 36.6185L128.602 36.6804L122.778 40.0474L120.918 41.1394C120.783 41.2158 120.706 41.2923 120.736 41.3214L120.797 41.3578C120.881 41.4051 120.816 41.5179 120.652 41.6126C120.6 41.6507 120.54 41.6753 120.476 41.6842C120.413 41.6931 120.348 41.686 120.288 41.6635L120.208 41.6162C120.19 41.6078 120.17 41.6034 120.15 41.6034C120.129 41.6034 120.11 41.6078 120.091 41.6162L120.051 41.6417L119.957 41.6927L119.844 41.7582C119.82 41.7698 119.801 41.7891 119.79 41.8129C119.779 41.8367 119.776 41.8636 119.782 41.8892C119.78 41.8964 119.78 41.9039 119.782 41.9111L119.8 41.9511L119.847 42.0166L119.906 42.0821L119.982 42.144L120.029 42.1804L120.069 42.2095L120.164 42.2678L122.006 43.3307L122.152 43.0613Z" fill="black"/>
<path d="M124.951 45.0669V45.4309C124.951 45.4309 125.093 45.2999 125.1 45.2052C125.107 45.1106 124.951 45.0669 124.951 45.0669Z" fill="black"/>
<path d="M125.238 44.9758C125.255 45.0274 125.26 45.0819 125.254 45.1358C125.249 45.1897 125.232 45.2417 125.204 45.2887C125.177 45.3356 125.141 45.3764 125.097 45.4084C125.053 45.4404 125.004 45.4629 124.951 45.4745C124.543 45.6019 124.284 45.4745 124.223 45.5874C124.161 45.7002 125.635 46.5556 125.635 46.5556L125.777 45.2015L125.238 44.9758Z" fill="black"/>
<path opacity="0.3" d="M125.238 44.9758C125.255 45.0274 125.26 45.0819 125.254 45.1358C125.249 45.1897 125.232 45.2417 125.204 45.2887C125.177 45.3356 125.141 45.3764 125.097 45.4084C125.053 45.4404 125.004 45.4629 124.951 45.4745C124.543 45.6019 124.284 45.4745 124.223 45.5874C124.161 45.7002 125.635 46.5556 125.635 46.5556L125.777 45.2015L125.238 44.9758Z" fill="black"/>
<path d="M125.438 61.1521L125.638 61.0393L133.992 56.2163V40.5497C133.992 40.3131 133.861 40.1857 133.701 40.2876L133.41 40.4587L125.402 45.0742V45.1434L125.438 61.1521Z" fill="black"/>
<path opacity="0.2" d="M125.438 61.1521L125.638 61.0393L133.992 56.2163V40.5497C133.992 40.3131 133.861 40.1857 133.701 40.2876L133.41 40.4587L125.402 45.0742V45.1434L125.438 61.1521Z" fill="black"/>
<path d="M126.632 47.0107L127.054 46.5412L125.424 45.5984C125.1 45.8423 124.852 45.9624 124.561 45.8532L126.632 47.0107Z" fill="#455A64"/>
<path d="M125.013 45.045L132.937 40.4731C133.592 40.6915 133.814 40.6915 133.953 40.7716L135.55 41.6962L127.517 46.2935C127.418 46.2683 127.316 46.264 127.215 46.2809C127.115 46.2979 127.019 46.3356 126.935 46.3918C126.698 46.5847 126.713 46.3408 126.713 46.3408L125.424 45.6128C125.581 45.4017 125.013 45.045 125.013 45.045Z" fill="#F5F5F5"/>
<path d="M126.789 46.9123C126.869 46.865 126.905 46.8104 126.865 46.7886L126.8 46.7522C126.723 46.7085 126.8 46.5957 126.956 46.501C127.017 46.4582 127.087 46.4281 127.16 46.4125C127.233 46.3968 127.309 46.396 127.382 46.41L127.451 46.4501C127.488 46.4719 127.63 46.4246 127.768 46.3481L127.717 62.7281L127.517 62.8446C127.479 62.855 127.438 62.855 127.4 62.8446L127.335 62.8046C127.261 62.7894 127.184 62.7897 127.11 62.8053C127.037 62.821 126.967 62.8517 126.905 62.8956C126.745 62.9866 126.676 63.0994 126.749 63.1431L126.818 63.1795C126.854 63.205 126.818 63.2596 126.738 63.3069L126.789 46.9123Z" fill="black"/>
<path opacity="0.25" d="M126.789 46.9123C126.869 46.865 126.905 46.8104 126.865 46.7886L126.8 46.7522C126.723 46.7085 126.8 46.5957 126.956 46.501C127.017 46.4582 127.087 46.4281 127.16 46.4125C127.233 46.3968 127.309 46.396 127.382 46.41L127.451 46.4501C127.488 46.4719 127.63 46.4246 127.768 46.3481L127.717 62.7281L127.517 62.8446C127.479 62.855 127.438 62.855 127.4 62.8446L127.335 62.8046C127.261 62.7894 127.184 62.7897 127.11 62.8053C127.037 62.821 126.967 62.8517 126.905 62.8956C126.745 62.9866 126.676 63.0994 126.749 63.1431L126.818 63.1795C126.854 63.205 126.818 63.2596 126.738 63.3069L126.789 46.9123Z" fill="white"/>
<path d="M127.517 62.8155V62.841L127.717 62.7245L136.271 57.785V41.86C136.271 41.6234 136.14 41.496 135.98 41.5979L135.688 41.7654L127.517 46.2862V62.8155Z" fill="black"/>
<path opacity="0.4" d="M127.517 62.8155V62.841L127.717 62.7245L136.271 57.785V41.86C136.271 41.6234 136.14 41.496 135.98 41.5979L135.688 41.7654L127.517 46.2862V62.8155Z" fill="white"/>
<path d="M126.88 63.205V46.825L126.352 47.0397V63.3833C126.45 63.4041 126.552 63.3939 126.643 63.3542L126.88 63.205Z" fill="black"/>
<path opacity="0.4" d="M126.88 63.205V46.825L126.352 47.0397V63.3833C126.45 63.4041 126.552 63.3939 126.643 63.3542L126.88 63.205Z" fill="white"/>
<path d="M124.011 61.9637C124.01 61.9733 124.01 61.9831 124.011 61.9928C124.011 61.9928 124.011 61.9928 124.011 62.011C124.01 62.0243 124.01 62.0377 124.011 62.051V62.0692C124.024 62.0924 124.039 62.1144 124.055 62.1348L124.117 62.2003L124.19 62.2658L124.237 62.2986L124.277 62.3277C124.307 62.3492 124.339 62.3687 124.372 62.3859L125.697 63.1503C125.888 63.2639 126.099 63.3393 126.319 63.3724V47.0288L123.975 45.6128V61.96L124.011 61.9637Z" fill="black"/>
<g opacity="0.7">
<path d="M124.011 61.9637C124.01 61.9733 124.01 61.9831 124.011 61.9928C124.011 61.9928 124.011 61.9928 124.011 62.011C124.01 62.0243 124.01 62.0377 124.011 62.051V62.0692C124.024 62.0924 124.039 62.1144 124.055 62.1348L124.117 62.2003L124.19 62.2658L124.237 62.2986L124.277 62.3277C124.307 62.3492 124.339 62.3687 124.372 62.3859L125.697 63.1503C125.888 63.2639 126.099 63.3393 126.319 63.3724V47.0288L123.975 45.6128V61.96L124.011 61.9637Z" fill="white"/>
</g>
<path d="M126.352 48.2555V50.0427C125.209 49.6532 124.747 49.4276 124.008 48.6923V46.905C124.747 47.6403 125.216 47.866 126.352 48.2555Z" fill="#FAFAFA"/>
<path d="M126.352 59.7325V61.5161C125.209 61.1266 124.747 60.9009 124.008 60.162V58.3748C124.747 59.1173 125.216 59.3321 126.352 59.7325Z" fill="#FAFAFA"/>
<path d="M125.729 46.8069L125.871 46.5557C126.056 46.6728 126.268 46.7393 126.487 46.7486C126.475 46.6651 126.493 46.5802 126.538 46.5084C126.606 46.4018 126.7 46.3142 126.811 46.2536C126.94 46.1794 127.082 46.1312 127.229 46.1117C127.24 46.1098 127.251 46.1098 127.262 46.1117C127.35 46.1026 127.438 46.119 127.517 46.159L135.106 41.791L135.365 41.6454L135.692 41.4525C135.719 41.4364 135.75 41.428 135.781 41.428C135.813 41.428 135.844 41.4364 135.871 41.4525L136.162 41.6199C136.134 41.6032 136.103 41.5943 136.071 41.5943C136.039 41.5943 136.007 41.6032 135.98 41.6199L135.11 42.1222L127.764 46.3483C127.626 46.4247 127.484 46.472 127.448 46.4502L127.378 46.4138C127.329 46.3943 127.275 46.3943 127.226 46.4138C127.129 46.4302 127.037 46.4635 126.953 46.5121C126.789 46.6067 126.72 46.7195 126.796 46.7596L126.862 46.7996C126.902 46.8215 126.862 46.8761 126.785 46.9234L126.639 47.0071C126.482 47.0375 126.32 47.0354 126.164 47.001C126.007 46.9666 125.86 46.9005 125.729 46.8069Z" fill="black"/>
<path opacity="0.6" d="M125.729 46.8069L125.871 46.5557C126.056 46.6728 126.268 46.7393 126.487 46.7486C126.475 46.6651 126.493 46.5802 126.538 46.5084C126.606 46.4018 126.7 46.3142 126.811 46.2536C126.94 46.1794 127.082 46.1312 127.229 46.1117C127.24 46.1098 127.251 46.1098 127.262 46.1117C127.35 46.1026 127.438 46.119 127.517 46.159L135.106 41.791L135.365 41.6454L135.692 41.4525C135.719 41.4364 135.75 41.428 135.781 41.428C135.813 41.428 135.844 41.4364 135.871 41.4525L136.162 41.6199C136.134 41.6032 136.103 41.5943 136.071 41.5943C136.039 41.5943 136.007 41.6032 135.98 41.6199L135.11 42.1222L127.764 46.3483C127.626 46.4247 127.484 46.472 127.448 46.4502L127.378 46.4138C127.329 46.3943 127.275 46.3943 127.226 46.4138C127.129 46.4302 127.037 46.4635 126.953 46.5121C126.789 46.6067 126.72 46.7195 126.796 46.7596L126.862 46.7996C126.902 46.8215 126.862 46.8761 126.785 46.9234L126.639 47.0071C126.482 47.0375 126.32 47.0354 126.164 47.001C126.007 46.9666 125.86 46.9005 125.729 46.8069Z" fill="white"/>
<path d="M125.872 46.5556L124.55 45.7912C124.523 45.7785 124.497 45.7626 124.474 45.7439L124.416 45.7039C124.53 45.7383 124.651 45.7467 124.77 45.7285C124.888 45.7102 125.001 45.6657 125.1 45.5983C125.21 45.5416 125.303 45.4561 125.369 45.3508C125.419 45.2706 125.436 45.1739 125.417 45.0814H125.442L125.493 45.0523L132.831 40.8153L133.253 40.5715L133.374 40.5023L133.738 40.2985C133.761 40.2851 133.788 40.278 133.816 40.278C133.843 40.278 133.87 40.2851 133.894 40.2985L133.814 40.2511L133.603 40.131C133.581 40.1186 133.556 40.1121 133.53 40.1121C133.505 40.1121 133.48 40.1186 133.457 40.131L133.326 40.2075L133.246 40.2511L133.104 40.3349L133.017 40.3858L132.955 40.4186L132.846 40.4805L127.022 43.8475L125.162 44.9213C125.027 44.9977 124.951 45.0778 124.983 45.1033L125.049 45.1433C125.129 45.1906 125.049 45.3035 124.903 45.3945C124.851 45.4315 124.791 45.4557 124.728 45.4652C124.665 45.4747 124.6 45.4691 124.539 45.4491L124.459 45.4017C124.442 45.3928 124.422 45.3881 124.403 45.3881C124.383 45.3881 124.364 45.3928 124.346 45.4017L124.303 45.4272L124.212 45.4818L124.095 45.5473C124.072 45.559 124.053 45.5783 124.041 45.6021C124.03 45.6259 124.027 45.6528 124.033 45.6784C124.037 45.6926 124.043 45.7062 124.052 45.7184V45.7403C124.063 45.7631 124.077 45.784 124.095 45.8021L124.157 45.8677L124.23 45.9332L124.277 45.9696L124.317 45.9951L124.412 46.0569L125.737 46.8213L125.872 46.5556Z" fill="black"/>
<path opacity="0.6" d="M125.872 46.5556L124.55 45.7912C124.523 45.7785 124.497 45.7626 124.474 45.7439L124.416 45.7039C124.53 45.7383 124.651 45.7467 124.77 45.7285C124.888 45.7102 125.001 45.6657 125.1 45.5983C125.21 45.5416 125.303 45.4561 125.369 45.3508C125.419 45.2706 125.436 45.1739 125.417 45.0814H125.442L125.493 45.0523L132.831 40.8153L133.253 40.5715L133.374 40.5023L133.738 40.2985C133.761 40.2851 133.788 40.278 133.816 40.278C133.843 40.278 133.87 40.2851 133.894 40.2985L133.814 40.2511L133.603 40.131C133.581 40.1186 133.556 40.1121 133.53 40.1121C133.505 40.1121 133.48 40.1186 133.457 40.131L133.326 40.2075L133.246 40.2511L133.104 40.3349L133.017 40.3858L132.955 40.4186L132.846 40.4805L127.022 43.8475L125.162 44.9213C125.027 44.9977 124.951 45.0778 124.983 45.1033L125.049 45.1433C125.129 45.1906 125.049 45.3035 124.903 45.3945C124.851 45.4315 124.791 45.4557 124.728 45.4652C124.665 45.4747 124.6 45.4691 124.539 45.4491L124.459 45.4017C124.442 45.3928 124.422 45.3881 124.403 45.3881C124.383 45.3881 124.364 45.3928 124.346 45.4017L124.303 45.4272L124.212 45.4818L124.095 45.5473C124.072 45.559 124.053 45.5783 124.041 45.6021C124.03 45.6259 124.027 45.6528 124.033 45.6784C124.037 45.6926 124.043 45.7062 124.052 45.7184V45.7403C124.063 45.7631 124.077 45.784 124.095 45.8021L124.157 45.8677L124.23 45.9332L124.277 45.9696L124.317 45.9951L124.412 46.0569L125.737 46.8213L125.872 46.5556Z" fill="white"/>
<path d="M134.502 60.8462C132.562 61.9673 132.562 63.7837 134.502 64.9048C136.442 66.0259 139.598 66.0223 141.531 64.9048C143.464 63.7873 143.471 61.9673 141.531 60.8462C139.591 59.7251 136.442 59.7251 134.502 60.8462Z" fill="#37474F"/>
<path d="M141.174 63.6709C142.867 61.9492 143.857 57.6431 142.211 56.2744H133.821C132.176 57.6431 133.166 61.9455 134.855 63.6709L134.902 63.7182L134.96 63.7765C135.008 63.8201 135.059 63.8675 135.113 63.9111L135.153 63.9439L135.281 64.0385L135.499 64.1805C136.28 64.5752 137.142 64.7809 138.016 64.7809C138.891 64.7809 139.753 64.5752 140.533 64.1805C140.606 64.1368 140.683 64.0895 140.752 64.0385C140.793 64.0102 140.833 63.9799 140.872 63.9475L140.923 63.9075C140.975 63.8677 141.023 63.8239 141.068 63.7765C141.093 63.7566 141.116 63.7347 141.138 63.7109L141.174 63.6709Z" fill="#F5F5F5"/>
<path d="M134.553 55.6191C132.638 56.7111 132.638 58.5311 134.553 59.6231C136.467 60.7151 139.569 60.7151 141.469 59.6231C143.369 58.5311 143.383 56.7111 141.469 55.6191C139.554 54.5271 136.464 54.5126 134.553 55.6191Z" fill="white"/>
<path d="M135.907 56.4201C134.746 57.0935 134.746 58.1819 135.907 58.8553C136.561 59.1855 137.284 59.3575 138.016 59.3575C138.749 59.3575 139.472 59.1855 140.126 58.8553C141.287 58.1819 141.287 57.0935 140.126 56.4201C139.472 56.0882 138.749 55.9153 138.016 55.9153C137.283 55.9153 136.561 56.0882 135.907 56.4201Z" fill="#EBEBEB"/>
<path d="M140.14 57.5594C139.486 57.2284 138.764 57.0559 138.031 57.0559C137.298 57.0559 136.575 57.2284 135.921 57.5594C135.641 57.7132 135.402 57.9331 135.226 58.2001C135.401 58.4679 135.64 58.688 135.921 58.8407C136.575 59.1709 137.298 59.3429 138.031 59.3429C138.763 59.3429 139.486 59.1709 140.14 58.8407C140.421 58.688 140.66 58.4679 140.835 58.2001C140.66 57.9321 140.421 57.7119 140.14 57.5594Z" fill="#E0E0E0"/>
<path d="M136.165 58.1963C135.569 57.5917 135.056 56.9098 134.64 56.1689C133.938 54.924 133.807 53.2569 134.171 53.0494C134.535 52.8419 136.016 54.5054 136.016 54.5054C135.88 53.8055 135.828 53.0919 135.86 52.3796C135.922 51.2876 136.191 50.2611 136.511 50.0573C136.832 49.8535 137.538 51.2549 137.843 52.2704C138.149 53.286 138.331 54.1159 138.331 54.1159C138.453 53.3254 138.636 52.5454 138.877 51.7827C139.241 50.7307 139.58 50.4941 139.842 50.596C140.104 50.6979 140.271 51.193 140.348 52.5944C140.376 53.2636 140.355 53.9339 140.286 54.6C140.286 54.6 140.81 54.0249 141.378 53.468C142.015 52.8565 142.288 52.7727 142.47 52.8892C142.652 53.0057 142.703 53.9557 141.716 55.743C141.225 56.6504 140.596 57.4766 139.853 58.1927C139.853 58.1927 138.499 59.0772 136.165 58.1963Z" fill="black"/>
<path d="M82.2821 84.5791L17.4901 118.944L16.2671 120.87V122.421C16.2803 122.821 16.4007 123.211 16.6159 123.549C16.831 123.887 17.1329 124.161 17.4901 124.342L95.9358 169.624C96.565 169.957 97.266 170.131 97.9778 170.131C98.6896 170.131 99.3906 169.957 100.02 169.624L163.469 133.002V131.451L82.2821 84.5791Z" fill="#263238"/>
<path d="M97.9778 168.583C97.2648 168.594 96.5612 168.42 95.9358 168.077L17.5011 122.792C17.1359 122.62 16.8272 122.348 16.6109 122.007C16.3946 121.667 16.2798 121.272 16.2798 120.868C16.2798 120.465 16.3946 120.069 16.6109 119.729C16.8272 119.388 17.1359 119.116 17.5011 118.944L79.665 83.0649L163.469 131.451L100.02 168.077C99.3941 168.419 98.6907 168.593 97.9778 168.583Z" fill="black"/>
<path d="M79.6612 78.5186L18.1452 114.027L17.5664 114.835V120.87C17.5826 121.043 17.6448 121.209 17.7465 121.351C17.8482 121.492 17.9859 121.604 18.1452 121.674L96.5799 166.96C97.0126 167.179 97.4908 167.293 97.9758 167.293C98.4608 167.293 98.939 167.179 99.3718 166.96L160.888 131.451V125.416L79.6612 78.5186Z" fill="#EBEBEB"/>
<path d="M160.888 125.416L160.185 125.824L151.031 131.106L149.327 132.096L99.372 160.925C98.9392 161.144 98.461 161.258 97.976 161.258C97.491 161.258 97.0128 161.144 96.5801 160.925L18.1454 115.636C17.3773 115.192 17.3773 114.471 18.1454 114.023L18.8952 113.594L79.6614 78.5186L160.196 125.012L160.364 125.114L160.888 125.416Z" fill="#F0F0F0"/>
<path d="M97.9779 161.252V167.295C97.492 167.306 97.0114 167.191 96.5838 166.96L18.1454 121.674C17.9865 121.603 17.8495 121.49 17.7485 121.348C17.6474 121.206 17.5859 121.04 17.5703 120.866V114.831C17.588 115.004 17.6503 115.169 17.7512 115.31C17.852 115.451 17.9879 115.563 18.1454 115.636L96.5838 160.925C97.0121 161.153 97.4926 161.266 97.9779 161.252Z" fill="#E0E0E0"/>
<path d="M79.6615 77.7141L24.8977 109.32C23.207 110.256 21.4188 111.003 19.5651 111.548C19.2511 111.614 18.9744 111.798 18.7922 112.062C18.61 112.326 18.5362 112.65 18.586 112.968C18.6146 113.117 18.6728 113.259 18.757 113.386L18.8954 113.594C19.9874 115.25 21.72 116.804 24.5774 118.544C25.127 118.875 25.7131 119.217 26.3428 119.567L96.5948 160.116C97.0275 160.336 97.5057 160.45 97.9907 160.45C98.4758 160.45 98.954 160.336 99.3867 160.116L149.189 131.36L150.776 130.447L160.888 124.612L79.6615 77.7141Z" fill="white"/>
<path d="M79.6615 78.1327L160.16 124.612L150.58 130.141L148.993 131.058L99.1938 159.796C98.8171 159.985 98.4014 160.084 97.9798 160.084C97.5583 160.084 97.1426 159.985 96.7659 159.796L26.5212 119.247C25.9533 118.933 25.3782 118.602 24.7667 118.235C22.0767 116.597 20.3077 115.057 19.2011 113.393L19.1356 113.299L19.0628 113.182C19.0024 113.094 18.9603 112.995 18.939 112.891C18.9093 112.664 18.9683 112.433 19.1039 112.248C19.2395 112.063 19.4412 111.938 19.667 111.897C21.5425 111.344 23.3525 110.588 25.0652 109.644L25.32 109.513L79.6615 78.1473M79.6615 77.7287L24.8977 109.32C23.207 110.256 21.4188 111.003 19.5651 111.548C19.2511 111.614 18.9744 111.798 18.7922 112.062C18.61 112.326 18.5362 112.65 18.586 112.968C18.6146 113.117 18.6728 113.259 18.757 113.386L18.8954 113.594C19.9874 115.25 21.72 116.804 24.5774 118.544C25.127 118.875 25.7131 119.217 26.3428 119.567L96.5948 160.116C97.0272 160.337 97.5055 160.451 97.9907 160.451C98.476 160.451 98.9543 160.337 99.3867 160.116L149.189 131.36L150.776 130.447L160.888 124.612L79.6615 77.7141V77.7287Z" fill="#F0F0F0"/>
<path opacity="0.1" d="M150.408 123.902C149.68 124.321 149.68 124.994 150.408 125.416C150.812 125.623 151.258 125.73 151.711 125.73C152.165 125.73 152.611 125.623 153.015 125.416C153.743 124.998 153.743 124.324 153.015 123.902C152.611 123.697 152.164 123.591 151.711 123.591C151.259 123.591 150.812 123.697 150.408 123.902Z" fill="black"/>
<path d="M158.788 119.028C157.794 118.453 156.549 118.544 155.279 119.272C153.313 120.415 151.61 122.956 150.867 125.62C151.178 125.716 151.503 125.755 151.828 125.737C152.512 123.363 154.012 121.125 155.763 120.109C156.246 119.813 156.798 119.645 157.365 119.621C157.694 119.62 158.017 119.704 158.304 119.865C159.145 120.349 159.629 121.529 159.629 123.098C159.629 123.357 159.613 123.616 159.581 123.873L160.499 124.401C160.562 123.969 160.594 123.534 160.597 123.098C160.597 121.161 159.938 119.676 158.788 119.028Z" fill="#263238"/>
<path d="M160.407 124.888C160.398 124.965 160.383 125.04 160.364 125.114L160.196 125.012L160.407 124.888Z" fill="#263238"/>
<path opacity="0.1" d="M142.549 119.363C141.821 119.782 141.821 120.455 142.549 120.877C142.953 121.083 143.4 121.19 143.853 121.19C144.305 121.19 144.752 121.083 145.156 120.877C145.884 120.459 145.884 119.785 145.156 119.363C144.752 119.157 144.306 119.049 143.853 119.049C143.399 119.049 142.953 119.157 142.549 119.363Z" fill="black"/>
<path d="M150.929 114.474C149.935 113.899 148.69 113.99 147.42 114.718C145.454 115.861 143.751 118.402 143.008 121.066C143.319 121.163 143.645 121.202 143.969 121.183C144.654 118.81 146.153 116.571 147.904 115.555C148.388 115.259 148.939 115.091 149.506 115.068C149.835 115.066 150.158 115.15 150.445 115.312C151.286 115.796 151.766 116.975 151.766 118.544C151.768 118.803 151.753 119.062 151.722 119.319L152.64 119.847C152.701 119.415 152.733 118.98 152.734 118.544C152.734 116.622 152.076 115.137 150.929 114.474Z" fill="#263238"/>
<path opacity="0.1" d="M134.68 114.824C133.952 115.243 133.952 115.916 134.68 116.338C135.084 116.543 135.53 116.65 135.983 116.65C136.436 116.65 136.882 116.543 137.286 116.338C138.014 115.92 138.014 115.246 137.286 114.824C136.883 114.618 136.436 114.51 135.983 114.51C135.53 114.51 135.083 114.618 134.68 114.824Z" fill="black"/>
<path d="M143.052 109.928C142.058 109.353 140.813 109.444 139.543 110.172C137.577 111.315 135.874 113.856 135.131 116.52C135.442 116.616 135.768 116.655 136.092 116.637C136.777 114.263 138.276 112.025 140.027 111.009C140.511 110.712 141.062 110.545 141.629 110.521C141.958 110.519 142.282 110.603 142.568 110.765C143.409 111.249 143.893 112.429 143.893 113.998C143.893 114.257 143.878 114.516 143.846 114.773L144.763 115.301C144.826 114.869 144.858 114.434 144.857 113.998C144.872 112.083 144.217 110.598 143.052 109.928Z" fill="#263238"/>
<path opacity="0.1" d="M126.825 110.292C126.097 110.707 126.097 111.384 126.825 111.803C127.229 112.009 127.676 112.117 128.13 112.117C128.583 112.117 129.031 112.009 129.435 111.803C130.163 111.388 130.163 110.711 129.435 110.292C129.031 110.086 128.583 109.978 128.13 109.978C127.676 109.978 127.229 110.086 126.825 110.292Z" fill="black"/>
<path d="M135.208 105.396C134.214 104.821 132.969 104.912 131.699 105.64C129.73 106.783 128.03 109.324 127.287 111.988C127.597 112.086 127.923 112.126 128.248 112.105C128.932 109.732 130.432 107.493 132.183 106.481C132.664 106.182 133.215 106.012 133.781 105.99C134.112 105.987 134.437 106.072 134.724 106.237C135.561 106.718 136.045 107.901 136.045 109.466C136.047 109.725 136.032 109.984 136.001 110.241L136.919 110.769C136.98 110.337 137.012 109.902 137.013 109.466C137.013 107.544 136.354 106.062 135.208 105.396Z" fill="#263238"/>
<path opacity="0.1" d="M118.966 105.749C118.238 106.168 118.238 106.841 118.966 107.264C119.37 107.468 119.816 107.575 120.269 107.575C120.722 107.575 121.168 107.468 121.572 107.264C122.3 106.845 122.3 106.172 121.572 105.749C121.169 105.543 120.722 105.435 120.269 105.435C119.816 105.435 119.369 105.543 118.966 105.749Z" fill="black"/>
<path d="M127.345 100.857C126.355 100.286 125.11 100.373 123.836 101.105C121.871 102.248 120.167 104.789 119.425 107.449C119.735 107.549 120.061 107.588 120.386 107.566C121.07 105.193 122.57 102.954 124.321 101.942C124.804 101.644 125.355 101.475 125.922 101.451C126.252 101.447 126.576 101.532 126.861 101.698C127.702 102.182 128.186 103.362 128.186 104.931C128.187 105.188 128.171 105.446 128.139 105.702L129.056 106.234C129.121 105.802 129.154 105.367 129.155 104.931C129.155 103.012 128.492 101.523 127.345 100.857Z" fill="#263238"/>
<path opacity="0.1" d="M111.104 101.21C110.376 101.629 110.376 102.302 111.104 102.721C111.507 102.927 111.954 103.035 112.407 103.035C112.86 103.035 113.306 102.927 113.71 102.721C114.438 102.306 114.438 101.629 113.71 101.21C113.306 101.005 112.86 100.897 112.407 100.897C111.954 100.897 111.507 101.005 111.104 101.21Z" fill="black"/>
<path d="M119.483 96.3181C118.489 95.7466 117.245 95.8376 115.974 96.5656C114.009 97.7086 112.305 100.249 111.562 102.914C111.873 103.01 112.199 103.048 112.523 103.027C113.208 100.653 114.707 98.4147 116.458 97.4028C116.942 97.1062 117.493 96.9383 118.06 96.9151C118.389 96.9129 118.713 96.997 118.999 97.1589C119.84 97.6431 120.324 98.8224 120.324 100.391C120.324 100.649 120.309 100.907 120.277 101.163L121.194 101.694C121.259 101.263 121.292 100.827 121.292 100.391C121.292 98.4693 120.633 96.9842 119.483 96.3181Z" fill="#263238"/>
<path opacity="0.1" d="M103.245 96.6712C102.517 97.0898 102.517 97.7632 103.245 98.1854C103.648 98.3918 104.095 98.4994 104.548 98.4994C105.001 98.4994 105.448 98.3918 105.851 98.1854C106.579 97.7668 106.579 97.0934 105.851 96.6712C105.447 96.4665 105.001 96.3599 104.548 96.3599C104.095 96.3599 103.649 96.4665 103.245 96.6712Z" fill="black"/>
<path d="M111.624 91.7827C110.631 91.2076 109.386 91.2986 108.115 92.0266C106.15 93.1696 104.446 95.7103 103.704 98.3748C104.014 98.4709 104.34 98.5103 104.665 98.4913C105.349 96.118 106.849 93.8794 108.599 92.8638C109.082 92.5678 109.632 92.3999 110.197 92.3761C110.527 92.3739 110.852 92.458 111.14 92.6199C111.981 93.1041 112.461 94.2834 112.461 95.8523C112.463 96.1102 112.449 96.3679 112.418 96.624L113.335 97.1554C113.399 96.7239 113.43 96.2884 113.43 95.8523C113.43 93.9303 112.774 92.4561 111.624 91.7827Z" fill="#263238"/>
<path opacity="0.1" d="M95.3678 92.1321C94.6398 92.5507 94.6398 93.2241 95.3678 93.6464C95.7712 93.8527 96.2178 93.9604 96.6709 93.9604C97.124 93.9604 97.5706 93.8527 97.974 93.6464C98.702 93.2278 98.702 92.5544 97.974 92.1321C97.5701 91.9275 97.1237 91.8208 96.6709 91.8208C96.2181 91.8208 95.7717 91.9275 95.3678 92.1321Z" fill="black"/>
<path d="M103.762 87.2437C102.768 86.6686 101.523 86.7596 100.253 87.4876C98.2874 88.6305 96.5839 91.1713 95.8413 93.8357C96.1517 93.9334 96.4775 93.9729 96.8023 93.9522C97.4866 91.5789 98.9863 89.3403 100.737 88.3284C101.219 88.0286 101.771 87.8592 102.339 87.837C102.668 87.8353 102.991 87.9194 103.278 88.0809C104.119 88.565 104.603 89.7444 104.603 91.3132C104.603 91.5724 104.588 91.8313 104.555 92.0885L105.473 92.6163C105.536 92.1849 105.568 91.7493 105.567 91.3132C105.56 89.3913 104.912 87.9062 103.762 87.2437Z" fill="#263238"/>
<path opacity="0.1" d="M87.5235 87.5931C86.7955 88.0117 86.7955 88.6851 87.5235 89.1073C87.9269 89.3137 88.3736 89.4213 88.8267 89.4213C89.2798 89.4213 89.7264 89.3137 90.1298 89.1073C90.8578 88.6887 90.8578 88.0153 90.1298 87.5931C89.7259 87.3884 89.2795 87.2817 88.8267 87.2817C88.3739 87.2817 87.9274 87.3884 87.5235 87.5931Z" fill="black"/>
<path d="M95.9031 82.7046C94.9093 82.1295 93.6645 82.2205 92.3941 82.9485C90.4285 84.0915 88.725 86.6322 87.9824 89.2967C88.2932 89.3927 88.6187 89.4322 88.9434 89.4131C89.6277 87.0399 91.1274 84.8013 92.8782 83.7857C93.3606 83.4897 93.9107 83.3218 94.4762 83.2979C94.8063 83.2958 95.1313 83.3799 95.4189 83.5418C96.2561 84.0259 96.7403 85.2053 96.7403 86.7741C96.742 87.0332 96.7275 87.2922 96.6966 87.5495L97.6139 88.0773C97.6756 87.6456 97.7072 87.2102 97.7085 86.7741C97.7085 84.8522 97.0497 83.3562 95.9031 82.7046Z" fill="#263238"/>
<path opacity="0.1" d="M79.6612 83.0576C78.9332 83.4762 78.9332 84.1497 79.6612 84.5683C80.0646 84.7746 80.5112 84.8822 80.9643 84.8822C81.4175 84.8822 81.8641 84.7746 82.2675 84.5683C82.9955 84.1533 82.9955 83.4762 82.2675 83.0576C81.8641 82.8513 81.4175 82.7437 80.9643 82.7437C80.5112 82.7437 80.0646 82.8513 79.6612 83.0576Z" fill="black"/>
<path d="M88.0408 78.1655C87.047 77.5904 85.8022 77.6814 84.5318 78.413C82.5662 79.5523 80.8627 82.0931 80.1201 84.7575C80.4305 84.8552 80.7563 84.8947 81.0811 84.874C81.7654 82.5007 83.2651 80.2621 85.0159 79.2502C85.4982 78.9504 86.0501 78.781 86.6175 78.7588C86.9465 78.7566 87.2703 78.8407 87.5566 79.0027C88.3975 79.4868 88.878 80.6698 88.878 82.235C88.8797 82.4941 88.8652 82.7531 88.8343 83.0103L89.7516 83.5381C89.8135 83.1065 89.8451 82.6711 89.8462 82.235C89.8462 80.3131 89.1801 78.8316 88.0408 78.1655Z" fill="#263238"/>
<path d="M90.5595 152.269C90.4801 152.268 90.4031 152.241 90.3403 152.192C90.2775 152.144 90.2323 152.076 90.2117 151.999C90.1911 151.922 90.1961 151.841 90.2261 151.768C90.256 151.694 90.3092 151.632 90.3775 151.592L138.917 123.564C138.958 123.537 139.005 123.52 139.053 123.512C139.102 123.504 139.151 123.506 139.199 123.517C139.246 123.529 139.291 123.55 139.331 123.58C139.37 123.609 139.403 123.646 139.427 123.689C139.452 123.731 139.468 123.778 139.474 123.827C139.479 123.876 139.475 123.925 139.462 123.972C139.448 124.019 139.425 124.063 139.394 124.101C139.363 124.139 139.324 124.171 139.281 124.193L90.7415 152.221C90.686 152.253 90.6233 152.269 90.5595 152.269Z" fill="#EBEBEB"/>
<path d="M86.0021 149.604C85.9386 149.604 85.8763 149.587 85.8214 149.555C85.7665 149.523 85.7209 149.477 85.6891 149.422C85.6649 149.381 85.6491 149.335 85.6425 149.288C85.636 149.24 85.6389 149.192 85.6511 149.146C85.6633 149.099 85.6845 149.056 85.7135 149.018C85.7425 148.98 85.7787 148.948 85.8201 148.923L134.363 120.895C134.446 120.852 134.543 120.842 134.633 120.868C134.723 120.895 134.8 120.955 134.847 121.036C134.894 121.117 134.908 121.213 134.885 121.305C134.863 121.396 134.806 121.475 134.727 121.525L86.1841 149.553C86.129 149.586 86.0662 149.603 86.0021 149.604Z" fill="#EBEBEB"/>
<path d="M81.4486 146.9C81.368 146.9 81.2895 146.874 81.2254 146.825C81.1613 146.776 81.1152 146.707 81.0944 146.63C81.0736 146.552 81.0792 146.469 81.1103 146.395C81.1415 146.32 81.1965 146.259 81.2666 146.219L129.806 118.191C129.847 118.165 129.894 118.147 129.942 118.139C129.991 118.131 130.04 118.133 130.088 118.144C130.136 118.156 130.18 118.177 130.22 118.207C130.259 118.236 130.292 118.273 130.316 118.316C130.341 118.358 130.357 118.405 130.363 118.454C130.369 118.503 130.365 118.552 130.351 118.599C130.337 118.647 130.314 118.691 130.283 118.729C130.252 118.767 130.213 118.798 130.17 118.821L81.6306 146.849C81.5755 146.881 81.5127 146.899 81.4486 146.9Z" fill="#EBEBEB"/>
<path d="M76.8913 144.213C76.8278 144.213 76.7655 144.196 76.7105 144.164C76.6556 144.132 76.61 144.086 76.5783 144.031C76.5541 143.99 76.5382 143.944 76.5317 143.897C76.5252 143.849 76.5281 143.801 76.5403 143.755C76.5524 143.708 76.5736 143.665 76.6026 143.627C76.6317 143.589 76.6679 143.557 76.7093 143.533L125.249 115.505C125.29 115.478 125.336 115.461 125.385 115.453C125.433 115.445 125.483 115.447 125.531 115.458C125.578 115.47 125.623 115.491 125.662 115.521C125.702 115.55 125.735 115.587 125.759 115.63C125.784 115.672 125.799 115.719 125.805 115.768C125.811 115.817 125.807 115.866 125.794 115.913C125.78 115.96 125.757 116.004 125.726 116.042C125.695 116.08 125.656 116.112 125.613 116.134L77.0733 144.162C77.0182 144.195 76.9554 144.213 76.8913 144.213Z" fill="#EBEBEB"/>
<path d="M72.3377 141.527C72.2571 141.528 72.1786 141.501 72.1145 141.452C72.0504 141.404 72.0044 141.335 71.9835 141.257C71.9627 141.179 71.9683 141.097 71.9995 141.022C72.0307 140.948 72.0856 140.886 72.1557 140.846L120.695 112.818C120.737 112.792 120.783 112.774 120.831 112.766C120.88 112.758 120.929 112.76 120.977 112.772C121.025 112.784 121.07 112.805 121.109 112.834C121.148 112.864 121.181 112.901 121.206 112.943C121.23 112.986 121.246 113.033 121.252 113.082C121.258 113.13 121.254 113.18 121.24 113.227C121.226 113.274 121.203 113.318 121.172 113.356C121.141 113.394 121.103 113.425 121.059 113.448L72.5197 141.476C72.4646 141.509 72.4018 141.526 72.3377 141.527Z" fill="#EBEBEB"/>
<path d="M67.7806 138.841C67.7 138.841 67.6215 138.815 67.5574 138.766C67.4933 138.717 67.4472 138.649 67.4264 138.571C67.4056 138.493 67.4112 138.41 67.4424 138.336C67.4735 138.262 67.5285 138.2 67.5986 138.16L116.138 110.132C116.18 110.108 116.225 110.092 116.273 110.086C116.321 110.08 116.369 110.083 116.415 110.096C116.462 110.108 116.505 110.13 116.543 110.159C116.581 110.188 116.613 110.225 116.637 110.267C116.684 110.35 116.697 110.449 116.671 110.542C116.646 110.635 116.585 110.714 116.502 110.762L67.9626 138.79C67.9075 138.822 67.8447 138.84 67.7806 138.841Z" fill="#EBEBEB"/>
<path d="M63.2269 136.154C63.1463 136.155 63.0678 136.129 63.0037 136.08C62.9396 136.031 62.8935 135.962 62.8727 135.884C62.8519 135.806 62.8575 135.724 62.8887 135.649C62.9198 135.575 62.9748 135.513 63.0449 135.474L111.584 107.446C111.667 107.402 111.764 107.392 111.854 107.418C111.945 107.445 112.021 107.505 112.068 107.586C112.115 107.667 112.129 107.763 112.107 107.855C112.084 107.946 112.028 108.025 111.948 108.075L63.4089 136.103C63.3538 136.136 63.291 136.154 63.2269 136.154Z" fill="#EBEBEB"/>
<path d="M58.6693 133.468C58.5887 133.468 58.5102 133.442 58.4461 133.393C58.382 133.345 58.3359 133.276 58.3151 133.198C58.2943 133.12 58.2999 133.038 58.331 132.963C58.3622 132.889 58.4172 132.827 58.4873 132.787L107.027 104.759C107.068 104.735 107.114 104.72 107.162 104.713C107.209 104.707 107.258 104.71 107.304 104.723C107.35 104.735 107.394 104.757 107.432 104.786C107.47 104.816 107.502 104.852 107.525 104.894C107.573 104.978 107.585 105.076 107.56 105.169C107.535 105.262 107.474 105.341 107.391 105.389L58.8513 133.417C58.7962 133.45 58.7334 133.467 58.6693 133.468Z" fill="#EBEBEB"/>
<path d="M54.1156 130.782C54.035 130.782 53.9565 130.756 53.8924 130.707C53.8283 130.658 53.7822 130.59 53.7614 130.512C53.7406 130.434 53.7462 130.351 53.7773 130.277C53.8085 130.203 53.8634 130.141 53.9336 130.101L102.473 102.073C102.557 102.026 102.656 102.013 102.748 102.038C102.841 102.064 102.92 102.125 102.968 102.208C103.016 102.291 103.029 102.39 103.004 102.482C102.98 102.575 102.92 102.654 102.837 102.703L54.2976 130.731C54.2424 130.764 54.1797 130.781 54.1156 130.782Z" fill="#EBEBEB"/>
<path d="M49.5584 128.095C49.4778 128.096 49.3993 128.07 49.3352 128.021C49.2711 127.972 49.2251 127.903 49.2042 127.825C49.1834 127.748 49.189 127.665 49.2202 127.591C49.2514 127.516 49.3063 127.454 49.3764 127.415L97.9158 99.3867C97.9574 99.3626 98.0033 99.347 98.0509 99.3407C98.0985 99.3345 98.1469 99.3377 98.1932 99.3502C98.2396 99.3628 98.283 99.3843 98.321 99.4137C98.3589 99.4431 98.3907 99.4797 98.4145 99.5214C98.462 99.6049 98.4745 99.7039 98.4492 99.7966C98.424 99.8894 98.3631 99.9684 98.2798 100.016L49.7404 128.044C49.6853 128.077 49.6225 128.095 49.5584 128.095Z" fill="#EBEBEB"/>
<path d="M45.0047 125.409C44.9241 125.41 44.8456 125.383 44.7815 125.334C44.7174 125.286 44.6714 125.217 44.6505 125.139C44.6297 125.061 44.6353 124.979 44.6665 124.904C44.6977 124.83 44.7526 124.768 44.8227 124.728L93.3621 96.7003C93.4457 96.6528 93.5447 96.6404 93.6374 96.6656C93.7302 96.6908 93.8092 96.7517 93.8572 96.835C93.9049 96.9181 93.9179 97.0167 93.8934 97.1094C93.8689 97.2021 93.8088 97.2814 93.7261 97.33L45.1867 125.358C45.1316 125.391 45.0688 125.408 45.0047 125.409Z" fill="#EBEBEB"/>
<path d="M40.4476 122.723C40.367 122.723 40.2885 122.697 40.2244 122.648C40.1603 122.599 40.1142 122.531 40.0934 122.453C40.0726 122.375 40.0782 122.292 40.1094 122.218C40.1405 122.144 40.1955 122.082 40.2656 122.042L88.805 94.0141C88.8465 93.9901 88.8924 93.9744 88.94 93.9682C88.9876 93.9619 89.036 93.9652 89.0824 93.9777C89.1287 93.9902 89.1721 94.0118 89.2101 94.0411C89.2481 94.0705 89.2799 94.1071 89.3037 94.1488C89.3509 94.2307 89.3645 94.3279 89.3414 94.4196C89.3183 94.5113 89.2604 94.5904 89.1799 94.6402L40.6296 122.668C40.5754 122.703 40.5122 122.722 40.4476 122.723Z" fill="#EBEBEB"/>
<path d="M35.8939 120.036C35.8133 120.037 35.7348 120.011 35.6707 119.962C35.6066 119.913 35.5605 119.844 35.5397 119.766C35.5189 119.688 35.5245 119.606 35.5557 119.532C35.5868 119.457 35.6418 119.395 35.7119 119.356L84.2513 91.3276C84.3345 91.2841 84.4313 91.2744 84.5214 91.3005C84.6116 91.3267 84.6882 91.3867 84.7352 91.468C84.7821 91.5493 84.7959 91.6455 84.7736 91.7367C84.7512 91.8279 84.6945 91.907 84.6153 91.9573L36.0759 119.985C36.0213 120.019 35.9582 120.037 35.8939 120.036Z" fill="#EBEBEB"/>
<path d="M31.3368 117.35C31.2562 117.351 31.1777 117.324 31.1136 117.276C31.0495 117.227 31.0034 117.158 30.9826 117.08C30.9617 117.002 30.9674 116.92 30.9985 116.845C31.0297 116.771 31.0846 116.709 31.1548 116.669L79.6942 88.6413C79.7357 88.6174 79.7816 88.602 79.8292 88.5958C79.8768 88.5896 79.9251 88.5929 79.9714 88.6054C80.0177 88.6179 80.0611 88.6394 80.0991 88.6687C80.1371 88.698 80.1689 88.7344 80.1928 88.776C80.2167 88.8176 80.2322 88.8635 80.2384 88.9111C80.2445 88.9586 80.2413 89.007 80.2288 89.0533C80.2163 89.0996 80.1948 89.143 80.1655 89.181C80.1362 89.2189 80.0997 89.2508 80.0582 89.2747L31.5188 117.303C31.4633 117.334 31.4005 117.35 31.3368 117.35Z" fill="#EBEBEB"/>
<path d="M26.7831 114.66C26.719 114.66 26.6559 114.644 26.6003 114.612C26.5447 114.58 26.4985 114.534 26.4665 114.478C26.4422 114.437 26.4264 114.391 26.4199 114.344C26.4134 114.296 26.4163 114.248 26.4285 114.202C26.4406 114.155 26.4618 114.112 26.4908 114.074C26.5198 114.036 26.5561 114.003 26.5975 113.979L75.1405 85.9514C75.2245 85.9031 75.3242 85.8902 75.4178 85.9155C75.5113 85.9407 75.5909 86.0021 75.6392 86.0861C75.6875 86.1701 75.7004 86.2698 75.6752 86.3633C75.6499 86.4568 75.5885 86.5365 75.5045 86.5848L26.9615 114.613C26.9071 114.644 26.8457 114.66 26.7831 114.66Z" fill="#EBEBEB"/>
<path d="M95.4372 155.064C95.2432 155.062 95.0551 154.997 94.9017 154.878C94.7482 154.76 94.6379 154.594 94.5876 154.407C94.5372 154.219 94.5496 154.021 94.6228 153.841C94.6961 153.661 94.8261 153.51 94.9931 153.412L146.033 123.902C146.237 123.785 146.479 123.753 146.706 123.814C146.933 123.875 147.126 124.024 147.243 124.228C147.361 124.432 147.392 124.674 147.331 124.901C147.27 125.128 147.121 125.321 146.918 125.438L95.8813 154.933C95.7475 155.016 95.5942 155.061 95.4372 155.064Z" fill="black"/>
<g opacity="0.25">
<path d="M111.115 121.23C110.714 120.622 109.975 120.379 109.346 120.095C109.087 119.978 108.796 119.822 108.49 119.661C108.09 119.021 107.562 117.976 108.265 117.841C108.68 117.761 109.491 118.205 109.946 118.337C110.201 118.413 110.143 118.042 109.964 117.973C109.193 117.67 107.719 116.717 107.416 118.027C107.347 118.437 107.41 118.859 107.595 119.232C107.237 119.077 106.849 119.006 106.459 119.024C106.095 119.057 105.782 119.068 105.655 119.494C105.586 119.727 105.687 119.829 105.702 120.004C105.719 120.094 105.763 120.177 105.828 120.242C105.893 120.307 105.976 120.351 106.066 120.368C105.93 120.349 105.792 120.338 105.655 120.335C105.112 120.317 103.62 119.953 103.274 120.633C103.129 120.914 103.456 121.299 103.409 121.405C103.387 121.456 102.317 121.813 102.138 121.929C102.055 121.98 102.113 122.275 102.066 122.293C101.902 122.388 100.81 122.293 100.49 122.293C99.6232 122.366 97.4792 122.042 97.7595 123.385C97.7887 123.531 97.9051 123.509 97.9342 123.749C97.9395 123.86 97.9616 123.969 97.9998 124.073C97.967 124.073 97.9051 124.095 97.7923 124.255C97.7195 124.357 97.4283 124.324 97.3154 124.459C96.9041 124.976 97.5302 125.154 97.0206 125.478C96.2926 125.93 94.7929 125.012 94.0613 125.518C93.4061 125.97 94.2578 127.265 93.104 127.291C92.8492 127.291 92.9984 127.655 93.1913 127.688C94.2833 127.782 94.1523 127.578 94.3561 126.698C94.6946 125.263 96.8386 126.254 98.0434 125.919C98.1818 125.882 98.1927 125.708 98.1272 125.602C97.8141 125.092 98.1818 124.812 98.6586 124.594C98.6874 124.582 98.7131 124.563 98.7337 124.54C98.7544 124.516 98.7695 124.488 98.7779 124.458C98.7863 124.428 98.7878 124.397 98.7822 124.366C98.7767 124.335 98.7643 124.306 98.746 124.281C98.6149 124.044 98.1599 123.327 98.4402 122.992C98.8594 122.903 99.2859 122.853 99.7142 122.843C100.647 122.778 101.583 122.762 102.517 122.796C102.548 122.795 102.579 122.786 102.606 122.771C102.634 122.756 102.657 122.735 102.675 122.709C102.692 122.683 102.703 122.653 102.707 122.622C102.71 122.591 102.706 122.559 102.695 122.53C102.561 122.228 103.787 122.035 104.039 121.977C104.063 121.968 104.086 121.954 104.105 121.936C104.124 121.919 104.139 121.897 104.15 121.874C104.161 121.85 104.167 121.824 104.168 121.798C104.169 121.772 104.164 121.746 104.155 121.722C103.576 120.284 105.706 120.812 106.59 120.954C106.627 120.962 106.665 120.961 106.701 120.949C106.737 120.938 106.769 120.918 106.794 120.89C106.819 120.862 106.837 120.828 106.844 120.791C106.852 120.754 106.85 120.716 106.838 120.681C106.699 120.197 105.629 119.709 106.896 119.53C107.234 119.528 107.568 119.608 107.868 119.763C108.414 120.69 109.174 121.473 110.085 122.046C110.907 122.497 111.748 122.209 111.115 121.23ZM110.722 121.489C110.984 121.853 110.154 121.558 110.052 121.511C109.56 121.292 109.233 120.753 108.96 120.328C109.218 120.47 109.448 120.597 109.619 120.692C110.052 120.852 110.433 121.128 110.722 121.489Z" fill="black"/>
<path d="M89.4711 130.345C89.311 129.722 89.2928 129.038 89.8752 128.962C90.1518 128.925 89.9553 128.543 89.7441 128.539C88.9615 128.51 88.7176 129.191 88.8196 129.995C88.5088 129.851 88.1828 129.741 87.8477 129.668C87.3381 129.57 87.0105 129.555 86.8431 130.076C86.7411 130.385 86.9886 130.585 86.9704 130.865C86.9413 131.273 87.3344 131.106 86.7375 131.266C86.4931 131.264 86.2493 131.24 86.0095 131.193C85.3907 131.164 85.3361 131.193 84.9575 131.521C84.579 131.848 85.5254 131.997 84.3933 131.819C84.1095 131.72 83.8089 131.678 83.5088 131.695C83.0939 131.79 82.8755 131.906 82.941 132.369C82.9737 132.576 83.4178 132.849 83.4178 132.98C83.3923 133.978 82.3258 133.133 81.9291 132.98C81.9021 132.969 81.8729 132.965 81.8439 132.967C81.8149 132.97 81.7869 132.979 81.7621 132.994C81.7373 133.009 81.7164 133.03 81.7012 133.055C81.6859 133.08 81.6767 133.108 81.6743 133.137C81.6743 133.628 82.0019 133.803 81.2884 133.847C81.2011 133.847 80.7097 133.574 80.5604 133.57C80.1018 133.57 79.6795 134.171 79.0789 134.12C78.9151 134.12 78.8605 134.254 78.9079 134.389C79.0753 134.837 79.3192 135.117 78.4128 135.481C78.4128 135.481 77.3463 135.35 77.3718 135.35C77.1133 135.35 77.2771 135.772 77.4773 135.787C77.8923 135.816 79.2973 136.406 79.7014 135.849C80.0071 135.437 79.4065 134.96 79.5558 134.698C79.4575 134.873 80.3529 134.454 80.4512 134.422C80.6753 134.325 80.9117 134.26 81.1537 134.229C81.2775 134.229 81.3831 134.433 81.5177 134.433C81.6524 134.433 81.8817 134.516 82.0383 134.433C82.1948 134.349 82.2348 134.141 82.2967 134.098C82.4569 133.992 82.0929 133.868 82.4059 133.759C82.6316 133.683 82.8281 133.912 83.0393 133.978C83.3778 134.083 83.891 134.342 84.1786 133.978C84.5426 133.508 83.8655 133.18 83.9311 132.864C84.073 132.154 85.0849 132.689 85.5509 132.376C85.5831 132.351 85.6068 132.316 85.6185 132.277C85.6303 132.238 85.6295 132.196 85.6164 132.158C85.3288 131.178 87.1051 131.947 87.6657 131.841C87.764 131.823 87.8695 131.757 87.855 131.637C87.8404 131.517 87.6329 131.029 87.6366 131.022C87.7749 130.436 88.583 130.501 88.9579 130.6C89.3219 131.79 90.261 132.995 91.2948 132.671C91.3328 132.66 91.366 132.636 91.3891 132.604C91.4122 132.571 91.4238 132.532 91.4222 132.493C91.3639 131.717 90.4285 130.902 89.4711 130.345ZM89.8351 131.328C89.8024 131.266 89.755 131.168 89.7004 131.044C89.9908 131.234 90.2387 131.481 90.4284 131.772C90.6359 132.354 89.937 131.492 89.8388 131.328H89.8351Z" fill="black"/>
<path d="M72.3778 99.7106C71.9774 99.1063 71.2421 98.8624 70.6087 98.5749C70.3503 98.4584 70.0591 98.3019 69.7533 98.1417C69.3566 97.5011 68.8288 96.46 69.5276 96.3217C69.9462 96.2416 70.758 96.6857 71.213 96.8168C71.4641 96.8932 71.4059 96.5219 71.213 96.4528C70.4413 96.147 68.9671 95.1933 68.665 96.5037C68.5997 96.9153 68.662 97.337 68.8433 97.7122C68.4862 97.5549 68.0974 97.4827 67.7076 97.5011C67.3436 97.5338 67.0342 97.5448 66.9068 97.9706C66.8377 98.2036 66.9396 98.3055 66.9542 98.4839C66.9705 98.5744 67.0141 98.6578 67.0792 98.7229C67.1442 98.7879 67.2276 98.8315 67.3182 98.8479C67.1818 98.8295 67.0444 98.8197 66.9068 98.8188C66.3608 98.7969 64.8721 98.4329 64.5226 99.1136C64.3807 99.3939 64.7083 99.7797 64.661 99.8889C64.6391 99.9362 63.569 100.293 63.3906 100.409C63.3069 100.46 63.3615 100.755 63.3178 100.773C63.154 100.868 62.0584 100.773 61.7417 100.773C60.8754 100.843 58.7314 100.519 59.0117 101.865C59.0408 102.011 59.1573 101.989 59.1828 102.229C59.1904 102.341 59.2124 102.451 59.2483 102.557C59.2192 102.557 59.1573 102.579 59.0444 102.735C58.9316 102.892 58.6804 102.805 58.564 102.943C58.1526 103.456 58.7824 103.638 58.2691 103.958C57.5411 104.41 56.0451 103.493 55.3098 104.002C54.6582 104.45 55.5064 105.749 54.3561 105.771C54.1013 105.771 54.2469 106.135 54.4398 106.168C55.5318 106.263 55.4008 106.059 55.6083 105.181C55.9468 103.744 58.0908 104.734 59.292 104.399C59.3213 104.387 59.3475 104.369 59.3685 104.346C59.3896 104.322 59.405 104.294 59.4135 104.264C59.4219 104.234 59.4232 104.202 59.4173 104.171C59.4114 104.14 59.3984 104.111 59.3793 104.086C59.0626 103.576 59.4303 103.292 59.9071 103.074C59.9359 103.062 59.9616 103.043 59.9823 103.02C60.0029 102.996 60.018 102.969 60.0264 102.938C60.0348 102.908 60.0363 102.877 60.0308 102.846C60.0252 102.815 60.0128 102.786 59.9945 102.761C59.8671 102.524 59.4084 101.811 59.6887 101.472C60.1094 101.385 60.537 101.336 60.9664 101.323C61.8979 101.258 62.8323 101.242 63.7655 101.276C63.7968 101.275 63.8274 101.266 63.8549 101.251C63.8823 101.236 63.9059 101.215 63.9236 101.189C63.9413 101.163 63.9527 101.133 63.9568 101.102C63.961 101.071 63.9578 101.04 63.9475 101.01C63.8128 100.708 65.0213 100.519 65.2907 100.457C65.3152 100.448 65.3377 100.434 65.3568 100.416C65.376 100.399 65.3914 100.377 65.4023 100.354C65.4131 100.33 65.4191 100.304 65.42 100.278C65.4208 100.252 65.4165 100.226 65.4072 100.202C64.8284 98.7642 66.9578 99.292 67.8423 99.4339C67.8789 99.4424 67.9171 99.4409 67.9529 99.4296C67.9887 99.4184 68.0209 99.3978 68.0461 99.37C68.0714 99.3422 68.0887 99.3082 68.0964 99.2714C68.1041 99.2346 68.1018 99.1965 68.0898 99.1609C67.9515 98.6768 66.8814 98.189 68.1481 98.0143C68.4865 98.0092 68.8207 98.0893 69.12 98.2473C69.6668 99.1714 70.4253 99.9524 71.3331 100.526C72.1739 100.981 73.0257 100.69 72.3778 99.7106ZM71.9883 99.969C72.2504 100.333 71.4204 100.038 71.3149 99.9908C70.8235 99.7724 70.4995 99.2337 70.2229 98.8115C70.4813 98.9498 70.7143 99.0808 70.8817 99.1755C71.3137 99.3385 71.6953 99.6121 71.9883 99.969Z" fill="black"/>
<path d="M108.396 138.062C107.995 137.457 107.256 137.213 106.627 136.929C106.368 136.813 106.077 136.653 105.771 136.493C105.371 135.852 104.843 134.811 105.546 134.673C105.964 134.593 106.776 135.037 107.227 135.168C107.482 135.241 107.424 134.869 107.245 134.804C106.474 134.502 105 133.544 104.697 134.858C104.631 135.269 104.693 135.69 104.876 136.063C104.518 135.908 104.13 135.836 103.74 135.852C103.376 135.888 103.067 135.896 102.939 136.322C102.867 136.558 102.968 136.66 102.983 136.835C102.998 136.926 103.042 137.01 103.107 137.075C103.172 137.14 103.256 137.183 103.347 137.199C103.303 137.199 103.187 137.181 102.936 137.17C102.39 137.148 100.897 136.788 100.551 137.465C100.41 137.745 100.737 138.134 100.69 138.24C100.668 138.287 99.5978 138.648 99.4158 138.76C99.3321 138.811 99.3903 139.106 99.343 139.124C99.1828 139.215 98.0872 139.124 97.7705 139.124C96.9006 139.194 94.7566 138.873 95.0369 140.216C95.0696 140.362 95.1825 140.344 95.2116 140.58C95.219 140.691 95.241 140.8 95.2771 140.904C95.2443 140.904 95.1861 140.926 95.0733 141.086C95.0005 141.185 94.7093 141.156 94.5928 141.29C94.1815 141.807 94.8112 141.985 94.2979 142.306C93.5699 142.757 92.0739 141.843 91.3386 142.349C90.6871 142.801 91.5352 144.097 90.3813 144.118C90.1265 144.118 90.2757 144.482 90.4687 144.515C91.5607 144.61 91.4296 144.41 91.6371 143.529C91.972 142.091 94.1159 143.081 95.3208 142.75C95.3497 142.737 95.3754 142.718 95.396 142.695C95.4167 142.671 95.4317 142.643 95.4401 142.612C95.4485 142.582 95.45 142.55 95.4444 142.519C95.4389 142.488 95.4265 142.459 95.4081 142.433C95.0915 141.924 95.4591 141.643 95.9359 141.421C95.9647 141.409 95.9904 141.391 96.0111 141.367C96.0317 141.344 96.0468 141.316 96.0552 141.286C96.0636 141.256 96.0651 141.224 96.0596 141.193C96.0541 141.163 96.0417 141.133 96.0233 141.108C95.8959 140.875 95.4373 140.158 95.7175 139.82C96.1381 139.732 96.5657 139.683 96.9952 139.674C97.9267 139.608 98.861 139.591 99.7943 139.623C99.8256 139.622 99.8563 139.614 99.8837 139.599C99.9111 139.584 99.9345 139.562 99.952 139.536C99.9694 139.51 99.9804 139.48 99.984 139.449C99.9876 139.418 99.9837 139.387 99.9727 139.357C99.838 139.059 101.065 138.866 101.32 138.804C101.344 138.795 101.366 138.781 101.385 138.763C101.403 138.745 101.418 138.724 101.429 138.7C101.439 138.676 101.445 138.651 101.446 138.625C101.446 138.599 101.442 138.573 101.432 138.549C100.854 137.115 102.987 137.643 103.871 137.781C103.907 137.79 103.945 137.788 103.98 137.777C104.016 137.766 104.048 137.746 104.073 137.719C104.098 137.691 104.115 137.657 104.122 137.621C104.13 137.585 104.127 137.547 104.115 137.512C103.977 137.024 102.91 136.54 104.177 136.362C104.515 136.36 104.848 136.44 105.149 136.595C105.695 137.52 106.453 138.303 107.362 138.877C108.188 139.332 109.04 139.048 108.396 138.062ZM108.003 138.324C108.268 138.688 107.435 138.389 107.333 138.345C106.841 138.123 106.514 137.588 106.223 137.162C106.481 137.304 106.714 137.432 106.881 137.508C107.322 137.672 107.71 137.952 108.003 138.32V138.324Z" fill="black"/>
<path d="M121.696 127.069C121.539 126.443 121.517 125.758 122.1 125.682C122.376 125.646 122.18 125.267 121.972 125.26C121.186 125.234 120.942 125.915 121.044 126.734C120.734 126.586 120.408 126.475 120.072 126.403C119.566 126.308 119.235 126.29 119.068 126.81C118.966 127.12 119.217 127.32 119.195 127.6C119.166 128.008 119.577 127.84 118.962 128.001C118.718 128.001 118.474 127.977 118.234 127.928C117.615 127.899 117.561 127.928 117.182 128.255C116.804 128.583 117.75 128.736 116.622 128.554C116.337 128.455 116.035 128.413 115.733 128.43C115.319 128.525 115.1 128.645 115.166 129.104C115.198 129.311 115.646 129.584 115.642 129.719C115.617 130.712 114.55 129.868 114.154 129.719C114.127 129.708 114.098 129.703 114.069 129.706C114.04 129.708 114.012 129.717 113.987 129.733C113.962 129.748 113.941 129.769 113.926 129.793C113.911 129.818 113.901 129.846 113.899 129.875C113.881 130.367 114.227 130.541 113.513 130.585C113.426 130.585 112.934 130.316 112.785 130.312C112.323 130.312 111.901 130.909 111.3 130.862C111.136 130.862 111.082 130.996 111.129 131.127C111.296 131.575 111.54 131.855 110.634 132.238C110.616 132.238 109.571 132.103 109.593 132.107C109.334 132.107 109.498 132.525 109.702 132.543C110.113 132.572 111.522 133.162 111.926 132.605C112.228 132.194 111.628 131.717 111.777 131.455C111.679 131.626 112.574 131.207 112.672 131.175C112.896 131.078 113.133 131.014 113.375 130.985C113.499 130.985 113.604 131.186 113.739 131.186C113.873 131.186 114.103 131.269 114.256 131.186C114.409 131.102 114.452 130.894 114.514 130.851C114.674 130.749 114.31 130.621 114.623 130.512C114.849 130.436 115.046 130.665 115.257 130.731C115.595 130.84 116.108 131.095 116.4 130.731C116.764 130.261 116.083 129.933 116.148 129.617C116.294 128.889 117.306 129.446 117.768 129.129C117.801 129.104 117.825 129.07 117.837 129.031C117.848 128.991 117.847 128.949 117.834 128.911C117.546 127.931 119.326 128.7 119.883 128.598C119.985 128.576 120.091 128.51 120.076 128.394C120.061 128.277 119.854 127.786 119.854 127.779C119.992 127.189 120.804 127.254 121.175 127.353C121.539 128.547 122.478 129.748 123.512 129.428C123.551 129.416 123.585 129.392 123.609 129.359C123.633 129.326 123.645 129.286 123.643 129.246C123.574 128.437 122.668 127.622 121.696 127.069ZM122.06 128.048C122.014 127.956 121.974 127.861 121.94 127.764C122.231 127.952 122.479 128.2 122.668 128.492C122.853 129.074 122.165 128.215 122.067 128.048H122.06Z" fill="black"/>
</g>
<path d="M120.706 122.617L127.473 118.711C127.508 118.69 127.549 118.678 127.591 118.678C127.633 118.678 127.673 118.69 127.709 118.711L134.523 122.643C134.559 122.664 134.588 122.694 134.608 122.73C134.629 122.766 134.639 122.807 134.639 122.848C134.639 122.89 134.629 122.93 134.608 122.966C134.588 123.002 134.559 123.032 134.523 123.054L127.764 126.96C127.728 126.981 127.687 126.992 127.645 126.992C127.604 126.992 127.563 126.981 127.527 126.96L120.706 123.032C120.67 123.01 120.641 122.98 120.621 122.943C120.6 122.907 120.589 122.866 120.589 122.825C120.589 122.784 120.599 122.744 120.618 122.708C120.639 122.671 120.669 122.639 120.706 122.617ZM133.93 122.85L127.589 119.192L121.299 122.832L127.64 126.49L133.93 122.85Z" fill="#455A64"/>
<path d="M108.148 115.366L114.911 111.46C114.948 111.439 114.989 111.428 115.031 111.428C115.073 111.428 115.115 111.439 115.151 111.46L121.962 115.388C121.998 115.409 122.028 115.439 122.049 115.475C122.07 115.511 122.081 115.552 122.081 115.594C122.081 115.636 122.07 115.677 122.049 115.713C122.028 115.749 121.998 115.779 121.962 115.799L115.199 119.705C115.163 119.727 115.122 119.738 115.08 119.738C115.039 119.738 114.998 119.727 114.962 119.705L108.148 115.774C108.112 115.752 108.082 115.722 108.061 115.686C108.04 115.649 108.029 115.608 108.028 115.566C108.027 115.525 108.038 115.485 108.061 115.45C108.082 115.415 108.112 115.386 108.148 115.366ZM121.368 115.599L115.024 111.941L108.734 115.581L115.071 119.239L121.368 115.599Z" fill="#455A64"/>
<path d="M95.2734 107.93L102.037 104.028C102.072 104.006 102.113 103.995 102.155 103.995C102.197 103.995 102.237 104.006 102.273 104.028L109.087 107.959C109.123 107.98 109.153 108.009 109.174 108.045C109.195 108.081 109.207 108.121 109.207 108.163C109.208 108.205 109.197 108.247 109.176 108.283C109.155 108.32 109.124 108.35 109.087 108.37L102.324 112.276C102.288 112.297 102.246 112.309 102.204 112.309C102.162 112.309 102.12 112.297 102.084 112.276L95.2734 108.345C95.2375 108.323 95.2076 108.293 95.1866 108.257C95.1656 108.22 95.1541 108.179 95.1533 108.137C95.153 108.095 95.1643 108.053 95.1861 108.017C95.2084 107.982 95.2383 107.952 95.2734 107.93ZM108.494 108.163L102.157 104.523L95.8668 108.163L102.204 111.821L108.494 108.163Z" fill="#455A64"/>
<path d="M82.3984 100.497L89.1797 96.5911C89.216 96.5714 89.2567 96.561 89.298 96.561C89.3394 96.561 89.38 96.5714 89.4163 96.5911L96.2304 100.526C96.2666 100.546 96.2967 100.576 96.3178 100.612C96.3389 100.648 96.3502 100.688 96.3505 100.73C96.3504 100.772 96.3393 100.813 96.3182 100.85C96.2971 100.886 96.2669 100.916 96.2304 100.937L89.4491 104.832C89.4127 104.854 89.3712 104.865 89.329 104.865C89.2867 104.865 89.2453 104.854 89.2089 104.832L82.3984 100.897C82.371 100.882 82.3469 100.862 82.3275 100.837C82.3082 100.812 82.294 100.784 82.2859 100.754C82.2777 100.724 82.2757 100.692 82.2801 100.661C82.2844 100.63 82.2949 100.6 82.3111 100.573C82.3322 100.54 82.3625 100.513 82.3984 100.497ZM95.6189 100.73L89.2817 97.0716L82.9917 100.712L89.329 104.352L95.6189 100.73Z" fill="#455A64"/>
<path d="M69.5237 93.0641L76.2905 89.1584C76.3262 89.1369 76.3671 89.1255 76.4088 89.1255C76.4505 89.1255 76.4914 89.1369 76.5271 89.1584L83.3557 93.0932C83.3914 93.1138 83.421 93.1436 83.4415 93.1794C83.462 93.2152 83.4726 93.2558 83.4722 93.297C83.4721 93.3387 83.4614 93.3796 83.441 93.416C83.4206 93.4523 83.3912 93.4828 83.3557 93.5045L76.589 97.4102C76.5527 97.43 76.512 97.4403 76.4707 97.4403C76.4293 97.4403 76.3887 97.43 76.3524 97.4102L69.5237 93.4754C69.4882 93.4545 69.4588 93.4247 69.4384 93.3889C69.418 93.3532 69.4072 93.3127 69.4072 93.2716C69.4069 93.2293 69.4182 93.1877 69.44 93.1514C69.459 93.1149 69.488 93.0846 69.5237 93.0641ZM82.7478 93.297L76.4033 89.6388L70.117 93.2788L76.4397 96.9298L82.7478 93.297Z" fill="#455A64"/>
<path d="M94.6034 96.2817L99.5903 108.137C99.6228 108.212 99.6308 108.296 99.6131 108.376C99.5954 108.456 99.5528 108.529 99.4915 108.583C99.4302 108.638 99.3532 108.671 99.2716 108.68C99.19 108.688 99.1079 108.67 99.037 108.629L87.8003 102.215L94.6034 96.2817Z" fill="#FFA8A7"/>
<path d="M99.0369 108.629C99.1078 108.67 99.1899 108.688 99.2715 108.68C99.3531 108.671 99.4301 108.638 99.4914 108.583C99.5527 108.529 99.5953 108.456 99.613 108.376C99.6308 108.296 99.6228 108.213 99.5902 108.137L98.6147 105.822C98.4786 106.196 98.2421 106.525 97.9313 106.772C97.6205 107.02 97.2473 107.178 96.8529 107.227L96.6309 107.256L99.0369 108.629Z" fill="black"/>
<path d="M47.0435 56.2273L47.8333 57.1191L48.7834 58.2111L87.8005 102.215C89.2456 102.339 90.6841 101.911 91.8264 101.017C93.6063 99.7362 94.8003 97.7124 94.6001 96.2855L55.6047 52.2924L53.7847 50.2358C54.8877 51.6336 48.1719 57.6141 47.0435 56.2273Z" fill="black"/>
<path opacity="0.3" d="M47.0435 56.2273L47.8333 57.1191L48.7834 58.2111L87.8005 102.215C89.2456 102.339 90.6841 101.911 91.8264 101.017C93.6063 99.7362 94.8003 97.7124 94.6001 96.2855L55.6047 52.2924L53.7847 50.2358C54.8877 51.6336 48.1719 57.6141 47.0435 56.2273Z" fill="white"/>
<path opacity="0.4" d="M92.8202 100.173C92.5144 100.48 92.1845 100.762 91.8338 101.017C90.6926 101.91 89.2555 102.338 87.8116 102.215L51.8447 61.6543C52.3725 62.1748 53.8904 61.4614 55.3865 60.3548C55.8141 60.0417 56.218 59.6974 56.5949 59.3247L92.8202 100.173Z" fill="black"/>
<path d="M50.0391 59.6305L51.8081 61.6143C52.2995 62.2076 53.8574 61.4869 55.3862 60.3548C57.4246 58.8588 59.1827 56.3763 58.5312 55.5901L57.2281 54.1341L56.7549 53.6208C57.4064 54.4071 55.6629 56.8968 53.6135 58.3856C52.1575 59.4776 50.6469 60.1729 50.1009 59.696C50.075 59.6798 50.0537 59.6573 50.0391 59.6305Z" fill="#EBEBEB"/>
<path d="M50.4869 60.122C51.6298 61.4979 58.3456 55.481 57.2027 54.1014L55.4409 52.1067C56.5839 53.4862 49.8681 59.5068 48.7251 58.1273L50.4869 60.122Z" fill="black"/>
<path d="M47.0435 56.2273L48.7834 58.1965C49.8972 59.5579 56.4274 53.803 55.6047 52.2924C55.5906 52.261 55.5722 52.2316 55.5501 52.2051L53.7811 50.2322C54.8877 51.6336 48.1719 57.6141 47.0435 56.2273Z" fill="#EBEBEB"/>
<path opacity="0.15" d="M56.5948 59.3321C56.2179 59.7048 55.8139 60.0491 55.3863 60.3622C53.8975 61.4542 52.3797 62.1822 51.8482 61.6653L48.7761 58.2001L47.8297 57.1081L47.0361 56.2163C47.6695 56.9916 50.0501 55.4591 51.83 53.7156C51.9392 53.752 51.9429 53.8284 51.83 53.9449L56.5948 59.3321Z" fill="black"/>
<path opacity="0.15" d="M99.4631 108.596C99.4039 108.646 99.3304 108.675 99.2531 108.681C99.1759 108.686 99.099 108.666 99.0336 108.625L87.8042 102.215C89.2481 102.338 90.6852 101.911 91.8264 101.017C92.1797 100.763 92.512 100.48 92.8201 100.173C95.2225 103.951 97.5266 107.238 99.4631 108.596Z" fill="black"/>
<path d="M43.316 51.9499L47.047 56.2269C47.5311 56.8202 49.0745 56.1177 50.5996 55.0002C52.6417 53.5114 54.4216 51.0326 53.7846 50.2354L50.0245 45.9329C48.543 44.2731 44.8047 46.8575 43.4106 49.3436C42.8719 50.2609 42.7481 51.2 43.316 51.9499Z" fill="#FFA8A7"/>
<path d="M46.3659 51.9065C48.3897 50.9201 50.1223 48.7543 50.2425 47.0726C50.2789 46.8206 50.2539 46.5636 50.1696 46.3234C50.0853 46.0832 49.9442 45.8669 49.7583 45.693C48.1385 44.5428 44.7206 46.9816 43.4029 49.333C42.8824 50.243 42.7586 51.153 43.2828 51.9065C43.847 52.5289 44.9972 52.5763 46.3659 51.9065Z" fill="#F28F8F"/>
</svg>
